M48
; DRILL file {KiCad 8.0.5} date 2024-10-24T20:07:57-0600
; FORMAT={-:-/ absolute / metric / decimal}
; #@! TF.CreationDate,2024-10-24T20:07:57-06:00
; #@! TF.GenerationSoftware,Kicad,Pcbnew,8.0.5
; #@! TF.FileFunction,MixedPlating,1,2
FMAT,2
METRIC
; #@! TA.AperFunction,Plated,PTH,ViaDrill
T1C0.300
; #@! TA.AperFunction,Plated,PTH,ComponentDrill
T2C1.016
%
G90
G05
T1
X3.81Y22.225
X3.81Y20.32
X4.445Y33.655
X10.16Y41.275
X12.7Y18.33
X27.94Y33.655
X29.21Y5.715
X41.91Y47.625
X44.45Y34.925
X46.99Y21.59
X49.615Y9.61
X51.267Y18.415
X52.07Y43.815
X52.07Y31.115
X52.07Y22.225
X52.07Y18.415
X52.175Y5.61
X54.61Y41.275
X64.77Y45.72
X64.77Y33.02
X64.77Y20.32
X64.77Y7.62
T2
X10.16Y50.8
X12.7Y50.8
X15.24Y50.8
X17.78Y50.8
X19.05Y2.54
X20.32Y50.8
X21.59Y2.54
X22.86Y50.8
X24.13Y2.54
X25.4Y50.8
X26.67Y2.54
X27.94Y50.8
X29.21Y2.54
X30.48Y50.8
X31.75Y2.54
X33.02Y50.8
X34.29Y2.54
X36.83Y50.8
X36.83Y2.54
X39.37Y50.8
X41.91Y50.8
X41.91Y2.54
X44.45Y50.8
X44.45Y2.54
X46.99Y50.8
X46.99Y2.54
X49.53Y50.8
X49.53Y2.54
X52.07Y50.8
X52.07Y2.54
X54.61Y50.8
X54.61Y2.54
M30
