%TF.GenerationSoftware,KiCad,Pcbnew,8.0.5*%
%TF.CreationDate,2024-10-24T20:07:57-06:00*%
%TF.ProjectId,Diorama_Controller,44696f72-616d-4615-9f43-6f6e74726f6c,v10*%
%TF.SameCoordinates,Original*%
%TF.FileFunction,Copper,L1,Top*%
%TF.FilePolarity,Positive*%
%FSLAX46Y46*%
G04 Gerber Fmt 4.6, Leading zero omitted, Abs format (unit mm)*
G04 Created by KiCad (PCBNEW 8.0.5) date 2024-10-24 20:07:57*
%MOMM*%
%LPD*%
G01*
G04 APERTURE LIST*
G04 Aperture macros list*
%AMRoundRect*
0 Rectangle with rounded corners*
0 $1 Rounding radius*
0 $2 $3 $4 $5 $6 $7 $8 $9 X,Y pos of 4 corners*
0 Add a 4 corners polygon primitive as box body*
4,1,4,$2,$3,$4,$5,$6,$7,$8,$9,$2,$3,0*
0 Add four circle primitives for the rounded corners*
1,1,$1+$1,$2,$3*
1,1,$1+$1,$4,$5*
1,1,$1+$1,$6,$7*
1,1,$1+$1,$8,$9*
0 Add four rect primitives between the rounded corners*
20,1,$1+$1,$2,$3,$4,$5,0*
20,1,$1+$1,$4,$5,$6,$7,0*
20,1,$1+$1,$6,$7,$8,$9,0*
20,1,$1+$1,$8,$9,$2,$3,0*%
G04 Aperture macros list end*
%ADD10C,0.300000*%
%TA.AperFunction,SMDPad,CuDef*%
%ADD11RoundRect,0.200000X-0.275000X0.200000X-0.275000X-0.200000X0.275000X-0.200000X0.275000X0.200000X0*%
%TD*%
%TA.AperFunction,SMDPad,CuDef*%
%ADD12R,0.900000X0.800000*%
%TD*%
%TA.AperFunction,SMDPad,CuDef*%
%ADD13R,4.600000X1.000000*%
%TD*%
%TA.AperFunction,SMDPad,CuDef*%
%ADD14R,3.400000X1.600000*%
%TD*%
%TA.AperFunction,SMDPad,CuDef*%
%ADD15RoundRect,0.200000X0.275000X-0.200000X0.275000X0.200000X-0.275000X0.200000X-0.275000X-0.200000X0*%
%TD*%
%TA.AperFunction,ComponentPad*%
%ADD16C,1.879600*%
%TD*%
%TA.AperFunction,ViaPad*%
%ADD17C,0.600000*%
%TD*%
%TA.AperFunction,Conductor*%
%ADD18C,0.406400*%
%TD*%
G04 APERTURE END LIST*
D10*
G36*
X4539362Y2849465D02*
G01*
X4576366Y2812461D01*
X4629544Y2706103D01*
X4692501Y2454279D01*
X4692501Y2134065D01*
X4629544Y1882241D01*
X4576365Y1775883D01*
X4539360Y1738878D01*
X4449948Y1694172D01*
X4377911Y1694172D01*
X4288497Y1738879D01*
X4251493Y1775883D01*
X4198312Y1882243D01*
X4135358Y2134064D01*
X4135358Y2454280D01*
X4198312Y2706102D01*
X4251493Y2812462D01*
X4288497Y2849465D01*
X4377911Y2894172D01*
X4449948Y2894172D01*
X4539362Y2849465D01*
G37*
G36*
X9325075Y2278037D02*
G01*
X9362078Y2241033D01*
X9406786Y2151619D01*
X9406786Y1865297D01*
X9362078Y1775883D01*
X9325075Y1738879D01*
X9235662Y1694172D01*
X9020767Y1694172D01*
X8931353Y1738879D01*
X8894348Y1775884D01*
X8849643Y1865296D01*
X8849643Y2151620D01*
X8894348Y2241032D01*
X8931353Y2278037D01*
X9020767Y2322743D01*
X9235662Y2322743D01*
X9325075Y2278037D01*
G37*
G36*
X13967932Y2849465D02*
G01*
X14004936Y2812461D01*
X14058114Y2706103D01*
X14121071Y2454279D01*
X14121071Y2134065D01*
X14058114Y1882241D01*
X14004935Y1775883D01*
X13967930Y1738878D01*
X13878518Y1694172D01*
X13806481Y1694172D01*
X13717067Y1738879D01*
X13680063Y1775883D01*
X13626882Y1882243D01*
X13563928Y2134064D01*
X13563928Y2454280D01*
X13626882Y2706102D01*
X13680063Y2812462D01*
X13717067Y2849465D01*
X13806481Y2894172D01*
X13878518Y2894172D01*
X13967932Y2849465D01*
G37*
G36*
X17513426Y1227505D02*
G01*
X2241298Y1227505D01*
X2241298Y2634361D01*
X2407965Y2634361D01*
X2412114Y2575981D01*
X2438288Y2523632D01*
X2482503Y2485285D01*
X2538026Y2466778D01*
X2596406Y2470927D01*
X2623869Y2481436D01*
X2766726Y2552865D01*
X2779319Y2560793D01*
X2782979Y2562308D01*
X2787098Y2565690D01*
X2791612Y2568530D01*
X2794208Y2571524D01*
X2805710Y2580963D01*
X2835358Y2610611D01*
X2835358Y1694172D01*
X2556787Y1694172D01*
X2527523Y1691290D01*
X2473451Y1668892D01*
X2432067Y1627508D01*
X2409669Y1573436D01*
X2409669Y1514908D01*
X2432067Y1460836D01*
X2473451Y1419452D01*
X2527523Y1397054D01*
X2556787Y1394172D01*
X3413930Y1394172D01*
X3443194Y1397054D01*
X3497266Y1419452D01*
X3538650Y1460836D01*
X3561048Y1514908D01*
X3561048Y1573436D01*
X3538650Y1627508D01*
X3497266Y1668892D01*
X3443194Y1691290D01*
X3413930Y1694172D01*
X3135358Y1694172D01*
X3135358Y2472743D01*
X3835358Y2472743D01*
X3835358Y2115600D01*
X3835860Y2110497D01*
X3835535Y2108309D01*
X3837154Y2097359D01*
X3838240Y2086336D01*
X3839087Y2084292D01*
X3839837Y2079220D01*
X3911265Y1793506D01*
X3912036Y1791348D01*
X3912113Y1790267D01*
X3916771Y1778093D01*
X3921158Y1765815D01*
X3921802Y1764945D01*
X3922622Y1762804D01*
X3994051Y1619947D01*
X4001978Y1607354D01*
X4003494Y1603694D01*
X4006875Y1599575D01*
X4009716Y1595061D01*
X4012709Y1592465D01*
X4022149Y1580963D01*
X4093578Y1509534D01*
X4105082Y1500093D01*
X4107677Y1497101D01*
X4112186Y1494263D01*
X4116309Y1490879D01*
X4119970Y1489363D01*
X4132562Y1481436D01*
X4275420Y1410008D01*
X4302883Y1399498D01*
X4308258Y1399117D01*
X4313237Y1397054D01*
X4342501Y1394172D01*
X4485358Y1394172D01*
X4514622Y1397054D01*
X4519600Y1399117D01*
X4524976Y1399498D01*
X4552440Y1410008D01*
X4695297Y1481436D01*
X4707890Y1489364D01*
X4711550Y1490879D01*
X4715669Y1494261D01*
X4720183Y1497101D01*
X4722779Y1500095D01*
X4734281Y1509534D01*
X4805710Y1580963D01*
X4815151Y1592468D01*
X4818143Y1595062D01*
X4820981Y1599572D01*
X4824365Y1603694D01*
X4825881Y1607356D01*
X4833808Y1619947D01*
X4905236Y1762805D01*
X4906053Y1764942D01*
X4906700Y1765814D01*
X4911089Y1778101D01*
X4915746Y1790268D01*
X4915822Y1791350D01*
X4916593Y1793505D01*
X4988022Y2079219D01*
X4988772Y2084292D01*
X4989619Y2086336D01*
X4990704Y2097356D01*
X4992324Y2108308D01*
X4991998Y2110497D01*
X4992501Y2115600D01*
X4992501Y2144864D01*
X5338239Y2144864D01*
X5338239Y2086336D01*
X5360637Y2032264D01*
X5402021Y1990880D01*
X5456093Y1968482D01*
X5485357Y1965600D01*
X6628215Y1965600D01*
X6657479Y1968482D01*
X6711551Y1990880D01*
X6752935Y2032264D01*
X6775333Y2086336D01*
X6775333Y2144864D01*
X6752935Y2198936D01*
X6711551Y2240320D01*
X6657479Y2262718D01*
X6628215Y2265600D01*
X5485357Y2265600D01*
X5456093Y2262718D01*
X5402021Y2240320D01*
X5360637Y2198936D01*
X5338239Y2144864D01*
X4992501Y2144864D01*
X4992501Y2472743D01*
X4991998Y2477847D01*
X4992324Y2480035D01*
X4990704Y2490988D01*
X4989619Y2502007D01*
X4988772Y2504052D01*
X4988022Y2509124D01*
X4956713Y2634361D01*
X7122250Y2634361D01*
X7126399Y2575981D01*
X7152573Y2523632D01*
X7196788Y2485285D01*
X7252311Y2466778D01*
X7310691Y2470927D01*
X7338154Y2481436D01*
X7481011Y2552865D01*
X7493604Y2560793D01*
X7497264Y2562308D01*
X7501383Y2565690D01*
X7505897Y2568530D01*
X7508493Y2571524D01*
X7519995Y2580963D01*
X7549643Y2610611D01*
X7549643Y1694172D01*
X7271072Y1694172D01*
X7241808Y1691290D01*
X7187736Y1668892D01*
X7146352Y1627508D01*
X7123954Y1573436D01*
X7123954Y1514908D01*
X7146352Y1460836D01*
X7187736Y1419452D01*
X7241808Y1397054D01*
X7271072Y1394172D01*
X8128215Y1394172D01*
X8157479Y1397054D01*
X8211551Y1419452D01*
X8252935Y1460836D01*
X8275333Y1514908D01*
X8275333Y1573436D01*
X8252935Y1627508D01*
X8211551Y1668892D01*
X8157479Y1691290D01*
X8128215Y1694172D01*
X7849643Y1694172D01*
X7849643Y2401315D01*
X8549643Y2401315D01*
X8549643Y1829886D01*
X8552525Y1800622D01*
X8554587Y1795644D01*
X8554969Y1790268D01*
X8565479Y1762804D01*
X8636907Y1619947D01*
X8644834Y1607354D01*
X8646350Y1603694D01*
X8649731Y1599575D01*
X8652572Y1595061D01*
X8655565Y1592465D01*
X8665005Y1580963D01*
X8736434Y1509534D01*
X8747938Y1500093D01*
X8750533Y1497101D01*
X8755042Y1494263D01*
X8759165Y1490879D01*
X8762826Y1489363D01*
X8775418Y1481436D01*
X8918276Y1410008D01*
X8945739Y1399498D01*
X8951114Y1399117D01*
X8956093Y1397054D01*
X8985357Y1394172D01*
X9271071Y1394172D01*
X9300335Y1397054D01*
X9305313Y1399117D01*
X9310689Y1399498D01*
X9338152Y1410008D01*
X9481011Y1481436D01*
X9493605Y1489365D01*
X9497265Y1490880D01*
X9501385Y1494262D01*
X9505896Y1497101D01*
X9508490Y1500093D01*
X9519996Y1509535D01*
X9583895Y1573435D01*
X11766810Y1573435D01*
X11766810Y1514909D01*
X11789207Y1460837D01*
X11830593Y1419451D01*
X11853391Y1410008D01*
X11884664Y1397054D01*
X11913928Y1394172D01*
X12842500Y1394172D01*
X12871764Y1397054D01*
X12925836Y1419452D01*
X12967220Y1460836D01*
X12989618Y1514908D01*
X12989618Y1573436D01*
X12967220Y1627508D01*
X12925836Y1668892D01*
X12871764Y1691290D01*
X12842500Y1694172D01*
X12276060Y1694172D01*
X12877137Y2295249D01*
X12895792Y2317979D01*
X12897855Y2322961D01*
X12901385Y2327030D01*
X12913373Y2353880D01*
X12952994Y2472743D01*
X13263928Y2472743D01*
X13263928Y2115600D01*
X13264430Y2110497D01*
X13264105Y2108309D01*
X13265724Y2097359D01*
X13266810Y2086336D01*
X13267657Y2084292D01*
X13268407Y2079220D01*
X13339835Y1793506D01*
X13340606Y1791348D01*
X13340683Y1790267D01*
X13345341Y1778093D01*
X13349728Y1765815D01*
X13350372Y1764945D01*
X13351192Y1762804D01*
X13422621Y1619947D01*
X13430548Y1607354D01*
X13432064Y1603694D01*
X13435445Y1599575D01*
X13438286Y1595061D01*
X13441279Y1592465D01*
X13450719Y1580963D01*
X13522148Y1509534D01*
X13533652Y1500093D01*
X13536247Y1497101D01*
X13540756Y1494263D01*
X13544879Y1490879D01*
X13548540Y1489363D01*
X13561132Y1481436D01*
X13703990Y1410008D01*
X13731453Y1399498D01*
X13736828Y1399117D01*
X13741807Y1397054D01*
X13771071Y1394172D01*
X13913928Y1394172D01*
X13943192Y1397054D01*
X13948170Y1399117D01*
X13953546Y1399498D01*
X13981010Y1410008D01*
X14123867Y1481436D01*
X14136460Y1489364D01*
X14140120Y1490879D01*
X14144239Y1494261D01*
X14148753Y1497101D01*
X14151349Y1500095D01*
X14162851Y1509534D01*
X14226752Y1573435D01*
X14623952Y1573435D01*
X14623952Y1514909D01*
X14646349Y1460837D01*
X14687735Y1419451D01*
X14710533Y1410008D01*
X14741806Y1397054D01*
X14771070Y1394172D01*
X15699642Y1394172D01*
X15728906Y1397054D01*
X15782978Y1419452D01*
X15824362Y1460836D01*
X15846760Y1514908D01*
X15846760Y1573436D01*
X15824362Y1627508D01*
X15782978Y1668892D01*
X15728906Y1691290D01*
X15699642Y1694172D01*
X15133202Y1694172D01*
X15501963Y2062933D01*
X16122248Y2062933D01*
X16123952Y2038956D01*
X16123952Y2014908D01*
X16126014Y2009928D01*
X16126397Y2004552D01*
X16137149Y1983048D01*
X16146350Y1960836D01*
X16150160Y1957026D01*
X16152571Y1952205D01*
X16170732Y1936454D01*
X16187734Y1919452D01*
X16192713Y1917390D01*
X16196785Y1913858D01*
X16219591Y1906256D01*
X16241806Y1897054D01*
X16249457Y1896301D01*
X16252309Y1895350D01*
X16256258Y1895631D01*
X16271070Y1894172D01*
X16835356Y1894172D01*
X16835356Y1544172D01*
X16838238Y1514908D01*
X16860636Y1460836D01*
X16902020Y1419452D01*
X16956092Y1397054D01*
X17014620Y1397054D01*
X17068692Y1419452D01*
X17110076Y1460836D01*
X17132474Y1514908D01*
X17135356Y1544172D01*
X17135356Y1894172D01*
X17199641Y1894172D01*
X17228905Y1897054D01*
X17282977Y1919452D01*
X17324361Y1960836D01*
X17346759Y2014908D01*
X17346759Y2073436D01*
X17324361Y2127508D01*
X17282977Y2168892D01*
X17228905Y2191290D01*
X17199641Y2194172D01*
X17135356Y2194172D01*
X17135356Y2544172D01*
X17132474Y2573436D01*
X17110076Y2627508D01*
X17068692Y2668892D01*
X17014620Y2691290D01*
X16956092Y2691290D01*
X16902020Y2668892D01*
X16860636Y2627508D01*
X16838238Y2573436D01*
X16835356Y2544172D01*
X16835356Y2194172D01*
X16479183Y2194172D01*
X16770515Y3068165D01*
X16777035Y3096839D01*
X16772886Y3155219D01*
X16746712Y3207566D01*
X16702498Y3245914D01*
X16646973Y3264422D01*
X16588593Y3260273D01*
X16536246Y3234099D01*
X16497899Y3189885D01*
X16485910Y3163034D01*
X16128768Y2091606D01*
X16125469Y2077099D01*
X16123952Y2073436D01*
X16123952Y2070427D01*
X16122248Y2062933D01*
X15501963Y2062933D01*
X15734279Y2295249D01*
X15752934Y2317979D01*
X15754997Y2322961D01*
X15758527Y2327030D01*
X15770515Y2353880D01*
X15841944Y2568165D01*
X15845243Y2582675D01*
X15846760Y2586336D01*
X15847282Y2591645D01*
X15848464Y2596839D01*
X15848183Y2600789D01*
X15849642Y2615600D01*
X15849642Y2758458D01*
X15846760Y2787722D01*
X15844696Y2792703D01*
X15844315Y2798077D01*
X15833806Y2825541D01*
X15762377Y2968397D01*
X15754450Y2980989D01*
X15752934Y2984651D01*
X15749550Y2988774D01*
X15746712Y2993283D01*
X15743719Y2995879D01*
X15734279Y3007381D01*
X15662851Y3078809D01*
X15651349Y3088249D01*
X15648753Y3091242D01*
X15644239Y3094083D01*
X15640120Y3097464D01*
X15636460Y3098980D01*
X15623867Y3106907D01*
X15481009Y3178336D01*
X15453546Y3188846D01*
X15448168Y3189229D01*
X15443191Y3191290D01*
X15413927Y3194172D01*
X15056785Y3194172D01*
X15027521Y3191290D01*
X15022543Y3189229D01*
X15017166Y3188846D01*
X14989703Y3178336D01*
X14846845Y3106907D01*
X14834253Y3098981D01*
X14830591Y3097464D01*
X14826468Y3094081D01*
X14821959Y3091242D01*
X14819363Y3088250D01*
X14807861Y3078809D01*
X14736433Y3007381D01*
X14717778Y2984650D01*
X14695381Y2930578D01*
X14695381Y2872052D01*
X14717778Y2817980D01*
X14759164Y2776594D01*
X14813236Y2754197D01*
X14871762Y2754197D01*
X14925834Y2776594D01*
X14948565Y2795249D01*
X15002781Y2849465D01*
X15092195Y2894172D01*
X15378517Y2894172D01*
X15467931Y2849465D01*
X15504935Y2812461D01*
X15549642Y2723048D01*
X15549642Y2639941D01*
X15497108Y2482343D01*
X14665004Y1650238D01*
X14646349Y1627507D01*
X14633646Y1596838D01*
X14627071Y1580964D01*
X14623952Y1573435D01*
X14226752Y1573435D01*
X14234280Y1580963D01*
X14243721Y1592468D01*
X14246713Y1595062D01*
X14249551Y1599572D01*
X14252935Y1603694D01*
X14254451Y1607356D01*
X14262378Y1619947D01*
X14333806Y1762805D01*
X14334623Y1764942D01*
X14335270Y1765814D01*
X14339659Y1778101D01*
X14344316Y1790268D01*
X14344392Y1791350D01*
X14345163Y1793505D01*
X14416592Y2079219D01*
X14417342Y2084292D01*
X14418189Y2086336D01*
X14419274Y2097356D01*
X14420894Y2108308D01*
X14420568Y2110497D01*
X14421071Y2115600D01*
X14421071Y2472743D01*
X14420568Y2477847D01*
X14420894Y2480035D01*
X14419274Y2490988D01*
X14418189Y2502007D01*
X14417342Y2504052D01*
X14416592Y2509124D01*
X14345163Y2794838D01*
X14344392Y2796994D01*
X14344316Y2798076D01*
X14339656Y2810251D01*
X14335270Y2822530D01*
X14334623Y2823403D01*
X14333806Y2825539D01*
X14262378Y2968397D01*
X14254449Y2980992D01*
X14252934Y2984651D01*
X14249552Y2988772D01*
X14246713Y2993282D01*
X14243721Y2995877D01*
X14234279Y3007382D01*
X14162850Y3078810D01*
X14151350Y3088248D01*
X14148753Y3091242D01*
X14144236Y3094085D01*
X14140119Y3097464D01*
X14136462Y3098979D01*
X14123867Y3106907D01*
X13981010Y3178336D01*
X13953547Y3188845D01*
X13948172Y3189227D01*
X13943192Y3191290D01*
X13913928Y3194172D01*
X13771071Y3194172D01*
X13741807Y3191290D01*
X13736826Y3189227D01*
X13731452Y3188845D01*
X13703988Y3178336D01*
X13561132Y3106907D01*
X13548538Y3098980D01*
X13544879Y3097464D01*
X13540758Y3094083D01*
X13536246Y3091242D01*
X13533649Y3088249D01*
X13522149Y3078810D01*
X13450720Y3007382D01*
X13441280Y2995880D01*
X13438286Y2993283D01*
X13435444Y2988769D01*
X13432065Y2984651D01*
X13430549Y2980993D01*
X13422621Y2968397D01*
X13351192Y2825540D01*
X13350372Y2823400D01*
X13349728Y2822529D01*
X13345341Y2810252D01*
X13340683Y2798077D01*
X13340606Y2796997D01*
X13339835Y2794838D01*
X13268407Y2509123D01*
X13267657Y2504052D01*
X13266810Y2502007D01*
X13265724Y2490985D01*
X13264105Y2480034D01*
X13264430Y2477847D01*
X13263928Y2472743D01*
X12952994Y2472743D01*
X12984802Y2568165D01*
X12988101Y2582675D01*
X12989618Y2586336D01*
X12990140Y2591645D01*
X12991322Y2596839D01*
X12991041Y2600789D01*
X12992500Y2615600D01*
X12992500Y2758458D01*
X12989618Y2787722D01*
X12987554Y2792703D01*
X12987173Y2798077D01*
X12976664Y2825541D01*
X12905235Y2968397D01*
X12897308Y2980989D01*
X12895792Y2984651D01*
X12892408Y2988774D01*
X12889570Y2993283D01*
X12886577Y2995879D01*
X12877137Y3007381D01*
X12805709Y3078809D01*
X12794207Y3088249D01*
X12791611Y3091242D01*
X12787097Y3094083D01*
X12782978Y3097464D01*
X12779318Y3098980D01*
X12766725Y3106907D01*
X12623867Y3178336D01*
X12596404Y3188846D01*
X12591026Y3189229D01*
X12586049Y3191290D01*
X12556785Y3194172D01*
X12199643Y3194172D01*
X12170379Y3191290D01*
X12165401Y3189229D01*
X12160024Y3188846D01*
X12132561Y3178336D01*
X11989703Y3106907D01*
X11977111Y3098981D01*
X11973449Y3097464D01*
X11969326Y3094081D01*
X11964817Y3091242D01*
X11962221Y3088250D01*
X11950719Y3078809D01*
X11879291Y3007381D01*
X11860636Y2984650D01*
X11838239Y2930578D01*
X11838239Y2872052D01*
X11860636Y2817980D01*
X11902022Y2776594D01*
X11956094Y2754197D01*
X12014620Y2754197D01*
X12068692Y2776594D01*
X12091423Y2795249D01*
X12145639Y2849465D01*
X12235053Y2894172D01*
X12521375Y2894172D01*
X12610789Y2849465D01*
X12647793Y2812461D01*
X12692500Y2723048D01*
X12692500Y2639941D01*
X12639966Y2482343D01*
X11807862Y1650238D01*
X11789207Y1627507D01*
X11776504Y1596838D01*
X11769929Y1580964D01*
X11766810Y1573435D01*
X9583895Y1573435D01*
X9591424Y1580964D01*
X9600862Y1592465D01*
X9603856Y1595061D01*
X9606696Y1599574D01*
X9610078Y1603694D01*
X9611593Y1607354D01*
X9619521Y1619947D01*
X9690950Y1762803D01*
X9701459Y1790267D01*
X9701840Y1795642D01*
X9703904Y1800622D01*
X9706786Y1829886D01*
X9706786Y2144864D01*
X10052524Y2144864D01*
X10052524Y2086336D01*
X10074922Y2032264D01*
X10116306Y1990880D01*
X10170378Y1968482D01*
X10199642Y1965600D01*
X11342500Y1965600D01*
X11371764Y1968482D01*
X11425836Y1990880D01*
X11467220Y2032264D01*
X11489618Y2086336D01*
X11489618Y2144864D01*
X11467220Y2198936D01*
X11425836Y2240320D01*
X11371764Y2262718D01*
X11342500Y2265600D01*
X10199642Y2265600D01*
X10170378Y2262718D01*
X10116306Y2240320D01*
X10074922Y2198936D01*
X10052524Y2144864D01*
X9706786Y2144864D01*
X9706786Y2187029D01*
X9703904Y2216293D01*
X9701840Y2221274D01*
X9701459Y2226648D01*
X9690950Y2254112D01*
X9619521Y2396968D01*
X9611593Y2409562D01*
X9610078Y2413221D01*
X9606696Y2417342D01*
X9603856Y2421854D01*
X9600862Y2424451D01*
X9591424Y2435951D01*
X9519996Y2507380D01*
X9508490Y2516823D01*
X9505896Y2519814D01*
X9501385Y2522654D01*
X9497265Y2526035D01*
X9493605Y2527551D01*
X9481011Y2535479D01*
X9338152Y2606907D01*
X9310689Y2617417D01*
X9305313Y2617799D01*
X9300335Y2619861D01*
X9271071Y2622743D01*
X8985357Y2622743D01*
X8956093Y2619861D01*
X8951114Y2617799D01*
X8945739Y2617417D01*
X8918276Y2606907D01*
X8903853Y2599697D01*
X8910290Y2625443D01*
X9030495Y2805750D01*
X9074211Y2849466D01*
X9163624Y2894172D01*
X9413929Y2894172D01*
X9443193Y2897054D01*
X9497265Y2919452D01*
X9538649Y2960836D01*
X9561047Y3014908D01*
X9561047Y3073436D01*
X9538649Y3127508D01*
X9497265Y3168892D01*
X9443193Y3191290D01*
X9413929Y3194172D01*
X9128214Y3194172D01*
X9098950Y3191290D01*
X9093969Y3189227D01*
X9088595Y3188845D01*
X9061131Y3178336D01*
X8918275Y3106907D01*
X8905683Y3098981D01*
X8902021Y3097464D01*
X8897898Y3094081D01*
X8893389Y3091242D01*
X8890793Y3088250D01*
X8879291Y3078809D01*
X8807863Y3007381D01*
X8807798Y3007302D01*
X8807752Y3007271D01*
X8798429Y2995886D01*
X8789208Y2984650D01*
X8789187Y2984600D01*
X8789122Y2984520D01*
X8646264Y2770234D01*
X8637649Y2754079D01*
X8635443Y2751100D01*
X8634186Y2747584D01*
X8632429Y2744287D01*
X8631709Y2740650D01*
X8625550Y2723409D01*
X8554122Y2437695D01*
X8553372Y2432624D01*
X8552525Y2430579D01*
X8551439Y2419557D01*
X8549820Y2408606D01*
X8550145Y2406419D01*
X8549643Y2401315D01*
X7849643Y2401315D01*
X7849643Y3044172D01*
X7849632Y3044278D01*
X7849643Y3044330D01*
X7849612Y3044484D01*
X7846761Y3073436D01*
X7841077Y3087157D01*
X7838165Y3101719D01*
X7829986Y3113932D01*
X7824363Y3127508D01*
X7813864Y3138007D01*
X7805599Y3150349D01*
X7793368Y3158503D01*
X7782979Y3168892D01*
X7769260Y3174575D01*
X7756900Y3182815D01*
X7742481Y3185668D01*
X7728907Y3191290D01*
X7714056Y3191290D01*
X7699486Y3194172D01*
X7685076Y3191290D01*
X7670379Y3191290D01*
X7656657Y3185607D01*
X7642096Y3182694D01*
X7629883Y3174516D01*
X7616307Y3168892D01*
X7605808Y3158394D01*
X7593466Y3150128D01*
X7575034Y3127620D01*
X7574923Y3127508D01*
X7574902Y3127458D01*
X7574836Y3127377D01*
X7440216Y2925449D01*
X7325075Y2810308D01*
X7203990Y2749764D01*
X7179104Y2734099D01*
X7140757Y2689884D01*
X7122250Y2634361D01*
X4956713Y2634361D01*
X4916593Y2794838D01*
X4915822Y2796994D01*
X4915746Y2798076D01*
X4911086Y2810251D01*
X4906700Y2822530D01*
X4906053Y2823403D01*
X4905236Y2825539D01*
X4833808Y2968397D01*
X4825879Y2980992D01*
X4824364Y2984651D01*
X4820982Y2988772D01*
X4818143Y2993282D01*
X4815151Y2995877D01*
X4805709Y3007382D01*
X4734280Y3078810D01*
X4722780Y3088248D01*
X4720183Y3091242D01*
X4715666Y3094085D01*
X4711549Y3097464D01*
X4707892Y3098979D01*
X4695297Y3106907D01*
X4552440Y3178336D01*
X4524977Y3188845D01*
X4519602Y3189227D01*
X4514622Y3191290D01*
X4485358Y3194172D01*
X4342501Y3194172D01*
X4313237Y3191290D01*
X4308256Y3189227D01*
X4302882Y3188845D01*
X4275418Y3178336D01*
X4132562Y3106907D01*
X4119968Y3098980D01*
X4116309Y3097464D01*
X4112188Y3094083D01*
X4107676Y3091242D01*
X4105079Y3088249D01*
X4093579Y3078810D01*
X4022150Y3007382D01*
X4012710Y2995880D01*
X4009716Y2993283D01*
X4006874Y2988769D01*
X4003495Y2984651D01*
X4001979Y2980993D01*
X3994051Y2968397D01*
X3922622Y2825540D01*
X3921802Y2823400D01*
X3921158Y2822529D01*
X3916771Y2810252D01*
X3912113Y2798077D01*
X3912036Y2796997D01*
X3911265Y2794838D01*
X3839837Y2509123D01*
X3839087Y2504052D01*
X3838240Y2502007D01*
X3837154Y2490985D01*
X3835535Y2480034D01*
X3835860Y2477847D01*
X3835358Y2472743D01*
X3135358Y2472743D01*
X3135358Y3044172D01*
X3135347Y3044278D01*
X3135358Y3044330D01*
X3135327Y3044484D01*
X3132476Y3073436D01*
X3126792Y3087157D01*
X3123880Y3101719D01*
X3115701Y3113932D01*
X3110078Y3127508D01*
X3099579Y3138007D01*
X3091314Y3150349D01*
X3079083Y3158503D01*
X3068694Y3168892D01*
X3054975Y3174575D01*
X3042615Y3182815D01*
X3028196Y3185668D01*
X3014622Y3191290D01*
X2999771Y3191290D01*
X2985201Y3194172D01*
X2970791Y3191290D01*
X2956094Y3191290D01*
X2942372Y3185607D01*
X2927811Y3182694D01*
X2915598Y3174516D01*
X2902022Y3168892D01*
X2891523Y3158394D01*
X2879181Y3150128D01*
X2860749Y3127620D01*
X2860638Y3127508D01*
X2860617Y3127458D01*
X2860551Y3127377D01*
X2725931Y2925449D01*
X2610790Y2810308D01*
X2489705Y2749764D01*
X2464819Y2734099D01*
X2426472Y2689884D01*
X2407965Y2634361D01*
X2241298Y2634361D01*
X2241298Y3431089D01*
X17513426Y3431089D01*
X17513426Y1227505D01*
G37*
D11*
%TO.P,R8,1*%
%TO.N,Net-(Q1-C)*%
X13970000Y33210000D03*
%TO.P,R8,2*%
%TO.N,Net-(J5--)*%
X13970000Y31560000D03*
%TD*%
D12*
%TO.P,Q1,1,B*%
%TO.N,Net-(Q1-B)*%
X18145000Y31435000D03*
%TO.P,Q1,2,E*%
%TO.N,GND*%
X18145000Y33335000D03*
%TO.P,Q1,3,C*%
%TO.N,Net-(Q1-C)*%
X16045000Y32385000D03*
%TD*%
D13*
%TO.P,J6,1,1*%
%TO.N,BTN5*%
X7310000Y18330000D03*
%TO.P,J6,2,2*%
%TO.N,GND*%
X7310000Y20330000D03*
%TO.P,J6,3,3*%
%TO.N,5V*%
X7310000Y22330000D03*
D14*
%TO.P,J6,NC1*%
%TO.N,N/C*%
X2110000Y15930000D03*
%TO.P,J6,NC2*%
X2110000Y24730000D03*
%TD*%
D13*
%TO.P,J5,1,-*%
%TO.N,Net-(J5--)*%
X7510000Y31385000D03*
%TO.P,J5,2,+*%
%TO.N,5V*%
X7510000Y33385000D03*
D14*
%TO.P,J5,NC1,NC1*%
%TO.N,unconnected-(J5-PadNC1)*%
X2310000Y28985000D03*
%TO.P,J5,NC2,NC2*%
%TO.N,unconnected-(J5-PadNC2)*%
X2310000Y35785000D03*
%TD*%
D13*
%TO.P,J4,1,1*%
%TO.N,BTN4*%
X61270000Y9610000D03*
%TO.P,J4,2,2*%
%TO.N,GND*%
X61270000Y7610000D03*
%TO.P,J4,3,3*%
%TO.N,5V*%
X61270000Y5610000D03*
D14*
%TO.P,J4,NC1*%
%TO.N,N/C*%
X66470000Y12010000D03*
%TO.P,J4,NC2*%
X66470000Y3210000D03*
%TD*%
D13*
%TO.P,J3,1,1*%
%TO.N,BTN3*%
X61270000Y22310000D03*
%TO.P,J3,2,2*%
%TO.N,GND*%
X61270000Y20310000D03*
%TO.P,J3,3,3*%
%TO.N,5V*%
X61270000Y18310000D03*
D14*
%TO.P,J3,NC1*%
%TO.N,N/C*%
X66470000Y24710000D03*
%TO.P,J3,NC2*%
X66470000Y15910000D03*
%TD*%
D13*
%TO.P,J2,1,1*%
%TO.N,BTN1*%
X61270000Y47710000D03*
%TO.P,J2,2,2*%
%TO.N,GND*%
X61270000Y45710000D03*
%TO.P,J2,3,3*%
%TO.N,5V*%
X61270000Y43710000D03*
D14*
%TO.P,J2,NC1*%
%TO.N,N/C*%
X66470000Y50110000D03*
%TO.P,J2,NC2*%
X66470000Y41310000D03*
%TD*%
D13*
%TO.P,J1,1,1*%
%TO.N,BTN2*%
X61270000Y35010000D03*
%TO.P,J1,2,2*%
%TO.N,GND*%
X61270000Y33010000D03*
%TO.P,J1,3,3*%
%TO.N,5V*%
X61270000Y31010000D03*
D14*
%TO.P,J1,NC1*%
%TO.N,N/C*%
X66470000Y37410000D03*
%TO.P,J1,NC2*%
X66470000Y28610000D03*
%TD*%
D11*
%TO.P,R3,1*%
%TO.N,BTN3*%
X54610000Y21145000D03*
%TO.P,R3,2*%
%TO.N,5V*%
X54610000Y19495000D03*
%TD*%
D15*
%TO.P,R7,1*%
%TO.N,Net-(Q1-B)*%
X20320000Y31560000D03*
%TO.P,R7,2*%
%TO.N,LED0*%
X20320000Y33210000D03*
%TD*%
D16*
%TO.P,B1,3.3V,3.3V*%
%TO.N,unconnected-(B1-Pad3.3V)*%
X26670000Y2540000D03*
%TO.P,B1,5V,5V*%
%TO.N,5V*%
X29210000Y2540000D03*
%TO.P,B1,A0,A0*%
%TO.N,BTN1*%
X41910000Y2540000D03*
%TO.P,B1,A1,A1*%
%TO.N,BTN2*%
X44450000Y2540000D03*
%TO.P,B1,A2,A2*%
%TO.N,BTN3*%
X46990000Y2540000D03*
%TO.P,B1,A3,A3*%
%TO.N,BTN4*%
X49530000Y2540000D03*
%TO.P,B1,A4/SDA,A4/SDA*%
%TO.N,BTN5*%
X12700000Y50800000D03*
X52070000Y2540000D03*
%TO.P,B1,A5/SCL,A5/SCL*%
%TO.N,unconnected-(B1-PadA5{slash}SCL)*%
X10160000Y50800000D03*
X54610000Y2540000D03*
%TO.P,B1,AREF,AREF*%
%TO.N,unconnected-(B1-PadAREF)*%
X15240000Y50800000D03*
%TO.P,B1,D0/TXO,D0/TXO*%
%TO.N,unconnected-(B1-PadD0{slash}TXO)*%
X54610000Y50800000D03*
%TO.P,B1,D1/RXI,D1/RXI*%
%TO.N,unconnected-(B1-PadD1{slash}RXI)*%
X52070000Y50800000D03*
%TO.P,B1,D2,D2*%
%TO.N,unconnected-(B1-PadD2)*%
X49530000Y50800000D03*
%TO.P,B1,D3,\u002AD3*%
%TO.N,unconnected-(B1-\u002AD3-PadD3)*%
X46990000Y50800000D03*
%TO.P,B1,D4,D4*%
%TO.N,unconnected-(B1-PadD4)*%
X44450000Y50800000D03*
%TO.P,B1,D5,\u002AD5*%
%TO.N,unconnected-(B1-\u002AD5-PadD5)*%
X41910000Y50800000D03*
%TO.P,B1,D6,\u002AD6*%
%TO.N,unconnected-(B1-\u002AD6-PadD6)*%
X39370000Y50800000D03*
%TO.P,B1,D7,D7*%
%TO.N,unconnected-(B1-PadD7)*%
X36830000Y50800000D03*
%TO.P,B1,D8,D8*%
%TO.N,unconnected-(B1-PadD8)*%
X33020000Y50800000D03*
%TO.P,B1,D9,\u002AD9*%
%TO.N,unconnected-(B1-\u002AD9-PadD9)*%
X30480000Y50800000D03*
%TO.P,B1,D10,\u002AD10*%
%TO.N,LED0*%
X27940000Y50800000D03*
%TO.P,B1,D11,\u002AD11/PICO*%
%TO.N,unconnected-(B1-\u002AD11{slash}PICO-PadD11)*%
X25400000Y50800000D03*
%TO.P,B1,D12,D12/POCI*%
%TO.N,unconnected-(B1-D12{slash}POCI-PadD12)*%
X22860000Y50800000D03*
%TO.P,B1,D13,D13/SCK*%
%TO.N,unconnected-(B1-D13{slash}SCK-PadD13)*%
X20320000Y50800000D03*
%TO.P,B1,GND,GND*%
%TO.N,GND*%
X17780000Y50800000D03*
X34290000Y2540000D03*
X31750000Y2540000D03*
%TO.P,B1,IOREF,IOREF*%
%TO.N,unconnected-(B1-PadIOREF)*%
X21590000Y2540000D03*
%TO.P,B1,NC,NC*%
%TO.N,unconnected-(B1-PadNC)*%
X19050000Y2540000D03*
%TO.P,B1,VIN,VIN*%
%TO.N,unconnected-(B1-PadVIN)*%
X36830000Y2540000D03*
%TO.P,B1,~{RESET},~{RESET}*%
%TO.N,unconnected-(B1-Pad~{RESET})*%
X24130000Y2540000D03*
%TD*%
D11*
%TO.P,R1,1*%
%TO.N,BTN1*%
X54610000Y46545000D03*
%TO.P,R1,2*%
%TO.N,5V*%
X54610000Y44895000D03*
%TD*%
%TO.P,R4,1*%
%TO.N,BTN4*%
X54610000Y8445000D03*
%TO.P,R4,2*%
%TO.N,5V*%
X54610000Y6795000D03*
%TD*%
D15*
%TO.P,R5,1*%
%TO.N,BTN5*%
X13970000Y19495000D03*
%TO.P,R5,2*%
%TO.N,5V*%
X13970000Y21145000D03*
%TD*%
D11*
%TO.P,R2,1*%
%TO.N,BTN2*%
X54610000Y33845000D03*
%TO.P,R2,2*%
%TO.N,5V*%
X54610000Y32195000D03*
%TD*%
D17*
%TO.N,5V*%
X3810000Y22225000D03*
X4445000Y33655000D03*
%TO.N,GND*%
X64770000Y45720000D03*
X64770000Y7620000D03*
X64770000Y20320000D03*
X64770000Y33020000D03*
X3810000Y20320000D03*
%TO.N,5V*%
X29210000Y5715000D03*
%TO.N,LED0*%
X27940000Y33655000D03*
%TO.N,BTN5*%
X12700000Y18330000D03*
%TO.N,unconnected-(B1-PadA5{slash}SCL)*%
X10160000Y41275000D03*
X54610000Y41275000D03*
%TO.N,BTN5*%
X51266797Y18415000D03*
%TO.N,BTN1*%
X41910000Y47625000D03*
%TO.N,BTN2*%
X44450000Y34925000D03*
%TO.N,BTN3*%
X46990000Y21590000D03*
%TO.N,BTN4*%
X49615000Y9610000D03*
%TO.N,5V*%
X52175000Y5610000D03*
X52070000Y18415000D03*
X52070000Y31115000D03*
X52070000Y43815000D03*
X52070000Y22225000D03*
%TD*%
D18*
%TO.N,5V*%
X54610000Y44895000D02*
X54610000Y43710000D01*
X3915000Y22330000D02*
X3810000Y22225000D01*
X7310000Y22330000D02*
X3915000Y22330000D01*
X4715000Y33385000D02*
X4445000Y33655000D01*
X7510000Y33385000D02*
X4715000Y33385000D01*
%TO.N,GND*%
X3820000Y20330000D02*
X3810000Y20320000D01*
X7310000Y20330000D02*
X3820000Y20330000D01*
%TO.N,5V*%
X52070000Y5715000D02*
X52175000Y5610000D01*
X29210000Y5715000D02*
X52070000Y5715000D01*
X13970000Y21145000D02*
X13970000Y22330000D01*
X13970000Y22330000D02*
X51965000Y22330000D01*
X7310000Y22330000D02*
X13970000Y22330000D01*
%TO.N,BTN5*%
X13970000Y19495000D02*
X13970000Y18330000D01*
X13970000Y18330000D02*
X51181797Y18330000D01*
X12700000Y18330000D02*
X13970000Y18330000D01*
%TO.N,Net-(Q1-B)*%
X20195000Y31435000D02*
X20320000Y31560000D01*
X18145000Y31435000D02*
X20195000Y31435000D01*
%TO.N,Net-(Q1-C)*%
X14795000Y32385000D02*
X13970000Y33210000D01*
X16045000Y32385000D02*
X14795000Y32385000D01*
%TO.N,Net-(J5--)*%
X7510000Y31385000D02*
X13795000Y31385000D01*
X13795000Y31385000D02*
X13970000Y31560000D01*
%TO.N,LED0*%
X27495000Y33210000D02*
X27940000Y33655000D01*
X20320000Y33210000D02*
X27495000Y33210000D01*
%TO.N,BTN5*%
X7310000Y18330000D02*
X12700000Y18330000D01*
%TO.N,unconnected-(B1-PadA5{slash}SCL)*%
X54610000Y41275000D02*
X10160000Y41275000D01*
%TO.N,BTN5*%
X51181797Y18330000D02*
X51266797Y18415000D01*
%TO.N,5V*%
X54610000Y19495000D02*
X54610000Y18310000D01*
X54610000Y18310000D02*
X52175000Y18310000D01*
X61270000Y18310000D02*
X54610000Y18310000D01*
%TO.N,BTN1*%
X54610000Y46545000D02*
X54610000Y47710000D01*
X54610000Y47710000D02*
X41995000Y47710000D01*
X61270000Y47710000D02*
X54610000Y47710000D01*
X41995000Y47710000D02*
X41910000Y47625000D01*
%TO.N,BTN2*%
X54610000Y33845000D02*
X54610000Y35010000D01*
X54610000Y35010000D02*
X44535000Y35010000D01*
X61270000Y35010000D02*
X54610000Y35010000D01*
X44535000Y35010000D02*
X44450000Y34925000D01*
%TO.N,BTN3*%
X54610000Y21145000D02*
X54610000Y22310000D01*
X54610000Y22310000D02*
X54060000Y22310000D01*
X61270000Y22310000D02*
X54610000Y22310000D01*
X53268600Y21518600D02*
X47061400Y21518600D01*
X47061400Y21518600D02*
X46990000Y21590000D01*
X54060000Y22310000D02*
X53268600Y21518600D01*
%TO.N,BTN4*%
X54610000Y8445000D02*
X54610000Y9610000D01*
X54610000Y9610000D02*
X49615000Y9610000D01*
X61270000Y9610000D02*
X54610000Y9610000D01*
X49530000Y9525000D02*
X49615000Y9610000D01*
%TO.N,5V*%
X54610000Y6795000D02*
X54610000Y5610000D01*
X54610000Y5610000D02*
X52175000Y5610000D01*
X61270000Y5610000D02*
X54610000Y5610000D01*
X52175000Y18310000D02*
X52070000Y18415000D01*
X54610000Y32195000D02*
X54610000Y31010000D01*
X54610000Y31010000D02*
X52175000Y31010000D01*
X61270000Y31010000D02*
X54610000Y31010000D01*
X52175000Y31010000D02*
X52070000Y31115000D01*
X54610000Y43710000D02*
X52175000Y43710000D01*
X61270000Y43710000D02*
X54610000Y43710000D01*
X52175000Y43710000D02*
X52070000Y43815000D01*
X51965000Y22330000D02*
X52070000Y22225000D01*
%TD*%
%TA.AperFunction,Conductor*%
%TO.N,GND*%
G36*
X33038837Y2692000D02*
G01*
X33804808Y2692000D01*
X33782000Y2606880D01*
X33782000Y2473120D01*
X33804808Y2388000D01*
X33039555Y2388000D01*
X33022724Y2380152D01*
X33001165Y2388000D01*
X32235192Y2388000D01*
X32258000Y2473120D01*
X32258000Y2606880D01*
X32235192Y2692000D01*
X33000443Y2692000D01*
X33017272Y2699848D01*
X33038837Y2692000D01*
G37*
%TD.AperFunction*%
%TA.AperFunction,Conductor*%
G36*
X68434194Y53194194D02*
G01*
X68452500Y53150000D01*
X68452500Y51210147D01*
X68434194Y51165953D01*
X68390000Y51147647D01*
X68350905Y51163841D01*
X68350303Y51162961D01*
X68346132Y51165818D01*
X68345806Y51165953D01*
X68345526Y51166233D01*
X68345525Y51166234D01*
X68241109Y51212338D01*
X68241107Y51212339D01*
X68218928Y51214912D01*
X68215579Y51215300D01*
X68215578Y51215300D01*
X64724421Y51215300D01*
X64698890Y51212338D01*
X64698889Y51212338D01*
X64594473Y51166233D01*
X64513767Y51085527D01*
X64467661Y50981108D01*
X64464700Y50955579D01*
X64464700Y49264422D01*
X64467662Y49238891D01*
X64513766Y49134475D01*
X64594475Y49053766D01*
X64698891Y49007662D01*
X64724421Y49004700D01*
X68215578Y49004701D01*
X68241109Y49007662D01*
X68345525Y49053766D01*
X68345806Y49054047D01*
X68346132Y49054183D01*
X68350303Y49057039D01*
X68350905Y49056160D01*
X68390000Y49072353D01*
X68434194Y49054047D01*
X68452500Y49009853D01*
X68452500Y42410147D01*
X68434194Y42365953D01*
X68390000Y42347647D01*
X68350905Y42363841D01*
X68350303Y42362961D01*
X68346132Y42365818D01*
X68345806Y42365953D01*
X68345526Y42366233D01*
X68345525Y42366234D01*
X68241109Y42412338D01*
X68241107Y42412339D01*
X68218928Y42414912D01*
X68215579Y42415300D01*
X68215578Y42415300D01*
X64724421Y42415300D01*
X64698890Y42412338D01*
X64698889Y42412338D01*
X64594473Y42366233D01*
X64513767Y42285527D01*
X64467661Y42181108D01*
X64464700Y42155579D01*
X64464700Y40464422D01*
X64467662Y40438891D01*
X64513766Y40334475D01*
X64594475Y40253766D01*
X64698891Y40207662D01*
X64724421Y40204700D01*
X68215578Y40204701D01*
X68241109Y40207662D01*
X68345525Y40253766D01*
X68345806Y40254047D01*
X68346132Y40254183D01*
X68350303Y40257039D01*
X68350905Y40256160D01*
X68390000Y40272353D01*
X68434194Y40254047D01*
X68452500Y40209853D01*
X68452500Y38510147D01*
X68434194Y38465953D01*
X68390000Y38447647D01*
X68350905Y38463841D01*
X68350303Y38462961D01*
X68346132Y38465818D01*
X68345806Y38465953D01*
X68345526Y38466233D01*
X68345525Y38466234D01*
X68241109Y38512338D01*
X68241107Y38512339D01*
X68218928Y38514912D01*
X68215579Y38515300D01*
X68215578Y38515300D01*
X64724421Y38515300D01*
X64698890Y38512338D01*
X64698889Y38512338D01*
X64594473Y38466233D01*
X64513767Y38385527D01*
X64467661Y38281108D01*
X64464700Y38255579D01*
X64464700Y36564422D01*
X64467662Y36538891D01*
X64513766Y36434475D01*
X64594475Y36353766D01*
X64698891Y36307662D01*
X64724421Y36304700D01*
X68215578Y36304701D01*
X68241109Y36307662D01*
X68345525Y36353766D01*
X68345806Y36354047D01*
X68346132Y36354183D01*
X68350303Y36357039D01*
X68350905Y36356160D01*
X68390000Y36372353D01*
X68434194Y36354047D01*
X68452500Y36309853D01*
X68452500Y29710147D01*
X68434194Y29665953D01*
X68390000Y29647647D01*
X68350905Y29663841D01*
X68350303Y29662961D01*
X68346132Y29665818D01*
X68345806Y29665953D01*
X68345526Y29666233D01*
X68345525Y29666234D01*
X68241109Y29712338D01*
X68241107Y29712339D01*
X68218928Y29714912D01*
X68215579Y29715300D01*
X68215578Y29715300D01*
X64724421Y29715300D01*
X64698890Y29712338D01*
X64698889Y29712338D01*
X64594473Y29666233D01*
X64513767Y29585527D01*
X64467661Y29481108D01*
X64464700Y29455579D01*
X64464700Y27764422D01*
X64467662Y27738891D01*
X64513766Y27634475D01*
X64594475Y27553766D01*
X64698891Y27507662D01*
X64724421Y27504700D01*
X68215578Y27504701D01*
X68241109Y27507662D01*
X68345525Y27553766D01*
X68345806Y27554047D01*
X68346132Y27554183D01*
X68350303Y27557039D01*
X68350905Y27556160D01*
X68390000Y27572353D01*
X68434194Y27554047D01*
X68452500Y27509853D01*
X68452500Y25810147D01*
X68434194Y25765953D01*
X68390000Y25747647D01*
X68350905Y25763841D01*
X68350303Y25762961D01*
X68346132Y25765818D01*
X68345806Y25765953D01*
X68345526Y25766233D01*
X68345525Y25766234D01*
X68241109Y25812338D01*
X68241107Y25812339D01*
X68218928Y25814912D01*
X68215579Y25815300D01*
X68215578Y25815300D01*
X64724421Y25815300D01*
X64698890Y25812338D01*
X64698889Y25812338D01*
X64594473Y25766233D01*
X64513767Y25685527D01*
X64467661Y25581108D01*
X64464700Y25555579D01*
X64464700Y23864422D01*
X64465342Y23858891D01*
X64467662Y23838891D01*
X64513766Y23734475D01*
X64594475Y23653766D01*
X64698891Y23607662D01*
X64724421Y23604700D01*
X68215578Y23604701D01*
X68241109Y23607662D01*
X68345525Y23653766D01*
X68345806Y23654047D01*
X68346132Y23654183D01*
X68350303Y23657039D01*
X68350905Y23656160D01*
X68390000Y23672353D01*
X68434194Y23654047D01*
X68452500Y23609853D01*
X68452500Y17010147D01*
X68434194Y16965953D01*
X68390000Y16947647D01*
X68350905Y16963841D01*
X68350303Y16962961D01*
X68346132Y16965818D01*
X68345806Y16965953D01*
X68345526Y16966233D01*
X68345525Y16966234D01*
X68241109Y17012338D01*
X68241107Y17012339D01*
X68218928Y17014912D01*
X68215579Y17015300D01*
X68215578Y17015300D01*
X64724421Y17015300D01*
X64698890Y17012338D01*
X64698889Y17012338D01*
X64594473Y16966233D01*
X64513767Y16885527D01*
X64467661Y16781108D01*
X64464700Y16755579D01*
X64464700Y15064422D01*
X64465342Y15058891D01*
X64467662Y15038891D01*
X64513766Y14934475D01*
X64594475Y14853766D01*
X64698891Y14807662D01*
X64724421Y14804700D01*
X68215578Y14804701D01*
X68241109Y14807662D01*
X68345525Y14853766D01*
X68345806Y14854047D01*
X68346132Y14854183D01*
X68350303Y14857039D01*
X68350905Y14856160D01*
X68390000Y14872353D01*
X68434194Y14854047D01*
X68452500Y14809853D01*
X68452500Y13110147D01*
X68434194Y13065953D01*
X68390000Y13047647D01*
X68350905Y13063841D01*
X68350303Y13062961D01*
X68346132Y13065818D01*
X68345806Y13065953D01*
X68345526Y13066233D01*
X68345525Y13066234D01*
X68241109Y13112338D01*
X68241107Y13112339D01*
X68218928Y13114912D01*
X68215579Y13115300D01*
X68215578Y13115300D01*
X64724421Y13115300D01*
X64698890Y13112338D01*
X64698889Y13112338D01*
X64594473Y13066233D01*
X64513767Y12985527D01*
X64467661Y12881108D01*
X64464700Y12855579D01*
X64464700Y11164422D01*
X64467662Y11138891D01*
X64513766Y11034475D01*
X64594475Y10953766D01*
X64698891Y10907662D01*
X64724421Y10904700D01*
X68215578Y10904701D01*
X68241109Y10907662D01*
X68345525Y10953766D01*
X68345806Y10954047D01*
X68346132Y10954183D01*
X68350303Y10957039D01*
X68350905Y10956160D01*
X68390000Y10972353D01*
X68434194Y10954047D01*
X68452500Y10909853D01*
X68452500Y4310147D01*
X68434194Y4265953D01*
X68390000Y4247647D01*
X68350905Y4263841D01*
X68350303Y4262961D01*
X68346132Y4265818D01*
X68345806Y4265953D01*
X68345526Y4266233D01*
X68345525Y4266234D01*
X68241109Y4312338D01*
X68241107Y4312339D01*
X68218928Y4314912D01*
X68215579Y4315300D01*
X68215578Y4315300D01*
X64724421Y4315300D01*
X64698890Y4312338D01*
X64698889Y4312338D01*
X64594473Y4266233D01*
X64513767Y4185527D01*
X64467661Y4081108D01*
X64464700Y4055579D01*
X64464700Y2364422D01*
X64467079Y2343919D01*
X64467662Y2338891D01*
X64513766Y2234475D01*
X64594475Y2153766D01*
X64698891Y2107662D01*
X64724421Y2104700D01*
X68215578Y2104701D01*
X68241109Y2107662D01*
X68345525Y2153766D01*
X68345806Y2154047D01*
X68346132Y2154183D01*
X68350303Y2157039D01*
X68350905Y2156160D01*
X68390000Y2172353D01*
X68434194Y2154047D01*
X68452500Y2109853D01*
X68452500Y190000D01*
X68434194Y145806D01*
X68390000Y127500D01*
X2618700Y127500D01*
X2574506Y145806D01*
X1332865Y1387447D01*
X2400062Y1387447D01*
X17354641Y1387447D01*
X17354641Y2540003D01*
X17800144Y2540003D01*
X17800144Y2539998D01*
X17819131Y2322969D01*
X17819134Y2322953D01*
X17875516Y2112535D01*
X17875522Y2112519D01*
X17967590Y1915076D01*
X17967592Y1915074D01*
X18092555Y1736607D01*
X18246606Y1582556D01*
X18311533Y1537094D01*
X18425072Y1457593D01*
X18425073Y1457593D01*
X18425075Y1457591D01*
X18572824Y1388696D01*
X18622524Y1365520D01*
X18622531Y1365519D01*
X18622534Y1365517D01*
X18832952Y1309135D01*
X18832958Y1309134D01*
X18832965Y1309132D01*
X18963186Y1297740D01*
X19049998Y1290144D01*
X19050000Y1290144D01*
X19050002Y1290144D01*
X19122345Y1296474D01*
X19267035Y1309132D01*
X19267044Y1309135D01*
X19267047Y1309135D01*
X19477465Y1365517D01*
X19477465Y1365518D01*
X19477476Y1365520D01*
X19674928Y1457593D01*
X19853392Y1582555D01*
X20007445Y1736608D01*
X20132407Y1915072D01*
X20224480Y2112524D01*
X20224602Y2112978D01*
X20259630Y2243703D01*
X20288750Y2281654D01*
X20336176Y2287897D01*
X20374127Y2258777D01*
X20380370Y2243703D01*
X20415516Y2112535D01*
X20415522Y2112519D01*
X20507590Y1915076D01*
X20507592Y1915074D01*
X20632555Y1736607D01*
X20786606Y1582556D01*
X20851533Y1537094D01*
X20965072Y1457593D01*
X20965073Y1457593D01*
X20965075Y1457591D01*
X21112824Y1388696D01*
X21162524Y1365520D01*
X21162531Y1365519D01*
X21162534Y1365517D01*
X21372952Y1309135D01*
X21372958Y1309134D01*
X21372965Y1309132D01*
X21503186Y1297740D01*
X21589998Y1290144D01*
X21590000Y1290144D01*
X21590002Y1290144D01*
X21662345Y1296474D01*
X21807035Y1309132D01*
X21807044Y1309135D01*
X21807047Y1309135D01*
X22017465Y1365517D01*
X22017465Y1365518D01*
X22017476Y1365520D01*
X22214928Y1457593D01*
X22393392Y1582555D01*
X22547445Y1736608D01*
X22672407Y1915072D01*
X22764480Y2112524D01*
X22764602Y2112978D01*
X22799630Y2243703D01*
X22828750Y2281654D01*
X22876176Y2287897D01*
X22914127Y2258777D01*
X22920370Y2243703D01*
X22955516Y2112535D01*
X22955522Y2112519D01*
X23047590Y1915076D01*
X23047592Y1915074D01*
X23172555Y1736607D01*
X23326606Y1582556D01*
X23391533Y1537094D01*
X23505072Y1457593D01*
X23505073Y1457593D01*
X23505075Y1457591D01*
X23652824Y1388696D01*
X23702524Y1365520D01*
X23702531Y1365519D01*
X23702534Y1365517D01*
X23912952Y1309135D01*
X23912958Y1309134D01*
X23912965Y1309132D01*
X24043186Y1297740D01*
X24129998Y1290144D01*
X24130000Y1290144D01*
X24130002Y1290144D01*
X24202345Y1296474D01*
X24347035Y1309132D01*
X24347044Y1309135D01*
X24347047Y1309135D01*
X24557465Y1365517D01*
X24557465Y1365518D01*
X24557476Y1365520D01*
X24754928Y1457593D01*
X24933392Y1582555D01*
X25087445Y1736608D01*
X25212407Y1915072D01*
X25304480Y2112524D01*
X25304602Y2112978D01*
X25339630Y2243703D01*
X25368750Y2281654D01*
X25416176Y2287897D01*
X25454127Y2258777D01*
X25460370Y2243703D01*
X25495516Y2112535D01*
X25495522Y2112519D01*
X25587590Y1915076D01*
X25587592Y1915074D01*
X25712555Y1736607D01*
X25866606Y1582556D01*
X25931533Y1537094D01*
X26045072Y1457593D01*
X26045073Y1457593D01*
X26045075Y1457591D01*
X26192824Y1388696D01*
X26242524Y1365520D01*
X26242531Y1365519D01*
X26242534Y1365517D01*
X26452952Y1309135D01*
X26452958Y1309134D01*
X26452965Y1309132D01*
X26583186Y1297740D01*
X26669998Y1290144D01*
X26670000Y1290144D01*
X26670002Y1290144D01*
X26742345Y1296474D01*
X26887035Y1309132D01*
X26887044Y1309135D01*
X26887047Y1309135D01*
X27097465Y1365517D01*
X27097465Y1365518D01*
X27097476Y1365520D01*
X27294928Y1457593D01*
X27473392Y1582555D01*
X27627445Y1736608D01*
X27752407Y1915072D01*
X27844480Y2112524D01*
X27844602Y2112978D01*
X27879630Y2243703D01*
X27908750Y2281654D01*
X27956176Y2287897D01*
X27994127Y2258777D01*
X28000370Y2243703D01*
X28035516Y2112535D01*
X28035522Y2112519D01*
X28127590Y1915076D01*
X28127592Y1915074D01*
X28252555Y1736607D01*
X28406606Y1582556D01*
X28471533Y1537094D01*
X28585072Y1457593D01*
X28585073Y1457593D01*
X28585075Y1457591D01*
X28732824Y1388696D01*
X28782524Y1365520D01*
X28782531Y1365519D01*
X28782534Y1365517D01*
X28992952Y1309135D01*
X28992958Y1309134D01*
X28992965Y1309132D01*
X29123186Y1297740D01*
X29209998Y1290144D01*
X29210000Y1290144D01*
X29210002Y1290144D01*
X29282345Y1296474D01*
X29427035Y1309132D01*
X29427044Y1309135D01*
X29427047Y1309135D01*
X29637465Y1365517D01*
X29637465Y1365518D01*
X29637476Y1365520D01*
X29834928Y1457593D01*
X30013392Y1582555D01*
X30167445Y1736608D01*
X30292407Y1915072D01*
X30384480Y2112524D01*
X30384603Y2112981D01*
X30395606Y2154047D01*
X30420302Y2246215D01*
X30449422Y2284164D01*
X30496848Y2290408D01*
X30534798Y2261288D01*
X30541042Y2246215D01*
X30576743Y2112978D01*
X30576748Y2112965D01*
X30668720Y1915728D01*
X30668722Y1915726D01*
X30793554Y1737446D01*
X30947445Y1583555D01*
X31125725Y1458723D01*
X31125727Y1458721D01*
X31322964Y1366749D01*
X31322980Y1366743D01*
X31533181Y1310419D01*
X31533190Y1310418D01*
X31598000Y1304748D01*
X31598000Y2054808D01*
X31683120Y2032000D01*
X31816880Y2032000D01*
X31902000Y2054808D01*
X31902000Y1304749D01*
X31966809Y1310418D01*
X31966818Y1310419D01*
X32177019Y1366743D01*
X32177035Y1366749D01*
X32374272Y1458721D01*
X32374274Y1458723D01*
X32552554Y1583555D01*
X32706445Y1737446D01*
X32831277Y1915726D01*
X32831279Y1915728D01*
X32923251Y2112965D01*
X32923257Y2112981D01*
X32959630Y2248724D01*
X32988750Y2286675D01*
X33036176Y2292918D01*
X33074127Y2263798D01*
X33080370Y2248724D01*
X33116742Y2112981D01*
X33116748Y2112965D01*
X33208720Y1915728D01*
X33208722Y1915726D01*
X33333554Y1737446D01*
X33487445Y1583555D01*
X33665725Y1458723D01*
X33665727Y1458721D01*
X33862964Y1366749D01*
X33862980Y1366743D01*
X34073181Y1310419D01*
X34073190Y1310418D01*
X34138000Y1304748D01*
X34138000Y2054808D01*
X34223120Y2032000D01*
X34356880Y2032000D01*
X34442000Y2054808D01*
X34442000Y1304749D01*
X34506809Y1310418D01*
X34506818Y1310419D01*
X34717019Y1366743D01*
X34717035Y1366749D01*
X34914272Y1458721D01*
X34914274Y1458723D01*
X35092554Y1583555D01*
X35246445Y1737446D01*
X35371277Y1915726D01*
X35371279Y1915728D01*
X35463251Y2112965D01*
X35463257Y2112981D01*
X35498957Y2246214D01*
X35528077Y2284165D01*
X35575503Y2290408D01*
X35613454Y2261288D01*
X35619697Y2246214D01*
X35655516Y2112535D01*
X35655522Y2112519D01*
X35747590Y1915076D01*
X35747592Y1915074D01*
X35872555Y1736607D01*
X36026606Y1582556D01*
X36091533Y1537094D01*
X36205072Y1457593D01*
X36205073Y1457593D01*
X36205075Y1457591D01*
X36352824Y1388696D01*
X36402524Y1365520D01*
X36402531Y1365519D01*
X36402534Y1365517D01*
X36612952Y1309135D01*
X36612958Y1309134D01*
X36612965Y1309132D01*
X36743186Y1297740D01*
X36829998Y1290144D01*
X36830000Y1290144D01*
X36830002Y1290144D01*
X36902345Y1296474D01*
X37047035Y1309132D01*
X37047044Y1309135D01*
X37047047Y1309135D01*
X37257465Y1365517D01*
X37257465Y1365518D01*
X37257476Y1365520D01*
X37454928Y1457593D01*
X37633392Y1582555D01*
X37787445Y1736608D01*
X37912407Y1915072D01*
X38004480Y2112524D01*
X38004602Y2112978D01*
X38060865Y2322953D01*
X38060865Y2322956D01*
X38060868Y2322965D01*
X38079856Y2540000D01*
X38079856Y2540003D01*
X40660144Y2540003D01*
X40660144Y2539998D01*
X40679131Y2322969D01*
X40679134Y2322953D01*
X40735516Y2112535D01*
X40735522Y2112519D01*
X40827590Y1915076D01*
X40827592Y1915074D01*
X40952555Y1736607D01*
X41106606Y1582556D01*
X41171533Y1537094D01*
X41285072Y1457593D01*
X41285073Y1457593D01*
X41285075Y1457591D01*
X41432824Y1388696D01*
X41482524Y1365520D01*
X41482531Y1365519D01*
X41482534Y1365517D01*
X41692952Y1309135D01*
X41692958Y1309134D01*
X41692965Y1309132D01*
X41823186Y1297740D01*
X41909998Y1290144D01*
X41910000Y1290144D01*
X41910002Y1290144D01*
X41982345Y1296474D01*
X42127035Y1309132D01*
X42127044Y1309135D01*
X42127047Y1309135D01*
X42337465Y1365517D01*
X42337465Y1365518D01*
X42337476Y1365520D01*
X42534928Y1457593D01*
X42713392Y1582555D01*
X42867445Y1736608D01*
X42992407Y1915072D01*
X43084480Y2112524D01*
X43084602Y2112978D01*
X43119630Y2243703D01*
X43148750Y2281654D01*
X43196176Y2287897D01*
X43234127Y2258777D01*
X43240370Y2243703D01*
X43275516Y2112535D01*
X43275522Y2112519D01*
X43367590Y1915076D01*
X43367592Y1915074D01*
X43492555Y1736607D01*
X43646606Y1582556D01*
X43711533Y1537094D01*
X43825072Y1457593D01*
X43825073Y1457593D01*
X43825075Y1457591D01*
X43972824Y1388696D01*
X44022524Y1365520D01*
X44022531Y1365519D01*
X44022534Y1365517D01*
X44232952Y1309135D01*
X44232958Y1309134D01*
X44232965Y1309132D01*
X44363186Y1297740D01*
X44449998Y1290144D01*
X44450000Y1290144D01*
X44450002Y1290144D01*
X44522345Y1296474D01*
X44667035Y1309132D01*
X44667044Y1309135D01*
X44667047Y1309135D01*
X44877465Y1365517D01*
X44877465Y1365518D01*
X44877476Y1365520D01*
X45074928Y1457593D01*
X45253392Y1582555D01*
X45407445Y1736608D01*
X45532407Y1915072D01*
X45624480Y2112524D01*
X45624602Y2112978D01*
X45659630Y2243703D01*
X45688750Y2281654D01*
X45736176Y2287897D01*
X45774127Y2258777D01*
X45780370Y2243703D01*
X45815516Y2112535D01*
X45815522Y2112519D01*
X45907590Y1915076D01*
X45907592Y1915074D01*
X46032555Y1736607D01*
X46186606Y1582556D01*
X46251533Y1537094D01*
X46365072Y1457593D01*
X46365073Y1457593D01*
X46365075Y1457591D01*
X46512824Y1388696D01*
X46562524Y1365520D01*
X46562531Y1365519D01*
X46562534Y1365517D01*
X46772952Y1309135D01*
X46772958Y1309134D01*
X46772965Y1309132D01*
X46903186Y1297740D01*
X46989998Y1290144D01*
X46990000Y1290144D01*
X46990002Y1290144D01*
X47062345Y1296474D01*
X47207035Y1309132D01*
X47207044Y1309135D01*
X47207047Y1309135D01*
X47417465Y1365517D01*
X47417465Y1365518D01*
X47417476Y1365520D01*
X47614928Y1457593D01*
X47793392Y1582555D01*
X47947445Y1736608D01*
X48072407Y1915072D01*
X48164480Y2112524D01*
X48164602Y2112978D01*
X48199630Y2243703D01*
X48228750Y2281654D01*
X48276176Y2287897D01*
X48314127Y2258777D01*
X48320370Y2243703D01*
X48355516Y2112535D01*
X48355522Y2112519D01*
X48447590Y1915076D01*
X48447592Y1915074D01*
X48572555Y1736607D01*
X48726606Y1582556D01*
X48791533Y1537094D01*
X48905072Y1457593D01*
X48905073Y1457593D01*
X48905075Y1457591D01*
X49052824Y1388696D01*
X49102524Y1365520D01*
X49102531Y1365519D01*
X49102534Y1365517D01*
X49312952Y1309135D01*
X49312958Y1309134D01*
X49312965Y1309132D01*
X49443186Y1297740D01*
X49529998Y1290144D01*
X49530000Y1290144D01*
X49530002Y1290144D01*
X49602345Y1296474D01*
X49747035Y1309132D01*
X49747044Y1309135D01*
X49747047Y1309135D01*
X49957465Y1365517D01*
X49957465Y1365518D01*
X49957476Y1365520D01*
X50154928Y1457593D01*
X50333392Y1582555D01*
X50487445Y1736608D01*
X50612407Y1915072D01*
X50704480Y2112524D01*
X50704602Y2112978D01*
X50739630Y2243703D01*
X50768750Y2281654D01*
X50816176Y2287897D01*
X50854127Y2258777D01*
X50860370Y2243703D01*
X50895516Y2112535D01*
X50895522Y2112519D01*
X50987590Y1915076D01*
X50987592Y1915074D01*
X51112555Y1736607D01*
X51266606Y1582556D01*
X51331533Y1537094D01*
X51445072Y1457593D01*
X51445073Y1457593D01*
X51445075Y1457591D01*
X51592824Y1388696D01*
X51642524Y1365520D01*
X51642531Y1365519D01*
X51642534Y1365517D01*
X51852952Y1309135D01*
X51852958Y1309134D01*
X51852965Y1309132D01*
X51983186Y1297740D01*
X52069998Y1290144D01*
X52070000Y1290144D01*
X52070002Y1290144D01*
X52142345Y1296474D01*
X52287035Y1309132D01*
X52287044Y1309135D01*
X52287047Y1309135D01*
X52497465Y1365517D01*
X52497465Y1365518D01*
X52497476Y1365520D01*
X52694928Y1457593D01*
X52873392Y1582555D01*
X53027445Y1736608D01*
X53152407Y1915072D01*
X53244480Y2112524D01*
X53244602Y2112978D01*
X53279630Y2243703D01*
X53308750Y2281654D01*
X53356176Y2287897D01*
X53394127Y2258777D01*
X53400370Y2243703D01*
X53435516Y2112535D01*
X53435522Y2112519D01*
X53527590Y1915076D01*
X53527592Y1915074D01*
X53652555Y1736607D01*
X53806606Y1582556D01*
X53871533Y1537094D01*
X53985072Y1457593D01*
X53985073Y1457593D01*
X53985075Y1457591D01*
X54132824Y1388696D01*
X54182524Y1365520D01*
X54182531Y1365519D01*
X54182534Y1365517D01*
X54392952Y1309135D01*
X54392958Y1309134D01*
X54392965Y1309132D01*
X54523186Y1297740D01*
X54609998Y1290144D01*
X54610000Y1290144D01*
X54610002Y1290144D01*
X54682345Y1296474D01*
X54827035Y1309132D01*
X54827044Y1309135D01*
X54827047Y1309135D01*
X55037465Y1365517D01*
X55037465Y1365518D01*
X55037476Y1365520D01*
X55234928Y1457593D01*
X55413392Y1582555D01*
X55567445Y1736608D01*
X55692407Y1915072D01*
X55784480Y2112524D01*
X55784602Y2112978D01*
X55840865Y2322953D01*
X55840865Y2322956D01*
X55840868Y2322965D01*
X55859856Y2540000D01*
X55840868Y2757035D01*
X55831471Y2792104D01*
X55784483Y2967466D01*
X55784481Y2967469D01*
X55784480Y2967476D01*
X55746931Y3048000D01*
X55692409Y3164925D01*
X55692407Y3164927D01*
X55692407Y3164928D01*
X55567445Y3343392D01*
X55567444Y3343394D01*
X55413393Y3497445D01*
X55236540Y3621278D01*
X55234928Y3622407D01*
X55234926Y3622408D01*
X55234924Y3622410D01*
X55037481Y3714478D01*
X55037465Y3714484D01*
X54827047Y3770866D01*
X54827031Y3770869D01*
X54610002Y3789856D01*
X54609998Y3789856D01*
X54392968Y3770869D01*
X54392952Y3770866D01*
X54182534Y3714484D01*
X54182518Y3714478D01*
X53985075Y3622410D01*
X53985073Y3622408D01*
X53806606Y3497445D01*
X53652555Y3343394D01*
X53527592Y3164927D01*
X53527590Y3164925D01*
X53435522Y2967482D01*
X53435516Y2967466D01*
X53400370Y2836298D01*
X53371250Y2798347D01*
X53323824Y2792104D01*
X53285873Y2821224D01*
X53279630Y2836298D01*
X53244483Y2967466D01*
X53244481Y2967469D01*
X53244480Y2967476D01*
X53206931Y3048000D01*
X53152409Y3164925D01*
X53152407Y3164927D01*
X53152407Y3164928D01*
X53027445Y3343392D01*
X53027444Y3343394D01*
X52873393Y3497445D01*
X52696540Y3621278D01*
X52694928Y3622407D01*
X52694926Y3622408D01*
X52694924Y3622410D01*
X52497481Y3714478D01*
X52497465Y3714484D01*
X52287047Y3770866D01*
X52287031Y3770869D01*
X52070002Y3789856D01*
X52069998Y3789856D01*
X51852968Y3770869D01*
X51852952Y3770866D01*
X51642534Y3714484D01*
X51642518Y3714478D01*
X51445075Y3622410D01*
X51445073Y3622408D01*
X51266606Y3497445D01*
X51112555Y3343394D01*
X50987592Y3164927D01*
X50987590Y3164925D01*
X50895522Y2967482D01*
X50895516Y2967466D01*
X50860370Y2836298D01*
X50831250Y2798347D01*
X50783824Y2792104D01*
X50745873Y2821224D01*
X50739630Y2836298D01*
X50704483Y2967466D01*
X50704481Y2967469D01*
X50704480Y2967476D01*
X50666931Y3048000D01*
X50612409Y3164925D01*
X50612407Y3164927D01*
X50612407Y3164928D01*
X50487445Y3343392D01*
X50487444Y3343394D01*
X50333393Y3497445D01*
X50156540Y3621278D01*
X50154928Y3622407D01*
X50154926Y3622408D01*
X50154924Y3622410D01*
X49957481Y3714478D01*
X49957465Y3714484D01*
X49747047Y3770866D01*
X49747031Y3770869D01*
X49530002Y3789856D01*
X49529998Y3789856D01*
X49312968Y3770869D01*
X49312952Y3770866D01*
X49102534Y3714484D01*
X49102518Y3714478D01*
X48905075Y3622410D01*
X48905073Y3622408D01*
X48726606Y3497445D01*
X48572555Y3343394D01*
X48447592Y3164927D01*
X48447590Y3164925D01*
X48355522Y2967482D01*
X48355516Y2967466D01*
X48320370Y2836298D01*
X48291250Y2798347D01*
X48243824Y2792104D01*
X48205873Y2821224D01*
X48199630Y2836298D01*
X48164483Y2967466D01*
X48164481Y2967469D01*
X48164480Y2967476D01*
X48126931Y3048000D01*
X48072409Y3164925D01*
X48072407Y3164927D01*
X48072407Y3164928D01*
X47947445Y3343392D01*
X47947444Y3343394D01*
X47793393Y3497445D01*
X47616540Y3621278D01*
X47614928Y3622407D01*
X47614926Y3622408D01*
X47614924Y3622410D01*
X47417481Y3714478D01*
X47417465Y3714484D01*
X47207047Y3770866D01*
X47207031Y3770869D01*
X46990002Y3789856D01*
X46989998Y3789856D01*
X46772968Y3770869D01*
X46772952Y3770866D01*
X46562534Y3714484D01*
X46562518Y3714478D01*
X46365075Y3622410D01*
X46365073Y3622408D01*
X46186606Y3497445D01*
X46032555Y3343394D01*
X45907592Y3164927D01*
X45907590Y3164925D01*
X45815522Y2967482D01*
X45815516Y2967466D01*
X45780370Y2836298D01*
X45751250Y2798347D01*
X45703824Y2792104D01*
X45665873Y2821224D01*
X45659630Y2836298D01*
X45624483Y2967466D01*
X45624481Y2967469D01*
X45624480Y2967476D01*
X45586931Y3048000D01*
X45532409Y3164925D01*
X45532407Y3164927D01*
X45532407Y3164928D01*
X45407445Y3343392D01*
X45407444Y3343394D01*
X45253393Y3497445D01*
X45076540Y3621278D01*
X45074928Y3622407D01*
X45074926Y3622408D01*
X45074924Y3622410D01*
X44877481Y3714478D01*
X44877465Y3714484D01*
X44667047Y3770866D01*
X44667031Y3770869D01*
X44450002Y3789856D01*
X44449998Y3789856D01*
X44232968Y3770869D01*
X44232952Y3770866D01*
X44022534Y3714484D01*
X44022518Y3714478D01*
X43825075Y3622410D01*
X43825073Y3622408D01*
X43646606Y3497445D01*
X43492555Y3343394D01*
X43367592Y3164927D01*
X43367590Y3164925D01*
X43275522Y2967482D01*
X43275516Y2967466D01*
X43240370Y2836298D01*
X43211250Y2798347D01*
X43163824Y2792104D01*
X43125873Y2821224D01*
X43119630Y2836298D01*
X43084483Y2967466D01*
X43084481Y2967469D01*
X43084480Y2967476D01*
X43046931Y3048000D01*
X42992409Y3164925D01*
X42992407Y3164927D01*
X42992407Y3164928D01*
X42867445Y3343392D01*
X42867444Y3343394D01*
X42713393Y3497445D01*
X42536540Y3621278D01*
X42534928Y3622407D01*
X42534926Y3622408D01*
X42534924Y3622410D01*
X42337481Y3714478D01*
X42337465Y3714484D01*
X42127047Y3770866D01*
X42127031Y3770869D01*
X41910002Y3789856D01*
X41909998Y3789856D01*
X41692968Y3770869D01*
X41692952Y3770866D01*
X41482534Y3714484D01*
X41482518Y3714478D01*
X41285075Y3622410D01*
X41285073Y3622408D01*
X41106606Y3497445D01*
X40952555Y3343394D01*
X40827592Y3164927D01*
X40827590Y3164925D01*
X40735522Y2967482D01*
X40735516Y2967466D01*
X40679134Y2757048D01*
X40679131Y2757032D01*
X40660144Y2540003D01*
X38079856Y2540003D01*
X38060868Y2757035D01*
X38051471Y2792104D01*
X38004483Y2967466D01*
X38004481Y2967469D01*
X38004480Y2967476D01*
X37966931Y3048000D01*
X37912409Y3164925D01*
X37912407Y3164927D01*
X37912407Y3164928D01*
X37787445Y3343392D01*
X37787444Y3343394D01*
X37633393Y3497445D01*
X37456540Y3621278D01*
X37454928Y3622407D01*
X37454926Y3622408D01*
X37454924Y3622410D01*
X37257481Y3714478D01*
X37257465Y3714484D01*
X37047047Y3770866D01*
X37047031Y3770869D01*
X36830002Y3789856D01*
X36829998Y3789856D01*
X36612968Y3770869D01*
X36612952Y3770866D01*
X36402534Y3714484D01*
X36402518Y3714478D01*
X36205075Y3622410D01*
X36205073Y3622408D01*
X36026606Y3497445D01*
X35872555Y3343394D01*
X35747592Y3164927D01*
X35747590Y3164925D01*
X35655522Y2967482D01*
X35655517Y2967469D01*
X35619697Y2833786D01*
X35590577Y2795836D01*
X35543150Y2789593D01*
X35505200Y2818713D01*
X35498957Y2833787D01*
X35463255Y2967027D01*
X35463254Y2967029D01*
X35371277Y3164275D01*
X35246445Y3342555D01*
X35092554Y3496446D01*
X34914274Y3621278D01*
X34914272Y3621280D01*
X34717035Y3713252D01*
X34717019Y3713258D01*
X34506821Y3769581D01*
X34506805Y3769584D01*
X34442000Y3775254D01*
X34442000Y3025193D01*
X34356880Y3048000D01*
X34223120Y3048000D01*
X34138000Y3025193D01*
X34138000Y3775254D01*
X34073194Y3769584D01*
X34073178Y3769581D01*
X33862973Y3713256D01*
X33862971Y3713255D01*
X33665725Y3621278D01*
X33487445Y3496446D01*
X33333554Y3342555D01*
X33208722Y3164275D01*
X33116745Y2967029D01*
X33080370Y2831276D01*
X33051250Y2793326D01*
X33003823Y2787083D01*
X32965873Y2816203D01*
X32959630Y2831276D01*
X32923254Y2967029D01*
X32831277Y3164275D01*
X32706445Y3342555D01*
X32552554Y3496446D01*
X32374274Y3621278D01*
X32374272Y3621280D01*
X32177035Y3713252D01*
X32177019Y3713258D01*
X31966821Y3769581D01*
X31966805Y3769584D01*
X31902000Y3775254D01*
X31902000Y3025193D01*
X31816880Y3048000D01*
X31683120Y3048000D01*
X31598000Y3025193D01*
X31598000Y3775254D01*
X31533194Y3769584D01*
X31533178Y3769581D01*
X31322973Y3713256D01*
X31322971Y3713255D01*
X31125725Y3621278D01*
X30947445Y3496446D01*
X30793554Y3342555D01*
X30668722Y3164275D01*
X30576745Y2967029D01*
X30541042Y2833786D01*
X30511922Y2795836D01*
X30464495Y2789593D01*
X30426545Y2818713D01*
X30420302Y2833787D01*
X30384483Y2967466D01*
X30384481Y2967469D01*
X30384480Y2967476D01*
X30346931Y3048000D01*
X30292409Y3164925D01*
X30292407Y3164927D01*
X30292407Y3164928D01*
X30167445Y3343392D01*
X30167444Y3343394D01*
X30013393Y3497445D01*
X29836540Y3621278D01*
X29834928Y3622407D01*
X29834926Y3622408D01*
X29834924Y3622410D01*
X29637481Y3714478D01*
X29637465Y3714484D01*
X29427047Y3770866D01*
X29427031Y3770869D01*
X29210002Y3789856D01*
X29209998Y3789856D01*
X28992968Y3770869D01*
X28992952Y3770866D01*
X28782534Y3714484D01*
X28782518Y3714478D01*
X28585075Y3622410D01*
X28585073Y3622408D01*
X28406606Y3497445D01*
X28252555Y3343394D01*
X28127592Y3164927D01*
X28127590Y3164925D01*
X28035522Y2967482D01*
X28035516Y2967466D01*
X28000370Y2836298D01*
X27971250Y2798347D01*
X27923824Y2792104D01*
X27885873Y2821224D01*
X27879630Y2836298D01*
X27844483Y2967466D01*
X27844481Y2967469D01*
X27844480Y2967476D01*
X27806931Y3048000D01*
X27752409Y3164925D01*
X27752407Y3164927D01*
X27752407Y3164928D01*
X27627445Y3343392D01*
X27627444Y3343394D01*
X27473393Y3497445D01*
X27296540Y3621278D01*
X27294928Y3622407D01*
X27294926Y3622408D01*
X27294924Y3622410D01*
X27097481Y3714478D01*
X27097465Y3714484D01*
X26887047Y3770866D01*
X26887031Y3770869D01*
X26670002Y3789856D01*
X26669998Y3789856D01*
X26452968Y3770869D01*
X26452952Y3770866D01*
X26242534Y3714484D01*
X26242518Y3714478D01*
X26045075Y3622410D01*
X26045073Y3622408D01*
X25866606Y3497445D01*
X25712555Y3343394D01*
X25587592Y3164927D01*
X25587590Y3164925D01*
X25495522Y2967482D01*
X25495516Y2967466D01*
X25460370Y2836298D01*
X25431250Y2798347D01*
X25383824Y2792104D01*
X25345873Y2821224D01*
X25339630Y2836298D01*
X25304483Y2967466D01*
X25304481Y2967469D01*
X25304480Y2967476D01*
X25266931Y3048000D01*
X25212409Y3164925D01*
X25212407Y3164927D01*
X25212407Y3164928D01*
X25087445Y3343392D01*
X25087444Y3343394D01*
X24933393Y3497445D01*
X24756540Y3621278D01*
X24754928Y3622407D01*
X24754926Y3622408D01*
X24754924Y3622410D01*
X24557481Y3714478D01*
X24557465Y3714484D01*
X24347047Y3770866D01*
X24347031Y3770869D01*
X24130002Y3789856D01*
X24129998Y3789856D01*
X23912968Y3770869D01*
X23912952Y3770866D01*
X23702534Y3714484D01*
X23702518Y3714478D01*
X23505075Y3622410D01*
X23505073Y3622408D01*
X23326606Y3497445D01*
X23172555Y3343394D01*
X23047592Y3164927D01*
X23047590Y3164925D01*
X22955522Y2967482D01*
X22955516Y2967466D01*
X22920370Y2836298D01*
X22891250Y2798347D01*
X22843824Y2792104D01*
X22805873Y2821224D01*
X22799630Y2836298D01*
X22764483Y2967466D01*
X22764481Y2967469D01*
X22764480Y2967476D01*
X22726931Y3048000D01*
X22672409Y3164925D01*
X22672407Y3164927D01*
X22672407Y3164928D01*
X22547445Y3343392D01*
X22547444Y3343394D01*
X22393393Y3497445D01*
X22216540Y3621278D01*
X22214928Y3622407D01*
X22214926Y3622408D01*
X22214924Y3622410D01*
X22017481Y3714478D01*
X22017465Y3714484D01*
X21807047Y3770866D01*
X21807031Y3770869D01*
X21590002Y3789856D01*
X21589998Y3789856D01*
X21372968Y3770869D01*
X21372952Y3770866D01*
X21162534Y3714484D01*
X21162518Y3714478D01*
X20965075Y3622410D01*
X20965073Y3622408D01*
X20786606Y3497445D01*
X20632555Y3343394D01*
X20507592Y3164927D01*
X20507590Y3164925D01*
X20415522Y2967482D01*
X20415516Y2967466D01*
X20380370Y2836298D01*
X20351250Y2798347D01*
X20303824Y2792104D01*
X20265873Y2821224D01*
X20259630Y2836298D01*
X20224483Y2967466D01*
X20224481Y2967469D01*
X20224480Y2967476D01*
X20186931Y3048000D01*
X20132409Y3164925D01*
X20132407Y3164927D01*
X20132407Y3164928D01*
X20007445Y3343392D01*
X20007444Y3343394D01*
X19853393Y3497445D01*
X19676540Y3621278D01*
X19674928Y3622407D01*
X19674926Y3622408D01*
X19674924Y3622410D01*
X19477481Y3714478D01*
X19477465Y3714484D01*
X19267047Y3770866D01*
X19267031Y3770869D01*
X19050002Y3789856D01*
X19049998Y3789856D01*
X18832968Y3770869D01*
X18832952Y3770866D01*
X18622534Y3714484D01*
X18622518Y3714478D01*
X18425075Y3622410D01*
X18425073Y3622408D01*
X18246606Y3497445D01*
X18092555Y3343394D01*
X17967592Y3164927D01*
X17967590Y3164925D01*
X17875522Y2967482D01*
X17875516Y2967466D01*
X17819134Y2757048D01*
X17819131Y2757032D01*
X17800144Y2540003D01*
X17354641Y2540003D01*
X17354641Y3272324D01*
X2400062Y3272324D01*
X2400062Y1387447D01*
X1332865Y1387447D01*
X145806Y2574506D01*
X127500Y2618700D01*
X127500Y5715002D01*
X28599477Y5715002D01*
X28599477Y5714999D01*
X28620278Y5556992D01*
X28620281Y5556982D01*
X28681270Y5409741D01*
X28681272Y5409738D01*
X28778294Y5283295D01*
X28875317Y5208848D01*
X28904735Y5186274D01*
X28904737Y5186273D01*
X28904740Y5186271D01*
X28953820Y5165942D01*
X29051985Y5125280D01*
X29051989Y5125280D01*
X29051991Y5125279D01*
X29209998Y5104477D01*
X29210000Y5104477D01*
X29210002Y5104477D01*
X29368008Y5125279D01*
X29368008Y5125280D01*
X29368015Y5125280D01*
X29515262Y5186272D01*
X29524793Y5193585D01*
X29562840Y5206500D01*
X51690831Y5206500D01*
X51735025Y5188194D01*
X51740415Y5182048D01*
X51743295Y5178294D01*
X51839497Y5104477D01*
X51869738Y5081272D01*
X52016985Y5020280D01*
X52016989Y5020280D01*
X52016991Y5020279D01*
X52174998Y4999477D01*
X52175000Y4999477D01*
X52175002Y4999477D01*
X52333008Y5020279D01*
X52333008Y5020280D01*
X52333015Y5020280D01*
X52480262Y5081272D01*
X52489793Y5088585D01*
X52527840Y5101500D01*
X54543055Y5101500D01*
X58604730Y5101500D01*
X58648924Y5083194D01*
X58666814Y5046203D01*
X58667662Y5038891D01*
X58667662Y5038890D01*
X58675880Y5020279D01*
X58713766Y4934475D01*
X58794475Y4853766D01*
X58898891Y4807662D01*
X58924421Y4804700D01*
X63615578Y4804701D01*
X63641109Y4807662D01*
X63745525Y4853766D01*
X63826234Y4934475D01*
X63872338Y5038891D01*
X63875300Y5064421D01*
X63875299Y6155578D01*
X63872338Y6181109D01*
X63826234Y6285525D01*
X63745525Y6366234D01*
X63641109Y6412338D01*
X63641107Y6412339D01*
X63618928Y6414912D01*
X63615579Y6415300D01*
X63615578Y6415300D01*
X58924421Y6415300D01*
X58898890Y6412338D01*
X58898889Y6412338D01*
X58794473Y6366233D01*
X58713767Y6285527D01*
X58667661Y6181108D01*
X58666814Y6173798D01*
X58643537Y6132008D01*
X58604730Y6118500D01*
X55279434Y6118500D01*
X55235240Y6136806D01*
X55216934Y6181000D01*
X55235240Y6225194D01*
X55241978Y6231033D01*
X55245975Y6234025D01*
X55284528Y6285525D01*
X55333049Y6350340D01*
X55333051Y6350343D01*
X55356174Y6412338D01*
X55383830Y6486486D01*
X55390300Y6546668D01*
X55390300Y7043332D01*
X55388012Y7064612D01*
X58666001Y7064612D01*
X58668949Y7039193D01*
X58668949Y7039192D01*
X58714857Y6935222D01*
X58795221Y6854858D01*
X58899194Y6808949D01*
X58924611Y6806001D01*
X61118000Y6806001D01*
X61422000Y6806001D01*
X63615388Y6806001D01*
X63640807Y6808950D01*
X63640808Y6808950D01*
X63744778Y6854858D01*
X63825142Y6935222D01*
X63871051Y7039195D01*
X63874000Y7064612D01*
X63874000Y7458000D01*
X61422000Y7458000D01*
X61422000Y6806001D01*
X61118000Y6806001D01*
X61118000Y7458000D01*
X58666001Y7458000D01*
X58666001Y7064612D01*
X55388012Y7064612D01*
X55383830Y7103514D01*
X55333052Y7239655D01*
X55333051Y7239658D01*
X55333049Y7239661D01*
X55245977Y7355973D01*
X55245972Y7355978D01*
X55129660Y7443050D01*
X55129657Y7443052D01*
X54993515Y7493830D01*
X54933339Y7500300D01*
X54933332Y7500300D01*
X54286668Y7500300D01*
X54286660Y7500300D01*
X54226484Y7493830D01*
X54090342Y7443052D01*
X54090339Y7443050D01*
X53974027Y7355978D01*
X53974022Y7355973D01*
X53886950Y7239661D01*
X53886948Y7239658D01*
X53836170Y7103516D01*
X53829700Y7043340D01*
X53829700Y6546661D01*
X53836170Y6486485D01*
X53886948Y6350343D01*
X53886950Y6350340D01*
X53974022Y6234028D01*
X53974024Y6234026D01*
X53978022Y6231033D01*
X54002430Y6189894D01*
X53990599Y6143544D01*
X53949460Y6119136D01*
X53940566Y6118500D01*
X52527840Y6118500D01*
X52489793Y6131415D01*
X52480263Y6138727D01*
X52480264Y6138727D01*
X52480262Y6138728D01*
X52480259Y6138729D01*
X52480258Y6138730D01*
X52333018Y6199719D01*
X52333008Y6199722D01*
X52175003Y6220523D01*
X52174999Y6220523D01*
X52169253Y6219767D01*
X52144926Y6221362D01*
X52136948Y6223500D01*
X52136945Y6223500D01*
X29562840Y6223500D01*
X29524793Y6236415D01*
X29515263Y6243727D01*
X29515264Y6243727D01*
X29515262Y6243728D01*
X29515259Y6243729D01*
X29515258Y6243730D01*
X29368018Y6304719D01*
X29368008Y6304722D01*
X29210002Y6325523D01*
X29209998Y6325523D01*
X29051991Y6304722D01*
X29051981Y6304719D01*
X28904741Y6243730D01*
X28904738Y6243728D01*
X28778295Y6146705D01*
X28681272Y6020262D01*
X28681270Y6020259D01*
X28620281Y5873019D01*
X28620278Y5873009D01*
X28599477Y5715002D01*
X127500Y5715002D01*
X127500Y9610002D01*
X49004477Y9610002D01*
X49004477Y9609999D01*
X49020965Y9484762D01*
X49021500Y9476604D01*
X49021500Y9458057D01*
X49021501Y9458049D01*
X49056151Y9328730D01*
X49056155Y9328721D01*
X49123096Y9212777D01*
X49123103Y9212768D01*
X49217767Y9118104D01*
X49217776Y9118097D01*
X49333720Y9051156D01*
X49333723Y9051155D01*
X49333726Y9051153D01*
X49333727Y9051153D01*
X49333729Y9051152D01*
X49379489Y9038891D01*
X49463055Y9016500D01*
X49481603Y9016500D01*
X49489761Y9015965D01*
X49614998Y8999477D01*
X49615000Y8999477D01*
X49615002Y8999477D01*
X49773008Y9020279D01*
X49773008Y9020280D01*
X49773015Y9020280D01*
X49920262Y9081272D01*
X49929793Y9088585D01*
X49967840Y9101500D01*
X53920675Y9101500D01*
X53964869Y9083194D01*
X53983175Y9039000D01*
X53970708Y9001545D01*
X53886950Y8889661D01*
X53886948Y8889658D01*
X53836170Y8753516D01*
X53829700Y8693340D01*
X53829700Y8196661D01*
X53836170Y8136485D01*
X53886948Y8000343D01*
X53886950Y8000340D01*
X53974022Y7884028D01*
X53974027Y7884023D01*
X54090339Y7796951D01*
X54090342Y7796949D01*
X54090345Y7796948D01*
X54226486Y7746170D01*
X54286668Y7739700D01*
X54286674Y7739700D01*
X54933326Y7739700D01*
X54933332Y7739700D01*
X54993514Y7746170D01*
X55129655Y7796948D01*
X55129655Y7796949D01*
X55129657Y7796949D01*
X55129660Y7796951D01*
X55245972Y7884023D01*
X55245971Y7884023D01*
X55245975Y7884025D01*
X55267621Y7912942D01*
X55333049Y8000340D01*
X55333051Y8000343D01*
X55333052Y8000345D01*
X55383830Y8136486D01*
X55385862Y8155389D01*
X58666000Y8155389D01*
X58666000Y7762000D01*
X61118000Y7762000D01*
X61422000Y7762000D01*
X63873999Y7762000D01*
X63873999Y8155389D01*
X63871050Y8180808D01*
X63871050Y8180809D01*
X63825142Y8284779D01*
X63744778Y8365143D01*
X63640805Y8411052D01*
X63615389Y8414000D01*
X61422000Y8414000D01*
X61422000Y7762000D01*
X61118000Y7762000D01*
X61118000Y8414000D01*
X58924611Y8414000D01*
X58899192Y8411051D01*
X58899191Y8411051D01*
X58795221Y8365143D01*
X58714857Y8284779D01*
X58668948Y8180806D01*
X58666000Y8155389D01*
X55385862Y8155389D01*
X55390300Y8196668D01*
X55390300Y8693332D01*
X55383830Y8753514D01*
X55333052Y8889655D01*
X55333051Y8889658D01*
X55333049Y8889661D01*
X55249292Y9001545D01*
X55237461Y9047894D01*
X55261870Y9089033D01*
X55299325Y9101500D01*
X58604730Y9101500D01*
X58648924Y9083194D01*
X58666814Y9046203D01*
X58667662Y9038891D01*
X58667662Y9038890D01*
X58677785Y9015965D01*
X58713766Y8934475D01*
X58794475Y8853766D01*
X58898891Y8807662D01*
X58924421Y8804700D01*
X63615578Y8804701D01*
X63641109Y8807662D01*
X63745525Y8853766D01*
X63826234Y8934475D01*
X63872338Y9038891D01*
X63875300Y9064421D01*
X63875299Y10155578D01*
X63872338Y10181109D01*
X63826234Y10285525D01*
X63745525Y10366234D01*
X63641109Y10412338D01*
X63641107Y10412339D01*
X63618928Y10414912D01*
X63615579Y10415300D01*
X63615578Y10415300D01*
X58924421Y10415300D01*
X58898890Y10412338D01*
X58898889Y10412338D01*
X58794473Y10366233D01*
X58713767Y10285527D01*
X58667661Y10181108D01*
X58666814Y10173798D01*
X58643537Y10132008D01*
X58604730Y10118500D01*
X49967840Y10118500D01*
X49929793Y10131415D01*
X49920263Y10138727D01*
X49920264Y10138727D01*
X49920262Y10138728D01*
X49920259Y10138729D01*
X49920258Y10138730D01*
X49773018Y10199719D01*
X49773008Y10199722D01*
X49615002Y10220523D01*
X49614998Y10220523D01*
X49456991Y10199722D01*
X49456981Y10199719D01*
X49309741Y10138730D01*
X49309738Y10138728D01*
X49183295Y10041705D01*
X49086272Y9915262D01*
X49086270Y9915259D01*
X49025281Y9768019D01*
X49025278Y9768009D01*
X49004477Y9610002D01*
X127500Y9610002D01*
X127500Y14829853D01*
X145806Y14874047D01*
X190000Y14892353D01*
X229094Y14876160D01*
X229697Y14877039D01*
X233867Y14874183D01*
X234194Y14874047D01*
X234475Y14873766D01*
X338891Y14827662D01*
X364421Y14824700D01*
X3855578Y14824701D01*
X3881109Y14827662D01*
X3985525Y14873766D01*
X4066234Y14954475D01*
X4112338Y15058891D01*
X4115300Y15084421D01*
X4115299Y16775578D01*
X4112338Y16801109D01*
X4066234Y16905525D01*
X3985525Y16986234D01*
X3881109Y17032338D01*
X3881107Y17032339D01*
X3858928Y17034912D01*
X3855579Y17035300D01*
X3855578Y17035300D01*
X364421Y17035300D01*
X338890Y17032338D01*
X338889Y17032338D01*
X234473Y16986233D01*
X234194Y16985953D01*
X233867Y16985818D01*
X229697Y16982961D01*
X229094Y16983841D01*
X190000Y16967647D01*
X145806Y16985953D01*
X127500Y17030147D01*
X127500Y18875579D01*
X4704700Y18875579D01*
X4704700Y17784422D01*
X4707662Y17758891D01*
X4707662Y17758890D01*
X4715880Y17740279D01*
X4753766Y17654475D01*
X4834475Y17573766D01*
X4938891Y17527662D01*
X4964421Y17524700D01*
X9655578Y17524701D01*
X9681109Y17527662D01*
X9785525Y17573766D01*
X9866234Y17654475D01*
X9912338Y17758891D01*
X9913186Y17766203D01*
X9936463Y17807992D01*
X9975270Y17821500D01*
X12347160Y17821500D01*
X12385207Y17808585D01*
X12394738Y17801272D01*
X12541985Y17740280D01*
X12541989Y17740280D01*
X12541991Y17740279D01*
X12699998Y17719477D01*
X12700000Y17719477D01*
X12700002Y17719477D01*
X12858008Y17740279D01*
X12858008Y17740280D01*
X12858015Y17740280D01*
X13005262Y17801272D01*
X13014793Y17808585D01*
X13052840Y17821500D01*
X13903055Y17821500D01*
X51114852Y17821500D01*
X51133400Y17821500D01*
X51141558Y17820965D01*
X51266795Y17804477D01*
X51266797Y17804477D01*
X51266799Y17804477D01*
X51424805Y17825279D01*
X51424805Y17825280D01*
X51424812Y17825280D01*
X51572059Y17886272D01*
X51630350Y17931002D01*
X51676555Y17943382D01*
X51706442Y17931004D01*
X51764738Y17886272D01*
X51911985Y17825280D01*
X51911989Y17825280D01*
X51911991Y17825279D01*
X51952714Y17819918D01*
X52070000Y17804477D01*
X52075739Y17805233D01*
X52100079Y17803637D01*
X52108049Y17801501D01*
X52108055Y17801500D01*
X54543055Y17801500D01*
X58604730Y17801500D01*
X58648924Y17783194D01*
X58666813Y17746204D01*
X58667662Y17738891D01*
X58713766Y17634475D01*
X58794475Y17553766D01*
X58898891Y17507662D01*
X58924421Y17504700D01*
X63615578Y17504701D01*
X63641109Y17507662D01*
X63745525Y17553766D01*
X63826234Y17634475D01*
X63872338Y17738891D01*
X63875300Y17764421D01*
X63875299Y18855578D01*
X63872338Y18881109D01*
X63826234Y18985525D01*
X63745525Y19066234D01*
X63641109Y19112338D01*
X63641107Y19112339D01*
X63618928Y19114912D01*
X63615579Y19115300D01*
X63615578Y19115300D01*
X58924421Y19115300D01*
X58898890Y19112338D01*
X58898889Y19112338D01*
X58794473Y19066233D01*
X58713767Y18985527D01*
X58667661Y18881108D01*
X58666814Y18873798D01*
X58643537Y18832008D01*
X58604730Y18818500D01*
X55279434Y18818500D01*
X55235240Y18836806D01*
X55216934Y18881000D01*
X55235240Y18925194D01*
X55241978Y18931033D01*
X55245975Y18934025D01*
X55284528Y18985525D01*
X55333049Y19050340D01*
X55333051Y19050343D01*
X55338978Y19066234D01*
X55383830Y19186486D01*
X55390300Y19246668D01*
X55390300Y19743332D01*
X55388012Y19764612D01*
X58666001Y19764612D01*
X58668949Y19739193D01*
X58668949Y19739192D01*
X58714857Y19635222D01*
X58795221Y19554858D01*
X58899194Y19508949D01*
X58924611Y19506001D01*
X61118000Y19506001D01*
X61422000Y19506001D01*
X63615388Y19506001D01*
X63640807Y19508950D01*
X63640808Y19508950D01*
X63744778Y19554858D01*
X63825142Y19635222D01*
X63871051Y19739195D01*
X63874000Y19764612D01*
X63874000Y20158000D01*
X61422000Y20158000D01*
X61422000Y19506001D01*
X61118000Y19506001D01*
X61118000Y20158000D01*
X58666001Y20158000D01*
X58666001Y19764612D01*
X55388012Y19764612D01*
X55383830Y19803514D01*
X55333052Y19939655D01*
X55333051Y19939658D01*
X55333049Y19939661D01*
X55245977Y20055973D01*
X55245972Y20055978D01*
X55129660Y20143050D01*
X55129657Y20143052D01*
X54993515Y20193830D01*
X54933339Y20200300D01*
X54933332Y20200300D01*
X54286668Y20200300D01*
X54286660Y20200300D01*
X54226484Y20193830D01*
X54090342Y20143052D01*
X54090339Y20143050D01*
X53974027Y20055978D01*
X53974022Y20055973D01*
X53886950Y19939661D01*
X53886948Y19939658D01*
X53836170Y19803516D01*
X53829700Y19743340D01*
X53829700Y19246661D01*
X53836170Y19186485D01*
X53886948Y19050343D01*
X53886950Y19050340D01*
X53974022Y18934028D01*
X53974024Y18934026D01*
X53978022Y18931033D01*
X54002430Y18889894D01*
X53990599Y18843544D01*
X53949460Y18819136D01*
X53940566Y18818500D01*
X52554169Y18818500D01*
X52509975Y18836806D01*
X52504585Y18842952D01*
X52501704Y18846707D01*
X52375262Y18943728D01*
X52375259Y18943730D01*
X52228018Y19004719D01*
X52228008Y19004722D01*
X52070002Y19025523D01*
X52069998Y19025523D01*
X51911991Y19004722D01*
X51911981Y19004719D01*
X51764742Y18943730D01*
X51764737Y18943728D01*
X51706444Y18898999D01*
X51660239Y18886620D01*
X51630351Y18899000D01*
X51572059Y18943728D01*
X51572056Y18943730D01*
X51424815Y19004719D01*
X51424805Y19004722D01*
X51266799Y19025523D01*
X51266795Y19025523D01*
X51108788Y19004722D01*
X51108778Y19004719D01*
X50961539Y18943730D01*
X50961536Y18943729D01*
X50961536Y18943728D01*
X50841228Y18851414D01*
X50803184Y18838500D01*
X14659325Y18838500D01*
X14615131Y18856806D01*
X14596825Y18901000D01*
X14609292Y18938455D01*
X14693049Y19050340D01*
X14693051Y19050343D01*
X14698978Y19066234D01*
X14743830Y19186486D01*
X14750300Y19246668D01*
X14750300Y19743332D01*
X14743830Y19803514D01*
X14693052Y19939655D01*
X14693051Y19939658D01*
X14693049Y19939661D01*
X14605977Y20055973D01*
X14605972Y20055978D01*
X14489660Y20143050D01*
X14489657Y20143052D01*
X14353515Y20193830D01*
X14293339Y20200300D01*
X14293332Y20200300D01*
X13646668Y20200300D01*
X13646660Y20200300D01*
X13586484Y20193830D01*
X13450342Y20143052D01*
X13450339Y20143050D01*
X13334027Y20055978D01*
X13334022Y20055973D01*
X13246950Y19939661D01*
X13246948Y19939658D01*
X13196170Y19803516D01*
X13189700Y19743340D01*
X13189700Y19246661D01*
X13196170Y19186485D01*
X13246948Y19050343D01*
X13246950Y19050340D01*
X13330708Y18938455D01*
X13342539Y18892106D01*
X13318130Y18850967D01*
X13280675Y18838500D01*
X13052840Y18838500D01*
X13014793Y18851415D01*
X13005263Y18858727D01*
X13005264Y18858727D01*
X13005262Y18858728D01*
X13005259Y18858729D01*
X13005258Y18858730D01*
X12858018Y18919719D01*
X12858008Y18919722D01*
X12700002Y18940523D01*
X12699998Y18940523D01*
X12541991Y18919722D01*
X12541981Y18919719D01*
X12394742Y18858730D01*
X12394739Y18858729D01*
X12394739Y18858728D01*
X12385207Y18851415D01*
X12347162Y18838500D01*
X9975270Y18838500D01*
X9931076Y18856806D01*
X9913186Y18893797D01*
X9912338Y18901109D01*
X9866234Y19005525D01*
X9785525Y19086234D01*
X9681109Y19132338D01*
X9681107Y19132339D01*
X9658928Y19134912D01*
X9655579Y19135300D01*
X9655578Y19135300D01*
X4964421Y19135300D01*
X4938890Y19132338D01*
X4938889Y19132338D01*
X4834473Y19086233D01*
X4753767Y19005527D01*
X4753766Y19005526D01*
X4753766Y19005525D01*
X4753411Y19004720D01*
X4707661Y18901108D01*
X4704700Y18875579D01*
X127500Y18875579D01*
X127500Y19784612D01*
X4706001Y19784612D01*
X4708949Y19759193D01*
X4708949Y19759192D01*
X4754857Y19655222D01*
X4835221Y19574858D01*
X4939194Y19528949D01*
X4964611Y19526001D01*
X7158000Y19526001D01*
X7462000Y19526001D01*
X9655388Y19526001D01*
X9680807Y19528950D01*
X9680808Y19528950D01*
X9784778Y19574858D01*
X9865142Y19655222D01*
X9911051Y19759195D01*
X9914000Y19784612D01*
X9914000Y20178000D01*
X7462000Y20178000D01*
X7462000Y19526001D01*
X7158000Y19526001D01*
X7158000Y20178000D01*
X4706001Y20178000D01*
X4706001Y19784612D01*
X127500Y19784612D01*
X127500Y20875389D01*
X4706000Y20875389D01*
X4706000Y20482000D01*
X7158000Y20482000D01*
X7462000Y20482000D01*
X9913999Y20482000D01*
X9913999Y20875389D01*
X9911050Y20900808D01*
X9911050Y20900809D01*
X9865142Y21004779D01*
X9784778Y21085143D01*
X9680805Y21131052D01*
X9655389Y21134000D01*
X7462000Y21134000D01*
X7462000Y20482000D01*
X7158000Y20482000D01*
X7158000Y21134000D01*
X4964611Y21134000D01*
X4939192Y21131051D01*
X4939191Y21131051D01*
X4835221Y21085143D01*
X4754857Y21004779D01*
X4708948Y20900806D01*
X4706000Y20875389D01*
X127500Y20875389D01*
X127500Y22225002D01*
X3199477Y22225002D01*
X3199477Y22224999D01*
X3220278Y22066992D01*
X3220281Y22066982D01*
X3281270Y21919741D01*
X3281272Y21919738D01*
X3378294Y21793295D01*
X3449197Y21738890D01*
X3504738Y21696272D01*
X3651985Y21635280D01*
X3651989Y21635280D01*
X3651991Y21635279D01*
X3809998Y21614477D01*
X3810000Y21614477D01*
X3810002Y21614477D01*
X3968008Y21635279D01*
X3968008Y21635280D01*
X3968015Y21635280D01*
X4115262Y21696272D01*
X4230140Y21784421D01*
X4241704Y21793294D01*
X4244585Y21797048D01*
X4286012Y21820965D01*
X4294169Y21821500D01*
X4644730Y21821500D01*
X4688924Y21803194D01*
X4706814Y21766203D01*
X4707662Y21758891D01*
X4707662Y21758890D01*
X4713264Y21746203D01*
X4753766Y21654475D01*
X4834475Y21573766D01*
X4938891Y21527662D01*
X4964421Y21524700D01*
X9655578Y21524701D01*
X9681109Y21527662D01*
X9785525Y21573766D01*
X9866234Y21654475D01*
X9912338Y21758891D01*
X9913186Y21766203D01*
X9936463Y21807992D01*
X9975270Y21821500D01*
X13300566Y21821500D01*
X13344760Y21803194D01*
X13363066Y21759000D01*
X13344760Y21714806D01*
X13338022Y21708967D01*
X13334024Y21705975D01*
X13334022Y21705973D01*
X13246950Y21589661D01*
X13246948Y21589658D01*
X13196170Y21453516D01*
X13189700Y21393340D01*
X13189700Y20896661D01*
X13196170Y20836485D01*
X13246948Y20700343D01*
X13246950Y20700340D01*
X13334022Y20584028D01*
X13334027Y20584023D01*
X13450339Y20496951D01*
X13450342Y20496949D01*
X13450345Y20496948D01*
X13586486Y20446170D01*
X13646668Y20439700D01*
X13646674Y20439700D01*
X14293326Y20439700D01*
X14293332Y20439700D01*
X14353514Y20446170D01*
X14489655Y20496948D01*
X14489655Y20496949D01*
X14489657Y20496949D01*
X14489660Y20496951D01*
X14605972Y20584023D01*
X14605971Y20584023D01*
X14605975Y20584025D01*
X14627621Y20612942D01*
X14693049Y20700340D01*
X14693051Y20700343D01*
X14693052Y20700345D01*
X14743830Y20836486D01*
X14750300Y20896668D01*
X14750300Y21393332D01*
X14743830Y21453514D01*
X14693052Y21589655D01*
X14693051Y21589658D01*
X14693049Y21589661D01*
X14605977Y21705973D01*
X14605975Y21705975D01*
X14601978Y21708967D01*
X14577570Y21750106D01*
X14589401Y21796456D01*
X14630540Y21820864D01*
X14639434Y21821500D01*
X46338687Y21821500D01*
X46382881Y21803194D01*
X46401187Y21759000D01*
X46400652Y21750842D01*
X46379477Y21590002D01*
X46379477Y21589999D01*
X46400278Y21431992D01*
X46400281Y21431982D01*
X46461270Y21284741D01*
X46461272Y21284738D01*
X46558294Y21158295D01*
X46653629Y21085143D01*
X46684738Y21061272D01*
X46831985Y21000280D01*
X46831989Y21000280D01*
X46831991Y21000279D01*
X46989998Y20979477D01*
X46990000Y20979477D01*
X46990002Y20979477D01*
X47148008Y21000279D01*
X47148008Y21000280D01*
X47148015Y21000280D01*
X47157416Y21004175D01*
X47160236Y21005342D01*
X47184154Y21010100D01*
X53335544Y21010100D01*
X53335545Y21010100D01*
X53464874Y21044753D01*
X53580827Y21111699D01*
X53723006Y21253880D01*
X53767200Y21272185D01*
X53811394Y21253879D01*
X53829700Y21209685D01*
X53829700Y20896661D01*
X53836170Y20836485D01*
X53886948Y20700343D01*
X53886950Y20700340D01*
X53974022Y20584028D01*
X53974027Y20584023D01*
X54090339Y20496951D01*
X54090342Y20496949D01*
X54090345Y20496948D01*
X54226486Y20446170D01*
X54286668Y20439700D01*
X54286674Y20439700D01*
X54933326Y20439700D01*
X54933332Y20439700D01*
X54993514Y20446170D01*
X55129655Y20496948D01*
X55129655Y20496949D01*
X55129657Y20496949D01*
X55129660Y20496951D01*
X55245972Y20584023D01*
X55245971Y20584023D01*
X55245975Y20584025D01*
X55267621Y20612942D01*
X55333049Y20700340D01*
X55333051Y20700343D01*
X55333052Y20700345D01*
X55383830Y20836486D01*
X55385862Y20855389D01*
X58666000Y20855389D01*
X58666000Y20462000D01*
X61118000Y20462000D01*
X61422000Y20462000D01*
X63873999Y20462000D01*
X63873999Y20855389D01*
X63871050Y20880808D01*
X63871050Y20880809D01*
X63825142Y20984779D01*
X63744778Y21065143D01*
X63640805Y21111052D01*
X63615389Y21114000D01*
X61422000Y21114000D01*
X61422000Y20462000D01*
X61118000Y20462000D01*
X61118000Y21114000D01*
X58924611Y21114000D01*
X58899192Y21111051D01*
X58899191Y21111051D01*
X58795221Y21065143D01*
X58714857Y20984779D01*
X58668948Y20880806D01*
X58666000Y20855389D01*
X55385862Y20855389D01*
X55390300Y20896668D01*
X55390300Y21393332D01*
X55383830Y21453514D01*
X55333052Y21589655D01*
X55333051Y21589658D01*
X55333049Y21589661D01*
X55249292Y21701545D01*
X55237461Y21747894D01*
X55261870Y21789033D01*
X55299325Y21801500D01*
X58604730Y21801500D01*
X58648924Y21783194D01*
X58666814Y21746203D01*
X58667662Y21738891D01*
X58667662Y21738890D01*
X58680875Y21708967D01*
X58713766Y21634475D01*
X58794475Y21553766D01*
X58898891Y21507662D01*
X58924421Y21504700D01*
X63615578Y21504701D01*
X63641109Y21507662D01*
X63745525Y21553766D01*
X63826234Y21634475D01*
X63872338Y21738891D01*
X63875300Y21764421D01*
X63875299Y22855578D01*
X63872338Y22881109D01*
X63826234Y22985525D01*
X63745525Y23066234D01*
X63641109Y23112338D01*
X63641107Y23112339D01*
X63618928Y23114912D01*
X63615579Y23115300D01*
X63615578Y23115300D01*
X58924421Y23115300D01*
X58898890Y23112338D01*
X58898889Y23112338D01*
X58794473Y23066233D01*
X58713767Y22985527D01*
X58667661Y22881108D01*
X58666814Y22873798D01*
X58643537Y22832008D01*
X58604730Y22818500D01*
X54676945Y22818500D01*
X53993055Y22818500D01*
X53993054Y22818500D01*
X53993048Y22818499D01*
X53863726Y22783848D01*
X53863723Y22783847D01*
X53747774Y22716902D01*
X53747768Y22716897D01*
X53076278Y22045406D01*
X53032084Y22027100D01*
X52725737Y22027100D01*
X52681543Y22045406D01*
X52663237Y22089600D01*
X52663772Y22097758D01*
X52680523Y22224999D01*
X52680523Y22225002D01*
X52659721Y22383009D01*
X52659720Y22383011D01*
X52659720Y22383015D01*
X52598728Y22530261D01*
X52501705Y22656705D01*
X52501703Y22656706D01*
X52501703Y22656707D01*
X52375262Y22753728D01*
X52375259Y22753730D01*
X52228018Y22814719D01*
X52228008Y22814722D01*
X52070003Y22835523D01*
X52069999Y22835523D01*
X52064253Y22834767D01*
X52039926Y22836362D01*
X52031948Y22838500D01*
X52031945Y22838500D01*
X14036945Y22838500D01*
X9975270Y22838500D01*
X9931076Y22856806D01*
X9913186Y22893797D01*
X9913186Y22893798D01*
X9912338Y22901109D01*
X9866234Y23005525D01*
X9785525Y23086234D01*
X9681109Y23132338D01*
X9681107Y23132339D01*
X9658928Y23134912D01*
X9655579Y23135300D01*
X9655578Y23135300D01*
X4964421Y23135300D01*
X4938890Y23132338D01*
X4938889Y23132338D01*
X4834473Y23086233D01*
X4753767Y23005527D01*
X4707661Y22901108D01*
X4706814Y22893798D01*
X4683537Y22852008D01*
X4644730Y22838500D01*
X3848055Y22838500D01*
X3848053Y22838500D01*
X3848048Y22838499D01*
X3840072Y22836362D01*
X3815746Y22834767D01*
X3810000Y22835523D01*
X3809997Y22835523D01*
X3651991Y22814722D01*
X3651981Y22814719D01*
X3504741Y22753730D01*
X3504738Y22753728D01*
X3378295Y22656705D01*
X3281272Y22530262D01*
X3281270Y22530259D01*
X3220281Y22383019D01*
X3220278Y22383009D01*
X3199477Y22225002D01*
X127500Y22225002D01*
X127500Y23629853D01*
X145806Y23674047D01*
X190000Y23692353D01*
X229094Y23676160D01*
X229697Y23677039D01*
X233867Y23674183D01*
X234194Y23674047D01*
X234475Y23673766D01*
X338891Y23627662D01*
X364421Y23624700D01*
X3855578Y23624701D01*
X3881109Y23627662D01*
X3985525Y23673766D01*
X4066234Y23754475D01*
X4112338Y23858891D01*
X4115300Y23884421D01*
X4115299Y25575578D01*
X4112338Y25601109D01*
X4066234Y25705525D01*
X3985525Y25786234D01*
X3881109Y25832338D01*
X3881107Y25832339D01*
X3858928Y25834912D01*
X3855579Y25835300D01*
X3855578Y25835300D01*
X364421Y25835300D01*
X338890Y25832338D01*
X338889Y25832338D01*
X234473Y25786233D01*
X234194Y25785953D01*
X233867Y25785818D01*
X229697Y25782961D01*
X229094Y25783841D01*
X190000Y25767647D01*
X145806Y25785953D01*
X127500Y25830147D01*
X127500Y29830579D01*
X304700Y29830579D01*
X304700Y28139422D01*
X307662Y28113893D01*
X307662Y28113891D01*
X353766Y28009475D01*
X434475Y27928766D01*
X538891Y27882662D01*
X564421Y27879700D01*
X4055578Y27879701D01*
X4081109Y27882662D01*
X4185525Y27928766D01*
X4266234Y28009475D01*
X4312338Y28113891D01*
X4315300Y28139421D01*
X4315299Y29830578D01*
X4312338Y29856109D01*
X4266234Y29960525D01*
X4185525Y30041234D01*
X4081109Y30087338D01*
X4081107Y30087339D01*
X4058928Y30089912D01*
X4055579Y30090300D01*
X4055578Y30090300D01*
X564421Y30090300D01*
X538890Y30087338D01*
X538889Y30087338D01*
X434473Y30041233D01*
X353767Y29960527D01*
X307661Y29856108D01*
X304700Y29830579D01*
X127500Y29830579D01*
X127500Y31930579D01*
X4904700Y31930579D01*
X4904700Y30839422D01*
X4907662Y30813891D01*
X4907662Y30813890D01*
X4923170Y30778768D01*
X4953766Y30709475D01*
X5034475Y30628766D01*
X5138891Y30582662D01*
X5164421Y30579700D01*
X9855578Y30579701D01*
X9881109Y30582662D01*
X9985525Y30628766D01*
X10066234Y30709475D01*
X10112338Y30813891D01*
X10113186Y30821203D01*
X10136463Y30862992D01*
X10175270Y30876500D01*
X13534109Y30876500D01*
X13555951Y30872559D01*
X13586486Y30861170D01*
X13646668Y30854700D01*
X13646674Y30854700D01*
X14293326Y30854700D01*
X14293332Y30854700D01*
X14353514Y30861170D01*
X14489655Y30911948D01*
X14489655Y30911949D01*
X14489657Y30911949D01*
X14489660Y30911951D01*
X14605972Y30999023D01*
X14605971Y30999023D01*
X14605975Y30999025D01*
X14627621Y31027942D01*
X14693049Y31115340D01*
X14693051Y31115343D01*
X14693052Y31115345D01*
X14743830Y31251486D01*
X14750300Y31311668D01*
X14750300Y31808332D01*
X14750299Y31808340D01*
X14750210Y31810007D01*
X14751214Y31810061D01*
X14763885Y31853216D01*
X14805869Y31876142D01*
X14812551Y31876500D01*
X15268447Y31876500D01*
X15312641Y31858194D01*
X15325620Y31839248D01*
X15338766Y31809475D01*
X15419475Y31728766D01*
X15523891Y31682662D01*
X15549421Y31679700D01*
X16540578Y31679701D01*
X16566109Y31682662D01*
X16670525Y31728766D01*
X16751234Y31809475D01*
X16782629Y31880579D01*
X17389700Y31880579D01*
X17389700Y30989422D01*
X17392662Y30963891D01*
X17392662Y30963890D01*
X17409172Y30926500D01*
X17438766Y30859475D01*
X17519475Y30778766D01*
X17623891Y30732662D01*
X17649421Y30729700D01*
X18640578Y30729701D01*
X18666109Y30732662D01*
X18770525Y30778766D01*
X18851234Y30859475D01*
X18864378Y30889246D01*
X18898975Y30922279D01*
X18921553Y30926500D01*
X19760103Y30926500D01*
X19797559Y30914033D01*
X19800343Y30911949D01*
X19800342Y30911949D01*
X19800345Y30911948D01*
X19936486Y30861170D01*
X19996668Y30854700D01*
X19996674Y30854700D01*
X20643326Y30854700D01*
X20643332Y30854700D01*
X20703514Y30861170D01*
X20839655Y30911948D01*
X20839655Y30911949D01*
X20839657Y30911949D01*
X20839660Y30911951D01*
X20955972Y30999023D01*
X20955971Y30999023D01*
X20955975Y30999025D01*
X20977621Y31027942D01*
X21042796Y31115002D01*
X51459477Y31115002D01*
X51459477Y31114999D01*
X51480278Y30956992D01*
X51480281Y30956982D01*
X51541270Y30809741D01*
X51541272Y30809738D01*
X51638294Y30683295D01*
X51764737Y30586273D01*
X51764740Y30586271D01*
X51780604Y30579700D01*
X51911985Y30525280D01*
X51911989Y30525280D01*
X51911991Y30525279D01*
X51952714Y30519918D01*
X52070000Y30504477D01*
X52075739Y30505233D01*
X52100079Y30503637D01*
X52108049Y30501501D01*
X52108055Y30501500D01*
X54543055Y30501500D01*
X58604730Y30501500D01*
X58648924Y30483194D01*
X58666813Y30446204D01*
X58667662Y30438891D01*
X58713766Y30334475D01*
X58794475Y30253766D01*
X58898891Y30207662D01*
X58924421Y30204700D01*
X63615578Y30204701D01*
X63641109Y30207662D01*
X63745525Y30253766D01*
X63826234Y30334475D01*
X63872338Y30438891D01*
X63875300Y30464421D01*
X63875299Y31555578D01*
X63872338Y31581109D01*
X63826234Y31685525D01*
X63745525Y31766234D01*
X63650164Y31808340D01*
X63641107Y31812339D01*
X63618928Y31814912D01*
X63615579Y31815300D01*
X63615578Y31815300D01*
X58924421Y31815300D01*
X58898890Y31812338D01*
X58898889Y31812338D01*
X58794473Y31766233D01*
X58713767Y31685527D01*
X58713766Y31685526D01*
X58713766Y31685525D01*
X58711194Y31679700D01*
X58667661Y31581108D01*
X58666814Y31573798D01*
X58643537Y31532008D01*
X58604730Y31518500D01*
X55279434Y31518500D01*
X55235240Y31536806D01*
X55216934Y31581000D01*
X55235240Y31625194D01*
X55241978Y31631033D01*
X55245975Y31634025D01*
X55282385Y31682662D01*
X55333049Y31750340D01*
X55333051Y31750343D01*
X55355106Y31809475D01*
X55383830Y31886486D01*
X55390300Y31946668D01*
X55390300Y32443332D01*
X55388012Y32464612D01*
X58666001Y32464612D01*
X58668949Y32439193D01*
X58668949Y32439192D01*
X58714857Y32335222D01*
X58795221Y32254858D01*
X58899194Y32208949D01*
X58924611Y32206001D01*
X61118000Y32206001D01*
X61422000Y32206001D01*
X63615388Y32206001D01*
X63640807Y32208950D01*
X63640808Y32208950D01*
X63744778Y32254858D01*
X63825142Y32335222D01*
X63871051Y32439195D01*
X63874000Y32464612D01*
X63874000Y32858000D01*
X61422000Y32858000D01*
X61422000Y32206001D01*
X61118000Y32206001D01*
X61118000Y32858000D01*
X58666001Y32858000D01*
X58666001Y32464612D01*
X55388012Y32464612D01*
X55383830Y32503514D01*
X55333052Y32639655D01*
X55333051Y32639658D01*
X55333049Y32639661D01*
X55245977Y32755973D01*
X55245972Y32755978D01*
X55129660Y32843050D01*
X55129657Y32843052D01*
X54993515Y32893830D01*
X54933339Y32900300D01*
X54933332Y32900300D01*
X54286668Y32900300D01*
X54286660Y32900300D01*
X54226484Y32893830D01*
X54090342Y32843052D01*
X54090339Y32843050D01*
X53974027Y32755978D01*
X53974022Y32755973D01*
X53886950Y32639661D01*
X53886948Y32639658D01*
X53836170Y32503516D01*
X53829700Y32443340D01*
X53829700Y31946661D01*
X53836170Y31886485D01*
X53886948Y31750343D01*
X53886950Y31750340D01*
X53974022Y31634028D01*
X53974024Y31634026D01*
X53978022Y31631033D01*
X54002430Y31589894D01*
X53990599Y31543544D01*
X53949460Y31519136D01*
X53940566Y31518500D01*
X52554169Y31518500D01*
X52509975Y31536806D01*
X52504585Y31542952D01*
X52501704Y31546707D01*
X52375262Y31643728D01*
X52375259Y31643730D01*
X52228018Y31704719D01*
X52228008Y31704722D01*
X52070002Y31725523D01*
X52069998Y31725523D01*
X51911991Y31704722D01*
X51911981Y31704719D01*
X51764741Y31643730D01*
X51764738Y31643728D01*
X51638295Y31546705D01*
X51541272Y31420262D01*
X51541270Y31420259D01*
X51480281Y31273019D01*
X51480278Y31273009D01*
X51459477Y31115002D01*
X21042796Y31115002D01*
X21043049Y31115340D01*
X21043051Y31115343D01*
X21043052Y31115345D01*
X21093830Y31251486D01*
X21100300Y31311668D01*
X21100300Y31808332D01*
X21093830Y31868514D01*
X21043052Y32004655D01*
X21043051Y32004658D01*
X21043049Y32004661D01*
X20955977Y32120973D01*
X20955972Y32120978D01*
X20839660Y32208050D01*
X20839657Y32208052D01*
X20703515Y32258830D01*
X20643339Y32265300D01*
X20643332Y32265300D01*
X19996668Y32265300D01*
X19996660Y32265300D01*
X19936484Y32258830D01*
X19800342Y32208052D01*
X19800339Y32208050D01*
X19684027Y32120978D01*
X19596946Y32004653D01*
X19589303Y31984159D01*
X19556707Y31949148D01*
X19530744Y31943500D01*
X18921553Y31943500D01*
X18877359Y31961806D01*
X18864379Y31980753D01*
X18851234Y32010525D01*
X18770525Y32091234D01*
X18666109Y32137338D01*
X18666107Y32137339D01*
X18643928Y32139912D01*
X18640579Y32140300D01*
X18640578Y32140300D01*
X17649421Y32140300D01*
X17623890Y32137338D01*
X17623889Y32137338D01*
X17519473Y32091233D01*
X17438767Y32010527D01*
X17438766Y32010526D01*
X17438766Y32010525D01*
X17436175Y32004656D01*
X17392661Y31906108D01*
X17389700Y31880579D01*
X16782629Y31880579D01*
X16797338Y31913891D01*
X16800300Y31939421D01*
X16800299Y32830578D01*
X16797338Y32856109D01*
X16782545Y32889612D01*
X17391001Y32889612D01*
X17393949Y32864193D01*
X17393949Y32864192D01*
X17439857Y32760222D01*
X17520221Y32679858D01*
X17624194Y32633949D01*
X17649611Y32631001D01*
X17993000Y32631001D01*
X18297000Y32631001D01*
X18640388Y32631001D01*
X18665807Y32633950D01*
X18665808Y32633950D01*
X18769778Y32679858D01*
X18850142Y32760222D01*
X18896051Y32864195D01*
X18899000Y32889612D01*
X18899000Y33183000D01*
X18297000Y33183000D01*
X18297000Y32631001D01*
X17993000Y32631001D01*
X17993000Y33183000D01*
X17391001Y33183000D01*
X17391001Y32889612D01*
X16782545Y32889612D01*
X16751234Y32960525D01*
X16670525Y33041234D01*
X16566109Y33087338D01*
X16566107Y33087339D01*
X16543928Y33089912D01*
X16540579Y33090300D01*
X16540578Y33090300D01*
X15549421Y33090300D01*
X15523890Y33087338D01*
X15523889Y33087338D01*
X15419473Y33041233D01*
X15338767Y32960527D01*
X15338766Y32960526D01*
X15338766Y32960525D01*
X15325621Y32930755D01*
X15291025Y32897721D01*
X15268447Y32893500D01*
X15031516Y32893500D01*
X14987322Y32911806D01*
X14768606Y33130522D01*
X14750300Y33174716D01*
X14750300Y33458327D01*
X14750299Y33458340D01*
X19539700Y33458340D01*
X19539700Y32961661D01*
X19546170Y32901485D01*
X19596948Y32765343D01*
X19596950Y32765340D01*
X19684022Y32649028D01*
X19684027Y32649023D01*
X19800339Y32561951D01*
X19800342Y32561949D01*
X19800345Y32561948D01*
X19936486Y32511170D01*
X19996668Y32504700D01*
X19996674Y32504700D01*
X20643326Y32504700D01*
X20643332Y32504700D01*
X20703514Y32511170D01*
X20839655Y32561948D01*
X20839655Y32561949D01*
X20839657Y32561949D01*
X20839660Y32561951D01*
X20928915Y32628768D01*
X20955975Y32649025D01*
X20976509Y32676456D01*
X21017648Y32700864D01*
X21026543Y32701500D01*
X27561944Y32701500D01*
X27561945Y32701500D01*
X27691274Y32736153D01*
X27807227Y32803099D01*
X28050069Y33045943D01*
X28086103Y33063712D01*
X28098015Y33065280D01*
X28245262Y33126272D01*
X28371705Y33223295D01*
X28468728Y33349738D01*
X28529720Y33496985D01*
X28540755Y33580806D01*
X28550523Y33654999D01*
X28550523Y33655002D01*
X28529721Y33813009D01*
X28529720Y33813011D01*
X28529720Y33813015D01*
X28470448Y33956109D01*
X28468729Y33960259D01*
X28468727Y33960262D01*
X28427956Y34013396D01*
X28371705Y34086705D01*
X28371703Y34086706D01*
X28371703Y34086707D01*
X28245262Y34183728D01*
X28245259Y34183730D01*
X28098018Y34244719D01*
X28098008Y34244722D01*
X27940002Y34265523D01*
X27939998Y34265523D01*
X27781991Y34244722D01*
X27781981Y34244719D01*
X27634741Y34183730D01*
X27634738Y34183728D01*
X27508295Y34086705D01*
X27411272Y33960262D01*
X27411270Y33960259D01*
X27350281Y33813020D01*
X27350280Y33813018D01*
X27348711Y33801102D01*
X27330942Y33765072D01*
X27302679Y33736807D01*
X27258485Y33718500D01*
X21026543Y33718500D01*
X20982349Y33736806D01*
X20976509Y33743545D01*
X20955977Y33770973D01*
X20955970Y33770979D01*
X20839660Y33858050D01*
X20839657Y33858052D01*
X20703515Y33908830D01*
X20643339Y33915300D01*
X20643332Y33915300D01*
X19996668Y33915300D01*
X19996660Y33915300D01*
X19936484Y33908830D01*
X19800342Y33858052D01*
X19800339Y33858050D01*
X19684027Y33770978D01*
X19684022Y33770973D01*
X19596950Y33654661D01*
X19596948Y33654658D01*
X19546170Y33518516D01*
X19539700Y33458340D01*
X14750299Y33458340D01*
X14747218Y33487000D01*
X14743830Y33518514D01*
X14693052Y33654655D01*
X14693051Y33654658D01*
X14693049Y33654661D01*
X14605977Y33770973D01*
X14605972Y33770978D01*
X14593401Y33780389D01*
X17391000Y33780389D01*
X17391000Y33487000D01*
X17993000Y33487000D01*
X18297000Y33487000D01*
X18898999Y33487000D01*
X18898999Y33780389D01*
X18896050Y33805808D01*
X18896050Y33805809D01*
X18850142Y33909779D01*
X18769778Y33990143D01*
X18665805Y34036052D01*
X18640389Y34039000D01*
X18297000Y34039000D01*
X18297000Y33487000D01*
X17993000Y33487000D01*
X17993000Y34039000D01*
X17649611Y34039000D01*
X17624192Y34036051D01*
X17624191Y34036051D01*
X17520221Y33990143D01*
X17439857Y33909779D01*
X17393948Y33805806D01*
X17391000Y33780389D01*
X14593401Y33780389D01*
X14489660Y33858050D01*
X14489657Y33858052D01*
X14353515Y33908830D01*
X14293339Y33915300D01*
X14293332Y33915300D01*
X13646668Y33915300D01*
X13646660Y33915300D01*
X13586484Y33908830D01*
X13450342Y33858052D01*
X13450339Y33858050D01*
X13334027Y33770978D01*
X13334022Y33770973D01*
X13246950Y33654661D01*
X13246948Y33654658D01*
X13196170Y33518516D01*
X13189700Y33458340D01*
X13189700Y32961661D01*
X13196170Y32901485D01*
X13246948Y32765343D01*
X13246950Y32765340D01*
X13334022Y32649028D01*
X13334027Y32649023D01*
X13450339Y32561951D01*
X13450342Y32561949D01*
X13450345Y32561948D01*
X13586486Y32511170D01*
X13646668Y32504700D01*
X13930284Y32504700D01*
X13974478Y32486394D01*
X14088878Y32371994D01*
X14107184Y32327800D01*
X14088878Y32283606D01*
X14044684Y32265300D01*
X13646660Y32265300D01*
X13586484Y32258830D01*
X13450342Y32208052D01*
X13450339Y32208050D01*
X13334027Y32120978D01*
X13334022Y32120973D01*
X13246950Y32004661D01*
X13246947Y32004656D01*
X13220654Y31934159D01*
X13188058Y31899148D01*
X13162095Y31893500D01*
X10175270Y31893500D01*
X10131076Y31911806D01*
X10113186Y31948797D01*
X10113145Y31949148D01*
X10112338Y31956109D01*
X10066234Y32060525D01*
X9985525Y32141234D01*
X9881109Y32187338D01*
X9881107Y32187339D01*
X9858928Y32189912D01*
X9855579Y32190300D01*
X9855578Y32190300D01*
X5164421Y32190300D01*
X5138890Y32187338D01*
X5138889Y32187338D01*
X5034473Y32141233D01*
X4953767Y32060527D01*
X4907661Y31956108D01*
X4904700Y31930579D01*
X127500Y31930579D01*
X127500Y33655002D01*
X3834477Y33655002D01*
X3834477Y33654999D01*
X3855278Y33496992D01*
X3855281Y33496982D01*
X3916270Y33349741D01*
X3916272Y33349738D01*
X4013294Y33223295D01*
X4076604Y33174716D01*
X4139738Y33126272D01*
X4286985Y33065280D01*
X4298894Y33063713D01*
X4334932Y33045941D01*
X4402774Y32978099D01*
X4518723Y32911154D01*
X4518726Y32911153D01*
X4648055Y32876500D01*
X4844730Y32876500D01*
X4888924Y32858194D01*
X4906813Y32821204D01*
X4907662Y32813891D01*
X4953766Y32709475D01*
X5034475Y32628766D01*
X5138891Y32582662D01*
X5164421Y32579700D01*
X9855578Y32579701D01*
X9881109Y32582662D01*
X9985525Y32628766D01*
X10066234Y32709475D01*
X10112338Y32813891D01*
X10115300Y32839421D01*
X10115299Y33930578D01*
X10112338Y33956109D01*
X10066234Y34060525D01*
X9985525Y34141234D01*
X9889285Y34183728D01*
X9881107Y34187339D01*
X9858928Y34189912D01*
X9855579Y34190300D01*
X9855578Y34190300D01*
X5164421Y34190300D01*
X5138890Y34187338D01*
X5138889Y34187338D01*
X5034475Y34141234D01*
X4971923Y34078682D01*
X4927729Y34060377D01*
X4883534Y34078683D01*
X4878147Y34084827D01*
X4876706Y34086704D01*
X4876704Y34086706D01*
X4750262Y34183728D01*
X4750259Y34183730D01*
X4603018Y34244719D01*
X4603008Y34244722D01*
X4445002Y34265523D01*
X4444998Y34265523D01*
X4286991Y34244722D01*
X4286981Y34244719D01*
X4139741Y34183730D01*
X4139738Y34183728D01*
X4013295Y34086705D01*
X3916272Y33960262D01*
X3916270Y33960259D01*
X3855281Y33813019D01*
X3855278Y33813009D01*
X3834477Y33655002D01*
X127500Y33655002D01*
X127500Y36630579D01*
X304700Y36630579D01*
X304700Y34939422D01*
X307662Y34913893D01*
X307662Y34913891D01*
X353766Y34809475D01*
X434475Y34728766D01*
X538891Y34682662D01*
X564421Y34679700D01*
X4055578Y34679701D01*
X4081109Y34682662D01*
X4185525Y34728766D01*
X4266234Y34809475D01*
X4312338Y34913891D01*
X4313627Y34925002D01*
X43839477Y34925002D01*
X43839477Y34924999D01*
X43860278Y34766992D01*
X43860281Y34766982D01*
X43921270Y34619741D01*
X43921272Y34619738D01*
X44018294Y34493295D01*
X44089197Y34438890D01*
X44144738Y34396272D01*
X44291985Y34335280D01*
X44291989Y34335280D01*
X44291991Y34335279D01*
X44449998Y34314477D01*
X44450000Y34314477D01*
X44450002Y34314477D01*
X44608008Y34335279D01*
X44608008Y34335280D01*
X44608015Y34335280D01*
X44755262Y34396272D01*
X44875567Y34488586D01*
X44913614Y34501500D01*
X53920675Y34501500D01*
X53964869Y34483194D01*
X53983175Y34439000D01*
X53970708Y34401545D01*
X53886950Y34289661D01*
X53886948Y34289658D01*
X53836170Y34153516D01*
X53829700Y34093340D01*
X53829700Y33596661D01*
X53836170Y33536485D01*
X53886948Y33400343D01*
X53886950Y33400340D01*
X53974022Y33284028D01*
X53974027Y33284023D01*
X54090339Y33196951D01*
X54090342Y33196949D01*
X54090345Y33196948D01*
X54226486Y33146170D01*
X54286668Y33139700D01*
X54286674Y33139700D01*
X54933326Y33139700D01*
X54933332Y33139700D01*
X54993514Y33146170D01*
X55129655Y33196948D01*
X55129655Y33196949D01*
X55129657Y33196949D01*
X55129660Y33196951D01*
X55245972Y33284023D01*
X55245971Y33284023D01*
X55245975Y33284025D01*
X55295170Y33349741D01*
X55333049Y33400340D01*
X55333051Y33400343D01*
X55354683Y33458340D01*
X55383830Y33536486D01*
X55385862Y33555389D01*
X58666000Y33555389D01*
X58666000Y33162000D01*
X61118000Y33162000D01*
X61422000Y33162000D01*
X63873999Y33162000D01*
X63873999Y33555389D01*
X63871050Y33580808D01*
X63871050Y33580809D01*
X63825142Y33684779D01*
X63744778Y33765143D01*
X63640805Y33811052D01*
X63615389Y33814000D01*
X61422000Y33814000D01*
X61422000Y33162000D01*
X61118000Y33162000D01*
X61118000Y33814000D01*
X58924611Y33814000D01*
X58899192Y33811051D01*
X58899191Y33811051D01*
X58795221Y33765143D01*
X58714857Y33684779D01*
X58668948Y33580806D01*
X58666000Y33555389D01*
X55385862Y33555389D01*
X55390300Y33596668D01*
X55390300Y34093332D01*
X55383830Y34153514D01*
X55333052Y34289655D01*
X55333051Y34289658D01*
X55333049Y34289661D01*
X55249292Y34401545D01*
X55237461Y34447894D01*
X55261870Y34489033D01*
X55299325Y34501500D01*
X58604730Y34501500D01*
X58648924Y34483194D01*
X58666813Y34446204D01*
X58667662Y34438891D01*
X58713766Y34334475D01*
X58794475Y34253766D01*
X58898891Y34207662D01*
X58924421Y34204700D01*
X63615578Y34204701D01*
X63641109Y34207662D01*
X63745525Y34253766D01*
X63826234Y34334475D01*
X63872338Y34438891D01*
X63875300Y34464421D01*
X63875299Y35555578D01*
X63872338Y35581109D01*
X63826234Y35685525D01*
X63745525Y35766234D01*
X63641109Y35812338D01*
X63641107Y35812339D01*
X63618928Y35814912D01*
X63615579Y35815300D01*
X63615578Y35815300D01*
X58924421Y35815300D01*
X58898890Y35812338D01*
X58898889Y35812338D01*
X58794473Y35766233D01*
X58713767Y35685527D01*
X58667661Y35581108D01*
X58666814Y35573798D01*
X58643537Y35532008D01*
X58604730Y35518500D01*
X44583397Y35518500D01*
X44575239Y35519035D01*
X44450002Y35535523D01*
X44449998Y35535523D01*
X44291991Y35514722D01*
X44291981Y35514719D01*
X44144741Y35453730D01*
X44144738Y35453728D01*
X44018295Y35356705D01*
X43921272Y35230262D01*
X43921270Y35230259D01*
X43860281Y35083019D01*
X43860278Y35083009D01*
X43839477Y34925002D01*
X4313627Y34925002D01*
X4315300Y34939421D01*
X4315299Y36630578D01*
X4312338Y36656109D01*
X4266234Y36760525D01*
X4185525Y36841234D01*
X4081109Y36887338D01*
X4081107Y36887339D01*
X4058928Y36889912D01*
X4055579Y36890300D01*
X4055578Y36890300D01*
X564421Y36890300D01*
X538890Y36887338D01*
X538889Y36887338D01*
X434473Y36841233D01*
X353767Y36760527D01*
X307661Y36656108D01*
X304700Y36630579D01*
X127500Y36630579D01*
X127500Y41275002D01*
X9549477Y41275002D01*
X9549477Y41274999D01*
X9570278Y41116992D01*
X9570281Y41116982D01*
X9631270Y40969741D01*
X9631272Y40969738D01*
X9728294Y40843295D01*
X9825317Y40768848D01*
X9854738Y40746272D01*
X10001985Y40685280D01*
X10001989Y40685280D01*
X10001991Y40685279D01*
X10159998Y40664477D01*
X10160000Y40664477D01*
X10160002Y40664477D01*
X10318008Y40685279D01*
X10318008Y40685280D01*
X10318015Y40685280D01*
X10465262Y40746272D01*
X10474793Y40753585D01*
X10512840Y40766500D01*
X54257160Y40766500D01*
X54295207Y40753585D01*
X54304738Y40746272D01*
X54451985Y40685280D01*
X54451989Y40685280D01*
X54451991Y40685279D01*
X54609998Y40664477D01*
X54610000Y40664477D01*
X54610002Y40664477D01*
X54768008Y40685279D01*
X54768008Y40685280D01*
X54768015Y40685280D01*
X54915262Y40746272D01*
X55041705Y40843295D01*
X55138728Y40969738D01*
X55199720Y41116985D01*
X55220523Y41275000D01*
X55199720Y41433015D01*
X55138728Y41580261D01*
X55041705Y41706705D01*
X55041703Y41706706D01*
X55041703Y41706707D01*
X54915262Y41803728D01*
X54915259Y41803730D01*
X54768018Y41864719D01*
X54768008Y41864722D01*
X54610002Y41885523D01*
X54609998Y41885523D01*
X54451991Y41864722D01*
X54451981Y41864719D01*
X54304742Y41803730D01*
X54304739Y41803729D01*
X54304739Y41803728D01*
X54295207Y41796415D01*
X54257162Y41783500D01*
X10512840Y41783500D01*
X10474793Y41796415D01*
X10465263Y41803727D01*
X10465264Y41803727D01*
X10465262Y41803728D01*
X10465259Y41803729D01*
X10465258Y41803730D01*
X10318018Y41864719D01*
X10318008Y41864722D01*
X10160002Y41885523D01*
X10159998Y41885523D01*
X10001991Y41864722D01*
X10001981Y41864719D01*
X9854741Y41803730D01*
X9854738Y41803728D01*
X9728295Y41706705D01*
X9631272Y41580262D01*
X9631270Y41580259D01*
X9570281Y41433019D01*
X9570278Y41433009D01*
X9549477Y41275002D01*
X127500Y41275002D01*
X127500Y43815002D01*
X51459477Y43815002D01*
X51459477Y43814999D01*
X51480278Y43656992D01*
X51480281Y43656982D01*
X51541270Y43509741D01*
X51541272Y43509738D01*
X51638294Y43383295D01*
X51735317Y43308848D01*
X51764738Y43286272D01*
X51911985Y43225280D01*
X51911989Y43225280D01*
X51911991Y43225279D01*
X51952714Y43219918D01*
X52070000Y43204477D01*
X52075739Y43205233D01*
X52100079Y43203637D01*
X52108049Y43201501D01*
X52108055Y43201500D01*
X54543055Y43201500D01*
X58604730Y43201500D01*
X58648924Y43183194D01*
X58666813Y43146204D01*
X58667662Y43138891D01*
X58713766Y43034475D01*
X58794475Y42953766D01*
X58898891Y42907662D01*
X58924421Y42904700D01*
X63615578Y42904701D01*
X63641109Y42907662D01*
X63745525Y42953766D01*
X63826234Y43034475D01*
X63872338Y43138891D01*
X63875300Y43164421D01*
X63875299Y44255578D01*
X63872338Y44281109D01*
X63826234Y44385525D01*
X63745525Y44466234D01*
X63641109Y44512338D01*
X63641107Y44512339D01*
X63618928Y44514912D01*
X63615579Y44515300D01*
X63615578Y44515300D01*
X58924421Y44515300D01*
X58898890Y44512338D01*
X58898889Y44512338D01*
X58794473Y44466233D01*
X58713767Y44385527D01*
X58667661Y44281108D01*
X58666814Y44273798D01*
X58643537Y44232008D01*
X58604730Y44218500D01*
X55279434Y44218500D01*
X55235240Y44236806D01*
X55216934Y44281000D01*
X55235240Y44325194D01*
X55241978Y44331033D01*
X55245975Y44334025D01*
X55284528Y44385525D01*
X55333049Y44450340D01*
X55333051Y44450343D01*
X55356174Y44512338D01*
X55383830Y44586486D01*
X55390300Y44646668D01*
X55390300Y45143332D01*
X55388012Y45164612D01*
X58666001Y45164612D01*
X58668949Y45139193D01*
X58668949Y45139192D01*
X58714857Y45035222D01*
X58795221Y44954858D01*
X58899194Y44908949D01*
X58924611Y44906001D01*
X61118000Y44906001D01*
X61422000Y44906001D01*
X63615388Y44906001D01*
X63640807Y44908950D01*
X63640808Y44908950D01*
X63744778Y44954858D01*
X63825142Y45035222D01*
X63871051Y45139195D01*
X63874000Y45164612D01*
X63874000Y45558000D01*
X61422000Y45558000D01*
X61422000Y44906001D01*
X61118000Y44906001D01*
X61118000Y45558000D01*
X58666001Y45558000D01*
X58666001Y45164612D01*
X55388012Y45164612D01*
X55383830Y45203514D01*
X55333052Y45339655D01*
X55333051Y45339658D01*
X55333049Y45339661D01*
X55245977Y45455973D01*
X55245972Y45455978D01*
X55129660Y45543050D01*
X55129657Y45543052D01*
X54993515Y45593830D01*
X54933339Y45600300D01*
X54933332Y45600300D01*
X54286668Y45600300D01*
X54286660Y45600300D01*
X54226484Y45593830D01*
X54090342Y45543052D01*
X54090339Y45543050D01*
X53974027Y45455978D01*
X53974022Y45455973D01*
X53886950Y45339661D01*
X53886948Y45339658D01*
X53836170Y45203516D01*
X53829700Y45143340D01*
X53829700Y44646661D01*
X53836170Y44586485D01*
X53886948Y44450343D01*
X53886950Y44450340D01*
X53974022Y44334028D01*
X53974024Y44334026D01*
X53978022Y44331033D01*
X54002430Y44289894D01*
X53990599Y44243544D01*
X53949460Y44219136D01*
X53940566Y44218500D01*
X52554169Y44218500D01*
X52509975Y44236806D01*
X52504585Y44242952D01*
X52501704Y44246707D01*
X52375262Y44343728D01*
X52375259Y44343730D01*
X52228018Y44404719D01*
X52228008Y44404722D01*
X52070002Y44425523D01*
X52069998Y44425523D01*
X51911991Y44404722D01*
X51911981Y44404719D01*
X51764741Y44343730D01*
X51764738Y44343728D01*
X51638295Y44246705D01*
X51541272Y44120262D01*
X51541270Y44120259D01*
X51480281Y43973019D01*
X51480278Y43973009D01*
X51459477Y43815002D01*
X127500Y43815002D01*
X127500Y47625002D01*
X41299477Y47625002D01*
X41299477Y47624999D01*
X41320278Y47466992D01*
X41320281Y47466982D01*
X41381270Y47319741D01*
X41381272Y47319738D01*
X41478294Y47193295D01*
X41549197Y47138890D01*
X41604738Y47096272D01*
X41751985Y47035280D01*
X41751989Y47035280D01*
X41751991Y47035279D01*
X41909998Y47014477D01*
X41910000Y47014477D01*
X41910002Y47014477D01*
X42068008Y47035279D01*
X42068008Y47035280D01*
X42068015Y47035280D01*
X42215262Y47096272D01*
X42335567Y47188586D01*
X42373614Y47201500D01*
X53920675Y47201500D01*
X53964869Y47183194D01*
X53983175Y47139000D01*
X53970708Y47101545D01*
X53886950Y46989661D01*
X53886948Y46989658D01*
X53836170Y46853516D01*
X53829700Y46793340D01*
X53829700Y46296661D01*
X53836170Y46236485D01*
X53886948Y46100343D01*
X53886950Y46100340D01*
X53974022Y45984028D01*
X53974027Y45984023D01*
X54090339Y45896951D01*
X54090342Y45896949D01*
X54090345Y45896948D01*
X54226486Y45846170D01*
X54286668Y45839700D01*
X54286674Y45839700D01*
X54933326Y45839700D01*
X54933332Y45839700D01*
X54993514Y45846170D01*
X55129655Y45896948D01*
X55129655Y45896949D01*
X55129657Y45896949D01*
X55129660Y45896951D01*
X55245972Y45984023D01*
X55245971Y45984023D01*
X55245975Y45984025D01*
X55267621Y46012942D01*
X55333049Y46100340D01*
X55333051Y46100343D01*
X55333052Y46100345D01*
X55383830Y46236486D01*
X55385862Y46255389D01*
X58666000Y46255389D01*
X58666000Y45862000D01*
X61118000Y45862000D01*
X61422000Y45862000D01*
X63873999Y45862000D01*
X63873999Y46255389D01*
X63871050Y46280808D01*
X63871050Y46280809D01*
X63825142Y46384779D01*
X63744778Y46465143D01*
X63640805Y46511052D01*
X63615389Y46514000D01*
X61422000Y46514000D01*
X61422000Y45862000D01*
X61118000Y45862000D01*
X61118000Y46514000D01*
X58924611Y46514000D01*
X58899192Y46511051D01*
X58899191Y46511051D01*
X58795221Y46465143D01*
X58714857Y46384779D01*
X58668948Y46280806D01*
X58666000Y46255389D01*
X55385862Y46255389D01*
X55390300Y46296668D01*
X55390300Y46793332D01*
X55383830Y46853514D01*
X55333052Y46989655D01*
X55333051Y46989658D01*
X55333049Y46989661D01*
X55249292Y47101545D01*
X55237461Y47147894D01*
X55261870Y47189033D01*
X55299325Y47201500D01*
X58604730Y47201500D01*
X58648924Y47183194D01*
X58666813Y47146204D01*
X58667662Y47138891D01*
X58713766Y47034475D01*
X58794475Y46953766D01*
X58898891Y46907662D01*
X58924421Y46904700D01*
X63615578Y46904701D01*
X63641109Y46907662D01*
X63745525Y46953766D01*
X63826234Y47034475D01*
X63872338Y47138891D01*
X63875300Y47164421D01*
X63875299Y48255578D01*
X63872338Y48281109D01*
X63826234Y48385525D01*
X63745525Y48466234D01*
X63641109Y48512338D01*
X63641107Y48512339D01*
X63618928Y48514912D01*
X63615579Y48515300D01*
X63615578Y48515300D01*
X58924421Y48515300D01*
X58898890Y48512338D01*
X58898889Y48512338D01*
X58794473Y48466233D01*
X58713767Y48385527D01*
X58667661Y48281108D01*
X58666814Y48273798D01*
X58643537Y48232008D01*
X58604730Y48218500D01*
X42043397Y48218500D01*
X42035239Y48219035D01*
X41910002Y48235523D01*
X41909998Y48235523D01*
X41751991Y48214722D01*
X41751981Y48214719D01*
X41604741Y48153730D01*
X41604738Y48153728D01*
X41478295Y48056705D01*
X41381272Y47930262D01*
X41381270Y47930259D01*
X41320281Y47783019D01*
X41320278Y47783009D01*
X41299477Y47625002D01*
X127500Y47625002D01*
X127500Y50721300D01*
X145806Y50765494D01*
X180315Y50800003D01*
X8910144Y50800003D01*
X8910144Y50799998D01*
X8929131Y50582969D01*
X8929134Y50582953D01*
X8985516Y50372535D01*
X8985522Y50372519D01*
X9077590Y50175076D01*
X9077592Y50175074D01*
X9202555Y49996607D01*
X9356606Y49842556D01*
X9421533Y49797094D01*
X9535072Y49717593D01*
X9535073Y49717593D01*
X9535075Y49717591D01*
X9682824Y49648696D01*
X9732524Y49625520D01*
X9732531Y49625519D01*
X9732534Y49625517D01*
X9942952Y49569135D01*
X9942958Y49569134D01*
X9942965Y49569132D01*
X10073186Y49557740D01*
X10159998Y49550144D01*
X10160000Y49550144D01*
X10160002Y49550144D01*
X10232345Y49556474D01*
X10377035Y49569132D01*
X10377044Y49569135D01*
X10377047Y49569135D01*
X10587465Y49625517D01*
X10587465Y49625518D01*
X10587476Y49625520D01*
X10784928Y49717593D01*
X10963392Y49842555D01*
X11117445Y49996608D01*
X11242407Y50175072D01*
X11334480Y50372524D01*
X11334602Y50372978D01*
X11369630Y50503703D01*
X11398750Y50541654D01*
X11446176Y50547897D01*
X11484127Y50518777D01*
X11490370Y50503703D01*
X11525516Y50372535D01*
X11525522Y50372519D01*
X11617590Y50175076D01*
X11617592Y50175074D01*
X11742555Y49996607D01*
X11896606Y49842556D01*
X11961533Y49797094D01*
X12075072Y49717593D01*
X12075073Y49717593D01*
X12075075Y49717591D01*
X12222824Y49648696D01*
X12272524Y49625520D01*
X12272531Y49625519D01*
X12272534Y49625517D01*
X12482952Y49569135D01*
X12482958Y49569134D01*
X12482965Y49569132D01*
X12613186Y49557740D01*
X12699998Y49550144D01*
X12700000Y49550144D01*
X12700002Y49550144D01*
X12772345Y49556474D01*
X12917035Y49569132D01*
X12917044Y49569135D01*
X12917047Y49569135D01*
X13127465Y49625517D01*
X13127465Y49625518D01*
X13127476Y49625520D01*
X13324928Y49717593D01*
X13503392Y49842555D01*
X13657445Y49996608D01*
X13782407Y50175072D01*
X13874480Y50372524D01*
X13874602Y50372978D01*
X13909630Y50503703D01*
X13938750Y50541654D01*
X13986176Y50547897D01*
X14024127Y50518777D01*
X14030370Y50503703D01*
X14065516Y50372535D01*
X14065522Y50372519D01*
X14157590Y50175076D01*
X14157592Y50175074D01*
X14282555Y49996607D01*
X14436606Y49842556D01*
X14501533Y49797094D01*
X14615072Y49717593D01*
X14615073Y49717593D01*
X14615075Y49717591D01*
X14762824Y49648696D01*
X14812524Y49625520D01*
X14812531Y49625519D01*
X14812534Y49625517D01*
X15022952Y49569135D01*
X15022958Y49569134D01*
X15022965Y49569132D01*
X15153186Y49557740D01*
X15239998Y49550144D01*
X15240000Y49550144D01*
X15240002Y49550144D01*
X15312345Y49556474D01*
X15457035Y49569132D01*
X15457044Y49569135D01*
X15457047Y49569135D01*
X15667465Y49625517D01*
X15667465Y49625518D01*
X15667476Y49625520D01*
X15864928Y49717593D01*
X16043392Y49842555D01*
X16197445Y49996608D01*
X16322407Y50175072D01*
X16414480Y50372524D01*
X16414603Y50372981D01*
X16445443Y50488080D01*
X16450302Y50506215D01*
X16479422Y50544164D01*
X16526848Y50550408D01*
X16564798Y50521288D01*
X16571042Y50506215D01*
X16606743Y50372978D01*
X16606748Y50372965D01*
X16698720Y50175728D01*
X16698722Y50175726D01*
X16823554Y49997446D01*
X16977445Y49843555D01*
X17155725Y49718723D01*
X17155727Y49718721D01*
X17352964Y49626749D01*
X17352980Y49626743D01*
X17563181Y49570419D01*
X17563190Y49570418D01*
X17628000Y49564748D01*
X17628000Y50314808D01*
X17713120Y50292000D01*
X17846880Y50292000D01*
X17932000Y50314808D01*
X17932000Y49564749D01*
X17996809Y49570418D01*
X17996818Y49570419D01*
X18207019Y49626743D01*
X18207035Y49626749D01*
X18404272Y49718721D01*
X18404274Y49718723D01*
X18582554Y49843555D01*
X18736445Y49997446D01*
X18861277Y50175726D01*
X18861279Y50175728D01*
X18953251Y50372965D01*
X18953257Y50372981D01*
X18988957Y50506214D01*
X19018077Y50544165D01*
X19065503Y50550408D01*
X19103454Y50521288D01*
X19109697Y50506214D01*
X19145516Y50372535D01*
X19145522Y50372519D01*
X19237590Y50175076D01*
X19237592Y50175074D01*
X19362555Y49996607D01*
X19516606Y49842556D01*
X19581533Y49797094D01*
X19695072Y49717593D01*
X19695073Y49717593D01*
X19695075Y49717591D01*
X19842824Y49648696D01*
X19892524Y49625520D01*
X19892531Y49625519D01*
X19892534Y49625517D01*
X20102952Y49569135D01*
X20102958Y49569134D01*
X20102965Y49569132D01*
X20233186Y49557740D01*
X20319998Y49550144D01*
X20320000Y49550144D01*
X20320002Y49550144D01*
X20392345Y49556474D01*
X20537035Y49569132D01*
X20537044Y49569135D01*
X20537047Y49569135D01*
X20747465Y49625517D01*
X20747465Y49625518D01*
X20747476Y49625520D01*
X20944928Y49717593D01*
X21123392Y49842555D01*
X21277445Y49996608D01*
X21402407Y50175072D01*
X21494480Y50372524D01*
X21494602Y50372978D01*
X21529630Y50503703D01*
X21558750Y50541654D01*
X21606176Y50547897D01*
X21644127Y50518777D01*
X21650370Y50503703D01*
X21685516Y50372535D01*
X21685522Y50372519D01*
X21777590Y50175076D01*
X21777592Y50175074D01*
X21902555Y49996607D01*
X22056606Y49842556D01*
X22121533Y49797094D01*
X22235072Y49717593D01*
X22235073Y49717593D01*
X22235075Y49717591D01*
X22382824Y49648696D01*
X22432524Y49625520D01*
X22432531Y49625519D01*
X22432534Y49625517D01*
X22642952Y49569135D01*
X22642958Y49569134D01*
X22642965Y49569132D01*
X22773186Y49557740D01*
X22859998Y49550144D01*
X22860000Y49550144D01*
X22860002Y49550144D01*
X22932345Y49556474D01*
X23077035Y49569132D01*
X23077044Y49569135D01*
X23077047Y49569135D01*
X23287465Y49625517D01*
X23287465Y49625518D01*
X23287476Y49625520D01*
X23484928Y49717593D01*
X23663392Y49842555D01*
X23817445Y49996608D01*
X23942407Y50175072D01*
X24034480Y50372524D01*
X24034602Y50372978D01*
X24069630Y50503703D01*
X24098750Y50541654D01*
X24146176Y50547897D01*
X24184127Y50518777D01*
X24190370Y50503703D01*
X24225516Y50372535D01*
X24225522Y50372519D01*
X24317590Y50175076D01*
X24317592Y50175074D01*
X24442555Y49996607D01*
X24596606Y49842556D01*
X24661533Y49797094D01*
X24775072Y49717593D01*
X24775073Y49717593D01*
X24775075Y49717591D01*
X24922824Y49648696D01*
X24972524Y49625520D01*
X24972531Y49625519D01*
X24972534Y49625517D01*
X25182952Y49569135D01*
X25182958Y49569134D01*
X25182965Y49569132D01*
X25313186Y49557740D01*
X25399998Y49550144D01*
X25400000Y49550144D01*
X25400002Y49550144D01*
X25472345Y49556474D01*
X25617035Y49569132D01*
X25617044Y49569135D01*
X25617047Y49569135D01*
X25827465Y49625517D01*
X25827465Y49625518D01*
X25827476Y49625520D01*
X26024928Y49717593D01*
X26203392Y49842555D01*
X26357445Y49996608D01*
X26482407Y50175072D01*
X26574480Y50372524D01*
X26574602Y50372978D01*
X26609630Y50503703D01*
X26638750Y50541654D01*
X26686176Y50547897D01*
X26724127Y50518777D01*
X26730370Y50503703D01*
X26765516Y50372535D01*
X26765522Y50372519D01*
X26857590Y50175076D01*
X26857592Y50175074D01*
X26982555Y49996607D01*
X27136606Y49842556D01*
X27201533Y49797094D01*
X27315072Y49717593D01*
X27315073Y49717593D01*
X27315075Y49717591D01*
X27462824Y49648696D01*
X27512524Y49625520D01*
X27512531Y49625519D01*
X27512534Y49625517D01*
X27722952Y49569135D01*
X27722958Y49569134D01*
X27722965Y49569132D01*
X27853186Y49557740D01*
X27939998Y49550144D01*
X27940000Y49550144D01*
X27940002Y49550144D01*
X28012345Y49556474D01*
X28157035Y49569132D01*
X28157044Y49569135D01*
X28157047Y49569135D01*
X28367465Y49625517D01*
X28367465Y49625518D01*
X28367476Y49625520D01*
X28564928Y49717593D01*
X28743392Y49842555D01*
X28897445Y49996608D01*
X29022407Y50175072D01*
X29114480Y50372524D01*
X29114602Y50372978D01*
X29149630Y50503703D01*
X29178750Y50541654D01*
X29226176Y50547897D01*
X29264127Y50518777D01*
X29270370Y50503703D01*
X29305516Y50372535D01*
X29305522Y50372519D01*
X29397590Y50175076D01*
X29397592Y50175074D01*
X29522555Y49996607D01*
X29676606Y49842556D01*
X29741533Y49797094D01*
X29855072Y49717593D01*
X29855073Y49717593D01*
X29855075Y49717591D01*
X30002824Y49648696D01*
X30052524Y49625520D01*
X30052531Y49625519D01*
X30052534Y49625517D01*
X30262952Y49569135D01*
X30262958Y49569134D01*
X30262965Y49569132D01*
X30393186Y49557740D01*
X30479998Y49550144D01*
X30480000Y49550144D01*
X30480002Y49550144D01*
X30552345Y49556474D01*
X30697035Y49569132D01*
X30697044Y49569135D01*
X30697047Y49569135D01*
X30907465Y49625517D01*
X30907465Y49625518D01*
X30907476Y49625520D01*
X31104928Y49717593D01*
X31283392Y49842555D01*
X31437445Y49996608D01*
X31562407Y50175072D01*
X31654480Y50372524D01*
X31654602Y50372978D01*
X31689630Y50503703D01*
X31718750Y50541654D01*
X31766176Y50547897D01*
X31804127Y50518777D01*
X31810370Y50503703D01*
X31845516Y50372535D01*
X31845522Y50372519D01*
X31937590Y50175076D01*
X31937592Y50175074D01*
X32062555Y49996607D01*
X32216606Y49842556D01*
X32281533Y49797094D01*
X32395072Y49717593D01*
X32395073Y49717593D01*
X32395075Y49717591D01*
X32542824Y49648696D01*
X32592524Y49625520D01*
X32592531Y49625519D01*
X32592534Y49625517D01*
X32802952Y49569135D01*
X32802958Y49569134D01*
X32802965Y49569132D01*
X32933186Y49557740D01*
X33019998Y49550144D01*
X33020000Y49550144D01*
X33020002Y49550144D01*
X33092345Y49556474D01*
X33237035Y49569132D01*
X33237044Y49569135D01*
X33237047Y49569135D01*
X33447465Y49625517D01*
X33447465Y49625518D01*
X33447476Y49625520D01*
X33644928Y49717593D01*
X33823392Y49842555D01*
X33977445Y49996608D01*
X34102407Y50175072D01*
X34194480Y50372524D01*
X34194602Y50372978D01*
X34250865Y50582953D01*
X34250865Y50582956D01*
X34250868Y50582965D01*
X34269856Y50800000D01*
X34269856Y50800003D01*
X35580144Y50800003D01*
X35580144Y50799998D01*
X35599131Y50582969D01*
X35599134Y50582953D01*
X35655516Y50372535D01*
X35655522Y50372519D01*
X35747590Y50175076D01*
X35747592Y50175074D01*
X35872555Y49996607D01*
X36026606Y49842556D01*
X36091533Y49797094D01*
X36205072Y49717593D01*
X36205073Y49717593D01*
X36205075Y49717591D01*
X36352824Y49648696D01*
X36402524Y49625520D01*
X36402531Y49625519D01*
X36402534Y49625517D01*
X36612952Y49569135D01*
X36612958Y49569134D01*
X36612965Y49569132D01*
X36743186Y49557740D01*
X36829998Y49550144D01*
X36830000Y49550144D01*
X36830002Y49550144D01*
X36902345Y49556474D01*
X37047035Y49569132D01*
X37047044Y49569135D01*
X37047047Y49569135D01*
X37257465Y49625517D01*
X37257465Y49625518D01*
X37257476Y49625520D01*
X37454928Y49717593D01*
X37633392Y49842555D01*
X37787445Y49996608D01*
X37912407Y50175072D01*
X38004480Y50372524D01*
X38004602Y50372978D01*
X38039630Y50503703D01*
X38068750Y50541654D01*
X38116176Y50547897D01*
X38154127Y50518777D01*
X38160370Y50503703D01*
X38195516Y50372535D01*
X38195522Y50372519D01*
X38287590Y50175076D01*
X38287592Y50175074D01*
X38412555Y49996607D01*
X38566606Y49842556D01*
X38631533Y49797094D01*
X38745072Y49717593D01*
X38745073Y49717593D01*
X38745075Y49717591D01*
X38892824Y49648696D01*
X38942524Y49625520D01*
X38942531Y49625519D01*
X38942534Y49625517D01*
X39152952Y49569135D01*
X39152958Y49569134D01*
X39152965Y49569132D01*
X39283186Y49557740D01*
X39369998Y49550144D01*
X39370000Y49550144D01*
X39370002Y49550144D01*
X39442345Y49556474D01*
X39587035Y49569132D01*
X39587044Y49569135D01*
X39587047Y49569135D01*
X39797465Y49625517D01*
X39797465Y49625518D01*
X39797476Y49625520D01*
X39994928Y49717593D01*
X40173392Y49842555D01*
X40327445Y49996608D01*
X40452407Y50175072D01*
X40544480Y50372524D01*
X40544602Y50372978D01*
X40579630Y50503703D01*
X40608750Y50541654D01*
X40656176Y50547897D01*
X40694127Y50518777D01*
X40700370Y50503703D01*
X40735516Y50372535D01*
X40735522Y50372519D01*
X40827590Y50175076D01*
X40827592Y50175074D01*
X40952555Y49996607D01*
X41106606Y49842556D01*
X41171533Y49797094D01*
X41285072Y49717593D01*
X41285073Y49717593D01*
X41285075Y49717591D01*
X41432824Y49648696D01*
X41482524Y49625520D01*
X41482531Y49625519D01*
X41482534Y49625517D01*
X41692952Y49569135D01*
X41692958Y49569134D01*
X41692965Y49569132D01*
X41823186Y49557740D01*
X41909998Y49550144D01*
X41910000Y49550144D01*
X41910002Y49550144D01*
X41982345Y49556474D01*
X42127035Y49569132D01*
X42127044Y49569135D01*
X42127047Y49569135D01*
X42337465Y49625517D01*
X42337465Y49625518D01*
X42337476Y49625520D01*
X42534928Y49717593D01*
X42713392Y49842555D01*
X42867445Y49996608D01*
X42992407Y50175072D01*
X43084480Y50372524D01*
X43084602Y50372978D01*
X43119630Y50503703D01*
X43148750Y50541654D01*
X43196176Y50547897D01*
X43234127Y50518777D01*
X43240370Y50503703D01*
X43275516Y50372535D01*
X43275522Y50372519D01*
X43367590Y50175076D01*
X43367592Y50175074D01*
X43492555Y49996607D01*
X43646606Y49842556D01*
X43711533Y49797094D01*
X43825072Y49717593D01*
X43825073Y49717593D01*
X43825075Y49717591D01*
X43972824Y49648696D01*
X44022524Y49625520D01*
X44022531Y49625519D01*
X44022534Y49625517D01*
X44232952Y49569135D01*
X44232958Y49569134D01*
X44232965Y49569132D01*
X44363186Y49557740D01*
X44449998Y49550144D01*
X44450000Y49550144D01*
X44450002Y49550144D01*
X44522345Y49556474D01*
X44667035Y49569132D01*
X44667044Y49569135D01*
X44667047Y49569135D01*
X44877465Y49625517D01*
X44877465Y49625518D01*
X44877476Y49625520D01*
X45074928Y49717593D01*
X45253392Y49842555D01*
X45407445Y49996608D01*
X45532407Y50175072D01*
X45624480Y50372524D01*
X45624602Y50372978D01*
X45659630Y50503703D01*
X45688750Y50541654D01*
X45736176Y50547897D01*
X45774127Y50518777D01*
X45780370Y50503703D01*
X45815516Y50372535D01*
X45815522Y50372519D01*
X45907590Y50175076D01*
X45907592Y50175074D01*
X46032555Y49996607D01*
X46186606Y49842556D01*
X46251533Y49797094D01*
X46365072Y49717593D01*
X46365073Y49717593D01*
X46365075Y49717591D01*
X46512824Y49648696D01*
X46562524Y49625520D01*
X46562531Y49625519D01*
X46562534Y49625517D01*
X46772952Y49569135D01*
X46772958Y49569134D01*
X46772965Y49569132D01*
X46903186Y49557740D01*
X46989998Y49550144D01*
X46990000Y49550144D01*
X46990002Y49550144D01*
X47062345Y49556474D01*
X47207035Y49569132D01*
X47207044Y49569135D01*
X47207047Y49569135D01*
X47417465Y49625517D01*
X47417465Y49625518D01*
X47417476Y49625520D01*
X47614928Y49717593D01*
X47793392Y49842555D01*
X47947445Y49996608D01*
X48072407Y50175072D01*
X48164480Y50372524D01*
X48164602Y50372978D01*
X48199630Y50503703D01*
X48228750Y50541654D01*
X48276176Y50547897D01*
X48314127Y50518777D01*
X48320370Y50503703D01*
X48355516Y50372535D01*
X48355522Y50372519D01*
X48447590Y50175076D01*
X48447592Y50175074D01*
X48572555Y49996607D01*
X48726606Y49842556D01*
X48791533Y49797094D01*
X48905072Y49717593D01*
X48905073Y49717593D01*
X48905075Y49717591D01*
X49052824Y49648696D01*
X49102524Y49625520D01*
X49102531Y49625519D01*
X49102534Y49625517D01*
X49312952Y49569135D01*
X49312958Y49569134D01*
X49312965Y49569132D01*
X49443186Y49557740D01*
X49529998Y49550144D01*
X49530000Y49550144D01*
X49530002Y49550144D01*
X49602345Y49556474D01*
X49747035Y49569132D01*
X49747044Y49569135D01*
X49747047Y49569135D01*
X49957465Y49625517D01*
X49957465Y49625518D01*
X49957476Y49625520D01*
X50154928Y49717593D01*
X50333392Y49842555D01*
X50487445Y49996608D01*
X50612407Y50175072D01*
X50704480Y50372524D01*
X50704602Y50372978D01*
X50739630Y50503703D01*
X50768750Y50541654D01*
X50816176Y50547897D01*
X50854127Y50518777D01*
X50860370Y50503703D01*
X50895516Y50372535D01*
X50895522Y50372519D01*
X50987590Y50175076D01*
X50987592Y50175074D01*
X51112555Y49996607D01*
X51266606Y49842556D01*
X51331533Y49797094D01*
X51445072Y49717593D01*
X51445073Y49717593D01*
X51445075Y49717591D01*
X51592824Y49648696D01*
X51642524Y49625520D01*
X51642531Y49625519D01*
X51642534Y49625517D01*
X51852952Y49569135D01*
X51852958Y49569134D01*
X51852965Y49569132D01*
X51983186Y49557740D01*
X52069998Y49550144D01*
X52070000Y49550144D01*
X52070002Y49550144D01*
X52142345Y49556474D01*
X52287035Y49569132D01*
X52287044Y49569135D01*
X52287047Y49569135D01*
X52497465Y49625517D01*
X52497465Y49625518D01*
X52497476Y49625520D01*
X52694928Y49717593D01*
X52873392Y49842555D01*
X53027445Y49996608D01*
X53152407Y50175072D01*
X53244480Y50372524D01*
X53244602Y50372978D01*
X53279630Y50503703D01*
X53308750Y50541654D01*
X53356176Y50547897D01*
X53394127Y50518777D01*
X53400370Y50503703D01*
X53435516Y50372535D01*
X53435522Y50372519D01*
X53527590Y50175076D01*
X53527592Y50175074D01*
X53652555Y49996607D01*
X53806606Y49842556D01*
X53871533Y49797094D01*
X53985072Y49717593D01*
X53985073Y49717593D01*
X53985075Y49717591D01*
X54132824Y49648696D01*
X54182524Y49625520D01*
X54182531Y49625519D01*
X54182534Y49625517D01*
X54392952Y49569135D01*
X54392958Y49569134D01*
X54392965Y49569132D01*
X54523186Y49557740D01*
X54609998Y49550144D01*
X54610000Y49550144D01*
X54610002Y49550144D01*
X54682345Y49556474D01*
X54827035Y49569132D01*
X54827044Y49569135D01*
X54827047Y49569135D01*
X55037465Y49625517D01*
X55037465Y49625518D01*
X55037476Y49625520D01*
X55234928Y49717593D01*
X55413392Y49842555D01*
X55567445Y49996608D01*
X55692407Y50175072D01*
X55784480Y50372524D01*
X55784602Y50372978D01*
X55840865Y50582953D01*
X55840865Y50582956D01*
X55840868Y50582965D01*
X55859856Y50800000D01*
X55840868Y51017035D01*
X55831471Y51052104D01*
X55784483Y51227466D01*
X55784481Y51227469D01*
X55784480Y51227476D01*
X55746931Y51308000D01*
X55692409Y51424925D01*
X55692407Y51424927D01*
X55692407Y51424928D01*
X55567445Y51603392D01*
X55567444Y51603394D01*
X55413393Y51757445D01*
X55236540Y51881278D01*
X55234928Y51882407D01*
X55234926Y51882408D01*
X55234924Y51882410D01*
X55037481Y51974478D01*
X55037465Y51974484D01*
X54827047Y52030866D01*
X54827031Y52030869D01*
X54610002Y52049856D01*
X54609998Y52049856D01*
X54392968Y52030869D01*
X54392952Y52030866D01*
X54182534Y51974484D01*
X54182518Y51974478D01*
X53985075Y51882410D01*
X53985073Y51882408D01*
X53806606Y51757445D01*
X53652555Y51603394D01*
X53527592Y51424927D01*
X53527590Y51424925D01*
X53435522Y51227482D01*
X53435516Y51227466D01*
X53400370Y51096298D01*
X53371250Y51058347D01*
X53323824Y51052104D01*
X53285873Y51081224D01*
X53279630Y51096298D01*
X53244483Y51227466D01*
X53244481Y51227469D01*
X53244480Y51227476D01*
X53206931Y51308000D01*
X53152409Y51424925D01*
X53152407Y51424927D01*
X53152407Y51424928D01*
X53027445Y51603392D01*
X53027444Y51603394D01*
X52873393Y51757445D01*
X52696540Y51881278D01*
X52694928Y51882407D01*
X52694926Y51882408D01*
X52694924Y51882410D01*
X52497481Y51974478D01*
X52497465Y51974484D01*
X52287047Y52030866D01*
X52287031Y52030869D01*
X52070002Y52049856D01*
X52069998Y52049856D01*
X51852968Y52030869D01*
X51852952Y52030866D01*
X51642534Y51974484D01*
X51642518Y51974478D01*
X51445075Y51882410D01*
X51445073Y51882408D01*
X51266606Y51757445D01*
X51112555Y51603394D01*
X50987592Y51424927D01*
X50987590Y51424925D01*
X50895522Y51227482D01*
X50895516Y51227466D01*
X50860370Y51096298D01*
X50831250Y51058347D01*
X50783824Y51052104D01*
X50745873Y51081224D01*
X50739630Y51096298D01*
X50704483Y51227466D01*
X50704481Y51227469D01*
X50704480Y51227476D01*
X50666931Y51308000D01*
X50612409Y51424925D01*
X50612407Y51424927D01*
X50612407Y51424928D01*
X50487445Y51603392D01*
X50487444Y51603394D01*
X50333393Y51757445D01*
X50156540Y51881278D01*
X50154928Y51882407D01*
X50154926Y51882408D01*
X50154924Y51882410D01*
X49957481Y51974478D01*
X49957465Y51974484D01*
X49747047Y52030866D01*
X49747031Y52030869D01*
X49530002Y52049856D01*
X49529998Y52049856D01*
X49312968Y52030869D01*
X49312952Y52030866D01*
X49102534Y51974484D01*
X49102518Y51974478D01*
X48905075Y51882410D01*
X48905073Y51882408D01*
X48726606Y51757445D01*
X48572555Y51603394D01*
X48447592Y51424927D01*
X48447590Y51424925D01*
X48355522Y51227482D01*
X48355516Y51227466D01*
X48320370Y51096298D01*
X48291250Y51058347D01*
X48243824Y51052104D01*
X48205873Y51081224D01*
X48199630Y51096298D01*
X48164483Y51227466D01*
X48164481Y51227469D01*
X48164480Y51227476D01*
X48126931Y51308000D01*
X48072409Y51424925D01*
X48072407Y51424927D01*
X48072407Y51424928D01*
X47947445Y51603392D01*
X47947444Y51603394D01*
X47793393Y51757445D01*
X47616540Y51881278D01*
X47614928Y51882407D01*
X47614926Y51882408D01*
X47614924Y51882410D01*
X47417481Y51974478D01*
X47417465Y51974484D01*
X47207047Y52030866D01*
X47207031Y52030869D01*
X46990002Y52049856D01*
X46989998Y52049856D01*
X46772968Y52030869D01*
X46772952Y52030866D01*
X46562534Y51974484D01*
X46562518Y51974478D01*
X46365075Y51882410D01*
X46365073Y51882408D01*
X46186606Y51757445D01*
X46032555Y51603394D01*
X45907592Y51424927D01*
X45907590Y51424925D01*
X45815522Y51227482D01*
X45815516Y51227466D01*
X45780370Y51096298D01*
X45751250Y51058347D01*
X45703824Y51052104D01*
X45665873Y51081224D01*
X45659630Y51096298D01*
X45624483Y51227466D01*
X45624481Y51227469D01*
X45624480Y51227476D01*
X45586931Y51308000D01*
X45532409Y51424925D01*
X45532407Y51424927D01*
X45532407Y51424928D01*
X45407445Y51603392D01*
X45407444Y51603394D01*
X45253393Y51757445D01*
X45076540Y51881278D01*
X45074928Y51882407D01*
X45074926Y51882408D01*
X45074924Y51882410D01*
X44877481Y51974478D01*
X44877465Y51974484D01*
X44667047Y52030866D01*
X44667031Y52030869D01*
X44450002Y52049856D01*
X44449998Y52049856D01*
X44232968Y52030869D01*
X44232952Y52030866D01*
X44022534Y51974484D01*
X44022518Y51974478D01*
X43825075Y51882410D01*
X43825073Y51882408D01*
X43646606Y51757445D01*
X43492555Y51603394D01*
X43367592Y51424927D01*
X43367590Y51424925D01*
X43275522Y51227482D01*
X43275516Y51227466D01*
X43240370Y51096298D01*
X43211250Y51058347D01*
X43163824Y51052104D01*
X43125873Y51081224D01*
X43119630Y51096298D01*
X43084483Y51227466D01*
X43084481Y51227469D01*
X43084480Y51227476D01*
X43046931Y51308000D01*
X42992409Y51424925D01*
X42992407Y51424927D01*
X42992407Y51424928D01*
X42867445Y51603392D01*
X42867444Y51603394D01*
X42713393Y51757445D01*
X42536540Y51881278D01*
X42534928Y51882407D01*
X42534926Y51882408D01*
X42534924Y51882410D01*
X42337481Y51974478D01*
X42337465Y51974484D01*
X42127047Y52030866D01*
X42127031Y52030869D01*
X41910002Y52049856D01*
X41909998Y52049856D01*
X41692968Y52030869D01*
X41692952Y52030866D01*
X41482534Y51974484D01*
X41482518Y51974478D01*
X41285075Y51882410D01*
X41285073Y51882408D01*
X41106606Y51757445D01*
X40952555Y51603394D01*
X40827592Y51424927D01*
X40827590Y51424925D01*
X40735522Y51227482D01*
X40735516Y51227466D01*
X40700370Y51096298D01*
X40671250Y51058347D01*
X40623824Y51052104D01*
X40585873Y51081224D01*
X40579630Y51096298D01*
X40544483Y51227466D01*
X40544481Y51227469D01*
X40544480Y51227476D01*
X40506931Y51308000D01*
X40452409Y51424925D01*
X40452407Y51424927D01*
X40452407Y51424928D01*
X40327445Y51603392D01*
X40327444Y51603394D01*
X40173393Y51757445D01*
X39996540Y51881278D01*
X39994928Y51882407D01*
X39994926Y51882408D01*
X39994924Y51882410D01*
X39797481Y51974478D01*
X39797465Y51974484D01*
X39587047Y52030866D01*
X39587031Y52030869D01*
X39370002Y52049856D01*
X39369998Y52049856D01*
X39152968Y52030869D01*
X39152952Y52030866D01*
X38942534Y51974484D01*
X38942518Y51974478D01*
X38745075Y51882410D01*
X38745073Y51882408D01*
X38566606Y51757445D01*
X38412555Y51603394D01*
X38287592Y51424927D01*
X38287590Y51424925D01*
X38195522Y51227482D01*
X38195516Y51227466D01*
X38160370Y51096298D01*
X38131250Y51058347D01*
X38083824Y51052104D01*
X38045873Y51081224D01*
X38039630Y51096298D01*
X38004483Y51227466D01*
X38004481Y51227469D01*
X38004480Y51227476D01*
X37966931Y51308000D01*
X37912409Y51424925D01*
X37912407Y51424927D01*
X37912407Y51424928D01*
X37787445Y51603392D01*
X37787444Y51603394D01*
X37633393Y51757445D01*
X37456540Y51881278D01*
X37454928Y51882407D01*
X37454926Y51882408D01*
X37454924Y51882410D01*
X37257481Y51974478D01*
X37257465Y51974484D01*
X37047047Y52030866D01*
X37047031Y52030869D01*
X36830002Y52049856D01*
X36829998Y52049856D01*
X36612968Y52030869D01*
X36612952Y52030866D01*
X36402534Y51974484D01*
X36402518Y51974478D01*
X36205075Y51882410D01*
X36205073Y51882408D01*
X36026606Y51757445D01*
X35872555Y51603394D01*
X35747592Y51424927D01*
X35747590Y51424925D01*
X35655522Y51227482D01*
X35655516Y51227466D01*
X35599134Y51017048D01*
X35599131Y51017032D01*
X35580144Y50800003D01*
X34269856Y50800003D01*
X34250868Y51017035D01*
X34241471Y51052104D01*
X34194483Y51227466D01*
X34194481Y51227469D01*
X34194480Y51227476D01*
X34156931Y51308000D01*
X34102409Y51424925D01*
X34102407Y51424927D01*
X34102407Y51424928D01*
X33977445Y51603392D01*
X33977444Y51603394D01*
X33823393Y51757445D01*
X33646540Y51881278D01*
X33644928Y51882407D01*
X33644926Y51882408D01*
X33644924Y51882410D01*
X33447481Y51974478D01*
X33447465Y51974484D01*
X33237047Y52030866D01*
X33237031Y52030869D01*
X33020002Y52049856D01*
X33019998Y52049856D01*
X32802968Y52030869D01*
X32802952Y52030866D01*
X32592534Y51974484D01*
X32592518Y51974478D01*
X32395075Y51882410D01*
X32395073Y51882408D01*
X32216606Y51757445D01*
X32062555Y51603394D01*
X31937592Y51424927D01*
X31937590Y51424925D01*
X31845522Y51227482D01*
X31845516Y51227466D01*
X31810370Y51096298D01*
X31781250Y51058347D01*
X31733824Y51052104D01*
X31695873Y51081224D01*
X31689630Y51096298D01*
X31654483Y51227466D01*
X31654481Y51227469D01*
X31654480Y51227476D01*
X31616931Y51308000D01*
X31562409Y51424925D01*
X31562407Y51424927D01*
X31562407Y51424928D01*
X31437445Y51603392D01*
X31437444Y51603394D01*
X31283393Y51757445D01*
X31106540Y51881278D01*
X31104928Y51882407D01*
X31104926Y51882408D01*
X31104924Y51882410D01*
X30907481Y51974478D01*
X30907465Y51974484D01*
X30697047Y52030866D01*
X30697031Y52030869D01*
X30480002Y52049856D01*
X30479998Y52049856D01*
X30262968Y52030869D01*
X30262952Y52030866D01*
X30052534Y51974484D01*
X30052518Y51974478D01*
X29855075Y51882410D01*
X29855073Y51882408D01*
X29676606Y51757445D01*
X29522555Y51603394D01*
X29397592Y51424927D01*
X29397590Y51424925D01*
X29305522Y51227482D01*
X29305516Y51227466D01*
X29270370Y51096298D01*
X29241250Y51058347D01*
X29193824Y51052104D01*
X29155873Y51081224D01*
X29149630Y51096298D01*
X29114483Y51227466D01*
X29114481Y51227469D01*
X29114480Y51227476D01*
X29076931Y51308000D01*
X29022409Y51424925D01*
X29022407Y51424927D01*
X29022407Y51424928D01*
X28897445Y51603392D01*
X28897444Y51603394D01*
X28743393Y51757445D01*
X28566540Y51881278D01*
X28564928Y51882407D01*
X28564926Y51882408D01*
X28564924Y51882410D01*
X28367481Y51974478D01*
X28367465Y51974484D01*
X28157047Y52030866D01*
X28157031Y52030869D01*
X27940002Y52049856D01*
X27939998Y52049856D01*
X27722968Y52030869D01*
X27722952Y52030866D01*
X27512534Y51974484D01*
X27512518Y51974478D01*
X27315075Y51882410D01*
X27315073Y51882408D01*
X27136606Y51757445D01*
X26982555Y51603394D01*
X26857592Y51424927D01*
X26857590Y51424925D01*
X26765522Y51227482D01*
X26765516Y51227466D01*
X26730370Y51096298D01*
X26701250Y51058347D01*
X26653824Y51052104D01*
X26615873Y51081224D01*
X26609630Y51096298D01*
X26574483Y51227466D01*
X26574481Y51227469D01*
X26574480Y51227476D01*
X26536931Y51308000D01*
X26482409Y51424925D01*
X26482407Y51424927D01*
X26482407Y51424928D01*
X26357445Y51603392D01*
X26357444Y51603394D01*
X26203393Y51757445D01*
X26026540Y51881278D01*
X26024928Y51882407D01*
X26024926Y51882408D01*
X26024924Y51882410D01*
X25827481Y51974478D01*
X25827465Y51974484D01*
X25617047Y52030866D01*
X25617031Y52030869D01*
X25400002Y52049856D01*
X25399998Y52049856D01*
X25182968Y52030869D01*
X25182952Y52030866D01*
X24972534Y51974484D01*
X24972518Y51974478D01*
X24775075Y51882410D01*
X24775073Y51882408D01*
X24596606Y51757445D01*
X24442555Y51603394D01*
X24317592Y51424927D01*
X24317590Y51424925D01*
X24225522Y51227482D01*
X24225516Y51227466D01*
X24190370Y51096298D01*
X24161250Y51058347D01*
X24113824Y51052104D01*
X24075873Y51081224D01*
X24069630Y51096298D01*
X24034483Y51227466D01*
X24034481Y51227469D01*
X24034480Y51227476D01*
X23996931Y51308000D01*
X23942409Y51424925D01*
X23942407Y51424927D01*
X23942407Y51424928D01*
X23817445Y51603392D01*
X23817444Y51603394D01*
X23663393Y51757445D01*
X23486540Y51881278D01*
X23484928Y51882407D01*
X23484926Y51882408D01*
X23484924Y51882410D01*
X23287481Y51974478D01*
X23287465Y51974484D01*
X23077047Y52030866D01*
X23077031Y52030869D01*
X22860002Y52049856D01*
X22859998Y52049856D01*
X22642968Y52030869D01*
X22642952Y52030866D01*
X22432534Y51974484D01*
X22432518Y51974478D01*
X22235075Y51882410D01*
X22235073Y51882408D01*
X22056606Y51757445D01*
X21902555Y51603394D01*
X21777592Y51424927D01*
X21777590Y51424925D01*
X21685522Y51227482D01*
X21685516Y51227466D01*
X21650370Y51096298D01*
X21621250Y51058347D01*
X21573824Y51052104D01*
X21535873Y51081224D01*
X21529630Y51096298D01*
X21494483Y51227466D01*
X21494481Y51227469D01*
X21494480Y51227476D01*
X21456931Y51308000D01*
X21402409Y51424925D01*
X21402407Y51424927D01*
X21402407Y51424928D01*
X21277445Y51603392D01*
X21277444Y51603394D01*
X21123393Y51757445D01*
X20946540Y51881278D01*
X20944928Y51882407D01*
X20944926Y51882408D01*
X20944924Y51882410D01*
X20747481Y51974478D01*
X20747465Y51974484D01*
X20537047Y52030866D01*
X20537031Y52030869D01*
X20320002Y52049856D01*
X20319998Y52049856D01*
X20102968Y52030869D01*
X20102952Y52030866D01*
X19892534Y51974484D01*
X19892518Y51974478D01*
X19695075Y51882410D01*
X19695073Y51882408D01*
X19516606Y51757445D01*
X19362555Y51603394D01*
X19237592Y51424927D01*
X19237590Y51424925D01*
X19145522Y51227482D01*
X19145517Y51227469D01*
X19109697Y51093786D01*
X19080577Y51055836D01*
X19033150Y51049593D01*
X18995200Y51078713D01*
X18988957Y51093787D01*
X18953255Y51227027D01*
X18953254Y51227029D01*
X18861277Y51424275D01*
X18736445Y51602555D01*
X18582554Y51756446D01*
X18404274Y51881278D01*
X18404272Y51881280D01*
X18207035Y51973252D01*
X18207019Y51973258D01*
X17996821Y52029581D01*
X17996805Y52029584D01*
X17932000Y52035254D01*
X17932000Y51285193D01*
X17846880Y51308000D01*
X17713120Y51308000D01*
X17628000Y51285193D01*
X17628000Y52035254D01*
X17563194Y52029584D01*
X17563178Y52029581D01*
X17352973Y51973256D01*
X17352971Y51973255D01*
X17155725Y51881278D01*
X16977445Y51756446D01*
X16823554Y51602555D01*
X16698722Y51424275D01*
X16606745Y51227029D01*
X16571042Y51093786D01*
X16541922Y51055836D01*
X16494495Y51049593D01*
X16456545Y51078713D01*
X16450302Y51093787D01*
X16414483Y51227466D01*
X16414481Y51227469D01*
X16414480Y51227476D01*
X16376931Y51308000D01*
X16322409Y51424925D01*
X16322407Y51424927D01*
X16322407Y51424928D01*
X16197445Y51603392D01*
X16197444Y51603394D01*
X16043393Y51757445D01*
X15866540Y51881278D01*
X15864928Y51882407D01*
X15864926Y51882408D01*
X15864924Y51882410D01*
X15667481Y51974478D01*
X15667465Y51974484D01*
X15457047Y52030866D01*
X15457031Y52030869D01*
X15240002Y52049856D01*
X15239998Y52049856D01*
X15022968Y52030869D01*
X15022952Y52030866D01*
X14812534Y51974484D01*
X14812518Y51974478D01*
X14615075Y51882410D01*
X14615073Y51882408D01*
X14436606Y51757445D01*
X14282555Y51603394D01*
X14157592Y51424927D01*
X14157590Y51424925D01*
X14065522Y51227482D01*
X14065516Y51227466D01*
X14030370Y51096298D01*
X14001250Y51058347D01*
X13953824Y51052104D01*
X13915873Y51081224D01*
X13909630Y51096298D01*
X13874483Y51227466D01*
X13874481Y51227469D01*
X13874480Y51227476D01*
X13836931Y51308000D01*
X13782409Y51424925D01*
X13782407Y51424927D01*
X13782407Y51424928D01*
X13657445Y51603392D01*
X13657444Y51603394D01*
X13503393Y51757445D01*
X13326540Y51881278D01*
X13324928Y51882407D01*
X13324926Y51882408D01*
X13324924Y51882410D01*
X13127481Y51974478D01*
X13127465Y51974484D01*
X12917047Y52030866D01*
X12917031Y52030869D01*
X12700002Y52049856D01*
X12699998Y52049856D01*
X12482968Y52030869D01*
X12482952Y52030866D01*
X12272534Y51974484D01*
X12272518Y51974478D01*
X12075075Y51882410D01*
X12075073Y51882408D01*
X11896606Y51757445D01*
X11742555Y51603394D01*
X11617592Y51424927D01*
X11617590Y51424925D01*
X11525522Y51227482D01*
X11525516Y51227466D01*
X11490370Y51096298D01*
X11461250Y51058347D01*
X11413824Y51052104D01*
X11375873Y51081224D01*
X11369630Y51096298D01*
X11334483Y51227466D01*
X11334481Y51227469D01*
X11334480Y51227476D01*
X11296931Y51308000D01*
X11242409Y51424925D01*
X11242407Y51424927D01*
X11242407Y51424928D01*
X11117445Y51603392D01*
X11117444Y51603394D01*
X10963393Y51757445D01*
X10786540Y51881278D01*
X10784928Y51882407D01*
X10784926Y51882408D01*
X10784924Y51882410D01*
X10587481Y51974478D01*
X10587465Y51974484D01*
X10377047Y52030866D01*
X10377031Y52030869D01*
X10160002Y52049856D01*
X10159998Y52049856D01*
X9942968Y52030869D01*
X9942952Y52030866D01*
X9732534Y51974484D01*
X9732518Y51974478D01*
X9535075Y51882410D01*
X9535073Y51882408D01*
X9356606Y51757445D01*
X9202555Y51603394D01*
X9077592Y51424927D01*
X9077590Y51424925D01*
X8985522Y51227482D01*
X8985516Y51227466D01*
X8929134Y51017048D01*
X8929131Y51017032D01*
X8910144Y50800003D01*
X180315Y50800003D01*
X2574506Y53194194D01*
X2618700Y53212500D01*
X68390000Y53212500D01*
X68434194Y53194194D01*
G37*
%TD.AperFunction*%
%TD*%
M02*
