%TF.GenerationSoftware,KiCad,Pcbnew,8.0.5*%
%TF.CreationDate,2024-10-24T20:07:57-06:00*%
%TF.ProjectId,Diorama_Controller,44696f72-616d-4615-9f43-6f6e74726f6c,v10*%
%TF.SameCoordinates,Original*%
%TF.FileFunction,Copper,L2,Bot*%
%TF.FilePolarity,Positive*%
%FSLAX46Y46*%
G04 Gerber Fmt 4.6, Leading zero omitted, Abs format (unit mm)*
G04 Created by KiCad (PCBNEW 8.0.5) date 2024-10-24 20:07:57*
%MOMM*%
%LPD*%
G01*
G04 APERTURE LIST*
%TA.AperFunction,ComponentPad*%
%ADD10C,1.879600*%
%TD*%
%TA.AperFunction,ViaPad*%
%ADD11C,0.600000*%
%TD*%
%TA.AperFunction,Conductor*%
%ADD12C,0.406400*%
%TD*%
G04 APERTURE END LIST*
D10*
%TO.P,B1,3.3V,3.3V*%
%TO.N,unconnected-(B1-Pad3.3V)*%
X26670000Y2540000D03*
%TO.P,B1,5V,5V*%
%TO.N,5V*%
X29210000Y2540000D03*
%TO.P,B1,A0,A0*%
%TO.N,BTN1*%
X41910000Y2540000D03*
%TO.P,B1,A1,A1*%
%TO.N,BTN2*%
X44450000Y2540000D03*
%TO.P,B1,A2,A2*%
%TO.N,BTN3*%
X46990000Y2540000D03*
%TO.P,B1,A3,A3*%
%TO.N,BTN4*%
X49530000Y2540000D03*
%TO.P,B1,A4/SDA,A4/SDA*%
%TO.N,BTN5*%
X12700000Y50800000D03*
X52070000Y2540000D03*
%TO.P,B1,A5/SCL,A5/SCL*%
%TO.N,unconnected-(B1-PadA5{slash}SCL)*%
X10160000Y50800000D03*
X54610000Y2540000D03*
%TO.P,B1,AREF,AREF*%
%TO.N,unconnected-(B1-PadAREF)*%
X15240000Y50800000D03*
%TO.P,B1,D0/TXO,D0/TXO*%
%TO.N,unconnected-(B1-PadD0{slash}TXO)*%
X54610000Y50800000D03*
%TO.P,B1,D1/RXI,D1/RXI*%
%TO.N,unconnected-(B1-PadD1{slash}RXI)*%
X52070000Y50800000D03*
%TO.P,B1,D2,D2*%
%TO.N,unconnected-(B1-PadD2)*%
X49530000Y50800000D03*
%TO.P,B1,D3,\u002AD3*%
%TO.N,unconnected-(B1-\u002AD3-PadD3)*%
X46990000Y50800000D03*
%TO.P,B1,D4,D4*%
%TO.N,unconnected-(B1-PadD4)*%
X44450000Y50800000D03*
%TO.P,B1,D5,\u002AD5*%
%TO.N,unconnected-(B1-\u002AD5-PadD5)*%
X41910000Y50800000D03*
%TO.P,B1,D6,\u002AD6*%
%TO.N,unconnected-(B1-\u002AD6-PadD6)*%
X39370000Y50800000D03*
%TO.P,B1,D7,D7*%
%TO.N,unconnected-(B1-PadD7)*%
X36830000Y50800000D03*
%TO.P,B1,D8,D8*%
%TO.N,unconnected-(B1-PadD8)*%
X33020000Y50800000D03*
%TO.P,B1,D9,\u002AD9*%
%TO.N,unconnected-(B1-\u002AD9-PadD9)*%
X30480000Y50800000D03*
%TO.P,B1,D10,\u002AD10*%
%TO.N,LED0*%
X27940000Y50800000D03*
%TO.P,B1,D11,\u002AD11/PICO*%
%TO.N,unconnected-(B1-\u002AD11{slash}PICO-PadD11)*%
X25400000Y50800000D03*
%TO.P,B1,D12,D12/POCI*%
%TO.N,unconnected-(B1-D12{slash}POCI-PadD12)*%
X22860000Y50800000D03*
%TO.P,B1,D13,D13/SCK*%
%TO.N,unconnected-(B1-D13{slash}SCK-PadD13)*%
X20320000Y50800000D03*
%TO.P,B1,GND,GND*%
%TO.N,GND*%
X17780000Y50800000D03*
X34290000Y2540000D03*
X31750000Y2540000D03*
%TO.P,B1,IOREF,IOREF*%
%TO.N,unconnected-(B1-PadIOREF)*%
X21590000Y2540000D03*
%TO.P,B1,NC,NC*%
%TO.N,unconnected-(B1-PadNC)*%
X19050000Y2540000D03*
%TO.P,B1,VIN,VIN*%
%TO.N,unconnected-(B1-PadVIN)*%
X36830000Y2540000D03*
%TO.P,B1,~{RESET},~{RESET}*%
%TO.N,unconnected-(B1-Pad~{RESET})*%
X24130000Y2540000D03*
%TD*%
D11*
%TO.N,5V*%
X3810000Y22225000D03*
X4445000Y33655000D03*
%TO.N,GND*%
X64770000Y45720000D03*
X64770000Y7620000D03*
X64770000Y20320000D03*
X64770000Y33020000D03*
X3810000Y20320000D03*
%TO.N,5V*%
X29210000Y5715000D03*
%TO.N,LED0*%
X27940000Y33655000D03*
%TO.N,BTN5*%
X12700000Y18330000D03*
%TO.N,unconnected-(B1-PadA5{slash}SCL)*%
X10160000Y41275000D03*
X54610000Y41275000D03*
%TO.N,BTN5*%
X51266797Y18415000D03*
%TO.N,BTN1*%
X41910000Y47625000D03*
%TO.N,BTN2*%
X44450000Y34925000D03*
%TO.N,BTN3*%
X46990000Y21590000D03*
%TO.N,BTN4*%
X49615000Y9610000D03*
%TO.N,5V*%
X52175000Y5610000D03*
X52070000Y18415000D03*
X52070000Y31115000D03*
X52070000Y43815000D03*
X52070000Y22225000D03*
%TD*%
D12*
%TO.N,5V*%
X4445000Y33655000D02*
X3810000Y33020000D01*
X3810000Y33020000D02*
X3810000Y22225000D01*
X29210000Y2540000D02*
X29210000Y5715000D01*
%TO.N,LED0*%
X27940000Y50800000D02*
X27940000Y33655000D01*
%TO.N,BTN5*%
X12700000Y50800000D02*
X12700000Y18330000D01*
%TO.N,unconnected-(B1-PadA5{slash}SCL)*%
X10160000Y50800000D02*
X10160000Y41275000D01*
X54610000Y2540000D02*
X54610000Y41275000D01*
%TO.N,BTN5*%
X51266797Y18415000D02*
X51266797Y3343203D01*
X51266797Y3343203D02*
X52070000Y2540000D01*
%TO.N,BTN1*%
X41910000Y47625000D02*
X41910000Y2540000D01*
%TO.N,BTN2*%
X44450000Y34925000D02*
X44450000Y2540000D01*
%TO.N,BTN3*%
X46990000Y2540000D02*
X46990000Y21590000D01*
%TO.N,BTN4*%
X49530000Y9525000D02*
X49615000Y9610000D01*
X49530000Y2540000D02*
X49530000Y9525000D01*
%TO.N,5V*%
X52070000Y18415000D02*
X52070000Y5715000D01*
X52070000Y5715000D02*
X52175000Y5610000D01*
X52070000Y18415000D02*
X52070000Y22225000D01*
X52070000Y31115000D02*
X52070000Y43815000D01*
X52070000Y22225000D02*
X52070000Y31115000D01*
%TD*%
%TA.AperFunction,Conductor*%
%TO.N,GND*%
G36*
X33038837Y2692000D02*
G01*
X33804808Y2692000D01*
X33782000Y2606880D01*
X33782000Y2473120D01*
X33804808Y2388000D01*
X33039555Y2388000D01*
X33022724Y2380152D01*
X33001165Y2388000D01*
X32235192Y2388000D01*
X32258000Y2473120D01*
X32258000Y2606880D01*
X32235192Y2692000D01*
X33000443Y2692000D01*
X33017272Y2699848D01*
X33038837Y2692000D01*
G37*
%TD.AperFunction*%
%TA.AperFunction,Conductor*%
G36*
X68434194Y53194194D02*
G01*
X68452500Y53150000D01*
X68452500Y190000D01*
X68434194Y145806D01*
X68390000Y127500D01*
X2618700Y127500D01*
X2574506Y145806D01*
X180309Y2540003D01*
X17800144Y2540003D01*
X17800144Y2539998D01*
X17819131Y2322969D01*
X17819134Y2322953D01*
X17875516Y2112535D01*
X17875522Y2112519D01*
X17967590Y1915076D01*
X17967592Y1915074D01*
X18092555Y1736607D01*
X18246606Y1582556D01*
X18311533Y1537094D01*
X18425072Y1457593D01*
X18425073Y1457593D01*
X18425075Y1457591D01*
X18572824Y1388696D01*
X18622524Y1365520D01*
X18622531Y1365519D01*
X18622534Y1365517D01*
X18832952Y1309135D01*
X18832958Y1309134D01*
X18832965Y1309132D01*
X18963186Y1297740D01*
X19049998Y1290144D01*
X19050000Y1290144D01*
X19050002Y1290144D01*
X19122345Y1296474D01*
X19267035Y1309132D01*
X19267044Y1309135D01*
X19267047Y1309135D01*
X19477465Y1365517D01*
X19477465Y1365518D01*
X19477476Y1365520D01*
X19674928Y1457593D01*
X19853392Y1582555D01*
X20007445Y1736608D01*
X20132407Y1915072D01*
X20224480Y2112524D01*
X20224602Y2112978D01*
X20259630Y2243703D01*
X20288750Y2281654D01*
X20336176Y2287897D01*
X20374127Y2258777D01*
X20380370Y2243703D01*
X20415516Y2112535D01*
X20415522Y2112519D01*
X20507590Y1915076D01*
X20507592Y1915074D01*
X20632555Y1736607D01*
X20786606Y1582556D01*
X20851533Y1537094D01*
X20965072Y1457593D01*
X20965073Y1457593D01*
X20965075Y1457591D01*
X21112824Y1388696D01*
X21162524Y1365520D01*
X21162531Y1365519D01*
X21162534Y1365517D01*
X21372952Y1309135D01*
X21372958Y1309134D01*
X21372965Y1309132D01*
X21503186Y1297740D01*
X21589998Y1290144D01*
X21590000Y1290144D01*
X21590002Y1290144D01*
X21662345Y1296474D01*
X21807035Y1309132D01*
X21807044Y1309135D01*
X21807047Y1309135D01*
X22017465Y1365517D01*
X22017465Y1365518D01*
X22017476Y1365520D01*
X22214928Y1457593D01*
X22393392Y1582555D01*
X22547445Y1736608D01*
X22672407Y1915072D01*
X22764480Y2112524D01*
X22764602Y2112978D01*
X22799630Y2243703D01*
X22828750Y2281654D01*
X22876176Y2287897D01*
X22914127Y2258777D01*
X22920370Y2243703D01*
X22955516Y2112535D01*
X22955522Y2112519D01*
X23047590Y1915076D01*
X23047592Y1915074D01*
X23172555Y1736607D01*
X23326606Y1582556D01*
X23391533Y1537094D01*
X23505072Y1457593D01*
X23505073Y1457593D01*
X23505075Y1457591D01*
X23652824Y1388696D01*
X23702524Y1365520D01*
X23702531Y1365519D01*
X23702534Y1365517D01*
X23912952Y1309135D01*
X23912958Y1309134D01*
X23912965Y1309132D01*
X24043186Y1297740D01*
X24129998Y1290144D01*
X24130000Y1290144D01*
X24130002Y1290144D01*
X24202345Y1296474D01*
X24347035Y1309132D01*
X24347044Y1309135D01*
X24347047Y1309135D01*
X24557465Y1365517D01*
X24557465Y1365518D01*
X24557476Y1365520D01*
X24754928Y1457593D01*
X24933392Y1582555D01*
X25087445Y1736608D01*
X25212407Y1915072D01*
X25304480Y2112524D01*
X25304602Y2112978D01*
X25339630Y2243703D01*
X25368750Y2281654D01*
X25416176Y2287897D01*
X25454127Y2258777D01*
X25460370Y2243703D01*
X25495516Y2112535D01*
X25495522Y2112519D01*
X25587590Y1915076D01*
X25587592Y1915074D01*
X25712555Y1736607D01*
X25866606Y1582556D01*
X25931533Y1537094D01*
X26045072Y1457593D01*
X26045073Y1457593D01*
X26045075Y1457591D01*
X26192824Y1388696D01*
X26242524Y1365520D01*
X26242531Y1365519D01*
X26242534Y1365517D01*
X26452952Y1309135D01*
X26452958Y1309134D01*
X26452965Y1309132D01*
X26583186Y1297740D01*
X26669998Y1290144D01*
X26670000Y1290144D01*
X26670002Y1290144D01*
X26742345Y1296474D01*
X26887035Y1309132D01*
X26887044Y1309135D01*
X26887047Y1309135D01*
X27097465Y1365517D01*
X27097465Y1365518D01*
X27097476Y1365520D01*
X27294928Y1457593D01*
X27473392Y1582555D01*
X27627445Y1736608D01*
X27752407Y1915072D01*
X27844480Y2112524D01*
X27844602Y2112978D01*
X27879630Y2243703D01*
X27908750Y2281654D01*
X27956176Y2287897D01*
X27994127Y2258777D01*
X28000370Y2243703D01*
X28035516Y2112535D01*
X28035522Y2112519D01*
X28127590Y1915076D01*
X28127592Y1915074D01*
X28252555Y1736607D01*
X28406606Y1582556D01*
X28471533Y1537094D01*
X28585072Y1457593D01*
X28585073Y1457593D01*
X28585075Y1457591D01*
X28732824Y1388696D01*
X28782524Y1365520D01*
X28782531Y1365519D01*
X28782534Y1365517D01*
X28992952Y1309135D01*
X28992958Y1309134D01*
X28992965Y1309132D01*
X29123186Y1297740D01*
X29209998Y1290144D01*
X29210000Y1290144D01*
X29210002Y1290144D01*
X29282345Y1296474D01*
X29427035Y1309132D01*
X29427044Y1309135D01*
X29427047Y1309135D01*
X29637465Y1365517D01*
X29637465Y1365518D01*
X29637476Y1365520D01*
X29834928Y1457593D01*
X30013392Y1582555D01*
X30167445Y1736608D01*
X30292407Y1915072D01*
X30384480Y2112524D01*
X30384603Y2112981D01*
X30415443Y2228080D01*
X30420302Y2246215D01*
X30449422Y2284164D01*
X30496848Y2290408D01*
X30534798Y2261288D01*
X30541042Y2246215D01*
X30576743Y2112978D01*
X30576748Y2112965D01*
X30668720Y1915728D01*
X30668722Y1915726D01*
X30793554Y1737446D01*
X30947445Y1583555D01*
X31125725Y1458723D01*
X31125727Y1458721D01*
X31322964Y1366749D01*
X31322980Y1366743D01*
X31533181Y1310419D01*
X31533190Y1310418D01*
X31598000Y1304748D01*
X31598000Y2054808D01*
X31683120Y2032000D01*
X31816880Y2032000D01*
X31902000Y2054808D01*
X31902000Y1304749D01*
X31966809Y1310418D01*
X31966818Y1310419D01*
X32177019Y1366743D01*
X32177035Y1366749D01*
X32374272Y1458721D01*
X32374274Y1458723D01*
X32552554Y1583555D01*
X32706445Y1737446D01*
X32831277Y1915726D01*
X32831279Y1915728D01*
X32923251Y2112965D01*
X32923257Y2112981D01*
X32959630Y2248724D01*
X32988750Y2286675D01*
X33036176Y2292918D01*
X33074127Y2263798D01*
X33080370Y2248724D01*
X33116742Y2112981D01*
X33116748Y2112965D01*
X33208720Y1915728D01*
X33208722Y1915726D01*
X33333554Y1737446D01*
X33487445Y1583555D01*
X33665725Y1458723D01*
X33665727Y1458721D01*
X33862964Y1366749D01*
X33862980Y1366743D01*
X34073181Y1310419D01*
X34073190Y1310418D01*
X34138000Y1304748D01*
X34138000Y2054808D01*
X34223120Y2032000D01*
X34356880Y2032000D01*
X34442000Y2054808D01*
X34442000Y1304749D01*
X34506809Y1310418D01*
X34506818Y1310419D01*
X34717019Y1366743D01*
X34717035Y1366749D01*
X34914272Y1458721D01*
X34914274Y1458723D01*
X35092554Y1583555D01*
X35246445Y1737446D01*
X35371277Y1915726D01*
X35371279Y1915728D01*
X35463251Y2112965D01*
X35463257Y2112981D01*
X35498957Y2246214D01*
X35528077Y2284165D01*
X35575503Y2290408D01*
X35613454Y2261288D01*
X35619697Y2246214D01*
X35655516Y2112535D01*
X35655522Y2112519D01*
X35747590Y1915076D01*
X35747592Y1915074D01*
X35872555Y1736607D01*
X36026606Y1582556D01*
X36091533Y1537094D01*
X36205072Y1457593D01*
X36205073Y1457593D01*
X36205075Y1457591D01*
X36352824Y1388696D01*
X36402524Y1365520D01*
X36402531Y1365519D01*
X36402534Y1365517D01*
X36612952Y1309135D01*
X36612958Y1309134D01*
X36612965Y1309132D01*
X36743186Y1297740D01*
X36829998Y1290144D01*
X36830000Y1290144D01*
X36830002Y1290144D01*
X36902345Y1296474D01*
X37047035Y1309132D01*
X37047044Y1309135D01*
X37047047Y1309135D01*
X37257465Y1365517D01*
X37257465Y1365518D01*
X37257476Y1365520D01*
X37454928Y1457593D01*
X37633392Y1582555D01*
X37787445Y1736608D01*
X37912407Y1915072D01*
X38004480Y2112524D01*
X38004602Y2112978D01*
X38060865Y2322953D01*
X38060865Y2322956D01*
X38060868Y2322965D01*
X38079856Y2540000D01*
X38079856Y2540003D01*
X40660144Y2540003D01*
X40660144Y2539998D01*
X40679131Y2322969D01*
X40679134Y2322953D01*
X40735516Y2112535D01*
X40735522Y2112519D01*
X40827590Y1915076D01*
X40827592Y1915074D01*
X40952555Y1736607D01*
X41106606Y1582556D01*
X41171533Y1537094D01*
X41285072Y1457593D01*
X41285073Y1457593D01*
X41285075Y1457591D01*
X41432824Y1388696D01*
X41482524Y1365520D01*
X41482531Y1365519D01*
X41482534Y1365517D01*
X41692952Y1309135D01*
X41692958Y1309134D01*
X41692965Y1309132D01*
X41823186Y1297740D01*
X41909998Y1290144D01*
X41910000Y1290144D01*
X41910002Y1290144D01*
X41982345Y1296474D01*
X42127035Y1309132D01*
X42127044Y1309135D01*
X42127047Y1309135D01*
X42337465Y1365517D01*
X42337465Y1365518D01*
X42337476Y1365520D01*
X42534928Y1457593D01*
X42713392Y1582555D01*
X42867445Y1736608D01*
X42992407Y1915072D01*
X43084480Y2112524D01*
X43084602Y2112978D01*
X43119630Y2243703D01*
X43148750Y2281654D01*
X43196176Y2287897D01*
X43234127Y2258777D01*
X43240370Y2243703D01*
X43275516Y2112535D01*
X43275522Y2112519D01*
X43367590Y1915076D01*
X43367592Y1915074D01*
X43492555Y1736607D01*
X43646606Y1582556D01*
X43711533Y1537094D01*
X43825072Y1457593D01*
X43825073Y1457593D01*
X43825075Y1457591D01*
X43972824Y1388696D01*
X44022524Y1365520D01*
X44022531Y1365519D01*
X44022534Y1365517D01*
X44232952Y1309135D01*
X44232958Y1309134D01*
X44232965Y1309132D01*
X44363186Y1297740D01*
X44449998Y1290144D01*
X44450000Y1290144D01*
X44450002Y1290144D01*
X44522345Y1296474D01*
X44667035Y1309132D01*
X44667044Y1309135D01*
X44667047Y1309135D01*
X44877465Y1365517D01*
X44877465Y1365518D01*
X44877476Y1365520D01*
X45074928Y1457593D01*
X45253392Y1582555D01*
X45407445Y1736608D01*
X45532407Y1915072D01*
X45624480Y2112524D01*
X45624602Y2112978D01*
X45659630Y2243703D01*
X45688750Y2281654D01*
X45736176Y2287897D01*
X45774127Y2258777D01*
X45780370Y2243703D01*
X45815516Y2112535D01*
X45815522Y2112519D01*
X45907590Y1915076D01*
X45907592Y1915074D01*
X46032555Y1736607D01*
X46186606Y1582556D01*
X46251533Y1537094D01*
X46365072Y1457593D01*
X46365073Y1457593D01*
X46365075Y1457591D01*
X46512824Y1388696D01*
X46562524Y1365520D01*
X46562531Y1365519D01*
X46562534Y1365517D01*
X46772952Y1309135D01*
X46772958Y1309134D01*
X46772965Y1309132D01*
X46903186Y1297740D01*
X46989998Y1290144D01*
X46990000Y1290144D01*
X46990002Y1290144D01*
X47062345Y1296474D01*
X47207035Y1309132D01*
X47207044Y1309135D01*
X47207047Y1309135D01*
X47417465Y1365517D01*
X47417465Y1365518D01*
X47417476Y1365520D01*
X47614928Y1457593D01*
X47793392Y1582555D01*
X47947445Y1736608D01*
X48072407Y1915072D01*
X48164480Y2112524D01*
X48164602Y2112978D01*
X48199630Y2243703D01*
X48228750Y2281654D01*
X48276176Y2287897D01*
X48314127Y2258777D01*
X48320370Y2243703D01*
X48355516Y2112535D01*
X48355522Y2112519D01*
X48447590Y1915076D01*
X48447592Y1915074D01*
X48572555Y1736607D01*
X48726606Y1582556D01*
X48791533Y1537094D01*
X48905072Y1457593D01*
X48905073Y1457593D01*
X48905075Y1457591D01*
X49052824Y1388696D01*
X49102524Y1365520D01*
X49102531Y1365519D01*
X49102534Y1365517D01*
X49312952Y1309135D01*
X49312958Y1309134D01*
X49312965Y1309132D01*
X49443186Y1297740D01*
X49529998Y1290144D01*
X49530000Y1290144D01*
X49530002Y1290144D01*
X49602345Y1296474D01*
X49747035Y1309132D01*
X49747044Y1309135D01*
X49747047Y1309135D01*
X49957465Y1365517D01*
X49957465Y1365518D01*
X49957476Y1365520D01*
X50154928Y1457593D01*
X50333392Y1582555D01*
X50487445Y1736608D01*
X50612407Y1915072D01*
X50704480Y2112524D01*
X50704602Y2112978D01*
X50739630Y2243703D01*
X50768750Y2281654D01*
X50816176Y2287897D01*
X50854127Y2258777D01*
X50860370Y2243703D01*
X50895516Y2112535D01*
X50895522Y2112519D01*
X50987590Y1915076D01*
X50987592Y1915074D01*
X51112555Y1736607D01*
X51266606Y1582556D01*
X51331533Y1537094D01*
X51445072Y1457593D01*
X51445073Y1457593D01*
X51445075Y1457591D01*
X51592824Y1388696D01*
X51642524Y1365520D01*
X51642531Y1365519D01*
X51642534Y1365517D01*
X51852952Y1309135D01*
X51852958Y1309134D01*
X51852965Y1309132D01*
X51983186Y1297740D01*
X52069998Y1290144D01*
X52070000Y1290144D01*
X52070002Y1290144D01*
X52142345Y1296474D01*
X52287035Y1309132D01*
X52287044Y1309135D01*
X52287047Y1309135D01*
X52497465Y1365517D01*
X52497465Y1365518D01*
X52497476Y1365520D01*
X52694928Y1457593D01*
X52873392Y1582555D01*
X53027445Y1736608D01*
X53152407Y1915072D01*
X53244480Y2112524D01*
X53244602Y2112978D01*
X53279630Y2243703D01*
X53308750Y2281654D01*
X53356176Y2287897D01*
X53394127Y2258777D01*
X53400370Y2243703D01*
X53435516Y2112535D01*
X53435522Y2112519D01*
X53527590Y1915076D01*
X53527592Y1915074D01*
X53652555Y1736607D01*
X53806606Y1582556D01*
X53871533Y1537094D01*
X53985072Y1457593D01*
X53985073Y1457593D01*
X53985075Y1457591D01*
X54132824Y1388696D01*
X54182524Y1365520D01*
X54182531Y1365519D01*
X54182534Y1365517D01*
X54392952Y1309135D01*
X54392958Y1309134D01*
X54392965Y1309132D01*
X54523186Y1297740D01*
X54609998Y1290144D01*
X54610000Y1290144D01*
X54610002Y1290144D01*
X54682345Y1296474D01*
X54827035Y1309132D01*
X54827044Y1309135D01*
X54827047Y1309135D01*
X55037465Y1365517D01*
X55037465Y1365518D01*
X55037476Y1365520D01*
X55234928Y1457593D01*
X55413392Y1582555D01*
X55567445Y1736608D01*
X55692407Y1915072D01*
X55784480Y2112524D01*
X55784602Y2112978D01*
X55840865Y2322953D01*
X55840865Y2322956D01*
X55840868Y2322965D01*
X55859856Y2540000D01*
X55840868Y2757035D01*
X55831471Y2792104D01*
X55784483Y2967466D01*
X55784481Y2967469D01*
X55784480Y2967476D01*
X55761304Y3017176D01*
X55692409Y3164925D01*
X55692407Y3164927D01*
X55692407Y3164928D01*
X55567445Y3343392D01*
X55567444Y3343394D01*
X55413393Y3497445D01*
X55236540Y3621278D01*
X55234928Y3622407D01*
X55234926Y3622408D01*
X55234927Y3622408D01*
X55154586Y3659872D01*
X55122269Y3695140D01*
X55118500Y3716516D01*
X55118500Y40922161D01*
X55131416Y40960209D01*
X55131678Y40960551D01*
X55138728Y40969738D01*
X55199720Y41116985D01*
X55220523Y41275000D01*
X55199720Y41433015D01*
X55138728Y41580261D01*
X55041705Y41706705D01*
X55041703Y41706706D01*
X55041703Y41706707D01*
X54915262Y41803728D01*
X54915259Y41803730D01*
X54768018Y41864719D01*
X54768008Y41864722D01*
X54610002Y41885523D01*
X54609998Y41885523D01*
X54451991Y41864722D01*
X54451981Y41864719D01*
X54304741Y41803730D01*
X54304738Y41803728D01*
X54178295Y41706705D01*
X54081272Y41580262D01*
X54081270Y41580259D01*
X54020281Y41433019D01*
X54020278Y41433009D01*
X53999477Y41275002D01*
X53999477Y41274999D01*
X54020278Y41116992D01*
X54020279Y41116989D01*
X54020280Y41116985D01*
X54081271Y40969741D01*
X54081272Y40969738D01*
X54088584Y40960209D01*
X54101500Y40922161D01*
X54101500Y3716516D01*
X54083194Y3672322D01*
X54065414Y3659872D01*
X53985072Y3622408D01*
X53806606Y3497445D01*
X53652555Y3343394D01*
X53527592Y3164927D01*
X53527590Y3164925D01*
X53435522Y2967482D01*
X53435516Y2967466D01*
X53400370Y2836298D01*
X53371250Y2798347D01*
X53323824Y2792104D01*
X53285873Y2821224D01*
X53279630Y2836298D01*
X53244483Y2967466D01*
X53244481Y2967469D01*
X53244480Y2967476D01*
X53221304Y3017176D01*
X53152409Y3164925D01*
X53152407Y3164927D01*
X53152407Y3164928D01*
X53027445Y3343392D01*
X53027444Y3343394D01*
X52873393Y3497445D01*
X52696540Y3621278D01*
X52694928Y3622407D01*
X52694926Y3622408D01*
X52694924Y3622410D01*
X52497481Y3714478D01*
X52497465Y3714484D01*
X52287047Y3770866D01*
X52287031Y3770869D01*
X52070002Y3789856D01*
X52069998Y3789856D01*
X51852968Y3770869D01*
X51850272Y3770393D01*
X51850049Y3771653D01*
X51806540Y3777386D01*
X51777425Y3815340D01*
X51775297Y3831509D01*
X51775297Y5027545D01*
X51793603Y5071739D01*
X51837797Y5090045D01*
X51865825Y5082532D01*
X51865953Y5082840D01*
X51868297Y5081869D01*
X51869058Y5081665D01*
X51869732Y5081277D01*
X51869738Y5081272D01*
X52016985Y5020280D01*
X52016989Y5020280D01*
X52016991Y5020279D01*
X52174998Y4999477D01*
X52175000Y4999477D01*
X52175002Y4999477D01*
X52333008Y5020279D01*
X52333008Y5020280D01*
X52333015Y5020280D01*
X52480262Y5081272D01*
X52606705Y5178295D01*
X52703728Y5304738D01*
X52764720Y5451985D01*
X52764721Y5451992D01*
X52785523Y5609999D01*
X52785523Y5610002D01*
X52764721Y5768009D01*
X52764720Y5768011D01*
X52764720Y5768015D01*
X52703728Y5915261D01*
X52606705Y6041705D01*
X52606704Y6041706D01*
X52606703Y6041707D01*
X52602951Y6044586D01*
X52579034Y6086013D01*
X52578500Y6094169D01*
X52578500Y18062161D01*
X52591416Y18100209D01*
X52591678Y18100551D01*
X52598728Y18109738D01*
X52659720Y18256985D01*
X52659721Y18256992D01*
X52680523Y18414999D01*
X52680523Y18415002D01*
X52659721Y18573009D01*
X52659720Y18573011D01*
X52659720Y18573015D01*
X52614229Y18682839D01*
X52598730Y18720258D01*
X52591413Y18729794D01*
X52578500Y18767839D01*
X52578500Y21872161D01*
X52591416Y21910209D01*
X52591678Y21910551D01*
X52598728Y21919738D01*
X52659720Y22066985D01*
X52680523Y22225000D01*
X52659720Y22383015D01*
X52640701Y22428929D01*
X52598730Y22530258D01*
X52591413Y22539794D01*
X52578500Y22577839D01*
X52578500Y30762161D01*
X52591416Y30800209D01*
X52591678Y30800551D01*
X52598728Y30809738D01*
X52659720Y30956985D01*
X52680523Y31115000D01*
X52659720Y31273015D01*
X52640701Y31318929D01*
X52598730Y31420258D01*
X52591413Y31429794D01*
X52578500Y31467839D01*
X52578500Y43462161D01*
X52591416Y43500209D01*
X52591678Y43500551D01*
X52598728Y43509738D01*
X52659720Y43656985D01*
X52680523Y43815000D01*
X52659720Y43973015D01*
X52598728Y44120261D01*
X52501705Y44246705D01*
X52501703Y44246706D01*
X52501703Y44246707D01*
X52375262Y44343728D01*
X52375259Y44343730D01*
X52228018Y44404719D01*
X52228008Y44404722D01*
X52070002Y44425523D01*
X52069998Y44425523D01*
X51911991Y44404722D01*
X51911981Y44404719D01*
X51764741Y44343730D01*
X51764738Y44343728D01*
X51638295Y44246705D01*
X51541272Y44120262D01*
X51541270Y44120259D01*
X51480281Y43973019D01*
X51480278Y43973009D01*
X51459477Y43815002D01*
X51459477Y43814999D01*
X51480278Y43656992D01*
X51480279Y43656989D01*
X51480280Y43656985D01*
X51541272Y43509738D01*
X51548584Y43500209D01*
X51561500Y43462161D01*
X51561500Y31467839D01*
X51548587Y31429794D01*
X51541269Y31420258D01*
X51480281Y31273019D01*
X51480278Y31273009D01*
X51459477Y31115002D01*
X51459477Y31114999D01*
X51480278Y30956992D01*
X51480279Y30956989D01*
X51480280Y30956985D01*
X51541272Y30809738D01*
X51548584Y30800209D01*
X51561500Y30762161D01*
X51561500Y22577839D01*
X51548587Y22539794D01*
X51541269Y22530258D01*
X51480281Y22383019D01*
X51480278Y22383009D01*
X51459477Y22225002D01*
X51459477Y22224999D01*
X51480278Y22066992D01*
X51480279Y22066989D01*
X51480280Y22066985D01*
X51499035Y22021707D01*
X51541272Y21919738D01*
X51548584Y21910209D01*
X51561500Y21872161D01*
X51561500Y19041640D01*
X51543194Y18997446D01*
X51499000Y18979140D01*
X51475083Y18983897D01*
X51424812Y19004720D01*
X51424810Y19004721D01*
X51424805Y19004722D01*
X51266799Y19025523D01*
X51266795Y19025523D01*
X51108788Y19004722D01*
X51108778Y19004719D01*
X50961538Y18943730D01*
X50961535Y18943728D01*
X50835092Y18846705D01*
X50738069Y18720262D01*
X50738067Y18720259D01*
X50677078Y18573019D01*
X50677075Y18573009D01*
X50656274Y18415002D01*
X50656274Y18414999D01*
X50677075Y18256992D01*
X50677076Y18256989D01*
X50677077Y18256985D01*
X50712287Y18171982D01*
X50738069Y18109738D01*
X50745381Y18100209D01*
X50758297Y18062161D01*
X50758297Y3276260D01*
X50758298Y3276252D01*
X50792948Y3146933D01*
X50792952Y3146924D01*
X50859893Y3030980D01*
X50859899Y3030972D01*
X50875894Y3014978D01*
X50894201Y2970785D01*
X50892071Y2954607D01*
X50860370Y2836298D01*
X50831250Y2798347D01*
X50783824Y2792104D01*
X50745873Y2821224D01*
X50739630Y2836298D01*
X50704483Y2967466D01*
X50704481Y2967469D01*
X50704480Y2967476D01*
X50681304Y3017176D01*
X50612409Y3164925D01*
X50612407Y3164927D01*
X50612407Y3164928D01*
X50487445Y3343392D01*
X50487444Y3343394D01*
X50333393Y3497445D01*
X50156540Y3621278D01*
X50154928Y3622407D01*
X50154926Y3622408D01*
X50154927Y3622408D01*
X50074586Y3659872D01*
X50042269Y3695140D01*
X50038500Y3716516D01*
X50038500Y9146387D01*
X50051416Y9184435D01*
X50143727Y9304737D01*
X50143726Y9304737D01*
X50143728Y9304738D01*
X50204720Y9451985D01*
X50225523Y9610000D01*
X50204720Y9768015D01*
X50143728Y9915261D01*
X50046705Y10041705D01*
X50046703Y10041706D01*
X50046703Y10041707D01*
X49920262Y10138728D01*
X49920259Y10138730D01*
X49773018Y10199719D01*
X49773008Y10199722D01*
X49615002Y10220523D01*
X49614998Y10220523D01*
X49456991Y10199722D01*
X49456981Y10199719D01*
X49309741Y10138730D01*
X49309738Y10138728D01*
X49183295Y10041705D01*
X49086272Y9915262D01*
X49086270Y9915259D01*
X49025281Y9768019D01*
X49025278Y9768009D01*
X49004477Y9610002D01*
X49004477Y9609999D01*
X49020965Y9484762D01*
X49021500Y9476604D01*
X49021500Y3716516D01*
X49003194Y3672322D01*
X48985414Y3659872D01*
X48905072Y3622408D01*
X48726606Y3497445D01*
X48572555Y3343394D01*
X48447592Y3164927D01*
X48447590Y3164925D01*
X48355522Y2967482D01*
X48355516Y2967466D01*
X48320370Y2836298D01*
X48291250Y2798347D01*
X48243824Y2792104D01*
X48205873Y2821224D01*
X48199630Y2836298D01*
X48164483Y2967466D01*
X48164481Y2967469D01*
X48164480Y2967476D01*
X48141304Y3017176D01*
X48072409Y3164925D01*
X48072407Y3164927D01*
X48072407Y3164928D01*
X47947445Y3343392D01*
X47947444Y3343394D01*
X47793393Y3497445D01*
X47616540Y3621278D01*
X47614928Y3622407D01*
X47614926Y3622408D01*
X47614927Y3622408D01*
X47534586Y3659872D01*
X47502269Y3695140D01*
X47498500Y3716516D01*
X47498500Y21237161D01*
X47511416Y21275209D01*
X47511678Y21275551D01*
X47518728Y21284738D01*
X47579720Y21431985D01*
X47600523Y21590000D01*
X47579720Y21748015D01*
X47539058Y21846179D01*
X47518729Y21895259D01*
X47518727Y21895262D01*
X47421703Y22021707D01*
X47295262Y22118728D01*
X47295259Y22118730D01*
X47148018Y22179719D01*
X47148008Y22179722D01*
X46990002Y22200523D01*
X46989998Y22200523D01*
X46831991Y22179722D01*
X46831981Y22179719D01*
X46684741Y22118730D01*
X46684738Y22118728D01*
X46558295Y22021705D01*
X46461272Y21895262D01*
X46461270Y21895259D01*
X46400281Y21748019D01*
X46400278Y21748009D01*
X46379477Y21590002D01*
X46379477Y21589999D01*
X46400278Y21431992D01*
X46400279Y21431989D01*
X46400280Y21431985D01*
X46461272Y21284738D01*
X46468584Y21275209D01*
X46481500Y21237161D01*
X46481500Y3716516D01*
X46463194Y3672322D01*
X46445414Y3659872D01*
X46365072Y3622408D01*
X46186606Y3497445D01*
X46032555Y3343394D01*
X45907592Y3164927D01*
X45907590Y3164925D01*
X45815522Y2967482D01*
X45815516Y2967466D01*
X45780370Y2836298D01*
X45751250Y2798347D01*
X45703824Y2792104D01*
X45665873Y2821224D01*
X45659630Y2836298D01*
X45624483Y2967466D01*
X45624481Y2967469D01*
X45624480Y2967476D01*
X45601304Y3017176D01*
X45532409Y3164925D01*
X45532407Y3164927D01*
X45532407Y3164928D01*
X45407445Y3343392D01*
X45407444Y3343394D01*
X45253393Y3497445D01*
X45076540Y3621278D01*
X45074928Y3622407D01*
X45074926Y3622408D01*
X45074927Y3622408D01*
X44994586Y3659872D01*
X44962269Y3695140D01*
X44958500Y3716516D01*
X44958500Y34572161D01*
X44971416Y34610209D01*
X44971678Y34610551D01*
X44978728Y34619738D01*
X45039720Y34766985D01*
X45060523Y34925000D01*
X45039720Y35083015D01*
X44978728Y35230261D01*
X44881705Y35356705D01*
X44881703Y35356706D01*
X44881703Y35356707D01*
X44755262Y35453728D01*
X44755259Y35453730D01*
X44608018Y35514719D01*
X44608008Y35514722D01*
X44450002Y35535523D01*
X44449998Y35535523D01*
X44291991Y35514722D01*
X44291981Y35514719D01*
X44144741Y35453730D01*
X44144738Y35453728D01*
X44018295Y35356705D01*
X43921272Y35230262D01*
X43921270Y35230259D01*
X43860281Y35083019D01*
X43860278Y35083009D01*
X43839477Y34925002D01*
X43839477Y34924999D01*
X43860278Y34766992D01*
X43860279Y34766989D01*
X43860280Y34766985D01*
X43921272Y34619738D01*
X43928584Y34610209D01*
X43941500Y34572161D01*
X43941500Y3716516D01*
X43923194Y3672322D01*
X43905414Y3659872D01*
X43825072Y3622408D01*
X43646606Y3497445D01*
X43492555Y3343394D01*
X43367592Y3164927D01*
X43367590Y3164925D01*
X43275522Y2967482D01*
X43275516Y2967466D01*
X43240370Y2836298D01*
X43211250Y2798347D01*
X43163824Y2792104D01*
X43125873Y2821224D01*
X43119630Y2836298D01*
X43084483Y2967466D01*
X43084481Y2967469D01*
X43084480Y2967476D01*
X43061304Y3017176D01*
X42992409Y3164925D01*
X42992407Y3164927D01*
X42992407Y3164928D01*
X42867445Y3343392D01*
X42867444Y3343394D01*
X42713393Y3497445D01*
X42536540Y3621278D01*
X42534928Y3622407D01*
X42534926Y3622408D01*
X42534927Y3622408D01*
X42454586Y3659872D01*
X42422269Y3695140D01*
X42418500Y3716516D01*
X42418500Y47272161D01*
X42431416Y47310209D01*
X42431678Y47310551D01*
X42438728Y47319738D01*
X42499720Y47466985D01*
X42520523Y47625000D01*
X42499720Y47783015D01*
X42438728Y47930261D01*
X42341705Y48056705D01*
X42341703Y48056706D01*
X42341703Y48056707D01*
X42215262Y48153728D01*
X42215259Y48153730D01*
X42068018Y48214719D01*
X42068008Y48214722D01*
X41910002Y48235523D01*
X41909998Y48235523D01*
X41751991Y48214722D01*
X41751981Y48214719D01*
X41604741Y48153730D01*
X41604738Y48153728D01*
X41478295Y48056705D01*
X41381272Y47930262D01*
X41381270Y47930259D01*
X41320281Y47783019D01*
X41320278Y47783009D01*
X41299477Y47625002D01*
X41299477Y47624999D01*
X41320278Y47466992D01*
X41320279Y47466989D01*
X41320280Y47466985D01*
X41381272Y47319738D01*
X41388584Y47310209D01*
X41401500Y47272161D01*
X41401500Y3716516D01*
X41383194Y3672322D01*
X41365414Y3659872D01*
X41285072Y3622408D01*
X41106606Y3497445D01*
X40952555Y3343394D01*
X40827592Y3164927D01*
X40827590Y3164925D01*
X40735522Y2967482D01*
X40735516Y2967466D01*
X40679134Y2757048D01*
X40679131Y2757032D01*
X40660144Y2540003D01*
X38079856Y2540003D01*
X38060868Y2757035D01*
X38051471Y2792104D01*
X38004483Y2967466D01*
X38004481Y2967469D01*
X38004480Y2967476D01*
X37981304Y3017176D01*
X37912409Y3164925D01*
X37912407Y3164927D01*
X37912407Y3164928D01*
X37787445Y3343392D01*
X37787444Y3343394D01*
X37633393Y3497445D01*
X37456540Y3621278D01*
X37454928Y3622407D01*
X37454926Y3622408D01*
X37454924Y3622410D01*
X37257481Y3714478D01*
X37257465Y3714484D01*
X37047047Y3770866D01*
X37047031Y3770869D01*
X36830002Y3789856D01*
X36829998Y3789856D01*
X36612968Y3770869D01*
X36612952Y3770866D01*
X36402534Y3714484D01*
X36402518Y3714478D01*
X36205075Y3622410D01*
X36205073Y3622408D01*
X36026606Y3497445D01*
X35872555Y3343394D01*
X35747592Y3164927D01*
X35747590Y3164925D01*
X35655522Y2967482D01*
X35655517Y2967469D01*
X35619697Y2833786D01*
X35590577Y2795836D01*
X35543150Y2789593D01*
X35505200Y2818713D01*
X35498957Y2833787D01*
X35463255Y2967027D01*
X35463254Y2967029D01*
X35371277Y3164275D01*
X35246445Y3342555D01*
X35092554Y3496446D01*
X34914274Y3621278D01*
X34914272Y3621280D01*
X34717035Y3713252D01*
X34717019Y3713258D01*
X34506821Y3769581D01*
X34506805Y3769584D01*
X34442000Y3775254D01*
X34442000Y3025193D01*
X34356880Y3048000D01*
X34223120Y3048000D01*
X34138000Y3025193D01*
X34138000Y3775254D01*
X34073194Y3769584D01*
X34073178Y3769581D01*
X33862973Y3713256D01*
X33862971Y3713255D01*
X33665725Y3621278D01*
X33487445Y3496446D01*
X33333554Y3342555D01*
X33208722Y3164275D01*
X33116745Y2967029D01*
X33080370Y2831276D01*
X33051250Y2793326D01*
X33003823Y2787083D01*
X32965873Y2816203D01*
X32959630Y2831276D01*
X32923254Y2967029D01*
X32831277Y3164275D01*
X32706445Y3342555D01*
X32552554Y3496446D01*
X32374274Y3621278D01*
X32374272Y3621280D01*
X32177035Y3713252D01*
X32177019Y3713258D01*
X31966821Y3769581D01*
X31966805Y3769584D01*
X31902000Y3775254D01*
X31902000Y3025193D01*
X31816880Y3048000D01*
X31683120Y3048000D01*
X31598000Y3025193D01*
X31598000Y3775254D01*
X31533194Y3769584D01*
X31533178Y3769581D01*
X31322973Y3713256D01*
X31322971Y3713255D01*
X31125725Y3621278D01*
X30947445Y3496446D01*
X30793554Y3342555D01*
X30668722Y3164275D01*
X30576745Y2967029D01*
X30541042Y2833786D01*
X30511922Y2795836D01*
X30464495Y2789593D01*
X30426545Y2818713D01*
X30420302Y2833787D01*
X30384483Y2967466D01*
X30384481Y2967469D01*
X30384480Y2967476D01*
X30361304Y3017176D01*
X30292409Y3164925D01*
X30292407Y3164927D01*
X30292407Y3164928D01*
X30167445Y3343392D01*
X30167444Y3343394D01*
X30013393Y3497445D01*
X29836540Y3621278D01*
X29834928Y3622407D01*
X29834926Y3622408D01*
X29834927Y3622408D01*
X29754586Y3659872D01*
X29722269Y3695140D01*
X29718500Y3716516D01*
X29718500Y5362161D01*
X29731416Y5400209D01*
X29731678Y5400551D01*
X29738728Y5409738D01*
X29799720Y5556985D01*
X29820523Y5715000D01*
X29813544Y5768009D01*
X29799721Y5873009D01*
X29799720Y5873011D01*
X29799720Y5873015D01*
X29738728Y6020261D01*
X29641705Y6146705D01*
X29641703Y6146706D01*
X29641703Y6146707D01*
X29515262Y6243728D01*
X29515259Y6243730D01*
X29368018Y6304719D01*
X29368008Y6304722D01*
X29210002Y6325523D01*
X29209998Y6325523D01*
X29051991Y6304722D01*
X29051981Y6304719D01*
X28904741Y6243730D01*
X28904738Y6243728D01*
X28778295Y6146705D01*
X28681272Y6020262D01*
X28681270Y6020259D01*
X28620281Y5873019D01*
X28620278Y5873009D01*
X28599477Y5715002D01*
X28599477Y5714999D01*
X28620278Y5556992D01*
X28620279Y5556989D01*
X28620280Y5556985D01*
X28663770Y5451992D01*
X28681272Y5409738D01*
X28688584Y5400209D01*
X28701500Y5362161D01*
X28701500Y3716516D01*
X28683194Y3672322D01*
X28665414Y3659872D01*
X28585072Y3622408D01*
X28406606Y3497445D01*
X28252555Y3343394D01*
X28127592Y3164927D01*
X28127590Y3164925D01*
X28035522Y2967482D01*
X28035516Y2967466D01*
X28000370Y2836298D01*
X27971250Y2798347D01*
X27923824Y2792104D01*
X27885873Y2821224D01*
X27879630Y2836298D01*
X27844483Y2967466D01*
X27844481Y2967469D01*
X27844480Y2967476D01*
X27821304Y3017176D01*
X27752409Y3164925D01*
X27752407Y3164927D01*
X27752407Y3164928D01*
X27627445Y3343392D01*
X27627444Y3343394D01*
X27473393Y3497445D01*
X27296540Y3621278D01*
X27294928Y3622407D01*
X27294926Y3622408D01*
X27294924Y3622410D01*
X27097481Y3714478D01*
X27097465Y3714484D01*
X26887047Y3770866D01*
X26887031Y3770869D01*
X26670002Y3789856D01*
X26669998Y3789856D01*
X26452968Y3770869D01*
X26452952Y3770866D01*
X26242534Y3714484D01*
X26242518Y3714478D01*
X26045075Y3622410D01*
X26045073Y3622408D01*
X25866606Y3497445D01*
X25712555Y3343394D01*
X25587592Y3164927D01*
X25587590Y3164925D01*
X25495522Y2967482D01*
X25495516Y2967466D01*
X25460370Y2836298D01*
X25431250Y2798347D01*
X25383824Y2792104D01*
X25345873Y2821224D01*
X25339630Y2836298D01*
X25304483Y2967466D01*
X25304481Y2967469D01*
X25304480Y2967476D01*
X25281304Y3017176D01*
X25212409Y3164925D01*
X25212407Y3164927D01*
X25212407Y3164928D01*
X25087445Y3343392D01*
X25087444Y3343394D01*
X24933393Y3497445D01*
X24756540Y3621278D01*
X24754928Y3622407D01*
X24754926Y3622408D01*
X24754924Y3622410D01*
X24557481Y3714478D01*
X24557465Y3714484D01*
X24347047Y3770866D01*
X24347031Y3770869D01*
X24130002Y3789856D01*
X24129998Y3789856D01*
X23912968Y3770869D01*
X23912952Y3770866D01*
X23702534Y3714484D01*
X23702518Y3714478D01*
X23505075Y3622410D01*
X23505073Y3622408D01*
X23326606Y3497445D01*
X23172555Y3343394D01*
X23047592Y3164927D01*
X23047590Y3164925D01*
X22955522Y2967482D01*
X22955516Y2967466D01*
X22920370Y2836298D01*
X22891250Y2798347D01*
X22843824Y2792104D01*
X22805873Y2821224D01*
X22799630Y2836298D01*
X22764483Y2967466D01*
X22764481Y2967469D01*
X22764480Y2967476D01*
X22741304Y3017176D01*
X22672409Y3164925D01*
X22672407Y3164927D01*
X22672407Y3164928D01*
X22547445Y3343392D01*
X22547444Y3343394D01*
X22393393Y3497445D01*
X22216540Y3621278D01*
X22214928Y3622407D01*
X22214926Y3622408D01*
X22214924Y3622410D01*
X22017481Y3714478D01*
X22017465Y3714484D01*
X21807047Y3770866D01*
X21807031Y3770869D01*
X21590002Y3789856D01*
X21589998Y3789856D01*
X21372968Y3770869D01*
X21372952Y3770866D01*
X21162534Y3714484D01*
X21162518Y3714478D01*
X20965075Y3622410D01*
X20965073Y3622408D01*
X20786606Y3497445D01*
X20632555Y3343394D01*
X20507592Y3164927D01*
X20507590Y3164925D01*
X20415522Y2967482D01*
X20415516Y2967466D01*
X20380370Y2836298D01*
X20351250Y2798347D01*
X20303824Y2792104D01*
X20265873Y2821224D01*
X20259630Y2836298D01*
X20224483Y2967466D01*
X20224481Y2967469D01*
X20224480Y2967476D01*
X20201304Y3017176D01*
X20132409Y3164925D01*
X20132407Y3164927D01*
X20132407Y3164928D01*
X20007445Y3343392D01*
X20007444Y3343394D01*
X19853393Y3497445D01*
X19676540Y3621278D01*
X19674928Y3622407D01*
X19674926Y3622408D01*
X19674924Y3622410D01*
X19477481Y3714478D01*
X19477465Y3714484D01*
X19267047Y3770866D01*
X19267031Y3770869D01*
X19050002Y3789856D01*
X19049998Y3789856D01*
X18832968Y3770869D01*
X18832952Y3770866D01*
X18622534Y3714484D01*
X18622518Y3714478D01*
X18425075Y3622410D01*
X18425073Y3622408D01*
X18246606Y3497445D01*
X18092555Y3343394D01*
X17967592Y3164927D01*
X17967590Y3164925D01*
X17875522Y2967482D01*
X17875516Y2967466D01*
X17819134Y2757048D01*
X17819131Y2757032D01*
X17800144Y2540003D01*
X180309Y2540003D01*
X145806Y2574506D01*
X127500Y2618700D01*
X127500Y22225002D01*
X3199477Y22225002D01*
X3199477Y22224999D01*
X3220278Y22066992D01*
X3220281Y22066982D01*
X3281270Y21919741D01*
X3281272Y21919738D01*
X3378294Y21793295D01*
X3437300Y21748019D01*
X3504738Y21696272D01*
X3651985Y21635280D01*
X3651989Y21635280D01*
X3651991Y21635279D01*
X3809998Y21614477D01*
X3810000Y21614477D01*
X3810002Y21614477D01*
X3968008Y21635279D01*
X3968008Y21635280D01*
X3968015Y21635280D01*
X4115262Y21696272D01*
X4241705Y21793295D01*
X4338728Y21919738D01*
X4399720Y22066985D01*
X4420523Y22225000D01*
X4399720Y22383015D01*
X4380701Y22428929D01*
X4338730Y22530258D01*
X4331413Y22539794D01*
X4318500Y22577839D01*
X4318500Y32783485D01*
X4336806Y32827679D01*
X4555068Y33045942D01*
X4591103Y33063712D01*
X4603015Y33065280D01*
X4750262Y33126272D01*
X4876705Y33223295D01*
X4973728Y33349738D01*
X5034720Y33496985D01*
X5055523Y33655000D01*
X5034720Y33813015D01*
X4973728Y33960261D01*
X4876705Y34086705D01*
X4876703Y34086706D01*
X4876703Y34086707D01*
X4750262Y34183728D01*
X4750259Y34183730D01*
X4603018Y34244719D01*
X4603008Y34244722D01*
X4445002Y34265523D01*
X4444998Y34265523D01*
X4286991Y34244722D01*
X4286981Y34244719D01*
X4139741Y34183730D01*
X4139738Y34183728D01*
X4013295Y34086705D01*
X3916272Y33960262D01*
X3916270Y33960259D01*
X3855281Y33813020D01*
X3855280Y33813018D01*
X3853711Y33801101D01*
X3835940Y33765070D01*
X3403103Y33332233D01*
X3403098Y33332227D01*
X3354526Y33248098D01*
X3336154Y33216278D01*
X3336151Y33216271D01*
X3301501Y33086952D01*
X3301500Y33086944D01*
X3301500Y22577839D01*
X3288587Y22539794D01*
X3281269Y22530258D01*
X3220281Y22383019D01*
X3220278Y22383009D01*
X3199477Y22225002D01*
X127500Y22225002D01*
X127500Y50721300D01*
X145806Y50765494D01*
X180315Y50800003D01*
X8910144Y50800003D01*
X8910144Y50799998D01*
X8929131Y50582969D01*
X8929134Y50582953D01*
X8985516Y50372535D01*
X8985522Y50372519D01*
X9077590Y50175076D01*
X9077592Y50175074D01*
X9202555Y49996607D01*
X9356606Y49842556D01*
X9428066Y49792520D01*
X9535072Y49717593D01*
X9615415Y49680129D01*
X9647731Y49644863D01*
X9651500Y49623486D01*
X9651500Y41627839D01*
X9638587Y41589794D01*
X9631269Y41580258D01*
X9570281Y41433019D01*
X9570278Y41433009D01*
X9549477Y41275002D01*
X9549477Y41274999D01*
X9570278Y41116992D01*
X9570281Y41116982D01*
X9631270Y40969741D01*
X9631272Y40969738D01*
X9728294Y40843295D01*
X9825317Y40768848D01*
X9854738Y40746272D01*
X10001985Y40685280D01*
X10001989Y40685280D01*
X10001991Y40685279D01*
X10159998Y40664477D01*
X10160000Y40664477D01*
X10160002Y40664477D01*
X10318008Y40685279D01*
X10318008Y40685280D01*
X10318015Y40685280D01*
X10465262Y40746272D01*
X10591705Y40843295D01*
X10688728Y40969738D01*
X10749720Y41116985D01*
X10770523Y41275000D01*
X10749720Y41433015D01*
X10730701Y41478929D01*
X10688730Y41580258D01*
X10681413Y41589794D01*
X10668500Y41627839D01*
X10668500Y49623486D01*
X10686806Y49667680D01*
X10704580Y49680127D01*
X10784928Y49717593D01*
X10963392Y49842555D01*
X11117445Y49996608D01*
X11242407Y50175072D01*
X11334480Y50372524D01*
X11334602Y50372978D01*
X11369630Y50503703D01*
X11398750Y50541654D01*
X11446176Y50547897D01*
X11484127Y50518777D01*
X11490370Y50503703D01*
X11525516Y50372535D01*
X11525522Y50372519D01*
X11617590Y50175076D01*
X11617592Y50175074D01*
X11742555Y49996607D01*
X11896606Y49842556D01*
X11968066Y49792520D01*
X12075072Y49717593D01*
X12155415Y49680129D01*
X12187731Y49644863D01*
X12191500Y49623486D01*
X12191500Y18682839D01*
X12178587Y18644794D01*
X12171269Y18635258D01*
X12110281Y18488019D01*
X12110278Y18488009D01*
X12089477Y18330002D01*
X12089477Y18329999D01*
X12110278Y18171992D01*
X12110281Y18171982D01*
X12171270Y18024741D01*
X12171272Y18024738D01*
X12268294Y17898295D01*
X12365317Y17823848D01*
X12394738Y17801272D01*
X12541985Y17740280D01*
X12541989Y17740280D01*
X12541991Y17740279D01*
X12699998Y17719477D01*
X12700000Y17719477D01*
X12700002Y17719477D01*
X12858008Y17740279D01*
X12858008Y17740280D01*
X12858015Y17740280D01*
X13005262Y17801272D01*
X13131705Y17898295D01*
X13228728Y18024738D01*
X13289720Y18171985D01*
X13289721Y18171992D01*
X13310523Y18329999D01*
X13310523Y18330002D01*
X13289721Y18488009D01*
X13289720Y18488011D01*
X13289720Y18488015D01*
X13254514Y18573009D01*
X13228730Y18635258D01*
X13221413Y18644794D01*
X13208500Y18682839D01*
X13208500Y49623486D01*
X13226806Y49667680D01*
X13244580Y49680127D01*
X13324928Y49717593D01*
X13503392Y49842555D01*
X13657445Y49996608D01*
X13782407Y50175072D01*
X13874480Y50372524D01*
X13874602Y50372978D01*
X13909630Y50503703D01*
X13938750Y50541654D01*
X13986176Y50547897D01*
X14024127Y50518777D01*
X14030370Y50503703D01*
X14065516Y50372535D01*
X14065522Y50372519D01*
X14157590Y50175076D01*
X14157592Y50175074D01*
X14282555Y49996607D01*
X14436606Y49842556D01*
X14501533Y49797094D01*
X14615072Y49717593D01*
X14615073Y49717593D01*
X14615075Y49717591D01*
X14722111Y49667680D01*
X14812524Y49625520D01*
X14812531Y49625519D01*
X14812534Y49625517D01*
X15022952Y49569135D01*
X15022958Y49569134D01*
X15022965Y49569132D01*
X15153186Y49557740D01*
X15239998Y49550144D01*
X15240000Y49550144D01*
X15240002Y49550144D01*
X15312345Y49556474D01*
X15457035Y49569132D01*
X15457044Y49569135D01*
X15457047Y49569135D01*
X15667465Y49625517D01*
X15667465Y49625518D01*
X15667476Y49625520D01*
X15864928Y49717593D01*
X16043392Y49842555D01*
X16197445Y49996608D01*
X16322407Y50175072D01*
X16414480Y50372524D01*
X16414603Y50372981D01*
X16445443Y50488080D01*
X16450302Y50506215D01*
X16479422Y50544164D01*
X16526848Y50550408D01*
X16564798Y50521288D01*
X16571042Y50506215D01*
X16606743Y50372978D01*
X16606748Y50372965D01*
X16698720Y50175728D01*
X16698722Y50175726D01*
X16823554Y49997446D01*
X16977445Y49843555D01*
X17155725Y49718723D01*
X17155727Y49718721D01*
X17352964Y49626749D01*
X17352980Y49626743D01*
X17563181Y49570419D01*
X17563190Y49570418D01*
X17628000Y49564748D01*
X17628000Y50314808D01*
X17713120Y50292000D01*
X17846880Y50292000D01*
X17932000Y50314808D01*
X17932000Y49564749D01*
X17996809Y49570418D01*
X17996818Y49570419D01*
X18207019Y49626743D01*
X18207035Y49626749D01*
X18404272Y49718721D01*
X18404274Y49718723D01*
X18582554Y49843555D01*
X18736445Y49997446D01*
X18861277Y50175726D01*
X18861279Y50175728D01*
X18953251Y50372965D01*
X18953257Y50372981D01*
X18988957Y50506214D01*
X19018077Y50544165D01*
X19065503Y50550408D01*
X19103454Y50521288D01*
X19109697Y50506214D01*
X19145516Y50372535D01*
X19145522Y50372519D01*
X19237590Y50175076D01*
X19237592Y50175074D01*
X19362555Y49996607D01*
X19516606Y49842556D01*
X19581533Y49797094D01*
X19695072Y49717593D01*
X19695073Y49717593D01*
X19695075Y49717591D01*
X19802111Y49667680D01*
X19892524Y49625520D01*
X19892531Y49625519D01*
X19892534Y49625517D01*
X20102952Y49569135D01*
X20102958Y49569134D01*
X20102965Y49569132D01*
X20233186Y49557740D01*
X20319998Y49550144D01*
X20320000Y49550144D01*
X20320002Y49550144D01*
X20392345Y49556474D01*
X20537035Y49569132D01*
X20537044Y49569135D01*
X20537047Y49569135D01*
X20747465Y49625517D01*
X20747465Y49625518D01*
X20747476Y49625520D01*
X20944928Y49717593D01*
X21123392Y49842555D01*
X21277445Y49996608D01*
X21402407Y50175072D01*
X21494480Y50372524D01*
X21494602Y50372978D01*
X21529630Y50503703D01*
X21558750Y50541654D01*
X21606176Y50547897D01*
X21644127Y50518777D01*
X21650370Y50503703D01*
X21685516Y50372535D01*
X21685522Y50372519D01*
X21777590Y50175076D01*
X21777592Y50175074D01*
X21902555Y49996607D01*
X22056606Y49842556D01*
X22121533Y49797094D01*
X22235072Y49717593D01*
X22235073Y49717593D01*
X22235075Y49717591D01*
X22342111Y49667680D01*
X22432524Y49625520D01*
X22432531Y49625519D01*
X22432534Y49625517D01*
X22642952Y49569135D01*
X22642958Y49569134D01*
X22642965Y49569132D01*
X22773186Y49557740D01*
X22859998Y49550144D01*
X22860000Y49550144D01*
X22860002Y49550144D01*
X22932345Y49556474D01*
X23077035Y49569132D01*
X23077044Y49569135D01*
X23077047Y49569135D01*
X23287465Y49625517D01*
X23287465Y49625518D01*
X23287476Y49625520D01*
X23484928Y49717593D01*
X23663392Y49842555D01*
X23817445Y49996608D01*
X23942407Y50175072D01*
X24034480Y50372524D01*
X24034602Y50372978D01*
X24069630Y50503703D01*
X24098750Y50541654D01*
X24146176Y50547897D01*
X24184127Y50518777D01*
X24190370Y50503703D01*
X24225516Y50372535D01*
X24225522Y50372519D01*
X24317590Y50175076D01*
X24317592Y50175074D01*
X24442555Y49996607D01*
X24596606Y49842556D01*
X24661533Y49797094D01*
X24775072Y49717593D01*
X24775073Y49717593D01*
X24775075Y49717591D01*
X24882111Y49667680D01*
X24972524Y49625520D01*
X24972531Y49625519D01*
X24972534Y49625517D01*
X25182952Y49569135D01*
X25182958Y49569134D01*
X25182965Y49569132D01*
X25313186Y49557740D01*
X25399998Y49550144D01*
X25400000Y49550144D01*
X25400002Y49550144D01*
X25472345Y49556474D01*
X25617035Y49569132D01*
X25617044Y49569135D01*
X25617047Y49569135D01*
X25827465Y49625517D01*
X25827465Y49625518D01*
X25827476Y49625520D01*
X26024928Y49717593D01*
X26203392Y49842555D01*
X26357445Y49996608D01*
X26482407Y50175072D01*
X26574480Y50372524D01*
X26574602Y50372978D01*
X26609630Y50503703D01*
X26638750Y50541654D01*
X26686176Y50547897D01*
X26724127Y50518777D01*
X26730370Y50503703D01*
X26765516Y50372535D01*
X26765522Y50372519D01*
X26857590Y50175076D01*
X26857592Y50175074D01*
X26982555Y49996607D01*
X27136606Y49842556D01*
X27208066Y49792520D01*
X27315072Y49717593D01*
X27395415Y49680129D01*
X27427731Y49644863D01*
X27431500Y49623486D01*
X27431500Y34007839D01*
X27418587Y33969794D01*
X27411269Y33960258D01*
X27350281Y33813019D01*
X27350278Y33813009D01*
X27329477Y33655002D01*
X27329477Y33654999D01*
X27350278Y33496992D01*
X27350281Y33496982D01*
X27411270Y33349741D01*
X27411272Y33349738D01*
X27508294Y33223295D01*
X27605317Y33148848D01*
X27634738Y33126272D01*
X27781985Y33065280D01*
X27781989Y33065280D01*
X27781991Y33065279D01*
X27939998Y33044477D01*
X27940000Y33044477D01*
X27940002Y33044477D01*
X28098008Y33065279D01*
X28098008Y33065280D01*
X28098015Y33065280D01*
X28245262Y33126272D01*
X28371705Y33223295D01*
X28468728Y33349738D01*
X28529720Y33496985D01*
X28550523Y33655000D01*
X28529720Y33813015D01*
X28510701Y33858929D01*
X28468730Y33960258D01*
X28461413Y33969794D01*
X28448500Y34007839D01*
X28448500Y49623486D01*
X28466806Y49667680D01*
X28484580Y49680127D01*
X28564928Y49717593D01*
X28743392Y49842555D01*
X28897445Y49996608D01*
X29022407Y50175072D01*
X29114480Y50372524D01*
X29114602Y50372978D01*
X29149630Y50503703D01*
X29178750Y50541654D01*
X29226176Y50547897D01*
X29264127Y50518777D01*
X29270370Y50503703D01*
X29305516Y50372535D01*
X29305522Y50372519D01*
X29397590Y50175076D01*
X29397592Y50175074D01*
X29522555Y49996607D01*
X29676606Y49842556D01*
X29741533Y49797094D01*
X29855072Y49717593D01*
X29855073Y49717593D01*
X29855075Y49717591D01*
X29962111Y49667680D01*
X30052524Y49625520D01*
X30052531Y49625519D01*
X30052534Y49625517D01*
X30262952Y49569135D01*
X30262958Y49569134D01*
X30262965Y49569132D01*
X30393186Y49557740D01*
X30479998Y49550144D01*
X30480000Y49550144D01*
X30480002Y49550144D01*
X30552345Y49556474D01*
X30697035Y49569132D01*
X30697044Y49569135D01*
X30697047Y49569135D01*
X30907465Y49625517D01*
X30907465Y49625518D01*
X30907476Y49625520D01*
X31104928Y49717593D01*
X31283392Y49842555D01*
X31437445Y49996608D01*
X31562407Y50175072D01*
X31654480Y50372524D01*
X31654602Y50372978D01*
X31689630Y50503703D01*
X31718750Y50541654D01*
X31766176Y50547897D01*
X31804127Y50518777D01*
X31810370Y50503703D01*
X31845516Y50372535D01*
X31845522Y50372519D01*
X31937590Y50175076D01*
X31937592Y50175074D01*
X32062555Y49996607D01*
X32216606Y49842556D01*
X32281533Y49797094D01*
X32395072Y49717593D01*
X32395073Y49717593D01*
X32395075Y49717591D01*
X32502111Y49667680D01*
X32592524Y49625520D01*
X32592531Y49625519D01*
X32592534Y49625517D01*
X32802952Y49569135D01*
X32802958Y49569134D01*
X32802965Y49569132D01*
X32933186Y49557740D01*
X33019998Y49550144D01*
X33020000Y49550144D01*
X33020002Y49550144D01*
X33092345Y49556474D01*
X33237035Y49569132D01*
X33237044Y49569135D01*
X33237047Y49569135D01*
X33447465Y49625517D01*
X33447465Y49625518D01*
X33447476Y49625520D01*
X33644928Y49717593D01*
X33823392Y49842555D01*
X33977445Y49996608D01*
X34102407Y50175072D01*
X34194480Y50372524D01*
X34194602Y50372978D01*
X34250865Y50582953D01*
X34250865Y50582956D01*
X34250868Y50582965D01*
X34269856Y50800000D01*
X34269856Y50800003D01*
X35580144Y50800003D01*
X35580144Y50799998D01*
X35599131Y50582969D01*
X35599134Y50582953D01*
X35655516Y50372535D01*
X35655522Y50372519D01*
X35747590Y50175076D01*
X35747592Y50175074D01*
X35872555Y49996607D01*
X36026606Y49842556D01*
X36091533Y49797094D01*
X36205072Y49717593D01*
X36205073Y49717593D01*
X36205075Y49717591D01*
X36312111Y49667680D01*
X36402524Y49625520D01*
X36402531Y49625519D01*
X36402534Y49625517D01*
X36612952Y49569135D01*
X36612958Y49569134D01*
X36612965Y49569132D01*
X36743186Y49557740D01*
X36829998Y49550144D01*
X36830000Y49550144D01*
X36830002Y49550144D01*
X36902345Y49556474D01*
X37047035Y49569132D01*
X37047044Y49569135D01*
X37047047Y49569135D01*
X37257465Y49625517D01*
X37257465Y49625518D01*
X37257476Y49625520D01*
X37454928Y49717593D01*
X37633392Y49842555D01*
X37787445Y49996608D01*
X37912407Y50175072D01*
X38004480Y50372524D01*
X38004602Y50372978D01*
X38039630Y50503703D01*
X38068750Y50541654D01*
X38116176Y50547897D01*
X38154127Y50518777D01*
X38160370Y50503703D01*
X38195516Y50372535D01*
X38195522Y50372519D01*
X38287590Y50175076D01*
X38287592Y50175074D01*
X38412555Y49996607D01*
X38566606Y49842556D01*
X38631533Y49797094D01*
X38745072Y49717593D01*
X38745073Y49717593D01*
X38745075Y49717591D01*
X38852111Y49667680D01*
X38942524Y49625520D01*
X38942531Y49625519D01*
X38942534Y49625517D01*
X39152952Y49569135D01*
X39152958Y49569134D01*
X39152965Y49569132D01*
X39283186Y49557740D01*
X39369998Y49550144D01*
X39370000Y49550144D01*
X39370002Y49550144D01*
X39442345Y49556474D01*
X39587035Y49569132D01*
X39587044Y49569135D01*
X39587047Y49569135D01*
X39797465Y49625517D01*
X39797465Y49625518D01*
X39797476Y49625520D01*
X39994928Y49717593D01*
X40173392Y49842555D01*
X40327445Y49996608D01*
X40452407Y50175072D01*
X40544480Y50372524D01*
X40544602Y50372978D01*
X40579630Y50503703D01*
X40608750Y50541654D01*
X40656176Y50547897D01*
X40694127Y50518777D01*
X40700370Y50503703D01*
X40735516Y50372535D01*
X40735522Y50372519D01*
X40827590Y50175076D01*
X40827592Y50175074D01*
X40952555Y49996607D01*
X41106606Y49842556D01*
X41171533Y49797094D01*
X41285072Y49717593D01*
X41285073Y49717593D01*
X41285075Y49717591D01*
X41392111Y49667680D01*
X41482524Y49625520D01*
X41482531Y49625519D01*
X41482534Y49625517D01*
X41692952Y49569135D01*
X41692958Y49569134D01*
X41692965Y49569132D01*
X41823186Y49557740D01*
X41909998Y49550144D01*
X41910000Y49550144D01*
X41910002Y49550144D01*
X41982345Y49556474D01*
X42127035Y49569132D01*
X42127044Y49569135D01*
X42127047Y49569135D01*
X42337465Y49625517D01*
X42337465Y49625518D01*
X42337476Y49625520D01*
X42534928Y49717593D01*
X42713392Y49842555D01*
X42867445Y49996608D01*
X42992407Y50175072D01*
X43084480Y50372524D01*
X43084602Y50372978D01*
X43119630Y50503703D01*
X43148750Y50541654D01*
X43196176Y50547897D01*
X43234127Y50518777D01*
X43240370Y50503703D01*
X43275516Y50372535D01*
X43275522Y50372519D01*
X43367590Y50175076D01*
X43367592Y50175074D01*
X43492555Y49996607D01*
X43646606Y49842556D01*
X43711533Y49797094D01*
X43825072Y49717593D01*
X43825073Y49717593D01*
X43825075Y49717591D01*
X43932111Y49667680D01*
X44022524Y49625520D01*
X44022531Y49625519D01*
X44022534Y49625517D01*
X44232952Y49569135D01*
X44232958Y49569134D01*
X44232965Y49569132D01*
X44363186Y49557740D01*
X44449998Y49550144D01*
X44450000Y49550144D01*
X44450002Y49550144D01*
X44522345Y49556474D01*
X44667035Y49569132D01*
X44667044Y49569135D01*
X44667047Y49569135D01*
X44877465Y49625517D01*
X44877465Y49625518D01*
X44877476Y49625520D01*
X45074928Y49717593D01*
X45253392Y49842555D01*
X45407445Y49996608D01*
X45532407Y50175072D01*
X45624480Y50372524D01*
X45624602Y50372978D01*
X45659630Y50503703D01*
X45688750Y50541654D01*
X45736176Y50547897D01*
X45774127Y50518777D01*
X45780370Y50503703D01*
X45815516Y50372535D01*
X45815522Y50372519D01*
X45907590Y50175076D01*
X45907592Y50175074D01*
X46032555Y49996607D01*
X46186606Y49842556D01*
X46251533Y49797094D01*
X46365072Y49717593D01*
X46365073Y49717593D01*
X46365075Y49717591D01*
X46472111Y49667680D01*
X46562524Y49625520D01*
X46562531Y49625519D01*
X46562534Y49625517D01*
X46772952Y49569135D01*
X46772958Y49569134D01*
X46772965Y49569132D01*
X46903186Y49557740D01*
X46989998Y49550144D01*
X46990000Y49550144D01*
X46990002Y49550144D01*
X47062345Y49556474D01*
X47207035Y49569132D01*
X47207044Y49569135D01*
X47207047Y49569135D01*
X47417465Y49625517D01*
X47417465Y49625518D01*
X47417476Y49625520D01*
X47614928Y49717593D01*
X47793392Y49842555D01*
X47947445Y49996608D01*
X48072407Y50175072D01*
X48164480Y50372524D01*
X48164602Y50372978D01*
X48199630Y50503703D01*
X48228750Y50541654D01*
X48276176Y50547897D01*
X48314127Y50518777D01*
X48320370Y50503703D01*
X48355516Y50372535D01*
X48355522Y50372519D01*
X48447590Y50175076D01*
X48447592Y50175074D01*
X48572555Y49996607D01*
X48726606Y49842556D01*
X48791533Y49797094D01*
X48905072Y49717593D01*
X48905073Y49717593D01*
X48905075Y49717591D01*
X49012111Y49667680D01*
X49102524Y49625520D01*
X49102531Y49625519D01*
X49102534Y49625517D01*
X49312952Y49569135D01*
X49312958Y49569134D01*
X49312965Y49569132D01*
X49443186Y49557740D01*
X49529998Y49550144D01*
X49530000Y49550144D01*
X49530002Y49550144D01*
X49602345Y49556474D01*
X49747035Y49569132D01*
X49747044Y49569135D01*
X49747047Y49569135D01*
X49957465Y49625517D01*
X49957465Y49625518D01*
X49957476Y49625520D01*
X50154928Y49717593D01*
X50333392Y49842555D01*
X50487445Y49996608D01*
X50612407Y50175072D01*
X50704480Y50372524D01*
X50704602Y50372978D01*
X50739630Y50503703D01*
X50768750Y50541654D01*
X50816176Y50547897D01*
X50854127Y50518777D01*
X50860370Y50503703D01*
X50895516Y50372535D01*
X50895522Y50372519D01*
X50987590Y50175076D01*
X50987592Y50175074D01*
X51112555Y49996607D01*
X51266606Y49842556D01*
X51331533Y49797094D01*
X51445072Y49717593D01*
X51445073Y49717593D01*
X51445075Y49717591D01*
X51552111Y49667680D01*
X51642524Y49625520D01*
X51642531Y49625519D01*
X51642534Y49625517D01*
X51852952Y49569135D01*
X51852958Y49569134D01*
X51852965Y49569132D01*
X51983186Y49557740D01*
X52069998Y49550144D01*
X52070000Y49550144D01*
X52070002Y49550144D01*
X52142345Y49556474D01*
X52287035Y49569132D01*
X52287044Y49569135D01*
X52287047Y49569135D01*
X52497465Y49625517D01*
X52497465Y49625518D01*
X52497476Y49625520D01*
X52694928Y49717593D01*
X52873392Y49842555D01*
X53027445Y49996608D01*
X53152407Y50175072D01*
X53244480Y50372524D01*
X53244602Y50372978D01*
X53279630Y50503703D01*
X53308750Y50541654D01*
X53356176Y50547897D01*
X53394127Y50518777D01*
X53400370Y50503703D01*
X53435516Y50372535D01*
X53435522Y50372519D01*
X53527590Y50175076D01*
X53527592Y50175074D01*
X53652555Y49996607D01*
X53806606Y49842556D01*
X53871533Y49797094D01*
X53985072Y49717593D01*
X53985073Y49717593D01*
X53985075Y49717591D01*
X54092111Y49667680D01*
X54182524Y49625520D01*
X54182531Y49625519D01*
X54182534Y49625517D01*
X54392952Y49569135D01*
X54392958Y49569134D01*
X54392965Y49569132D01*
X54523186Y49557740D01*
X54609998Y49550144D01*
X54610000Y49550144D01*
X54610002Y49550144D01*
X54682345Y49556474D01*
X54827035Y49569132D01*
X54827044Y49569135D01*
X54827047Y49569135D01*
X55037465Y49625517D01*
X55037465Y49625518D01*
X55037476Y49625520D01*
X55234928Y49717593D01*
X55413392Y49842555D01*
X55567445Y49996608D01*
X55692407Y50175072D01*
X55784480Y50372524D01*
X55784602Y50372978D01*
X55840865Y50582953D01*
X55840865Y50582956D01*
X55840868Y50582965D01*
X55859856Y50800000D01*
X55840868Y51017035D01*
X55831471Y51052104D01*
X55784483Y51227466D01*
X55784481Y51227469D01*
X55784480Y51227476D01*
X55746931Y51308000D01*
X55692409Y51424925D01*
X55692407Y51424927D01*
X55692407Y51424928D01*
X55567445Y51603392D01*
X55567444Y51603394D01*
X55413393Y51757445D01*
X55236540Y51881278D01*
X55234928Y51882407D01*
X55234926Y51882408D01*
X55234924Y51882410D01*
X55037481Y51974478D01*
X55037465Y51974484D01*
X54827047Y52030866D01*
X54827031Y52030869D01*
X54610002Y52049856D01*
X54609998Y52049856D01*
X54392968Y52030869D01*
X54392952Y52030866D01*
X54182534Y51974484D01*
X54182518Y51974478D01*
X53985075Y51882410D01*
X53985073Y51882408D01*
X53806606Y51757445D01*
X53652555Y51603394D01*
X53527592Y51424927D01*
X53527590Y51424925D01*
X53435522Y51227482D01*
X53435516Y51227466D01*
X53400370Y51096298D01*
X53371250Y51058347D01*
X53323824Y51052104D01*
X53285873Y51081224D01*
X53279630Y51096298D01*
X53244483Y51227466D01*
X53244481Y51227469D01*
X53244480Y51227476D01*
X53206931Y51308000D01*
X53152409Y51424925D01*
X53152407Y51424927D01*
X53152407Y51424928D01*
X53027445Y51603392D01*
X53027444Y51603394D01*
X52873393Y51757445D01*
X52696540Y51881278D01*
X52694928Y51882407D01*
X52694926Y51882408D01*
X52694924Y51882410D01*
X52497481Y51974478D01*
X52497465Y51974484D01*
X52287047Y52030866D01*
X52287031Y52030869D01*
X52070002Y52049856D01*
X52069998Y52049856D01*
X51852968Y52030869D01*
X51852952Y52030866D01*
X51642534Y51974484D01*
X51642518Y51974478D01*
X51445075Y51882410D01*
X51445073Y51882408D01*
X51266606Y51757445D01*
X51112555Y51603394D01*
X50987592Y51424927D01*
X50987590Y51424925D01*
X50895522Y51227482D01*
X50895516Y51227466D01*
X50860370Y51096298D01*
X50831250Y51058347D01*
X50783824Y51052104D01*
X50745873Y51081224D01*
X50739630Y51096298D01*
X50704483Y51227466D01*
X50704481Y51227469D01*
X50704480Y51227476D01*
X50666931Y51308000D01*
X50612409Y51424925D01*
X50612407Y51424927D01*
X50612407Y51424928D01*
X50487445Y51603392D01*
X50487444Y51603394D01*
X50333393Y51757445D01*
X50156540Y51881278D01*
X50154928Y51882407D01*
X50154926Y51882408D01*
X50154924Y51882410D01*
X49957481Y51974478D01*
X49957465Y51974484D01*
X49747047Y52030866D01*
X49747031Y52030869D01*
X49530002Y52049856D01*
X49529998Y52049856D01*
X49312968Y52030869D01*
X49312952Y52030866D01*
X49102534Y51974484D01*
X49102518Y51974478D01*
X48905075Y51882410D01*
X48905073Y51882408D01*
X48726606Y51757445D01*
X48572555Y51603394D01*
X48447592Y51424927D01*
X48447590Y51424925D01*
X48355522Y51227482D01*
X48355516Y51227466D01*
X48320370Y51096298D01*
X48291250Y51058347D01*
X48243824Y51052104D01*
X48205873Y51081224D01*
X48199630Y51096298D01*
X48164483Y51227466D01*
X48164481Y51227469D01*
X48164480Y51227476D01*
X48126931Y51308000D01*
X48072409Y51424925D01*
X48072407Y51424927D01*
X48072407Y51424928D01*
X47947445Y51603392D01*
X47947444Y51603394D01*
X47793393Y51757445D01*
X47616540Y51881278D01*
X47614928Y51882407D01*
X47614926Y51882408D01*
X47614924Y51882410D01*
X47417481Y51974478D01*
X47417465Y51974484D01*
X47207047Y52030866D01*
X47207031Y52030869D01*
X46990002Y52049856D01*
X46989998Y52049856D01*
X46772968Y52030869D01*
X46772952Y52030866D01*
X46562534Y51974484D01*
X46562518Y51974478D01*
X46365075Y51882410D01*
X46365073Y51882408D01*
X46186606Y51757445D01*
X46032555Y51603394D01*
X45907592Y51424927D01*
X45907590Y51424925D01*
X45815522Y51227482D01*
X45815516Y51227466D01*
X45780370Y51096298D01*
X45751250Y51058347D01*
X45703824Y51052104D01*
X45665873Y51081224D01*
X45659630Y51096298D01*
X45624483Y51227466D01*
X45624481Y51227469D01*
X45624480Y51227476D01*
X45586931Y51308000D01*
X45532409Y51424925D01*
X45532407Y51424927D01*
X45532407Y51424928D01*
X45407445Y51603392D01*
X45407444Y51603394D01*
X45253393Y51757445D01*
X45076540Y51881278D01*
X45074928Y51882407D01*
X45074926Y51882408D01*
X45074924Y51882410D01*
X44877481Y51974478D01*
X44877465Y51974484D01*
X44667047Y52030866D01*
X44667031Y52030869D01*
X44450002Y52049856D01*
X44449998Y52049856D01*
X44232968Y52030869D01*
X44232952Y52030866D01*
X44022534Y51974484D01*
X44022518Y51974478D01*
X43825075Y51882410D01*
X43825073Y51882408D01*
X43646606Y51757445D01*
X43492555Y51603394D01*
X43367592Y51424927D01*
X43367590Y51424925D01*
X43275522Y51227482D01*
X43275516Y51227466D01*
X43240370Y51096298D01*
X43211250Y51058347D01*
X43163824Y51052104D01*
X43125873Y51081224D01*
X43119630Y51096298D01*
X43084483Y51227466D01*
X43084481Y51227469D01*
X43084480Y51227476D01*
X43046931Y51308000D01*
X42992409Y51424925D01*
X42992407Y51424927D01*
X42992407Y51424928D01*
X42867445Y51603392D01*
X42867444Y51603394D01*
X42713393Y51757445D01*
X42536540Y51881278D01*
X42534928Y51882407D01*
X42534926Y51882408D01*
X42534924Y51882410D01*
X42337481Y51974478D01*
X42337465Y51974484D01*
X42127047Y52030866D01*
X42127031Y52030869D01*
X41910002Y52049856D01*
X41909998Y52049856D01*
X41692968Y52030869D01*
X41692952Y52030866D01*
X41482534Y51974484D01*
X41482518Y51974478D01*
X41285075Y51882410D01*
X41285073Y51882408D01*
X41106606Y51757445D01*
X40952555Y51603394D01*
X40827592Y51424927D01*
X40827590Y51424925D01*
X40735522Y51227482D01*
X40735516Y51227466D01*
X40700370Y51096298D01*
X40671250Y51058347D01*
X40623824Y51052104D01*
X40585873Y51081224D01*
X40579630Y51096298D01*
X40544483Y51227466D01*
X40544481Y51227469D01*
X40544480Y51227476D01*
X40506931Y51308000D01*
X40452409Y51424925D01*
X40452407Y51424927D01*
X40452407Y51424928D01*
X40327445Y51603392D01*
X40327444Y51603394D01*
X40173393Y51757445D01*
X39996540Y51881278D01*
X39994928Y51882407D01*
X39994926Y51882408D01*
X39994924Y51882410D01*
X39797481Y51974478D01*
X39797465Y51974484D01*
X39587047Y52030866D01*
X39587031Y52030869D01*
X39370002Y52049856D01*
X39369998Y52049856D01*
X39152968Y52030869D01*
X39152952Y52030866D01*
X38942534Y51974484D01*
X38942518Y51974478D01*
X38745075Y51882410D01*
X38745073Y51882408D01*
X38566606Y51757445D01*
X38412555Y51603394D01*
X38287592Y51424927D01*
X38287590Y51424925D01*
X38195522Y51227482D01*
X38195516Y51227466D01*
X38160370Y51096298D01*
X38131250Y51058347D01*
X38083824Y51052104D01*
X38045873Y51081224D01*
X38039630Y51096298D01*
X38004483Y51227466D01*
X38004481Y51227469D01*
X38004480Y51227476D01*
X37966931Y51308000D01*
X37912409Y51424925D01*
X37912407Y51424927D01*
X37912407Y51424928D01*
X37787445Y51603392D01*
X37787444Y51603394D01*
X37633393Y51757445D01*
X37456540Y51881278D01*
X37454928Y51882407D01*
X37454926Y51882408D01*
X37454924Y51882410D01*
X37257481Y51974478D01*
X37257465Y51974484D01*
X37047047Y52030866D01*
X37047031Y52030869D01*
X36830002Y52049856D01*
X36829998Y52049856D01*
X36612968Y52030869D01*
X36612952Y52030866D01*
X36402534Y51974484D01*
X36402518Y51974478D01*
X36205075Y51882410D01*
X36205073Y51882408D01*
X36026606Y51757445D01*
X35872555Y51603394D01*
X35747592Y51424927D01*
X35747590Y51424925D01*
X35655522Y51227482D01*
X35655516Y51227466D01*
X35599134Y51017048D01*
X35599131Y51017032D01*
X35580144Y50800003D01*
X34269856Y50800003D01*
X34250868Y51017035D01*
X34241471Y51052104D01*
X34194483Y51227466D01*
X34194481Y51227469D01*
X34194480Y51227476D01*
X34156931Y51308000D01*
X34102409Y51424925D01*
X34102407Y51424927D01*
X34102407Y51424928D01*
X33977445Y51603392D01*
X33977444Y51603394D01*
X33823393Y51757445D01*
X33646540Y51881278D01*
X33644928Y51882407D01*
X33644926Y51882408D01*
X33644924Y51882410D01*
X33447481Y51974478D01*
X33447465Y51974484D01*
X33237047Y52030866D01*
X33237031Y52030869D01*
X33020002Y52049856D01*
X33019998Y52049856D01*
X32802968Y52030869D01*
X32802952Y52030866D01*
X32592534Y51974484D01*
X32592518Y51974478D01*
X32395075Y51882410D01*
X32395073Y51882408D01*
X32216606Y51757445D01*
X32062555Y51603394D01*
X31937592Y51424927D01*
X31937590Y51424925D01*
X31845522Y51227482D01*
X31845516Y51227466D01*
X31810370Y51096298D01*
X31781250Y51058347D01*
X31733824Y51052104D01*
X31695873Y51081224D01*
X31689630Y51096298D01*
X31654483Y51227466D01*
X31654481Y51227469D01*
X31654480Y51227476D01*
X31616931Y51308000D01*
X31562409Y51424925D01*
X31562407Y51424927D01*
X31562407Y51424928D01*
X31437445Y51603392D01*
X31437444Y51603394D01*
X31283393Y51757445D01*
X31106540Y51881278D01*
X31104928Y51882407D01*
X31104926Y51882408D01*
X31104924Y51882410D01*
X30907481Y51974478D01*
X30907465Y51974484D01*
X30697047Y52030866D01*
X30697031Y52030869D01*
X30480002Y52049856D01*
X30479998Y52049856D01*
X30262968Y52030869D01*
X30262952Y52030866D01*
X30052534Y51974484D01*
X30052518Y51974478D01*
X29855075Y51882410D01*
X29855073Y51882408D01*
X29676606Y51757445D01*
X29522555Y51603394D01*
X29397592Y51424927D01*
X29397590Y51424925D01*
X29305522Y51227482D01*
X29305516Y51227466D01*
X29270370Y51096298D01*
X29241250Y51058347D01*
X29193824Y51052104D01*
X29155873Y51081224D01*
X29149630Y51096298D01*
X29114483Y51227466D01*
X29114481Y51227469D01*
X29114480Y51227476D01*
X29076931Y51308000D01*
X29022409Y51424925D01*
X29022407Y51424927D01*
X29022407Y51424928D01*
X28897445Y51603392D01*
X28897444Y51603394D01*
X28743393Y51757445D01*
X28566540Y51881278D01*
X28564928Y51882407D01*
X28564926Y51882408D01*
X28564924Y51882410D01*
X28367481Y51974478D01*
X28367465Y51974484D01*
X28157047Y52030866D01*
X28157031Y52030869D01*
X27940002Y52049856D01*
X27939998Y52049856D01*
X27722968Y52030869D01*
X27722952Y52030866D01*
X27512534Y51974484D01*
X27512518Y51974478D01*
X27315075Y51882410D01*
X27315073Y51882408D01*
X27136606Y51757445D01*
X26982555Y51603394D01*
X26857592Y51424927D01*
X26857590Y51424925D01*
X26765522Y51227482D01*
X26765516Y51227466D01*
X26730370Y51096298D01*
X26701250Y51058347D01*
X26653824Y51052104D01*
X26615873Y51081224D01*
X26609630Y51096298D01*
X26574483Y51227466D01*
X26574481Y51227469D01*
X26574480Y51227476D01*
X26536931Y51308000D01*
X26482409Y51424925D01*
X26482407Y51424927D01*
X26482407Y51424928D01*
X26357445Y51603392D01*
X26357444Y51603394D01*
X26203393Y51757445D01*
X26026540Y51881278D01*
X26024928Y51882407D01*
X26024926Y51882408D01*
X26024924Y51882410D01*
X25827481Y51974478D01*
X25827465Y51974484D01*
X25617047Y52030866D01*
X25617031Y52030869D01*
X25400002Y52049856D01*
X25399998Y52049856D01*
X25182968Y52030869D01*
X25182952Y52030866D01*
X24972534Y51974484D01*
X24972518Y51974478D01*
X24775075Y51882410D01*
X24775073Y51882408D01*
X24596606Y51757445D01*
X24442555Y51603394D01*
X24317592Y51424927D01*
X24317590Y51424925D01*
X24225522Y51227482D01*
X24225516Y51227466D01*
X24190370Y51096298D01*
X24161250Y51058347D01*
X24113824Y51052104D01*
X24075873Y51081224D01*
X24069630Y51096298D01*
X24034483Y51227466D01*
X24034481Y51227469D01*
X24034480Y51227476D01*
X23996931Y51308000D01*
X23942409Y51424925D01*
X23942407Y51424927D01*
X23942407Y51424928D01*
X23817445Y51603392D01*
X23817444Y51603394D01*
X23663393Y51757445D01*
X23486540Y51881278D01*
X23484928Y51882407D01*
X23484926Y51882408D01*
X23484924Y51882410D01*
X23287481Y51974478D01*
X23287465Y51974484D01*
X23077047Y52030866D01*
X23077031Y52030869D01*
X22860002Y52049856D01*
X22859998Y52049856D01*
X22642968Y52030869D01*
X22642952Y52030866D01*
X22432534Y51974484D01*
X22432518Y51974478D01*
X22235075Y51882410D01*
X22235073Y51882408D01*
X22056606Y51757445D01*
X21902555Y51603394D01*
X21777592Y51424927D01*
X21777590Y51424925D01*
X21685522Y51227482D01*
X21685516Y51227466D01*
X21650370Y51096298D01*
X21621250Y51058347D01*
X21573824Y51052104D01*
X21535873Y51081224D01*
X21529630Y51096298D01*
X21494483Y51227466D01*
X21494481Y51227469D01*
X21494480Y51227476D01*
X21456931Y51308000D01*
X21402409Y51424925D01*
X21402407Y51424927D01*
X21402407Y51424928D01*
X21277445Y51603392D01*
X21277444Y51603394D01*
X21123393Y51757445D01*
X20946540Y51881278D01*
X20944928Y51882407D01*
X20944926Y51882408D01*
X20944924Y51882410D01*
X20747481Y51974478D01*
X20747465Y51974484D01*
X20537047Y52030866D01*
X20537031Y52030869D01*
X20320002Y52049856D01*
X20319998Y52049856D01*
X20102968Y52030869D01*
X20102952Y52030866D01*
X19892534Y51974484D01*
X19892518Y51974478D01*
X19695075Y51882410D01*
X19695073Y51882408D01*
X19516606Y51757445D01*
X19362555Y51603394D01*
X19237592Y51424927D01*
X19237590Y51424925D01*
X19145522Y51227482D01*
X19145517Y51227469D01*
X19109697Y51093786D01*
X19080577Y51055836D01*
X19033150Y51049593D01*
X18995200Y51078713D01*
X18988957Y51093787D01*
X18953255Y51227027D01*
X18953254Y51227029D01*
X18861277Y51424275D01*
X18736445Y51602555D01*
X18582554Y51756446D01*
X18404274Y51881278D01*
X18404272Y51881280D01*
X18207035Y51973252D01*
X18207019Y51973258D01*
X17996821Y52029581D01*
X17996805Y52029584D01*
X17932000Y52035254D01*
X17932000Y51285193D01*
X17846880Y51308000D01*
X17713120Y51308000D01*
X17628000Y51285193D01*
X17628000Y52035254D01*
X17563194Y52029584D01*
X17563178Y52029581D01*
X17352973Y51973256D01*
X17352971Y51973255D01*
X17155725Y51881278D01*
X16977445Y51756446D01*
X16823554Y51602555D01*
X16698722Y51424275D01*
X16606745Y51227029D01*
X16571042Y51093786D01*
X16541922Y51055836D01*
X16494495Y51049593D01*
X16456545Y51078713D01*
X16450302Y51093787D01*
X16414483Y51227466D01*
X16414481Y51227469D01*
X16414480Y51227476D01*
X16376931Y51308000D01*
X16322409Y51424925D01*
X16322407Y51424927D01*
X16322407Y51424928D01*
X16197445Y51603392D01*
X16197444Y51603394D01*
X16043393Y51757445D01*
X15866540Y51881278D01*
X15864928Y51882407D01*
X15864926Y51882408D01*
X15864924Y51882410D01*
X15667481Y51974478D01*
X15667465Y51974484D01*
X15457047Y52030866D01*
X15457031Y52030869D01*
X15240002Y52049856D01*
X15239998Y52049856D01*
X15022968Y52030869D01*
X15022952Y52030866D01*
X14812534Y51974484D01*
X14812518Y51974478D01*
X14615075Y51882410D01*
X14615073Y51882408D01*
X14436606Y51757445D01*
X14282555Y51603394D01*
X14157592Y51424927D01*
X14157590Y51424925D01*
X14065522Y51227482D01*
X14065516Y51227466D01*
X14030370Y51096298D01*
X14001250Y51058347D01*
X13953824Y51052104D01*
X13915873Y51081224D01*
X13909630Y51096298D01*
X13874483Y51227466D01*
X13874481Y51227469D01*
X13874480Y51227476D01*
X13836931Y51308000D01*
X13782409Y51424925D01*
X13782407Y51424927D01*
X13782407Y51424928D01*
X13657445Y51603392D01*
X13657444Y51603394D01*
X13503393Y51757445D01*
X13326540Y51881278D01*
X13324928Y51882407D01*
X13324926Y51882408D01*
X13324924Y51882410D01*
X13127481Y51974478D01*
X13127465Y51974484D01*
X12917047Y52030866D01*
X12917031Y52030869D01*
X12700002Y52049856D01*
X12699998Y52049856D01*
X12482968Y52030869D01*
X12482952Y52030866D01*
X12272534Y51974484D01*
X12272518Y51974478D01*
X12075075Y51882410D01*
X12075073Y51882408D01*
X11896606Y51757445D01*
X11742555Y51603394D01*
X11617592Y51424927D01*
X11617590Y51424925D01*
X11525522Y51227482D01*
X11525516Y51227466D01*
X11490370Y51096298D01*
X11461250Y51058347D01*
X11413824Y51052104D01*
X11375873Y51081224D01*
X11369630Y51096298D01*
X11334483Y51227466D01*
X11334481Y51227469D01*
X11334480Y51227476D01*
X11296931Y51308000D01*
X11242409Y51424925D01*
X11242407Y51424927D01*
X11242407Y51424928D01*
X11117445Y51603392D01*
X11117444Y51603394D01*
X10963393Y51757445D01*
X10786540Y51881278D01*
X10784928Y51882407D01*
X10784926Y51882408D01*
X10784924Y51882410D01*
X10587481Y51974478D01*
X10587465Y51974484D01*
X10377047Y52030866D01*
X10377031Y52030869D01*
X10160002Y52049856D01*
X10159998Y52049856D01*
X9942968Y52030869D01*
X9942952Y52030866D01*
X9732534Y51974484D01*
X9732518Y51974478D01*
X9535075Y51882410D01*
X9535073Y51882408D01*
X9356606Y51757445D01*
X9202555Y51603394D01*
X9077592Y51424927D01*
X9077590Y51424925D01*
X8985522Y51227482D01*
X8985516Y51227466D01*
X8929134Y51017048D01*
X8929131Y51017032D01*
X8910144Y50800003D01*
X180315Y50800003D01*
X2574506Y53194194D01*
X2618700Y53212500D01*
X68390000Y53212500D01*
X68434194Y53194194D01*
G37*
%TD.AperFunction*%
%TD*%
M02*
