%TF.GenerationSoftware,KiCad,Pcbnew,8.0.5*%
%TF.CreationDate,2024-10-24T20:07:57-06:00*%
%TF.ProjectId,Diorama_Controller,44696f72-616d-4615-9f43-6f6e74726f6c,v10*%
%TF.SameCoordinates,Original*%
%TF.FileFunction,Legend,Top*%
%TF.FilePolarity,Positive*%
%FSLAX46Y46*%
G04 Gerber Fmt 4.6, Leading zero omitted, Abs format (unit mm)*
G04 Created by KiCad (PCBNEW 8.0.5) date 2024-10-24 20:07:57*
%MOMM*%
%LPD*%
G01*
G04 APERTURE LIST*
%ADD10C,0.266700*%
%ADD11C,0.000000*%
%ADD12C,0.120000*%
%ADD13C,0.203200*%
%ADD14C,0.029494*%
G04 APERTURE END LIST*
D10*
X19022481Y9847246D02*
X19022481Y8839713D01*
X19022481Y9703313D02*
X19094448Y9775279D01*
X19094448Y9775279D02*
X19238381Y9847246D01*
X19238381Y9847246D02*
X19454281Y9847246D01*
X19454281Y9847246D02*
X19598214Y9775279D01*
X19598214Y9775279D02*
X19670181Y9631346D01*
X19670181Y9631346D02*
X19670181Y8839713D01*
X21037548Y8839713D02*
X21037548Y9631346D01*
X21037548Y9631346D02*
X20965581Y9775279D01*
X20965581Y9775279D02*
X20821648Y9847246D01*
X20821648Y9847246D02*
X20533781Y9847246D01*
X20533781Y9847246D02*
X20389848Y9775279D01*
X21037548Y8911679D02*
X20893615Y8839713D01*
X20893615Y8839713D02*
X20533781Y8839713D01*
X20533781Y8839713D02*
X20389848Y8911679D01*
X20389848Y8911679D02*
X20317881Y9055613D01*
X20317881Y9055613D02*
X20317881Y9199546D01*
X20317881Y9199546D02*
X20389848Y9343479D01*
X20389848Y9343479D02*
X20533781Y9415446D01*
X20533781Y9415446D02*
X20893615Y9415446D01*
X20893615Y9415446D02*
X21037548Y9487413D01*
X21541315Y9847246D02*
X22117048Y9847246D01*
X21757215Y10351013D02*
X21757215Y9055613D01*
X21757215Y9055613D02*
X21829182Y8911679D01*
X21829182Y8911679D02*
X21973115Y8839713D01*
X21973115Y8839713D02*
X22117048Y8839713D01*
X22620815Y8839713D02*
X22620815Y10351013D01*
X23268515Y8839713D02*
X23268515Y9631346D01*
X23268515Y9631346D02*
X23196548Y9775279D01*
X23196548Y9775279D02*
X23052615Y9847246D01*
X23052615Y9847246D02*
X22836715Y9847246D01*
X22836715Y9847246D02*
X22692782Y9775279D01*
X22692782Y9775279D02*
X22620815Y9703313D01*
X24635882Y8839713D02*
X24635882Y9631346D01*
X24635882Y9631346D02*
X24563915Y9775279D01*
X24563915Y9775279D02*
X24419982Y9847246D01*
X24419982Y9847246D02*
X24132115Y9847246D01*
X24132115Y9847246D02*
X23988182Y9775279D01*
X24635882Y8911679D02*
X24491949Y8839713D01*
X24491949Y8839713D02*
X24132115Y8839713D01*
X24132115Y8839713D02*
X23988182Y8911679D01*
X23988182Y8911679D02*
X23916215Y9055613D01*
X23916215Y9055613D02*
X23916215Y9199546D01*
X23916215Y9199546D02*
X23988182Y9343479D01*
X23988182Y9343479D02*
X24132115Y9415446D01*
X24132115Y9415446D02*
X24491949Y9415446D01*
X24491949Y9415446D02*
X24635882Y9487413D01*
X25355549Y9847246D02*
X25355549Y8839713D01*
X25355549Y9703313D02*
X25427516Y9775279D01*
X25427516Y9775279D02*
X25571449Y9847246D01*
X25571449Y9847246D02*
X25787349Y9847246D01*
X25787349Y9847246D02*
X25931282Y9775279D01*
X25931282Y9775279D02*
X26003249Y9631346D01*
X26003249Y9631346D02*
X26003249Y8839713D01*
X26722916Y8983646D02*
X26794883Y8911679D01*
X26794883Y8911679D02*
X26722916Y8839713D01*
X26722916Y8839713D02*
X26650949Y8911679D01*
X26650949Y8911679D02*
X26722916Y8983646D01*
X26722916Y8983646D02*
X26722916Y8839713D01*
X27370616Y8911679D02*
X27514550Y8839713D01*
X27514550Y8839713D02*
X27802416Y8839713D01*
X27802416Y8839713D02*
X27946350Y8911679D01*
X27946350Y8911679D02*
X28018316Y9055613D01*
X28018316Y9055613D02*
X28018316Y9127579D01*
X28018316Y9127579D02*
X27946350Y9271513D01*
X27946350Y9271513D02*
X27802416Y9343479D01*
X27802416Y9343479D02*
X27586516Y9343479D01*
X27586516Y9343479D02*
X27442583Y9415446D01*
X27442583Y9415446D02*
X27370616Y9559379D01*
X27370616Y9559379D02*
X27370616Y9631346D01*
X27370616Y9631346D02*
X27442583Y9775279D01*
X27442583Y9775279D02*
X27586516Y9847246D01*
X27586516Y9847246D02*
X27802416Y9847246D01*
X27802416Y9847246D02*
X27946350Y9775279D01*
X29241749Y8911679D02*
X29097816Y8839713D01*
X29097816Y8839713D02*
X28809949Y8839713D01*
X28809949Y8839713D02*
X28666016Y8911679D01*
X28666016Y8911679D02*
X28594049Y9055613D01*
X28594049Y9055613D02*
X28594049Y9631346D01*
X28594049Y9631346D02*
X28666016Y9775279D01*
X28666016Y9775279D02*
X28809949Y9847246D01*
X28809949Y9847246D02*
X29097816Y9847246D01*
X29097816Y9847246D02*
X29241749Y9775279D01*
X29241749Y9775279D02*
X29313716Y9631346D01*
X29313716Y9631346D02*
X29313716Y9487413D01*
X29313716Y9487413D02*
X28594049Y9343479D01*
X29961416Y8839713D02*
X29961416Y9847246D01*
X29961416Y10351013D02*
X29889449Y10279046D01*
X29889449Y10279046D02*
X29961416Y10207079D01*
X29961416Y10207079D02*
X30033383Y10279046D01*
X30033383Y10279046D02*
X29961416Y10351013D01*
X29961416Y10351013D02*
X29961416Y10207079D01*
X31328783Y8839713D02*
X31328783Y10351013D01*
X31328783Y8911679D02*
X31184850Y8839713D01*
X31184850Y8839713D02*
X30896983Y8839713D01*
X30896983Y8839713D02*
X30753050Y8911679D01*
X30753050Y8911679D02*
X30681083Y8983646D01*
X30681083Y8983646D02*
X30609116Y9127579D01*
X30609116Y9127579D02*
X30609116Y9559379D01*
X30609116Y9559379D02*
X30681083Y9703313D01*
X30681083Y9703313D02*
X30753050Y9775279D01*
X30753050Y9775279D02*
X30896983Y9847246D01*
X30896983Y9847246D02*
X31184850Y9847246D01*
X31184850Y9847246D02*
X31328783Y9775279D01*
X32264350Y8839713D02*
X32120417Y8911679D01*
X32120417Y8911679D02*
X32048450Y9055613D01*
X32048450Y9055613D02*
X32048450Y10351013D01*
X33415816Y8911679D02*
X33271883Y8839713D01*
X33271883Y8839713D02*
X32984016Y8839713D01*
X32984016Y8839713D02*
X32840083Y8911679D01*
X32840083Y8911679D02*
X32768116Y9055613D01*
X32768116Y9055613D02*
X32768116Y9631346D01*
X32768116Y9631346D02*
X32840083Y9775279D01*
X32840083Y9775279D02*
X32984016Y9847246D01*
X32984016Y9847246D02*
X33271883Y9847246D01*
X33271883Y9847246D02*
X33415816Y9775279D01*
X33415816Y9775279D02*
X33487783Y9631346D01*
X33487783Y9631346D02*
X33487783Y9487413D01*
X33487783Y9487413D02*
X32768116Y9343479D01*
X35071050Y9559379D02*
X34999083Y9631346D01*
X34999083Y9631346D02*
X34855150Y9703313D01*
X34855150Y9703313D02*
X34711216Y9703313D01*
X34711216Y9703313D02*
X34567283Y9631346D01*
X34567283Y9631346D02*
X34495316Y9559379D01*
X34495316Y9559379D02*
X34423350Y9415446D01*
X34423350Y9415446D02*
X34423350Y9271513D01*
X34423350Y9271513D02*
X34495316Y9127579D01*
X34495316Y9127579D02*
X34567283Y9055613D01*
X34567283Y9055613D02*
X34711216Y8983646D01*
X34711216Y8983646D02*
X34855150Y8983646D01*
X34855150Y8983646D02*
X34999083Y9055613D01*
X34999083Y9055613D02*
X35071050Y9127579D01*
X35071050Y9703313D02*
X35071050Y9127579D01*
X35071050Y9127579D02*
X35143016Y9055613D01*
X35143016Y9055613D02*
X35214983Y9055613D01*
X35214983Y9055613D02*
X35358916Y9127579D01*
X35358916Y9127579D02*
X35430883Y9271513D01*
X35430883Y9271513D02*
X35430883Y9631346D01*
X35430883Y9631346D02*
X35286950Y9847246D01*
X35286950Y9847246D02*
X35071050Y9991179D01*
X35071050Y9991179D02*
X34783183Y10063146D01*
X34783183Y10063146D02*
X34495316Y9991179D01*
X34495316Y9991179D02*
X34279416Y9847246D01*
X34279416Y9847246D02*
X34135483Y9631346D01*
X34135483Y9631346D02*
X34063516Y9343479D01*
X34063516Y9343479D02*
X34135483Y9055613D01*
X34135483Y9055613D02*
X34279416Y8839713D01*
X34279416Y8839713D02*
X34495316Y8695779D01*
X34495316Y8695779D02*
X34783183Y8623813D01*
X34783183Y8623813D02*
X35071050Y8695779D01*
X35071050Y8695779D02*
X35286950Y8839713D01*
X36726283Y9847246D02*
X36726283Y8623813D01*
X36726283Y8623813D02*
X36654316Y8479879D01*
X36654316Y8479879D02*
X36582350Y8407913D01*
X36582350Y8407913D02*
X36438416Y8335946D01*
X36438416Y8335946D02*
X36222516Y8335946D01*
X36222516Y8335946D02*
X36078583Y8407913D01*
X36726283Y8911679D02*
X36582350Y8839713D01*
X36582350Y8839713D02*
X36294483Y8839713D01*
X36294483Y8839713D02*
X36150550Y8911679D01*
X36150550Y8911679D02*
X36078583Y8983646D01*
X36078583Y8983646D02*
X36006616Y9127579D01*
X36006616Y9127579D02*
X36006616Y9559379D01*
X36006616Y9559379D02*
X36078583Y9703313D01*
X36078583Y9703313D02*
X36150550Y9775279D01*
X36150550Y9775279D02*
X36294483Y9847246D01*
X36294483Y9847246D02*
X36582350Y9847246D01*
X36582350Y9847246D02*
X36726283Y9775279D01*
X37445950Y8839713D02*
X37445950Y9847246D01*
X37445950Y9703313D02*
X37517917Y9775279D01*
X37517917Y9775279D02*
X37661850Y9847246D01*
X37661850Y9847246D02*
X37877750Y9847246D01*
X37877750Y9847246D02*
X38021683Y9775279D01*
X38021683Y9775279D02*
X38093650Y9631346D01*
X38093650Y9631346D02*
X38093650Y8839713D01*
X38093650Y9631346D02*
X38165617Y9775279D01*
X38165617Y9775279D02*
X38309550Y9847246D01*
X38309550Y9847246D02*
X38525450Y9847246D01*
X38525450Y9847246D02*
X38669383Y9775279D01*
X38669383Y9775279D02*
X38741350Y9631346D01*
X38741350Y9631346D02*
X38741350Y8839713D01*
X40108717Y8839713D02*
X40108717Y9631346D01*
X40108717Y9631346D02*
X40036750Y9775279D01*
X40036750Y9775279D02*
X39892817Y9847246D01*
X39892817Y9847246D02*
X39604950Y9847246D01*
X39604950Y9847246D02*
X39461017Y9775279D01*
X40108717Y8911679D02*
X39964784Y8839713D01*
X39964784Y8839713D02*
X39604950Y8839713D01*
X39604950Y8839713D02*
X39461017Y8911679D01*
X39461017Y8911679D02*
X39389050Y9055613D01*
X39389050Y9055613D02*
X39389050Y9199546D01*
X39389050Y9199546D02*
X39461017Y9343479D01*
X39461017Y9343479D02*
X39604950Y9415446D01*
X39604950Y9415446D02*
X39964784Y9415446D01*
X39964784Y9415446D02*
X40108717Y9487413D01*
X40828384Y8839713D02*
X40828384Y9847246D01*
X40828384Y10351013D02*
X40756417Y10279046D01*
X40756417Y10279046D02*
X40828384Y10207079D01*
X40828384Y10207079D02*
X40900351Y10279046D01*
X40900351Y10279046D02*
X40828384Y10351013D01*
X40828384Y10351013D02*
X40828384Y10207079D01*
X41763951Y8839713D02*
X41620018Y8911679D01*
X41620018Y8911679D02*
X41548051Y9055613D01*
X41548051Y9055613D02*
X41548051Y10351013D01*
X42339684Y8983646D02*
X42411651Y8911679D01*
X42411651Y8911679D02*
X42339684Y8839713D01*
X42339684Y8839713D02*
X42267717Y8911679D01*
X42267717Y8911679D02*
X42339684Y8983646D01*
X42339684Y8983646D02*
X42339684Y8839713D01*
X43707051Y8911679D02*
X43563118Y8839713D01*
X43563118Y8839713D02*
X43275251Y8839713D01*
X43275251Y8839713D02*
X43131318Y8911679D01*
X43131318Y8911679D02*
X43059351Y8983646D01*
X43059351Y8983646D02*
X42987384Y9127579D01*
X42987384Y9127579D02*
X42987384Y9559379D01*
X42987384Y9559379D02*
X43059351Y9703313D01*
X43059351Y9703313D02*
X43131318Y9775279D01*
X43131318Y9775279D02*
X43275251Y9847246D01*
X43275251Y9847246D02*
X43563118Y9847246D01*
X43563118Y9847246D02*
X43707051Y9775279D01*
X44570651Y8839713D02*
X44426718Y8911679D01*
X44426718Y8911679D02*
X44354751Y8983646D01*
X44354751Y8983646D02*
X44282784Y9127579D01*
X44282784Y9127579D02*
X44282784Y9559379D01*
X44282784Y9559379D02*
X44354751Y9703313D01*
X44354751Y9703313D02*
X44426718Y9775279D01*
X44426718Y9775279D02*
X44570651Y9847246D01*
X44570651Y9847246D02*
X44786551Y9847246D01*
X44786551Y9847246D02*
X44930484Y9775279D01*
X44930484Y9775279D02*
X45002451Y9703313D01*
X45002451Y9703313D02*
X45074418Y9559379D01*
X45074418Y9559379D02*
X45074418Y9127579D01*
X45074418Y9127579D02*
X45002451Y8983646D01*
X45002451Y8983646D02*
X44930484Y8911679D01*
X44930484Y8911679D02*
X44786551Y8839713D01*
X44786551Y8839713D02*
X44570651Y8839713D01*
X45722118Y8839713D02*
X45722118Y9847246D01*
X45722118Y9703313D02*
X45794085Y9775279D01*
X45794085Y9775279D02*
X45938018Y9847246D01*
X45938018Y9847246D02*
X46153918Y9847246D01*
X46153918Y9847246D02*
X46297851Y9775279D01*
X46297851Y9775279D02*
X46369818Y9631346D01*
X46369818Y9631346D02*
X46369818Y8839713D01*
X46369818Y9631346D02*
X46441785Y9775279D01*
X46441785Y9775279D02*
X46585718Y9847246D01*
X46585718Y9847246D02*
X46801618Y9847246D01*
X46801618Y9847246D02*
X46945551Y9775279D01*
X46945551Y9775279D02*
X47017518Y9631346D01*
X47017518Y9631346D02*
X47017518Y8839713D01*
D11*
%TO.C,kibuzzard-671AF94E*%
G36*
X29360066Y24458599D02*
G01*
X29535555Y24405189D01*
X29716130Y24316173D01*
X29793383Y24261810D01*
X29846316Y24201724D01*
X29873498Y24115887D01*
X29810551Y23955658D01*
X29703255Y23839778D01*
X29604542Y23801152D01*
X29450036Y23866960D01*
X29431438Y23879835D01*
X29407117Y23895572D01*
X29379936Y23911309D01*
X29341309Y23925615D01*
X29295529Y23937060D01*
X29238305Y23947074D01*
X29169635Y23949936D01*
X29006545Y23921323D01*
X28844886Y23836917D01*
X28717561Y23680980D01*
X28681080Y23573684D01*
X28668920Y23452082D01*
X28690737Y23295787D01*
X28756187Y23164528D01*
X28848820Y23064027D01*
X28952182Y23000007D01*
X29169635Y22954227D01*
X29320565Y22977833D01*
X29464342Y23048648D01*
X29607403Y23105873D01*
X29704685Y23065100D01*
X29807690Y22942783D01*
X29870637Y22776831D01*
X29830579Y22672396D01*
X29713269Y22585129D01*
X29543503Y22496113D01*
X29366106Y22442703D01*
X29181080Y22424900D01*
X29059835Y22433484D01*
X28930722Y22459235D01*
X28795529Y22505372D01*
X28656044Y22575114D01*
X28521924Y22665243D01*
X28402825Y22772539D01*
X28300894Y22904514D01*
X28218276Y23068677D01*
X28163555Y23258233D01*
X28145315Y23466388D01*
X28163197Y23666674D01*
X28216845Y23849793D01*
X28298391Y24008948D01*
X28399964Y24137346D01*
X28519063Y24241781D01*
X28653183Y24329049D01*
X28793383Y24396645D01*
X28930722Y24442067D01*
X29063412Y24467818D01*
X29189664Y24476402D01*
X29360066Y24458599D01*
G37*
G36*
X33803398Y24367675D02*
G01*
X33882082Y24303298D01*
X33910694Y24223183D01*
X33916416Y24127332D01*
X33916416Y23898433D01*
X34068062Y23904156D01*
X34143884Y23902725D01*
X34211123Y23886989D01*
X34272639Y23846931D01*
X34309835Y23768247D01*
X34325572Y23640923D01*
X34304113Y23499292D01*
X34241166Y23420608D01*
X34162482Y23390565D01*
X34065200Y23383412D01*
X33916416Y23386273D01*
X33916416Y23054371D01*
X33932153Y22968534D01*
X33993670Y22945644D01*
X34099535Y22939921D01*
X34176788Y22912740D01*
X34234013Y22842639D01*
X34251180Y22711023D01*
X34229721Y22563670D01*
X34162482Y22484986D01*
X34083798Y22457804D01*
X33990808Y22453512D01*
X33806259Y22469090D01*
X33656998Y22515823D01*
X33543026Y22593712D01*
X33462752Y22704347D01*
X33414588Y22849316D01*
X33398534Y23028619D01*
X33398534Y23391996D01*
X33327003Y23391996D01*
X33193956Y23454943D01*
X33155329Y23643784D01*
X33201109Y23828333D01*
X33338448Y23889850D01*
X33398534Y23889850D01*
X33398534Y24138777D01*
X33402825Y24234628D01*
X33430007Y24309020D01*
X33508691Y24369106D01*
X33658906Y24387704D01*
X33803398Y24367675D01*
G37*
G36*
X37694671Y24547933D02*
G01*
X37771924Y24482124D01*
X37799106Y24402010D01*
X37804828Y24304728D01*
X37804828Y23071538D01*
X37814843Y22969964D01*
X37882082Y22954227D01*
X37942167Y22949936D01*
X37997961Y22925615D01*
X38046602Y22851223D01*
X38062339Y22711023D01*
X38046602Y22562239D01*
X37997961Y22483555D01*
X37942167Y22457804D01*
X37879220Y22453512D01*
X37718991Y22458162D01*
X37598820Y22472110D01*
X37421423Y22552225D01*
X37315558Y22729621D01*
X37294099Y22865172D01*
X37286946Y23040064D01*
X37286946Y24307589D01*
X37291237Y24406302D01*
X37318419Y24483555D01*
X37398534Y24547933D01*
X37547318Y24567961D01*
X37694671Y24547933D01*
G37*
G36*
X38584514Y24547933D02*
G01*
X38661767Y24482124D01*
X38688948Y24402010D01*
X38694671Y24304728D01*
X38694671Y23071538D01*
X38704685Y22969964D01*
X38771924Y22954227D01*
X38832010Y22949936D01*
X38887804Y22925615D01*
X38936445Y22851223D01*
X38952182Y22711023D01*
X38936445Y22562239D01*
X38887804Y22483555D01*
X38832010Y22457804D01*
X38769063Y22453512D01*
X38608834Y22458162D01*
X38488662Y22472110D01*
X38311266Y22552225D01*
X38205401Y22729621D01*
X38183941Y22865172D01*
X38176788Y23040064D01*
X38176788Y24307589D01*
X38181080Y24406302D01*
X38208262Y24483555D01*
X38288376Y24547933D01*
X38437160Y24567961D01*
X38584514Y24547933D01*
G37*
G36*
X30907197Y23916873D02*
G01*
X31086977Y23843434D01*
X31245458Y23721037D01*
X31368650Y23563352D01*
X31442565Y23384048D01*
X31467203Y23183126D01*
X31440975Y22972349D01*
X31362291Y22790184D01*
X31231152Y22636631D01*
X31068538Y22520592D01*
X30895434Y22450969D01*
X30711838Y22427761D01*
X30706116Y22428492D01*
X30526494Y22451446D01*
X30351959Y22522500D01*
X30188233Y22640923D01*
X30056299Y22795588D01*
X29977138Y22975369D01*
X29950751Y23180265D01*
X29951109Y23183126D01*
X30474356Y23183126D01*
X30548748Y23008591D01*
X30706116Y22951366D01*
X30866345Y23008591D01*
X30943598Y23185987D01*
X30877790Y23354800D01*
X30703255Y23417747D01*
X30541595Y23350508D01*
X30474356Y23183126D01*
X29951109Y23183126D01*
X29975548Y23378484D01*
X30049940Y23557311D01*
X30173927Y23716745D01*
X30332248Y23841527D01*
X30509645Y23916396D01*
X30706116Y23941352D01*
X30907197Y23916873D01*
G37*
G36*
X36586739Y23916873D02*
G01*
X36766520Y23843434D01*
X36925000Y23721037D01*
X37048192Y23563352D01*
X37122107Y23384048D01*
X37146745Y23183126D01*
X37120517Y22972349D01*
X37041834Y22790184D01*
X36910694Y22636631D01*
X36748081Y22520592D01*
X36574976Y22450969D01*
X36391381Y22427761D01*
X36385658Y22428492D01*
X36206036Y22451446D01*
X36031501Y22522500D01*
X35867775Y22640923D01*
X35735841Y22795588D01*
X35656680Y22975369D01*
X35630293Y23180265D01*
X35630651Y23183126D01*
X36153898Y23183126D01*
X36228290Y23008591D01*
X36385658Y22951366D01*
X36545887Y23008591D01*
X36623140Y23185987D01*
X36557332Y23354800D01*
X36382797Y23417747D01*
X36221137Y23350508D01*
X36153898Y23183126D01*
X35630651Y23183126D01*
X35655091Y23378484D01*
X35729483Y23557311D01*
X35853469Y23716745D01*
X36011791Y23841527D01*
X36189187Y23916396D01*
X36385658Y23941352D01*
X36586739Y23916873D01*
G37*
G36*
X39990331Y23917826D02*
G01*
X40153898Y23855833D01*
X40284084Y23752511D01*
X40411767Y23561524D01*
X40454328Y23360522D01*
X40434657Y23218534D01*
X40375644Y23113026D01*
X40284442Y23047575D01*
X40168205Y23025758D01*
X39558763Y23025758D01*
X39644599Y22917031D01*
X39813412Y22876974D01*
X40045172Y22914170D01*
X40176788Y22951366D01*
X40271209Y22917031D01*
X40348462Y22814027D01*
X40385658Y22682411D01*
X40348462Y22568498D01*
X40236874Y22487132D01*
X40050894Y22438312D01*
X39790522Y22422039D01*
X39598820Y22439564D01*
X39430007Y22492139D01*
X39290165Y22573326D01*
X39185372Y22676688D01*
X39108834Y22793999D01*
X39053755Y22917031D01*
X39020494Y23044356D01*
X39009406Y23174542D01*
X39023241Y23294714D01*
X39558763Y23294714D01*
X39879220Y23294714D01*
X39956474Y23363383D01*
X39910694Y23447790D01*
X39787661Y23477833D01*
X39626001Y23422039D01*
X39558763Y23294714D01*
X39023241Y23294714D01*
X39033727Y23385796D01*
X39106688Y23569392D01*
X39228290Y23725329D01*
X39388360Y23843752D01*
X39576725Y23914806D01*
X39793383Y23938491D01*
X39990331Y23917826D01*
G37*
G36*
X32636811Y23884445D02*
G01*
X32779872Y23816729D01*
X32894957Y23703870D01*
X32979204Y23555722D01*
X33029753Y23382140D01*
X33046602Y23183126D01*
X33046602Y22713884D01*
X33042310Y22618033D01*
X33015129Y22540780D01*
X32936445Y22476402D01*
X32786230Y22456373D01*
X32634585Y22476402D01*
X32554471Y22542210D01*
X32527289Y22620894D01*
X32522997Y22716745D01*
X32522997Y23183126D01*
X32470064Y23334771D01*
X32319850Y23389134D01*
X32168205Y23333340D01*
X32110980Y23183126D01*
X32110980Y22713884D01*
X32106688Y22618033D01*
X32079506Y22540780D01*
X31999392Y22476402D01*
X31850608Y22456373D01*
X31703255Y22476402D01*
X31624571Y22540780D01*
X31597389Y22618033D01*
X31593097Y22716745D01*
X31593097Y23658090D01*
X31598820Y23752511D01*
X31626001Y23826903D01*
X31704685Y23888419D01*
X31853469Y23907017D01*
X31987947Y23889850D01*
X32065200Y23842639D01*
X32096674Y23788276D01*
X32105258Y23729621D01*
X32258333Y23852654D01*
X32465773Y23907017D01*
X32636811Y23884445D01*
G37*
G36*
X35329864Y23914170D02*
G01*
X35432868Y23888419D01*
X35525858Y23824041D01*
X35561624Y23715315D01*
X35545887Y23581195D01*
X35498677Y23470680D01*
X35338448Y23371967D01*
X35228290Y23393426D01*
X35158190Y23414886D01*
X35016559Y23373398D01*
X34960765Y23268963D01*
X34960765Y22711023D01*
X34956474Y22613741D01*
X34929292Y22537918D01*
X34849177Y22473541D01*
X34697532Y22453512D01*
X34550179Y22473541D01*
X34471495Y22539349D01*
X34444313Y22618033D01*
X34440021Y22716745D01*
X34440021Y23649506D01*
X34444313Y23746788D01*
X34471495Y23822611D01*
X34550179Y23886989D01*
X34700393Y23907017D01*
X34866345Y23877690D01*
X34946459Y23789707D01*
X35090951Y23888419D01*
X35244027Y23921323D01*
X35329864Y23914170D01*
G37*
G36*
X41472926Y23914170D02*
G01*
X41575930Y23888419D01*
X41668920Y23824041D01*
X41704685Y23715315D01*
X41688948Y23581195D01*
X41641738Y23470680D01*
X41481509Y23371967D01*
X41371352Y23393426D01*
X41301252Y23414886D01*
X41159621Y23373398D01*
X41103827Y23268963D01*
X41103827Y22711023D01*
X41099535Y22613741D01*
X41072353Y22537918D01*
X40992239Y22473541D01*
X40840594Y22453512D01*
X40693240Y22473541D01*
X40614557Y22539349D01*
X40587375Y22618033D01*
X40583083Y22716745D01*
X40583083Y23649506D01*
X40587375Y23746788D01*
X40614557Y23822611D01*
X40693240Y23886989D01*
X40843455Y23907017D01*
X41009406Y23877690D01*
X41089521Y23789707D01*
X41234013Y23888419D01*
X41387089Y23921323D01*
X41472926Y23914170D01*
G37*
%TO.C,kibuzzard-671AF949*%
G36*
X31582606Y27665549D02*
G01*
X31726621Y27604986D01*
X31853469Y27504049D01*
X31952023Y27375452D01*
X32011155Y27231914D01*
X32030866Y27073433D01*
X32007260Y26906052D01*
X31936445Y26752976D01*
X32050179Y26551974D01*
X32088090Y26332375D01*
X32065677Y26160383D01*
X32002253Y26006830D01*
X31897818Y25871717D01*
X31764771Y25766805D01*
X31615510Y25703858D01*
X31450036Y25682876D01*
X31012268Y25682876D01*
X30749034Y25682876D01*
X30600250Y25702904D01*
X30520136Y25768712D01*
X30492954Y25848827D01*
X30488662Y25948970D01*
X30488662Y26206481D01*
X31012268Y26206481D01*
X31421423Y26206481D01*
X31461481Y26209342D01*
X31505830Y26225079D01*
X31548748Y26273720D01*
X31564485Y26363848D01*
X31527289Y26482589D01*
X31407117Y26509771D01*
X31369921Y26509771D01*
X31206831Y26559843D01*
X31158190Y26730086D01*
X31209692Y26894607D01*
X31384227Y26941817D01*
X31418562Y26941817D01*
X31487232Y26961845D01*
X31507260Y27050544D01*
X31477217Y27139242D01*
X31358476Y27162132D01*
X31012268Y27162132D01*
X31012268Y26206481D01*
X30488662Y26206481D01*
X30488662Y27425365D01*
X30492954Y27521216D01*
X30520136Y27599900D01*
X30600250Y27665708D01*
X30751896Y27685737D01*
X31421423Y27685737D01*
X31582606Y27665549D01*
G37*
G36*
X34447175Y27594177D02*
G01*
X34525858Y27529800D01*
X34554471Y27449685D01*
X34560193Y27353834D01*
X34560193Y27124936D01*
X34711838Y27130658D01*
X34787661Y27129227D01*
X34854900Y27113491D01*
X34916416Y27073433D01*
X34953612Y26994750D01*
X34969349Y26867425D01*
X34947890Y26725794D01*
X34884943Y26647110D01*
X34806259Y26617067D01*
X34708977Y26609914D01*
X34560193Y26612775D01*
X34560193Y26280873D01*
X34575930Y26195036D01*
X34637446Y26172146D01*
X34743312Y26166423D01*
X34820565Y26139242D01*
X34877790Y26069142D01*
X34894957Y25937525D01*
X34873498Y25790172D01*
X34806259Y25711488D01*
X34727575Y25684306D01*
X34634585Y25680014D01*
X34450036Y25695592D01*
X34300775Y25742326D01*
X34186803Y25820215D01*
X34106529Y25930849D01*
X34058365Y26075818D01*
X34042310Y26255122D01*
X34042310Y26618498D01*
X33970780Y26618498D01*
X33837732Y26681445D01*
X33799106Y26870286D01*
X33844886Y27054835D01*
X33982225Y27116352D01*
X34042310Y27116352D01*
X34042310Y27365279D01*
X34046602Y27461130D01*
X34073784Y27535522D01*
X34152468Y27595608D01*
X34302682Y27614206D01*
X34447175Y27594177D01*
G37*
G36*
X35674642Y27594177D02*
G01*
X35753326Y27529800D01*
X35781938Y27449685D01*
X35787661Y27353834D01*
X35787661Y27124936D01*
X35939306Y27130658D01*
X36015129Y27129227D01*
X36082368Y27113491D01*
X36143884Y27073433D01*
X36181080Y26994750D01*
X36196817Y26867425D01*
X36175358Y26725794D01*
X36112411Y26647110D01*
X36033727Y26617067D01*
X35936445Y26609914D01*
X35787661Y26612775D01*
X35787661Y26280873D01*
X35803398Y26195036D01*
X35864914Y26172146D01*
X35970780Y26166423D01*
X36048033Y26139242D01*
X36105258Y26069142D01*
X36122425Y25937525D01*
X36100966Y25790172D01*
X36033727Y25711488D01*
X35955043Y25684306D01*
X35862053Y25680014D01*
X35677504Y25695592D01*
X35528243Y25742326D01*
X35414270Y25820215D01*
X35333997Y25930849D01*
X35285833Y26075818D01*
X35269778Y26255122D01*
X35269778Y26618498D01*
X35198247Y26618498D01*
X35065200Y26681445D01*
X35026574Y26870286D01*
X35072353Y27054835D01*
X35209692Y27116352D01*
X35269778Y27116352D01*
X35269778Y27365279D01*
X35274070Y27461130D01*
X35301252Y27535522D01*
X35379936Y27595608D01*
X35530150Y27614206D01*
X35674642Y27594177D01*
G37*
G36*
X37221932Y27143375D02*
G01*
X37401713Y27069936D01*
X37560193Y26947539D01*
X37683385Y26789854D01*
X37757300Y26610550D01*
X37781938Y26409628D01*
X37755711Y26198851D01*
X37677027Y26016686D01*
X37545887Y25863133D01*
X37383274Y25747094D01*
X37210169Y25677471D01*
X37026574Y25654263D01*
X37020851Y25654994D01*
X36841230Y25677948D01*
X36666694Y25749002D01*
X36502969Y25867425D01*
X36371034Y26022090D01*
X36291873Y26201871D01*
X36265486Y26406767D01*
X36265844Y26409628D01*
X36789092Y26409628D01*
X36863484Y26235093D01*
X37020851Y26177868D01*
X37181080Y26235093D01*
X37258333Y26412489D01*
X37192525Y26581302D01*
X37017990Y26644249D01*
X36856330Y26577010D01*
X36789092Y26409628D01*
X36265844Y26409628D01*
X36290284Y26604986D01*
X36364676Y26783813D01*
X36488662Y26943247D01*
X36646984Y27068029D01*
X36824380Y27142898D01*
X37020851Y27167854D01*
X37221932Y27143375D01*
G37*
G36*
X33573069Y27116352D02*
G01*
X33653183Y27050544D01*
X33680365Y26971860D01*
X33684657Y26876009D01*
X33684657Y25934664D01*
X33683226Y25858841D01*
X33667489Y25793033D01*
X33627432Y25734378D01*
X33550179Y25698612D01*
X33424285Y25682876D01*
X33253326Y25716495D01*
X33175358Y25817353D01*
X33035873Y25718641D01*
X32880651Y25685737D01*
X32705798Y25708945D01*
X32551292Y25778568D01*
X32417132Y25894607D01*
X32313809Y26044662D01*
X32251816Y26216336D01*
X32231152Y26409628D01*
X32231152Y26876009D01*
X32235443Y26974721D01*
X32262625Y27051974D01*
X32342740Y27116352D01*
X32491524Y27136381D01*
X32640308Y27116352D01*
X32720422Y27050544D01*
X32747604Y26971860D01*
X32751896Y26873147D01*
X32751896Y26409628D01*
X32806259Y26257983D01*
X32957904Y26203619D01*
X33108119Y26259413D01*
X33163913Y26409628D01*
X33163913Y26878870D01*
X33168205Y26974721D01*
X33195386Y27051974D01*
X33274070Y27116352D01*
X33424285Y27136381D01*
X33573069Y27116352D01*
G37*
G36*
X38951546Y27110947D02*
G01*
X39094607Y27043232D01*
X39209692Y26930372D01*
X39293940Y26782224D01*
X39344488Y26608643D01*
X39361338Y26409628D01*
X39361338Y25940386D01*
X39357046Y25844535D01*
X39329864Y25767282D01*
X39251180Y25702904D01*
X39100966Y25682876D01*
X38949320Y25702904D01*
X38869206Y25768712D01*
X38842024Y25847396D01*
X38837732Y25943247D01*
X38837732Y26409628D01*
X38784800Y26561273D01*
X38634585Y26615637D01*
X38482940Y26559843D01*
X38425715Y26409628D01*
X38425715Y25940386D01*
X38421423Y25844535D01*
X38394242Y25767282D01*
X38314127Y25702904D01*
X38165343Y25682876D01*
X38017990Y25702904D01*
X37939306Y25767282D01*
X37912124Y25844535D01*
X37907833Y25943247D01*
X37907833Y26884592D01*
X37913555Y26979013D01*
X37940737Y27053405D01*
X38019421Y27114921D01*
X38168205Y27133519D01*
X38302682Y27116352D01*
X38379936Y27069142D01*
X38411409Y27014778D01*
X38419993Y26956123D01*
X38573069Y27079156D01*
X38780508Y27133519D01*
X38951546Y27110947D01*
G37*
%TO.C,kibuzzard-671AF941*%
G36*
X30522997Y30788133D02*
G01*
X30706116Y30733412D01*
X30874928Y30642210D01*
X31029435Y30514528D01*
X31158369Y30361452D01*
X31250465Y30194070D01*
X31305722Y30012382D01*
X31324142Y29816388D01*
X31305722Y29615118D01*
X31250465Y29429049D01*
X31158369Y29258180D01*
X31029435Y29102511D01*
X30874392Y28972951D01*
X30703970Y28880408D01*
X30518169Y28824882D01*
X30316989Y28806373D01*
X30093813Y28806373D01*
X29830579Y28806373D01*
X29686087Y28826402D01*
X29607403Y28887918D01*
X29577361Y28968033D01*
X29570207Y29069607D01*
X29570207Y29329979D01*
X30093813Y29329979D01*
X30325572Y29329979D01*
X30506545Y29364671D01*
X30660336Y29468748D01*
X30765486Y29622182D01*
X30800536Y29804943D01*
X30765486Y29988062D01*
X30660336Y30142568D01*
X30505830Y30247718D01*
X30322711Y30282768D01*
X30093813Y30282768D01*
X30093813Y29329979D01*
X29570207Y29329979D01*
X29570207Y30548863D01*
X29574499Y30644714D01*
X29601681Y30723398D01*
X29681795Y30787775D01*
X29833441Y30806373D01*
X30325572Y30806373D01*
X30522997Y30788133D01*
G37*
G36*
X38320645Y30238737D02*
G01*
X38450831Y30175313D01*
X38555901Y30069607D01*
X38632996Y29925114D01*
X38679252Y29745334D01*
X38694671Y29530265D01*
X38694671Y29063884D01*
X38690379Y28965172D01*
X38663197Y28887918D01*
X38583083Y28823541D01*
X38431438Y28803512D01*
X38284084Y28823541D01*
X38205401Y28889349D01*
X38178219Y28969464D01*
X38173927Y29066745D01*
X38173927Y29533126D01*
X38139592Y29685486D01*
X38036588Y29736273D01*
X37932153Y29690494D01*
X37902110Y29530265D01*
X37902110Y29063884D01*
X37897818Y28965172D01*
X37870637Y28887918D01*
X37790522Y28823541D01*
X37638877Y28803512D01*
X37491524Y28823541D01*
X37412840Y28889349D01*
X37385658Y28969464D01*
X37381366Y29066745D01*
X37381366Y29533126D01*
X37347031Y29685486D01*
X37244027Y29736273D01*
X37143169Y29685486D01*
X37109549Y29533126D01*
X37109549Y29061023D01*
X37105258Y28963741D01*
X37078076Y28887918D01*
X36997961Y28823541D01*
X36846316Y28803512D01*
X36698963Y28823541D01*
X36620279Y28887918D01*
X36593097Y28965172D01*
X36588805Y29063884D01*
X36588805Y29999506D01*
X36593097Y30096788D01*
X36620279Y30172611D01*
X36700393Y30236989D01*
X36852039Y30257017D01*
X37015129Y30221967D01*
X37092382Y30116817D01*
X37222568Y30224113D01*
X37372783Y30259878D01*
X37536191Y30236671D01*
X37671622Y30167047D01*
X37779077Y30051009D01*
X37899567Y30167047D01*
X38028322Y30236671D01*
X38165343Y30259878D01*
X38320645Y30238737D01*
G37*
G36*
X33078871Y30266873D02*
G01*
X33258651Y30193434D01*
X33417132Y30071037D01*
X33540323Y29913352D01*
X33614239Y29734048D01*
X33638877Y29533126D01*
X33612649Y29322349D01*
X33533965Y29140184D01*
X33402825Y28986631D01*
X33240212Y28870592D01*
X33067108Y28800969D01*
X32883512Y28777761D01*
X32877790Y28778492D01*
X32698168Y28801446D01*
X32523633Y28872500D01*
X32359907Y28990923D01*
X32227973Y29145588D01*
X32148812Y29325369D01*
X32122425Y29530265D01*
X32122783Y29533126D01*
X32646030Y29533126D01*
X32720422Y29358591D01*
X32877790Y29301366D01*
X33038019Y29358591D01*
X33115272Y29535987D01*
X33049464Y29704800D01*
X32874928Y29767747D01*
X32713269Y29700508D01*
X32646030Y29533126D01*
X32122783Y29533126D01*
X32147222Y29728484D01*
X32221614Y29907311D01*
X32345601Y30066745D01*
X32503922Y30191527D01*
X32681319Y30266396D01*
X32877790Y30291352D01*
X33078871Y30266873D01*
G37*
G36*
X36312697Y30236989D02*
G01*
X36391381Y30171180D01*
X36418562Y30092496D01*
X36422854Y29996645D01*
X36422854Y29066745D01*
X36418562Y28969464D01*
X36391381Y28893641D01*
X36311266Y28829263D01*
X36162482Y28809235D01*
X36000107Y28834986D01*
X35919278Y28912239D01*
X35782654Y28834986D01*
X35690379Y28820480D01*
X35618848Y28809235D01*
X35453374Y28833714D01*
X35300298Y28907152D01*
X35159621Y29029549D01*
X35047556Y29183738D01*
X34980317Y29352550D01*
X34958603Y29530265D01*
X35475787Y29530265D01*
X35540165Y29388634D01*
X35690379Y29327117D01*
X35829149Y29388634D01*
X35887804Y29533126D01*
X35829149Y29679049D01*
X35684657Y29739134D01*
X35537303Y29676187D01*
X35475787Y29530265D01*
X34958603Y29530265D01*
X34957904Y29535987D01*
X34980476Y29714655D01*
X35048192Y29880606D01*
X35161052Y30033841D01*
X35302206Y30156238D01*
X35454804Y30229677D01*
X35618848Y30254156D01*
X35786946Y30225544D01*
X35919278Y30139707D01*
X35992239Y30227690D01*
X36165343Y30257017D01*
X36312697Y30236989D01*
G37*
G36*
X40169635Y30236989D02*
G01*
X40248319Y30171180D01*
X40275501Y30092496D01*
X40279793Y29996645D01*
X40279793Y29066745D01*
X40275501Y28969464D01*
X40248319Y28893641D01*
X40168205Y28829263D01*
X40019421Y28809235D01*
X39857046Y28834986D01*
X39776216Y28912239D01*
X39639592Y28834986D01*
X39547318Y28820480D01*
X39475787Y28809235D01*
X39310312Y28833714D01*
X39157237Y28907152D01*
X39016559Y29029549D01*
X38904495Y29183738D01*
X38837256Y29352550D01*
X38815542Y29530265D01*
X39332725Y29530265D01*
X39397103Y29388634D01*
X39547318Y29327117D01*
X39686087Y29388634D01*
X39744742Y29533126D01*
X39686087Y29679049D01*
X39541595Y29739134D01*
X39394242Y29676187D01*
X39332725Y29530265D01*
X38815542Y29530265D01*
X38814843Y29535987D01*
X38837415Y29714655D01*
X38905130Y29880606D01*
X39017990Y30033841D01*
X39159144Y30156238D01*
X39311743Y30229677D01*
X39475787Y30254156D01*
X39643884Y30225544D01*
X39776216Y30139707D01*
X39849177Y30227690D01*
X40022282Y30257017D01*
X40169635Y30236989D01*
G37*
G36*
X34654614Y30264170D02*
G01*
X34757618Y30238419D01*
X34850608Y30174041D01*
X34886373Y30065315D01*
X34870637Y29931195D01*
X34823426Y29820680D01*
X34663197Y29721967D01*
X34553040Y29743426D01*
X34482940Y29764886D01*
X34341309Y29723398D01*
X34285515Y29618963D01*
X34285515Y29061023D01*
X34281223Y28963741D01*
X34254041Y28887918D01*
X34173927Y28823541D01*
X34022282Y28803512D01*
X33874928Y28823541D01*
X33796245Y28889349D01*
X33769063Y28968033D01*
X33764771Y29066745D01*
X33764771Y29999506D01*
X33769063Y30096788D01*
X33796245Y30172611D01*
X33874928Y30236989D01*
X34025143Y30257017D01*
X34191094Y30227690D01*
X34271209Y30139707D01*
X34415701Y30238419D01*
X34568777Y30271323D01*
X34654614Y30264170D01*
G37*
G36*
X31872067Y30234127D02*
G01*
X31950751Y30168319D01*
X31977933Y30089635D01*
X31982225Y29990923D01*
X31982225Y29061023D01*
X31977933Y28963741D01*
X31950751Y28887918D01*
X31872067Y28823541D01*
X31721853Y28803512D01*
X31574499Y28823541D01*
X31495815Y28887918D01*
X31468634Y28965172D01*
X31464342Y29063884D01*
X31464342Y29996645D01*
X31468634Y30092496D01*
X31495815Y30169750D01*
X31575930Y30234127D01*
X31724714Y30254156D01*
X31872067Y30234127D01*
G37*
G36*
X31872067Y30892210D02*
G01*
X31950751Y30826402D01*
X31977933Y30747718D01*
X31982225Y30651867D01*
X31977933Y30554585D01*
X31950751Y30478763D01*
X31872067Y30414385D01*
X31721853Y30394356D01*
X31574499Y30414385D01*
X31495815Y30480193D01*
X31468634Y30558877D01*
X31464342Y30654728D01*
X31468634Y30750579D01*
X31495815Y30827833D01*
X31575930Y30892210D01*
X31724714Y30912239D01*
X31872067Y30892210D01*
G37*
%TO.C,kibuzzard-671AF894*%
G36*
X12254034Y22252761D02*
G01*
X12331288Y22225579D01*
X12395665Y22145465D01*
X12415694Y21993820D01*
X12399957Y21846466D01*
X12338441Y21762060D01*
X11359900Y21021001D01*
X12155322Y21021001D01*
X12254034Y21016710D01*
X12331288Y20989528D01*
X12395665Y20909413D01*
X12415694Y20757768D01*
X12395665Y20610415D01*
X12331288Y20533162D01*
X12252604Y20505980D01*
X12152461Y20500258D01*
X10667482Y20500258D01*
X10571631Y20505980D01*
X10495808Y20534592D01*
X10434292Y20613276D01*
X10415694Y20763491D01*
X10432861Y20893677D01*
X10468627Y20966638D01*
X10527282Y21018140D01*
X11488655Y21733448D01*
X10667482Y21733448D01*
X10573062Y21739170D01*
X10497239Y21767783D01*
X10435722Y21847897D01*
X10415694Y21996681D01*
X10435722Y22145465D01*
X10501531Y22225579D01*
X10580215Y22252761D01*
X10678927Y22257053D01*
X12155322Y22257053D01*
X12254034Y22252761D01*
G37*
G36*
X10756180Y20360057D02*
G01*
X10823419Y20304263D01*
X10846309Y20238455D01*
X10850601Y20156910D01*
X10850601Y19762060D01*
X12161044Y19762060D01*
X12256896Y19757768D01*
X12332718Y19730587D01*
X12395665Y19650472D01*
X12415694Y19501688D01*
X12395665Y19354335D01*
X12331288Y19277082D01*
X12254034Y19251330D01*
X12158183Y19247039D01*
X10850601Y19247039D01*
X10850601Y18849328D01*
X10846309Y18767783D01*
X10823419Y18703405D01*
X10756180Y18649041D01*
X10627425Y18631874D01*
X10502961Y18649041D01*
X10437153Y18704835D01*
X10414263Y18770644D01*
X10409971Y18852189D01*
X10409971Y20159771D01*
X10414263Y20241316D01*
X10437153Y20305694D01*
X10504392Y20360057D01*
X10630286Y20377225D01*
X10756180Y20360057D01*
G37*
G36*
X12412833Y17192675D02*
G01*
X12392804Y17043891D01*
X12326996Y16963777D01*
X12246881Y16936595D01*
X12146738Y16932303D01*
X10670343Y16932303D01*
X10574492Y16936595D01*
X10495808Y16963777D01*
X10430000Y17043891D01*
X10409971Y17195536D01*
X10409971Y17802117D01*
X10933577Y17802117D01*
X10933577Y17455908D01*
X11889227Y17455908D01*
X11889227Y17865064D01*
X11886366Y17905122D01*
X11870629Y17949471D01*
X11821989Y17992389D01*
X11731860Y18008126D01*
X11613119Y17970930D01*
X11585937Y17850758D01*
X11585937Y17813562D01*
X11535866Y17650472D01*
X11365622Y17601831D01*
X11201102Y17653333D01*
X11153891Y17827868D01*
X11153891Y17862203D01*
X11133863Y17930873D01*
X11045165Y17950901D01*
X10956466Y17920858D01*
X10933577Y17802117D01*
X10409971Y17802117D01*
X10409971Y17865064D01*
X10430159Y18026247D01*
X10490722Y18170262D01*
X10591660Y18297110D01*
X10720256Y18395664D01*
X10863794Y18454796D01*
X11022275Y18474506D01*
X11189657Y18450901D01*
X11342732Y18380086D01*
X11543734Y18493820D01*
X11763333Y18531731D01*
X11935325Y18509318D01*
X12088878Y18445894D01*
X12223991Y18341459D01*
X12328903Y18208412D01*
X12391850Y18059151D01*
X12412833Y17893677D01*
X12412833Y17455908D01*
X12412833Y17192675D01*
G37*
G36*
X11932941Y23685443D02*
G01*
X12101276Y23618681D01*
X12248312Y23507411D01*
X12361966Y23363395D01*
X12430159Y23198398D01*
X12452890Y23012418D01*
X12440372Y22857911D01*
X12402818Y22714850D01*
X12304106Y22520286D01*
X12252604Y22460200D01*
X12078069Y22351474D01*
X11883505Y22457339D01*
X11786223Y22634735D01*
X11880644Y22829299D01*
X11926423Y22995250D01*
X11883505Y23132589D01*
X11763333Y23181230D01*
X11644592Y23129728D01*
X11597382Y23003834D01*
X11637439Y22892246D01*
X11706109Y22732017D01*
X11648884Y22546037D01*
X11563047Y22418712D01*
X11480072Y22382947D01*
X10667482Y22488813D01*
X10587368Y22503119D01*
X10508684Y22536023D01*
X10432861Y22616137D01*
X10407110Y22752046D01*
X10409971Y23407268D01*
X10415694Y23505980D01*
X10442876Y23583233D01*
X10522990Y23647611D01*
X10678927Y23667639D01*
X10821989Y23649041D01*
X10897811Y23587525D01*
X10923562Y23513133D01*
X10927854Y23421574D01*
X10927854Y22980944D01*
X11079499Y22960916D01*
X11073777Y23009557D01*
X11073777Y23023863D01*
X11096190Y23197762D01*
X11163429Y23357037D01*
X11275494Y23501688D01*
X11417124Y23616137D01*
X11573062Y23684807D01*
X11743305Y23707697D01*
X11932941Y23685443D01*
G37*
D12*
%TO.C,R8*%
X14492500Y32622258D02*
X14492500Y32147742D01*
X13447500Y32622258D02*
X13447500Y32147742D01*
D13*
%TO.C,Q1*%
X16445000Y30985000D02*
X17245000Y30985000D01*
X16445000Y31585000D02*
X16445000Y30985000D01*
X16445000Y33185000D02*
X16445000Y33785000D01*
X16445000Y33785000D02*
X17245000Y33785000D01*
%TO.C,J6*%
X4610000Y15330000D02*
X8110000Y15330000D01*
X8110000Y15330000D02*
X8110000Y16130000D01*
X5610000Y16130000D02*
X5610000Y17330000D01*
X8110000Y16130000D02*
X5610000Y16130000D01*
X610000Y23330000D02*
X610000Y17330000D01*
X5610000Y23330000D02*
X5610000Y24530000D01*
X5610000Y24530000D02*
X8110000Y24530000D01*
X8110000Y24530000D02*
X8110000Y25330000D01*
X8110000Y25330000D02*
X4610000Y25330000D01*
%TO.C,J5*%
X4810000Y28385000D02*
X8410000Y28385000D01*
X8410000Y28385000D02*
X8410000Y29185000D01*
X5810000Y29185000D02*
X5810000Y30385000D01*
X8410000Y29185000D02*
X5810000Y29185000D01*
X810000Y34385000D02*
X810000Y30385000D01*
X5810000Y34385000D02*
X5810000Y35585000D01*
X5810000Y35585000D02*
X8410000Y35585000D01*
X8410000Y35585000D02*
X8410000Y36385000D01*
X8410000Y36385000D02*
X4810000Y36385000D01*
%TO.C,J4*%
X63970000Y12610000D02*
X60470000Y12610000D01*
X60470000Y12610000D02*
X60470000Y11810000D01*
X62970000Y11810000D02*
X62970000Y10610000D01*
X60470000Y11810000D02*
X62970000Y11810000D01*
X67970000Y4610000D02*
X67970000Y10610000D01*
X62970000Y4610000D02*
X62970000Y3410000D01*
X62970000Y3410000D02*
X60470000Y3410000D01*
X60470000Y3410000D02*
X60470000Y2610000D01*
X60470000Y2610000D02*
X63970000Y2610000D01*
%TO.C,J3*%
X63970000Y25310000D02*
X60470000Y25310000D01*
X60470000Y25310000D02*
X60470000Y24510000D01*
X62970000Y24510000D02*
X62970000Y23310000D01*
X60470000Y24510000D02*
X62970000Y24510000D01*
X67970000Y17310000D02*
X67970000Y23310000D01*
X62970000Y17310000D02*
X62970000Y16110000D01*
X62970000Y16110000D02*
X60470000Y16110000D01*
X60470000Y16110000D02*
X60470000Y15310000D01*
X60470000Y15310000D02*
X63970000Y15310000D01*
%TO.C,J2*%
X63970000Y50710000D02*
X60470000Y50710000D01*
X60470000Y50710000D02*
X60470000Y49910000D01*
X62970000Y49910000D02*
X62970000Y48710000D01*
X60470000Y49910000D02*
X62970000Y49910000D01*
X67970000Y42710000D02*
X67970000Y48710000D01*
X62970000Y42710000D02*
X62970000Y41510000D01*
X62970000Y41510000D02*
X60470000Y41510000D01*
X60470000Y41510000D02*
X60470000Y40710000D01*
X60470000Y40710000D02*
X63970000Y40710000D01*
%TO.C,J1*%
X63970000Y38010000D02*
X60470000Y38010000D01*
X60470000Y38010000D02*
X60470000Y37210000D01*
X62970000Y37210000D02*
X62970000Y36010000D01*
X60470000Y37210000D02*
X62970000Y37210000D01*
X67970000Y30010000D02*
X67970000Y36010000D01*
X62970000Y30010000D02*
X62970000Y28810000D01*
X62970000Y28810000D02*
X60470000Y28810000D01*
X60470000Y28810000D02*
X60470000Y28010000D01*
X60470000Y28010000D02*
X63970000Y28010000D01*
D12*
%TO.C,R3*%
X55132500Y20557258D02*
X55132500Y20082742D01*
X54087500Y20557258D02*
X54087500Y20082742D01*
D11*
%TO.C,kibuzzard-67132779*%
G36*
X58064163Y22093963D02*
G01*
X58129971Y22038169D01*
X58152861Y21972361D01*
X58157153Y21890815D01*
X58157153Y20583233D01*
X58152861Y20501688D01*
X58129971Y20437310D01*
X58062732Y20382947D01*
X57936838Y20365780D01*
X57810944Y20382947D01*
X57743705Y20438741D01*
X57720815Y20504549D01*
X57716524Y20586094D01*
X57716524Y20980944D01*
X56406080Y20980944D01*
X56310229Y20985236D01*
X56234406Y21012418D01*
X56171459Y21092532D01*
X56151431Y21241316D01*
X56171459Y21388670D01*
X56235837Y21465923D01*
X56313090Y21491674D01*
X56408941Y21495966D01*
X57716524Y21495966D01*
X57716524Y21893677D01*
X57720815Y21975222D01*
X57743705Y22039599D01*
X57810944Y22093963D01*
X57939700Y22111130D01*
X58064163Y22093963D01*
G37*
G36*
X57995494Y20237024D02*
G01*
X58071316Y20208412D01*
X58132833Y20129728D01*
X58151431Y19979514D01*
X58134263Y19849328D01*
X58098498Y19776366D01*
X58039843Y19724864D01*
X57078469Y19009557D01*
X57899642Y19009557D01*
X57994063Y19003834D01*
X58069886Y18975222D01*
X58131402Y18895107D01*
X58151431Y18746323D01*
X58131402Y18597539D01*
X58065594Y18517425D01*
X57986910Y18490243D01*
X57888197Y18485951D01*
X56411803Y18485951D01*
X56313090Y18490243D01*
X56235837Y18517425D01*
X56171459Y18597539D01*
X56151431Y18749185D01*
X56167167Y18896538D01*
X56228684Y18980944D01*
X57207225Y19722003D01*
X56411803Y19722003D01*
X56313090Y19726295D01*
X56235837Y19753476D01*
X56171459Y19833591D01*
X56151431Y19985236D01*
X56171459Y20132589D01*
X56235837Y20209843D01*
X56314521Y20237024D01*
X56414664Y20242747D01*
X57899642Y20242747D01*
X57995494Y20237024D01*
G37*
G36*
X57992632Y23806409D02*
G01*
X58071316Y23779227D01*
X58137124Y23699113D01*
X58157153Y23547468D01*
X58157153Y22877940D01*
X58136966Y22716757D01*
X58076403Y22572742D01*
X57975465Y22445894D01*
X57846869Y22347341D01*
X57703330Y22288209D01*
X57544850Y22268498D01*
X57377468Y22292103D01*
X57224392Y22362918D01*
X57023391Y22249185D01*
X56803791Y22211273D01*
X56631799Y22233686D01*
X56478247Y22297110D01*
X56343133Y22401545D01*
X56238221Y22534592D01*
X56175274Y22683853D01*
X56154292Y22849328D01*
X56154292Y22877940D01*
X56677897Y22877940D01*
X56680758Y22837883D01*
X56696495Y22793534D01*
X56745136Y22750615D01*
X56835265Y22734878D01*
X56954006Y22772074D01*
X56981187Y22892246D01*
X56981187Y22929442D01*
X57031259Y23092532D01*
X57201502Y23141173D01*
X57366023Y23089671D01*
X57413233Y22915136D01*
X57413233Y22880801D01*
X57433262Y22812132D01*
X57521960Y22792103D01*
X57610658Y22822146D01*
X57633548Y22940887D01*
X57633548Y23287096D01*
X56677897Y23287096D01*
X56677897Y22877940D01*
X56154292Y22877940D01*
X56154292Y23287096D01*
X56154292Y23550329D01*
X56174320Y23699113D01*
X56240129Y23779227D01*
X56320243Y23806409D01*
X56420386Y23810701D01*
X57896781Y23810701D01*
X57992632Y23806409D01*
G37*
G36*
X56893205Y18294249D02*
G01*
X56938269Y18079657D01*
X56906795Y17922289D01*
X56772318Y17839313D01*
X56756581Y17833591D01*
X56722246Y17812132D01*
X56679328Y17769213D01*
X56644993Y17700544D01*
X56629256Y17598970D01*
X56673605Y17420143D01*
X56792346Y17352904D01*
X56916810Y17407983D01*
X56958298Y17573219D01*
X56958298Y17651903D01*
X56971173Y17717711D01*
X57006938Y17782089D01*
X57081330Y17816423D01*
X57207225Y17833591D01*
X57350286Y17814993D01*
X57424678Y17754907D01*
X57448999Y17681946D01*
X57453290Y17590386D01*
X57453290Y17570358D01*
X57471888Y17437310D01*
X57544850Y17395823D01*
X57643562Y17443033D01*
X57679328Y17573219D01*
X57650715Y17696252D01*
X57564878Y17779227D01*
X57446932Y17866336D01*
X57413551Y17986508D01*
X57464735Y18139742D01*
X57622103Y18281373D01*
X57819528Y18239886D01*
X57829542Y18235594D01*
X57861016Y18219857D01*
X57908226Y18191245D01*
X57965451Y18145465D01*
X58026967Y18082518D01*
X58085622Y17998112D01*
X58135694Y17892246D01*
X58170029Y17760629D01*
X58182904Y17601831D01*
X58161286Y17393756D01*
X58096431Y17215883D01*
X57988340Y17068212D01*
X57853863Y16957736D01*
X57709847Y16891451D01*
X57556295Y16869356D01*
X57346710Y16918712D01*
X57204363Y17066781D01*
X57049857Y16906552D01*
X56935408Y16848612D01*
X56798069Y16829299D01*
X56612883Y16853619D01*
X56450270Y16926581D01*
X56310229Y17048183D01*
X56202933Y17206981D01*
X56138555Y17391531D01*
X56117096Y17601831D01*
X56138555Y17797349D01*
X56202933Y17975699D01*
X56310229Y18136881D01*
X56445819Y18264047D01*
X56595080Y18340347D01*
X56758011Y18365780D01*
X56893205Y18294249D01*
G37*
%TO.C,kibuzzard-6713273F*%
G36*
X57643562Y43465351D02*
G01*
X57740844Y43378083D01*
X58067024Y43014707D01*
X58104220Y42968927D01*
X58152861Y42774363D01*
X58094206Y42574077D01*
X57889628Y42516853D01*
X56401788Y42516853D01*
X56201502Y42574077D01*
X56144278Y42777225D01*
X56201502Y42977511D01*
X56404649Y43034735D01*
X57371745Y43034735D01*
X57345994Y43063348D01*
X57263019Y43239313D01*
X57363162Y43409557D01*
X57552003Y43498255D01*
X57643562Y43465351D01*
G37*
G36*
X58062732Y47206409D02*
G01*
X58128541Y47150615D01*
X58151431Y47084807D01*
X58155722Y47003262D01*
X58155722Y45695680D01*
X58151431Y45614134D01*
X58128541Y45549757D01*
X58061302Y45495393D01*
X57935408Y45478226D01*
X57809514Y45495393D01*
X57742275Y45551187D01*
X57719385Y45616996D01*
X57715093Y45698541D01*
X57715093Y46093391D01*
X56404649Y46093391D01*
X56308798Y46097682D01*
X56232976Y46124864D01*
X56170029Y46204979D01*
X56150000Y46353763D01*
X56170029Y46501116D01*
X56234406Y46578369D01*
X56311660Y46604120D01*
X56407511Y46608412D01*
X57715093Y46608412D01*
X57715093Y47006123D01*
X57719385Y47087668D01*
X57742275Y47152046D01*
X57809514Y47206409D01*
X57938269Y47223577D01*
X58062732Y47206409D01*
G37*
G36*
X57994063Y45349471D02*
G01*
X58069886Y45320858D01*
X58131402Y45242175D01*
X58150000Y45091960D01*
X58132833Y44961774D01*
X58097067Y44888813D01*
X58038412Y44837310D01*
X57077039Y44122003D01*
X57898212Y44122003D01*
X57992632Y44116280D01*
X58068455Y44087668D01*
X58129971Y44007554D01*
X58150000Y43858770D01*
X58129971Y43709986D01*
X58064163Y43629871D01*
X57985479Y43602690D01*
X57886767Y43598398D01*
X56410372Y43598398D01*
X56311660Y43602690D01*
X56234406Y43629871D01*
X56170029Y43709986D01*
X56150000Y43861631D01*
X56165737Y44008984D01*
X56227253Y44093391D01*
X57205794Y44834449D01*
X56410372Y44834449D01*
X56311660Y44838741D01*
X56234406Y44865923D01*
X56170029Y44946037D01*
X56150000Y45097682D01*
X56170029Y45245036D01*
X56234406Y45322289D01*
X56313090Y45349471D01*
X56413233Y45355193D01*
X57898212Y45355193D01*
X57994063Y45349471D01*
G37*
G36*
X57991202Y48918856D02*
G01*
X58069886Y48891674D01*
X58135694Y48811559D01*
X58155722Y48659914D01*
X58155722Y47990386D01*
X58135535Y47829204D01*
X58074972Y47685188D01*
X57974034Y47558340D01*
X57845438Y47459787D01*
X57701900Y47400655D01*
X57543419Y47380944D01*
X57376037Y47404549D01*
X57222961Y47475365D01*
X57021960Y47361631D01*
X56802361Y47323720D01*
X56630369Y47346133D01*
X56476816Y47409557D01*
X56341702Y47513991D01*
X56236791Y47647039D01*
X56173844Y47796299D01*
X56152861Y47961774D01*
X56152861Y47990386D01*
X56676466Y47990386D01*
X56679328Y47950329D01*
X56695064Y47905980D01*
X56743705Y47863062D01*
X56833834Y47847325D01*
X56952575Y47884521D01*
X56979757Y48004692D01*
X56979757Y48041888D01*
X57029828Y48204979D01*
X57200072Y48253619D01*
X57364592Y48202117D01*
X57411803Y48027582D01*
X57411803Y47993247D01*
X57431831Y47924578D01*
X57520529Y47904549D01*
X57609227Y47934592D01*
X57632117Y48053333D01*
X57632117Y48399542D01*
X56676466Y48399542D01*
X56676466Y47990386D01*
X56152861Y47990386D01*
X56152861Y48399542D01*
X56152861Y48662775D01*
X56172890Y48811559D01*
X56238698Y48891674D01*
X56318813Y48918856D01*
X56418956Y48923147D01*
X57895351Y48923147D01*
X57991202Y48918856D01*
G37*
D12*
%TO.C,R7*%
X19797500Y32147742D02*
X19797500Y32622258D01*
X20842500Y32147742D02*
X20842500Y32622258D01*
D14*
%TO.C,Ref\u002A\u002A*%
X5965678Y8327169D02*
X5966801Y8327086D01*
X5967918Y8326948D01*
X5969028Y8326758D01*
X5970129Y8326517D01*
X5971220Y8326226D01*
X5972298Y8325887D01*
X5973362Y8325501D01*
X5974411Y8325069D01*
X5975443Y8324593D01*
X5976456Y8324073D01*
X5977448Y8323513D01*
X5978418Y8322912D01*
X5979364Y8322272D01*
X5980285Y8321595D01*
X5981178Y8320882D01*
X5982043Y8320134D01*
X5982877Y8319353D01*
X5983679Y8318540D01*
X5984447Y8317697D01*
X5985180Y8316824D01*
X5985875Y8315924D01*
X5986531Y8314997D01*
X5987148Y8314045D01*
X5987721Y8313070D01*
X5988251Y8312072D01*
X5988736Y8311054D01*
X5989173Y8310016D01*
X5989562Y8308959D01*
X5989900Y8307886D01*
X5990186Y8306798D01*
X5990418Y8305696D01*
X6083767Y7804207D01*
X6084003Y7803096D01*
X6084289Y7801981D01*
X6085007Y7799747D01*
X6085908Y7797521D01*
X6086979Y7795315D01*
X6088208Y7793146D01*
X6089582Y7791028D01*
X6091088Y7788975D01*
X6092715Y7787001D01*
X6094449Y7785122D01*
X6096278Y7783352D01*
X6098190Y7781706D01*
X6100171Y7780197D01*
X6102209Y7778841D01*
X6104292Y7777652D01*
X6105347Y7777125D01*
X6106407Y7776645D01*
X6107473Y7776214D01*
X6108542Y7775834D01*
X6444657Y7638244D01*
X6446745Y7637325D01*
X6448960Y7636557D01*
X6451281Y7635940D01*
X6453690Y7635471D01*
X6456167Y7635149D01*
X6458692Y7634973D01*
X6461246Y7634943D01*
X6463810Y7635055D01*
X6466363Y7635310D01*
X6468887Y7635705D01*
X6471363Y7636240D01*
X6473769Y7636913D01*
X6476088Y7637723D01*
X6478299Y7638668D01*
X6480383Y7639747D01*
X6482321Y7640958D01*
X6901285Y7928467D01*
X6902229Y7929082D01*
X6903201Y7929649D01*
X6904198Y7930168D01*
X6905219Y7930640D01*
X6906262Y7931064D01*
X6907324Y7931442D01*
X6908403Y7931772D01*
X6909498Y7932056D01*
X6910605Y7932293D01*
X6911724Y7932485D01*
X6913984Y7932729D01*
X6916263Y7932790D01*
X6918543Y7932670D01*
X6920806Y7932370D01*
X6923036Y7931892D01*
X6925215Y7931238D01*
X6926281Y7930845D01*
X6927327Y7930408D01*
X6928353Y7929928D01*
X6929355Y7929405D01*
X6930332Y7928839D01*
X6931281Y7928230D01*
X6932201Y7927578D01*
X6933089Y7926884D01*
X6933943Y7926148D01*
X6934760Y7925370D01*
X7287598Y7572532D01*
X7288376Y7571714D01*
X7289111Y7570860D01*
X7289804Y7569972D01*
X7290455Y7569052D01*
X7291062Y7568102D01*
X7291627Y7567124D01*
X7292627Y7565095D01*
X7293452Y7562980D01*
X7294103Y7560798D01*
X7294577Y7558566D01*
X7294874Y7556300D01*
X7294992Y7554017D01*
X7294929Y7551736D01*
X7294685Y7549473D01*
X7294258Y7547245D01*
X7293646Y7545069D01*
X7293271Y7544006D01*
X7292849Y7542963D01*
X7292381Y7541941D01*
X7291866Y7540943D01*
X7291304Y7539971D01*
X7290694Y7539027D01*
X7008200Y7127290D01*
X7006984Y7125344D01*
X7005905Y7123256D01*
X7004964Y7121046D01*
X7004163Y7118732D01*
X7003501Y7116334D01*
X7002982Y7113871D01*
X7002605Y7111361D01*
X7002373Y7108823D01*
X7002285Y7106276D01*
X7002344Y7103740D01*
X7002550Y7101234D01*
X7002906Y7098775D01*
X7003411Y7096384D01*
X7004067Y7094079D01*
X7004876Y7091879D01*
X7005838Y7089803D01*
X7154459Y6743070D01*
X7155308Y6740941D01*
X7156352Y6738832D01*
X7157575Y6736754D01*
X7158964Y6734721D01*
X7160503Y6732745D01*
X7162178Y6730839D01*
X7163974Y6729016D01*
X7165877Y6727287D01*
X7167871Y6725666D01*
X7169942Y6724165D01*
X7172075Y6722796D01*
X7174255Y6721573D01*
X7176468Y6720508D01*
X7178699Y6719613D01*
X7180934Y6718900D01*
X7183156Y6718384D01*
X7668011Y6628220D01*
X7668010Y6628220D01*
X7669110Y6627983D01*
X7670195Y6627692D01*
X7671266Y6627350D01*
X7672320Y6626957D01*
X7673356Y6626516D01*
X7674372Y6626029D01*
X7675368Y6625496D01*
X7676342Y6624920D01*
X7678217Y6623643D01*
X7679987Y6622213D01*
X7681640Y6620641D01*
X7683166Y6618940D01*
X7684554Y6617125D01*
X7685791Y6615208D01*
X7686868Y6613201D01*
X7687343Y6612169D01*
X7687773Y6611119D01*
X7688158Y6610054D01*
X7688496Y6608975D01*
X7688784Y6607883D01*
X7689023Y6606780D01*
X7689211Y6605668D01*
X7689346Y6604549D01*
X7689427Y6603424D01*
X7689453Y6602295D01*
X7689393Y6103284D01*
X7689365Y6102157D01*
X7689282Y6101033D01*
X7689144Y6099915D01*
X7688953Y6098804D01*
X7688712Y6097702D01*
X7688420Y6096610D01*
X7688080Y6095530D01*
X7687693Y6094464D01*
X7687260Y6093413D01*
X7686783Y6092379D01*
X7686263Y6091364D01*
X7685701Y6090369D01*
X7685099Y6089397D01*
X7684459Y6088449D01*
X7683781Y6087526D01*
X7683067Y6086630D01*
X7682319Y6085764D01*
X7681537Y6084928D01*
X7680724Y6084124D01*
X7679880Y6083354D01*
X7679008Y6082621D01*
X7678107Y6081924D01*
X7677181Y6081267D01*
X7676229Y6080650D01*
X7675255Y6080076D01*
X7674258Y6079546D01*
X7673241Y6079062D01*
X7672204Y6078625D01*
X7671149Y6078238D01*
X7670078Y6077901D01*
X7668992Y6077617D01*
X7667893Y6077388D01*
X7194955Y5989377D01*
X7193842Y5989149D01*
X7192726Y5988869D01*
X7191609Y5988540D01*
X7190494Y5988161D01*
X7188274Y5987266D01*
X7186080Y5986198D01*
X7183925Y5984967D01*
X7181825Y5983589D01*
X7179793Y5982076D01*
X7177843Y5980441D01*
X7175990Y5978696D01*
X7174247Y5976855D01*
X7172629Y5974931D01*
X7171150Y5972936D01*
X7169824Y5970884D01*
X7168665Y5968788D01*
X7167688Y5966660D01*
X7167271Y5965589D01*
X7166906Y5964514D01*
X7019259Y5595691D01*
X7018345Y5593593D01*
X7017584Y5591371D01*
X7016973Y5589045D01*
X7016510Y5586633D01*
X7016195Y5584155D01*
X7016027Y5581630D01*
X7016002Y5579077D01*
X7016121Y5576516D01*
X7016381Y5573965D01*
X7016780Y5571445D01*
X7017318Y5568973D01*
X7017993Y5566570D01*
X7018803Y5564255D01*
X7019748Y5562046D01*
X7020824Y5559964D01*
X7022031Y5558027D01*
X7290692Y5166551D01*
X7291307Y5165607D01*
X7291874Y5164635D01*
X7292394Y5163637D01*
X7292865Y5162615D01*
X7293290Y5161571D01*
X7293668Y5160507D01*
X7293998Y5159426D01*
X7294282Y5158330D01*
X7294520Y5157220D01*
X7294711Y5156099D01*
X7294955Y5153834D01*
X7295016Y5151550D01*
X7294896Y5149264D01*
X7294597Y5146996D01*
X7294119Y5144760D01*
X7293464Y5142576D01*
X7293071Y5141508D01*
X7292634Y5140459D01*
X7292154Y5139432D01*
X7291631Y5138428D01*
X7291065Y5137449D01*
X7290456Y5136499D01*
X7289805Y5135578D01*
X7289111Y5134689D01*
X7288374Y5133835D01*
X7287596Y5133017D01*
X6934699Y4780179D01*
X6933886Y4779406D01*
X6933037Y4778675D01*
X6932153Y4777985D01*
X6931237Y4777338D01*
X6930290Y4776733D01*
X6929316Y4776171D01*
X6927291Y4775174D01*
X6925180Y4774349D01*
X6923000Y4773698D01*
X6920769Y4773223D01*
X6918503Y4772924D01*
X6916221Y4772803D01*
X6913939Y4772863D01*
X6911674Y4773104D01*
X6909445Y4773528D01*
X6907268Y4774136D01*
X6906204Y4774510D01*
X6905160Y4774930D01*
X6904138Y4775398D01*
X6903140Y4775912D01*
X6902168Y4776474D01*
X6901224Y4777083D01*
X6516650Y5041026D01*
X6514717Y5042230D01*
X6512646Y5043285D01*
X6510457Y5044193D01*
X6508169Y5044951D01*
X6505799Y5045559D01*
X6503368Y5046018D01*
X6500893Y5046327D01*
X6498393Y5046486D01*
X6495889Y5046494D01*
X6493397Y5046351D01*
X6490938Y5046056D01*
X6488529Y5045609D01*
X6486191Y5045010D01*
X6483941Y5044259D01*
X6481799Y5043355D01*
X6479783Y5042297D01*
X6310192Y4951750D01*
X6309178Y4951268D01*
X6308155Y4950844D01*
X6307126Y4950478D01*
X6306092Y4950169D01*
X6305055Y4949916D01*
X6304016Y4949719D01*
X6302978Y4949576D01*
X6301942Y4949489D01*
X6300910Y4949454D01*
X6299884Y4949473D01*
X6298865Y4949545D01*
X6297855Y4949668D01*
X6296857Y4949843D01*
X6295871Y4950068D01*
X6294899Y4950342D01*
X6293944Y4950666D01*
X6293007Y4951039D01*
X6292090Y4951459D01*
X6291194Y4951927D01*
X6290322Y4952442D01*
X6289475Y4953002D01*
X6288655Y4953608D01*
X6287863Y4954258D01*
X6287102Y4954952D01*
X6286373Y4955690D01*
X6285678Y4956471D01*
X6285019Y4957293D01*
X6284397Y4958157D01*
X6283814Y4959062D01*
X6283273Y4960007D01*
X6282774Y4960991D01*
X6282320Y4962015D01*
X5932667Y5806961D01*
X5932263Y5808013D01*
X5931912Y5809080D01*
X5931614Y5810161D01*
X5931369Y5811254D01*
X5931175Y5812357D01*
X5931031Y5813468D01*
X5930938Y5814584D01*
X5930895Y5815705D01*
X5930900Y5816828D01*
X5930953Y5817950D01*
X5931054Y5819070D01*
X5931202Y5820187D01*
X5931396Y5821297D01*
X5931635Y5822399D01*
X5931919Y5823490D01*
X5932247Y5824570D01*
X5932618Y5825635D01*
X5933032Y5826685D01*
X5933488Y5827716D01*
X5933986Y5828727D01*
X5934524Y5829715D01*
X5935102Y5830680D01*
X5935719Y5831618D01*
X5936375Y5832528D01*
X5937069Y5833408D01*
X5937800Y5834255D01*
X5938568Y5835068D01*
X5939371Y5835845D01*
X5940210Y5836584D01*
X5941083Y5837282D01*
X5941991Y5837938D01*
X5942931Y5838550D01*
X5985373Y5864534D01*
X5988428Y5866480D01*
X5991689Y5868700D01*
X5995096Y5871147D01*
X5998586Y5873773D01*
X6002099Y5876529D01*
X6005572Y5879366D01*
X6008944Y5882236D01*
X6012154Y5885091D01*
X6040250Y5904322D01*
X6067063Y5925203D01*
X6092522Y5947659D01*
X6116551Y5971620D01*
X6139079Y5997011D01*
X6160032Y6023760D01*
X6179336Y6051795D01*
X6196920Y6081043D01*
X6212709Y6111430D01*
X6226630Y6142885D01*
X6238610Y6175334D01*
X6248576Y6208704D01*
X6256455Y6242924D01*
X6262173Y6277919D01*
X6265658Y6313618D01*
X6266836Y6349948D01*
X6266117Y6378347D01*
X6263986Y6406374D01*
X6260477Y6433992D01*
X6255624Y6461169D01*
X6249462Y6487869D01*
X6242026Y6514057D01*
X6233350Y6539699D01*
X6223469Y6564760D01*
X6212417Y6589206D01*
X6200231Y6613001D01*
X6186943Y6636112D01*
X6172589Y6658502D01*
X6157204Y6680139D01*
X6140821Y6700987D01*
X6123476Y6721011D01*
X6105204Y6740176D01*
X6086039Y6758449D01*
X6066016Y6775794D01*
X6045169Y6792177D01*
X6023534Y6807563D01*
X6001144Y6821918D01*
X5978035Y6835206D01*
X5954241Y6847393D01*
X5929797Y6858444D01*
X5904737Y6868325D01*
X5879097Y6877001D01*
X5852911Y6884438D01*
X5826213Y6890600D01*
X5799038Y6895453D01*
X5771422Y6898962D01*
X5743398Y6901093D01*
X5715001Y6901811D01*
X5686604Y6901093D01*
X5658580Y6898962D01*
X5630963Y6895453D01*
X5603788Y6890600D01*
X5577089Y6884438D01*
X5550902Y6877001D01*
X5525261Y6868325D01*
X5500200Y6858444D01*
X5475755Y6847393D01*
X5451960Y6835206D01*
X5428850Y6821918D01*
X5406459Y6807563D01*
X5384822Y6792177D01*
X5363974Y6775795D01*
X5343949Y6758449D01*
X5324783Y6740177D01*
X5306509Y6721011D01*
X5289163Y6700987D01*
X5272779Y6680139D01*
X5257393Y6658503D01*
X5243037Y6636112D01*
X5229748Y6613001D01*
X5217561Y6589206D01*
X5206508Y6564761D01*
X5196626Y6539699D01*
X5187950Y6514057D01*
X5180512Y6487869D01*
X5174350Y6461169D01*
X5169496Y6433993D01*
X5165986Y6406374D01*
X5163855Y6378347D01*
X5163137Y6349948D01*
X5163433Y6331709D01*
X5164315Y6313618D01*
X5165774Y6295685D01*
X5167801Y6277919D01*
X5170386Y6260329D01*
X5173520Y6242924D01*
X5177195Y6225712D01*
X5181401Y6208704D01*
X5186128Y6191908D01*
X5191368Y6175334D01*
X5197112Y6158989D01*
X5203350Y6142885D01*
X5210074Y6127029D01*
X5217273Y6111430D01*
X5233063Y6081043D01*
X5250648Y6051795D01*
X5269953Y6023760D01*
X5290906Y5997011D01*
X5313433Y5971620D01*
X5337461Y5947659D01*
X5362917Y5925203D01*
X5389727Y5904322D01*
X5417818Y5885091D01*
X5421046Y5882236D01*
X5424430Y5879366D01*
X5427909Y5876529D01*
X5431426Y5873773D01*
X5434918Y5871147D01*
X5438328Y5868700D01*
X5441594Y5866479D01*
X5444658Y5864534D01*
X5487100Y5838550D01*
X5488045Y5837938D01*
X5488957Y5837282D01*
X5489835Y5836584D01*
X5490678Y5835845D01*
X5491484Y5835068D01*
X5492255Y5834255D01*
X5493685Y5832527D01*
X5494961Y5830679D01*
X5496079Y5828726D01*
X5497033Y5826684D01*
X5497817Y5824570D01*
X5498427Y5822398D01*
X5498857Y5820186D01*
X5499102Y5817950D01*
X5499157Y5815705D01*
X5499016Y5813467D01*
X5498870Y5812356D01*
X5498673Y5811254D01*
X5498425Y5810161D01*
X5498124Y5809080D01*
X5497771Y5808013D01*
X5497364Y5806961D01*
X5147681Y4962045D01*
X5147227Y4961022D01*
X5146728Y4960037D01*
X5146186Y4959092D01*
X5145603Y4958187D01*
X5144981Y4957322D01*
X5144321Y4956499D01*
X5143625Y4955718D01*
X5142895Y4954979D01*
X5142133Y4954284D01*
X5141341Y4953633D01*
X5140520Y4953026D01*
X5139672Y4952464D01*
X5138799Y4951949D01*
X5137902Y4951480D01*
X5136984Y4951059D01*
X5136046Y4950685D01*
X5135091Y4950361D01*
X5134119Y4950085D01*
X5133132Y4949860D01*
X5132133Y4949685D01*
X5131124Y4949561D01*
X5130105Y4949490D01*
X5129079Y4949471D01*
X5128047Y4949505D01*
X5127012Y4949594D01*
X5125974Y4949737D01*
X5124937Y4949935D01*
X5123901Y4950190D01*
X5122869Y4950501D01*
X5121842Y4950869D01*
X5120821Y4951296D01*
X5119810Y4951781D01*
X4950219Y5042327D01*
X4948208Y5043383D01*
X4946069Y5044286D01*
X4943822Y5045035D01*
X4941485Y5045632D01*
X4939077Y5046076D01*
X4936618Y5046369D01*
X4934126Y5046511D01*
X4931620Y5046502D01*
X4929119Y5046342D01*
X4926642Y5046033D01*
X4924209Y5045574D01*
X4921837Y5044966D01*
X4919547Y5044210D01*
X4917356Y5043306D01*
X4915285Y5042255D01*
X4913352Y5041056D01*
X4528807Y4777113D01*
X4527861Y4776504D01*
X4526886Y4775942D01*
X4525886Y4775427D01*
X4524862Y4774960D01*
X4523817Y4774539D01*
X4522752Y4774165D01*
X4521671Y4773838D01*
X4520574Y4773557D01*
X4519464Y4773322D01*
X4518343Y4773133D01*
X4516078Y4772892D01*
X4513796Y4772833D01*
X4511513Y4772954D01*
X4509247Y4773253D01*
X4507016Y4773729D01*
X4504835Y4774380D01*
X4503770Y4774770D01*
X4502723Y4775204D01*
X4501698Y4775681D01*
X4500697Y4776201D01*
X4499721Y4776764D01*
X4498773Y4777369D01*
X4497855Y4778016D01*
X4496969Y4778705D01*
X4496118Y4779436D01*
X4495303Y4780209D01*
X4142406Y5133047D01*
X4141630Y5133865D01*
X4140897Y5134720D01*
X4140205Y5135608D01*
X4139556Y5136529D01*
X4138949Y5137479D01*
X4138385Y5138458D01*
X4137385Y5140489D01*
X4136558Y5142606D01*
X4135905Y5144790D01*
X4135428Y5147026D01*
X4135128Y5149294D01*
X4135008Y5151579D01*
X4135068Y5153863D01*
X4135311Y5156129D01*
X4135737Y5158360D01*
X4136348Y5160537D01*
X4136724Y5161601D01*
X4137146Y5162645D01*
X4137616Y5163667D01*
X4138133Y5164665D01*
X4138697Y5165638D01*
X4139309Y5166581D01*
X4407941Y5558057D01*
X4409158Y5559994D01*
X4410243Y5562077D01*
X4411193Y5564285D01*
X4412009Y5566601D01*
X4412687Y5569004D01*
X4413227Y5571475D01*
X4413628Y5573996D01*
X4413888Y5576546D01*
X4414007Y5579107D01*
X4413981Y5581660D01*
X4413811Y5584185D01*
X4413495Y5586663D01*
X4413032Y5589075D01*
X4412420Y5591401D01*
X4411657Y5593623D01*
X4410744Y5595721D01*
X4263096Y5964544D01*
X4262732Y5965619D01*
X4262317Y5966691D01*
X4261341Y5968818D01*
X4260182Y5970915D01*
X4258853Y5972967D01*
X4257371Y5974961D01*
X4255749Y5976885D01*
X4254001Y5978726D01*
X4252142Y5980471D01*
X4250187Y5982107D01*
X4248150Y5983620D01*
X4246046Y5984998D01*
X4243888Y5986228D01*
X4241692Y5987297D01*
X4239472Y5988192D01*
X4237242Y5988900D01*
X4236128Y5989180D01*
X4235017Y5989408D01*
X3762079Y6077418D01*
X3760977Y6077648D01*
X3759889Y6077932D01*
X3758816Y6078268D01*
X3757759Y6078656D01*
X3756721Y6079092D01*
X3755703Y6079576D01*
X3754705Y6080106D01*
X3753730Y6080681D01*
X3752778Y6081297D01*
X3751851Y6081955D01*
X3750078Y6083385D01*
X3748422Y6084958D01*
X3746893Y6086661D01*
X3745503Y6088480D01*
X3744262Y6090400D01*
X3743182Y6092410D01*
X3742274Y6094494D01*
X3741888Y6095561D01*
X3741549Y6096641D01*
X3741258Y6097733D01*
X3741017Y6098835D01*
X3740827Y6099946D01*
X3740689Y6101064D01*
X3740606Y6102188D01*
X3740578Y6103314D01*
X3740548Y6602325D01*
X3740576Y6603451D01*
X3740659Y6604574D01*
X3740796Y6605691D01*
X3740986Y6606801D01*
X3741226Y6607901D01*
X3741516Y6608991D01*
X3741855Y6610069D01*
X3742241Y6611132D01*
X3742672Y6612181D01*
X3743147Y6613212D01*
X3743665Y6614224D01*
X3744225Y6615216D01*
X3744825Y6616185D01*
X3745464Y6617131D01*
X3746140Y6618051D01*
X3746853Y6618945D01*
X3747600Y6619810D01*
X3748380Y6620644D01*
X3749193Y6621446D01*
X3750036Y6622215D01*
X3750908Y6622949D01*
X3751809Y6623645D01*
X3752736Y6624303D01*
X3753688Y6624921D01*
X3754664Y6625497D01*
X3755662Y6626030D01*
X3756682Y6626517D01*
X3757722Y6626958D01*
X3758779Y6627350D01*
X3759854Y6627693D01*
X3760945Y6627983D01*
X3762050Y6628221D01*
X4246873Y6718384D01*
X4247988Y6718617D01*
X4249106Y6718901D01*
X4251349Y6719613D01*
X4253586Y6720508D01*
X4255804Y6721574D01*
X4257987Y6722797D01*
X4260122Y6724166D01*
X4262193Y6725667D01*
X4264187Y6727288D01*
X4266087Y6729017D01*
X4267881Y6730840D01*
X4269552Y6732746D01*
X4271088Y6734722D01*
X4272472Y6736755D01*
X4273690Y6738832D01*
X4274728Y6740942D01*
X4275175Y6742005D01*
X4275572Y6743071D01*
X4424222Y7089804D01*
X4425179Y7091879D01*
X4425983Y7094079D01*
X4426636Y7096384D01*
X4427139Y7098775D01*
X4427492Y7101234D01*
X4427697Y7103741D01*
X4427756Y7106277D01*
X4427669Y7108823D01*
X4427438Y7111361D01*
X4427065Y7113871D01*
X4426549Y7116335D01*
X4425894Y7118733D01*
X4425099Y7121046D01*
X4424166Y7123256D01*
X4423097Y7125344D01*
X4421892Y7127290D01*
X4139368Y7539028D01*
X4138753Y7539971D01*
X4138186Y7540943D01*
X4137667Y7541941D01*
X4137196Y7542963D01*
X4136772Y7544006D01*
X4136395Y7545069D01*
X4136066Y7546149D01*
X4135782Y7547245D01*
X4135546Y7548354D01*
X4135356Y7549473D01*
X4135113Y7551736D01*
X4135054Y7554018D01*
X4135175Y7556300D01*
X4135476Y7558566D01*
X4135955Y7560799D01*
X4136609Y7562981D01*
X4137002Y7564048D01*
X4137438Y7565095D01*
X4137918Y7566122D01*
X4138440Y7567125D01*
X4139005Y7568102D01*
X4139613Y7569052D01*
X4140262Y7569973D01*
X4140954Y7570861D01*
X4141688Y7571715D01*
X4142464Y7572533D01*
X4495332Y7925370D01*
X4496147Y7926149D01*
X4496998Y7926885D01*
X4497884Y7927579D01*
X4498802Y7928230D01*
X4499750Y7928839D01*
X4500726Y7929405D01*
X4502752Y7930408D01*
X4504864Y7931238D01*
X4507045Y7931893D01*
X4509276Y7932371D01*
X4511542Y7932670D01*
X4513824Y7932791D01*
X4516107Y7932729D01*
X4518372Y7932485D01*
X4520602Y7932057D01*
X4522781Y7931442D01*
X4523846Y7931065D01*
X4524891Y7930640D01*
X4525915Y7930169D01*
X4526915Y7929649D01*
X4527890Y7929082D01*
X4528836Y7928468D01*
X4947771Y7640959D01*
X4949703Y7639747D01*
X4951783Y7638668D01*
X4953991Y7637723D01*
X4956306Y7636914D01*
X4958710Y7636241D01*
X4961184Y7635706D01*
X4963707Y7635310D01*
X4966260Y7635056D01*
X4968824Y7634943D01*
X4971379Y7634974D01*
X4973906Y7635149D01*
X4976385Y7635471D01*
X4978797Y7635940D01*
X4981122Y7636558D01*
X4983341Y7637326D01*
X4985434Y7638245D01*
X5321579Y7775835D01*
X5323718Y7776646D01*
X5325837Y7777653D01*
X5327923Y7778842D01*
X5329963Y7780198D01*
X5331945Y7781706D01*
X5333856Y7783353D01*
X5335685Y7785123D01*
X5337418Y7787002D01*
X5339043Y7788975D01*
X5340548Y7791028D01*
X5341920Y7793147D01*
X5343147Y7795316D01*
X5344216Y7797521D01*
X5345116Y7799748D01*
X5345833Y7801982D01*
X5346354Y7804208D01*
X5439674Y8305696D01*
X5439906Y8306798D01*
X5440192Y8307886D01*
X5440530Y8308959D01*
X5440918Y8310016D01*
X5441356Y8311054D01*
X5441840Y8312072D01*
X5442370Y8313070D01*
X5442943Y8314045D01*
X5443559Y8314997D01*
X5444215Y8315924D01*
X5445643Y8317697D01*
X5447212Y8319353D01*
X5448909Y8320882D01*
X5450722Y8322272D01*
X5452636Y8323513D01*
X5454639Y8324593D01*
X5455669Y8325069D01*
X5456716Y8325501D01*
X5457779Y8325887D01*
X5458856Y8326226D01*
X5459944Y8326517D01*
X5461044Y8326758D01*
X5462151Y8326948D01*
X5463266Y8327086D01*
X5464387Y8327169D01*
X5465511Y8327197D01*
X5964551Y8327197D01*
X5965678Y8327169D01*
G36*
X5965678Y8327169D02*
G01*
X5966801Y8327086D01*
X5967918Y8326948D01*
X5969028Y8326758D01*
X5970129Y8326517D01*
X5971220Y8326226D01*
X5972298Y8325887D01*
X5973362Y8325501D01*
X5974411Y8325069D01*
X5975443Y8324593D01*
X5976456Y8324073D01*
X5977448Y8323513D01*
X5978418Y8322912D01*
X5979364Y8322272D01*
X5980285Y8321595D01*
X5981178Y8320882D01*
X5982043Y8320134D01*
X5982877Y8319353D01*
X5983679Y8318540D01*
X5984447Y8317697D01*
X5985180Y8316824D01*
X5985875Y8315924D01*
X5986531Y8314997D01*
X5987148Y8314045D01*
X5987721Y8313070D01*
X5988251Y8312072D01*
X5988736Y8311054D01*
X5989173Y8310016D01*
X5989562Y8308959D01*
X5989900Y8307886D01*
X5990186Y8306798D01*
X5990418Y8305696D01*
X6083767Y7804207D01*
X6084003Y7803096D01*
X6084289Y7801981D01*
X6085007Y7799747D01*
X6085908Y7797521D01*
X6086979Y7795315D01*
X6088208Y7793146D01*
X6089582Y7791028D01*
X6091088Y7788975D01*
X6092715Y7787001D01*
X6094449Y7785122D01*
X6096278Y7783352D01*
X6098190Y7781706D01*
X6100171Y7780197D01*
X6102209Y7778841D01*
X6104292Y7777652D01*
X6105347Y7777125D01*
X6106407Y7776645D01*
X6107473Y7776214D01*
X6108542Y7775834D01*
X6444657Y7638244D01*
X6446745Y7637325D01*
X6448960Y7636557D01*
X6451281Y7635940D01*
X6453690Y7635471D01*
X6456167Y7635149D01*
X6458692Y7634973D01*
X6461246Y7634943D01*
X6463810Y7635055D01*
X6466363Y7635310D01*
X6468887Y7635705D01*
X6471363Y7636240D01*
X6473769Y7636913D01*
X6476088Y7637723D01*
X6478299Y7638668D01*
X6480383Y7639747D01*
X6482321Y7640958D01*
X6901285Y7928467D01*
X6902229Y7929082D01*
X6903201Y7929649D01*
X6904198Y7930168D01*
X6905219Y7930640D01*
X6906262Y7931064D01*
X6907324Y7931442D01*
X6908403Y7931772D01*
X6909498Y7932056D01*
X6910605Y7932293D01*
X6911724Y7932485D01*
X6913984Y7932729D01*
X6916263Y7932790D01*
X6918543Y7932670D01*
X6920806Y7932370D01*
X6923036Y7931892D01*
X6925215Y7931238D01*
X6926281Y7930845D01*
X6927327Y7930408D01*
X6928353Y7929928D01*
X6929355Y7929405D01*
X6930332Y7928839D01*
X6931281Y7928230D01*
X6932201Y7927578D01*
X6933089Y7926884D01*
X6933943Y7926148D01*
X6934760Y7925370D01*
X7287598Y7572532D01*
X7288376Y7571714D01*
X7289111Y7570860D01*
X7289804Y7569972D01*
X7290455Y7569052D01*
X7291062Y7568102D01*
X7291627Y7567124D01*
X7292627Y7565095D01*
X7293452Y7562980D01*
X7294103Y7560798D01*
X7294577Y7558566D01*
X7294874Y7556300D01*
X7294992Y7554017D01*
X7294929Y7551736D01*
X7294685Y7549473D01*
X7294258Y7547245D01*
X7293646Y7545069D01*
X7293271Y7544006D01*
X7292849Y7542963D01*
X7292381Y7541941D01*
X7291866Y7540943D01*
X7291304Y7539971D01*
X7290694Y7539027D01*
X7008200Y7127290D01*
X7006984Y7125344D01*
X7005905Y7123256D01*
X7004964Y7121046D01*
X7004163Y7118732D01*
X7003501Y7116334D01*
X7002982Y7113871D01*
X7002605Y7111361D01*
X7002373Y7108823D01*
X7002285Y7106276D01*
X7002344Y7103740D01*
X7002550Y7101234D01*
X7002906Y7098775D01*
X7003411Y7096384D01*
X7004067Y7094079D01*
X7004876Y7091879D01*
X7005838Y7089803D01*
X7154459Y6743070D01*
X7155308Y6740941D01*
X7156352Y6738832D01*
X7157575Y6736754D01*
X7158964Y6734721D01*
X7160503Y6732745D01*
X7162178Y6730839D01*
X7163974Y6729016D01*
X7165877Y6727287D01*
X7167871Y6725666D01*
X7169942Y6724165D01*
X7172075Y6722796D01*
X7174255Y6721573D01*
X7176468Y6720508D01*
X7178699Y6719613D01*
X7180934Y6718900D01*
X7183156Y6718384D01*
X7668011Y6628220D01*
X7668010Y6628220D01*
X7669110Y6627983D01*
X7670195Y6627692D01*
X7671266Y6627350D01*
X7672320Y6626957D01*
X7673356Y6626516D01*
X7674372Y6626029D01*
X7675368Y6625496D01*
X7676342Y6624920D01*
X7678217Y6623643D01*
X7679987Y6622213D01*
X7681640Y6620641D01*
X7683166Y6618940D01*
X7684554Y6617125D01*
X7685791Y6615208D01*
X7686868Y6613201D01*
X7687343Y6612169D01*
X7687773Y6611119D01*
X7688158Y6610054D01*
X7688496Y6608975D01*
X7688784Y6607883D01*
X7689023Y6606780D01*
X7689211Y6605668D01*
X7689346Y6604549D01*
X7689427Y6603424D01*
X7689453Y6602295D01*
X7689393Y6103284D01*
X7689365Y6102157D01*
X7689282Y6101033D01*
X7689144Y6099915D01*
X7688953Y6098804D01*
X7688712Y6097702D01*
X7688420Y6096610D01*
X7688080Y6095530D01*
X7687693Y6094464D01*
X7687260Y6093413D01*
X7686783Y6092379D01*
X7686263Y6091364D01*
X7685701Y6090369D01*
X7685099Y6089397D01*
X7684459Y6088449D01*
X7683781Y6087526D01*
X7683067Y6086630D01*
X7682319Y6085764D01*
X7681537Y6084928D01*
X7680724Y6084124D01*
X7679880Y6083354D01*
X7679008Y6082621D01*
X7678107Y6081924D01*
X7677181Y6081267D01*
X7676229Y6080650D01*
X7675255Y6080076D01*
X7674258Y6079546D01*
X7673241Y6079062D01*
X7672204Y6078625D01*
X7671149Y6078238D01*
X7670078Y6077901D01*
X7668992Y6077617D01*
X7667893Y6077388D01*
X7194955Y5989377D01*
X7193842Y5989149D01*
X7192726Y5988869D01*
X7191609Y5988540D01*
X7190494Y5988161D01*
X7188274Y5987266D01*
X7186080Y5986198D01*
X7183925Y5984967D01*
X7181825Y5983589D01*
X7179793Y5982076D01*
X7177843Y5980441D01*
X7175990Y5978696D01*
X7174247Y5976855D01*
X7172629Y5974931D01*
X7171150Y5972936D01*
X7169824Y5970884D01*
X7168665Y5968788D01*
X7167688Y5966660D01*
X7167271Y5965589D01*
X7166906Y5964514D01*
X7019259Y5595691D01*
X7018345Y5593593D01*
X7017584Y5591371D01*
X7016973Y5589045D01*
X7016510Y5586633D01*
X7016195Y5584155D01*
X7016027Y5581630D01*
X7016002Y5579077D01*
X7016121Y5576516D01*
X7016381Y5573965D01*
X7016780Y5571445D01*
X7017318Y5568973D01*
X7017993Y5566570D01*
X7018803Y5564255D01*
X7019748Y5562046D01*
X7020824Y5559964D01*
X7022031Y5558027D01*
X7290692Y5166551D01*
X7291307Y5165607D01*
X7291874Y5164635D01*
X7292394Y5163637D01*
X7292865Y5162615D01*
X7293290Y5161571D01*
X7293668Y5160507D01*
X7293998Y5159426D01*
X7294282Y5158330D01*
X7294520Y5157220D01*
X7294711Y5156099D01*
X7294955Y5153834D01*
X7295016Y5151550D01*
X7294896Y5149264D01*
X7294597Y5146996D01*
X7294119Y5144760D01*
X7293464Y5142576D01*
X7293071Y5141508D01*
X7292634Y5140459D01*
X7292154Y5139432D01*
X7291631Y5138428D01*
X7291065Y5137449D01*
X7290456Y5136499D01*
X7289805Y5135578D01*
X7289111Y5134689D01*
X7288374Y5133835D01*
X7287596Y5133017D01*
X6934699Y4780179D01*
X6933886Y4779406D01*
X6933037Y4778675D01*
X6932153Y4777985D01*
X6931237Y4777338D01*
X6930290Y4776733D01*
X6929316Y4776171D01*
X6927291Y4775174D01*
X6925180Y4774349D01*
X6923000Y4773698D01*
X6920769Y4773223D01*
X6918503Y4772924D01*
X6916221Y4772803D01*
X6913939Y4772863D01*
X6911674Y4773104D01*
X6909445Y4773528D01*
X6907268Y4774136D01*
X6906204Y4774510D01*
X6905160Y4774930D01*
X6904138Y4775398D01*
X6903140Y4775912D01*
X6902168Y4776474D01*
X6901224Y4777083D01*
X6516650Y5041026D01*
X6514717Y5042230D01*
X6512646Y5043285D01*
X6510457Y5044193D01*
X6508169Y5044951D01*
X6505799Y5045559D01*
X6503368Y5046018D01*
X6500893Y5046327D01*
X6498393Y5046486D01*
X6495889Y5046494D01*
X6493397Y5046351D01*
X6490938Y5046056D01*
X6488529Y5045609D01*
X6486191Y5045010D01*
X6483941Y5044259D01*
X6481799Y5043355D01*
X6479783Y5042297D01*
X6310192Y4951750D01*
X6309178Y4951268D01*
X6308155Y4950844D01*
X6307126Y4950478D01*
X6306092Y4950169D01*
X6305055Y4949916D01*
X6304016Y4949719D01*
X6302978Y4949576D01*
X6301942Y4949489D01*
X6300910Y4949454D01*
X6299884Y4949473D01*
X6298865Y4949545D01*
X6297855Y4949668D01*
X6296857Y4949843D01*
X6295871Y4950068D01*
X6294899Y4950342D01*
X6293944Y4950666D01*
X6293007Y4951039D01*
X6292090Y4951459D01*
X6291194Y4951927D01*
X6290322Y4952442D01*
X6289475Y4953002D01*
X6288655Y4953608D01*
X6287863Y4954258D01*
X6287102Y4954952D01*
X6286373Y4955690D01*
X6285678Y4956471D01*
X6285019Y4957293D01*
X6284397Y4958157D01*
X6283814Y4959062D01*
X6283273Y4960007D01*
X6282774Y4960991D01*
X6282320Y4962015D01*
X5932667Y5806961D01*
X5932263Y5808013D01*
X5931912Y5809080D01*
X5931614Y5810161D01*
X5931369Y5811254D01*
X5931175Y5812357D01*
X5931031Y5813468D01*
X5930938Y5814584D01*
X5930895Y5815705D01*
X5930900Y5816828D01*
X5930953Y5817950D01*
X5931054Y5819070D01*
X5931202Y5820187D01*
X5931396Y5821297D01*
X5931635Y5822399D01*
X5931919Y5823490D01*
X5932247Y5824570D01*
X5932618Y5825635D01*
X5933032Y5826685D01*
X5933488Y5827716D01*
X5933986Y5828727D01*
X5934524Y5829715D01*
X5935102Y5830680D01*
X5935719Y5831618D01*
X5936375Y5832528D01*
X5937069Y5833408D01*
X5937800Y5834255D01*
X5938568Y5835068D01*
X5939371Y5835845D01*
X5940210Y5836584D01*
X5941083Y5837282D01*
X5941991Y5837938D01*
X5942931Y5838550D01*
X5985373Y5864534D01*
X5988428Y5866480D01*
X5991689Y5868700D01*
X5995096Y5871147D01*
X5998586Y5873773D01*
X6002099Y5876529D01*
X6005572Y5879366D01*
X6008944Y5882236D01*
X6012154Y5885091D01*
X6040250Y5904322D01*
X6067063Y5925203D01*
X6092522Y5947659D01*
X6116551Y5971620D01*
X6139079Y5997011D01*
X6160032Y6023760D01*
X6179336Y6051795D01*
X6196920Y6081043D01*
X6212709Y6111430D01*
X6226630Y6142885D01*
X6238610Y6175334D01*
X6248576Y6208704D01*
X6256455Y6242924D01*
X6262173Y6277919D01*
X6265658Y6313618D01*
X6266836Y6349948D01*
X6266117Y6378347D01*
X6263986Y6406374D01*
X6260477Y6433992D01*
X6255624Y6461169D01*
X6249462Y6487869D01*
X6242026Y6514057D01*
X6233350Y6539699D01*
X6223469Y6564760D01*
X6212417Y6589206D01*
X6200231Y6613001D01*
X6186943Y6636112D01*
X6172589Y6658502D01*
X6157204Y6680139D01*
X6140821Y6700987D01*
X6123476Y6721011D01*
X6105204Y6740176D01*
X6086039Y6758449D01*
X6066016Y6775794D01*
X6045169Y6792177D01*
X6023534Y6807563D01*
X6001144Y6821918D01*
X5978035Y6835206D01*
X5954241Y6847393D01*
X5929797Y6858444D01*
X5904737Y6868325D01*
X5879097Y6877001D01*
X5852911Y6884438D01*
X5826213Y6890600D01*
X5799038Y6895453D01*
X5771422Y6898962D01*
X5743398Y6901093D01*
X5715001Y6901811D01*
X5686604Y6901093D01*
X5658580Y6898962D01*
X5630963Y6895453D01*
X5603788Y6890600D01*
X5577089Y6884438D01*
X5550902Y6877001D01*
X5525261Y6868325D01*
X5500200Y6858444D01*
X5475755Y6847393D01*
X5451960Y6835206D01*
X5428850Y6821918D01*
X5406459Y6807563D01*
X5384822Y6792177D01*
X5363974Y6775795D01*
X5343949Y6758449D01*
X5324783Y6740177D01*
X5306509Y6721011D01*
X5289163Y6700987D01*
X5272779Y6680139D01*
X5257393Y6658503D01*
X5243037Y6636112D01*
X5229748Y6613001D01*
X5217561Y6589206D01*
X5206508Y6564761D01*
X5196626Y6539699D01*
X5187950Y6514057D01*
X5180512Y6487869D01*
X5174350Y6461169D01*
X5169496Y6433993D01*
X5165986Y6406374D01*
X5163855Y6378347D01*
X5163137Y6349948D01*
X5163433Y6331709D01*
X5164315Y6313618D01*
X5165774Y6295685D01*
X5167801Y6277919D01*
X5170386Y6260329D01*
X5173520Y6242924D01*
X5177195Y6225712D01*
X5181401Y6208704D01*
X5186128Y6191908D01*
X5191368Y6175334D01*
X5197112Y6158989D01*
X5203350Y6142885D01*
X5210074Y6127029D01*
X5217273Y6111430D01*
X5233063Y6081043D01*
X5250648Y6051795D01*
X5269953Y6023760D01*
X5290906Y5997011D01*
X5313433Y5971620D01*
X5337461Y5947659D01*
X5362917Y5925203D01*
X5389727Y5904322D01*
X5417818Y5885091D01*
X5421046Y5882236D01*
X5424430Y5879366D01*
X5427909Y5876529D01*
X5431426Y5873773D01*
X5434918Y5871147D01*
X5438328Y5868700D01*
X5441594Y5866479D01*
X5444658Y5864534D01*
X5487100Y5838550D01*
X5488045Y5837938D01*
X5488957Y5837282D01*
X5489835Y5836584D01*
X5490678Y5835845D01*
X5491484Y5835068D01*
X5492255Y5834255D01*
X5493685Y5832527D01*
X5494961Y5830679D01*
X5496079Y5828726D01*
X5497033Y5826684D01*
X5497817Y5824570D01*
X5498427Y5822398D01*
X5498857Y5820186D01*
X5499102Y5817950D01*
X5499157Y5815705D01*
X5499016Y5813467D01*
X5498870Y5812356D01*
X5498673Y5811254D01*
X5498425Y5810161D01*
X5498124Y5809080D01*
X5497771Y5808013D01*
X5497364Y5806961D01*
X5147681Y4962045D01*
X5147227Y4961022D01*
X5146728Y4960037D01*
X5146186Y4959092D01*
X5145603Y4958187D01*
X5144981Y4957322D01*
X5144321Y4956499D01*
X5143625Y4955718D01*
X5142895Y4954979D01*
X5142133Y4954284D01*
X5141341Y4953633D01*
X5140520Y4953026D01*
X5139672Y4952464D01*
X5138799Y4951949D01*
X5137902Y4951480D01*
X5136984Y4951059D01*
X5136046Y4950685D01*
X5135091Y4950361D01*
X5134119Y4950085D01*
X5133132Y4949860D01*
X5132133Y4949685D01*
X5131124Y4949561D01*
X5130105Y4949490D01*
X5129079Y4949471D01*
X5128047Y4949505D01*
X5127012Y4949594D01*
X5125974Y4949737D01*
X5124937Y4949935D01*
X5123901Y4950190D01*
X5122869Y4950501D01*
X5121842Y4950869D01*
X5120821Y4951296D01*
X5119810Y4951781D01*
X4950219Y5042327D01*
X4948208Y5043383D01*
X4946069Y5044286D01*
X4943822Y5045035D01*
X4941485Y5045632D01*
X4939077Y5046076D01*
X4936618Y5046369D01*
X4934126Y5046511D01*
X4931620Y5046502D01*
X4929119Y5046342D01*
X4926642Y5046033D01*
X4924209Y5045574D01*
X4921837Y5044966D01*
X4919547Y5044210D01*
X4917356Y5043306D01*
X4915285Y5042255D01*
X4913352Y5041056D01*
X4528807Y4777113D01*
X4527861Y4776504D01*
X4526886Y4775942D01*
X4525886Y4775427D01*
X4524862Y4774960D01*
X4523817Y4774539D01*
X4522752Y4774165D01*
X4521671Y4773838D01*
X4520574Y4773557D01*
X4519464Y4773322D01*
X4518343Y4773133D01*
X4516078Y4772892D01*
X4513796Y4772833D01*
X4511513Y4772954D01*
X4509247Y4773253D01*
X4507016Y4773729D01*
X4504835Y4774380D01*
X4503770Y4774770D01*
X4502723Y4775204D01*
X4501698Y4775681D01*
X4500697Y4776201D01*
X4499721Y4776764D01*
X4498773Y4777369D01*
X4497855Y4778016D01*
X4496969Y4778705D01*
X4496118Y4779436D01*
X4495303Y4780209D01*
X4142406Y5133047D01*
X4141630Y5133865D01*
X4140897Y5134720D01*
X4140205Y5135608D01*
X4139556Y5136529D01*
X4138949Y5137479D01*
X4138385Y5138458D01*
X4137385Y5140489D01*
X4136558Y5142606D01*
X4135905Y5144790D01*
X4135428Y5147026D01*
X4135128Y5149294D01*
X4135008Y5151579D01*
X4135068Y5153863D01*
X4135311Y5156129D01*
X4135737Y5158360D01*
X4136348Y5160537D01*
X4136724Y5161601D01*
X4137146Y5162645D01*
X4137616Y5163667D01*
X4138133Y5164665D01*
X4138697Y5165638D01*
X4139309Y5166581D01*
X4407941Y5558057D01*
X4409158Y5559994D01*
X4410243Y5562077D01*
X4411193Y5564285D01*
X4412009Y5566601D01*
X4412687Y5569004D01*
X4413227Y5571475D01*
X4413628Y5573996D01*
X4413888Y5576546D01*
X4414007Y5579107D01*
X4413981Y5581660D01*
X4413811Y5584185D01*
X4413495Y5586663D01*
X4413032Y5589075D01*
X4412420Y5591401D01*
X4411657Y5593623D01*
X4410744Y5595721D01*
X4263096Y5964544D01*
X4262732Y5965619D01*
X4262317Y5966691D01*
X4261341Y5968818D01*
X4260182Y5970915D01*
X4258853Y5972967D01*
X4257371Y5974961D01*
X4255749Y5976885D01*
X4254001Y5978726D01*
X4252142Y5980471D01*
X4250187Y5982107D01*
X4248150Y5983620D01*
X4246046Y5984998D01*
X4243888Y5986228D01*
X4241692Y5987297D01*
X4239472Y5988192D01*
X4237242Y5988900D01*
X4236128Y5989180D01*
X4235017Y5989408D01*
X3762079Y6077418D01*
X3760977Y6077648D01*
X3759889Y6077932D01*
X3758816Y6078268D01*
X3757759Y6078656D01*
X3756721Y6079092D01*
X3755703Y6079576D01*
X3754705Y6080106D01*
X3753730Y6080681D01*
X3752778Y6081297D01*
X3751851Y6081955D01*
X3750078Y6083385D01*
X3748422Y6084958D01*
X3746893Y6086661D01*
X3745503Y6088480D01*
X3744262Y6090400D01*
X3743182Y6092410D01*
X3742274Y6094494D01*
X3741888Y6095561D01*
X3741549Y6096641D01*
X3741258Y6097733D01*
X3741017Y6098835D01*
X3740827Y6099946D01*
X3740689Y6101064D01*
X3740606Y6102188D01*
X3740578Y6103314D01*
X3740548Y6602325D01*
X3740576Y6603451D01*
X3740659Y6604574D01*
X3740796Y6605691D01*
X3740986Y6606801D01*
X3741226Y6607901D01*
X3741516Y6608991D01*
X3741855Y6610069D01*
X3742241Y6611132D01*
X3742672Y6612181D01*
X3743147Y6613212D01*
X3743665Y6614224D01*
X3744225Y6615216D01*
X3744825Y6616185D01*
X3745464Y6617131D01*
X3746140Y6618051D01*
X3746853Y6618945D01*
X3747600Y6619810D01*
X3748380Y6620644D01*
X3749193Y6621446D01*
X3750036Y6622215D01*
X3750908Y6622949D01*
X3751809Y6623645D01*
X3752736Y6624303D01*
X3753688Y6624921D01*
X3754664Y6625497D01*
X3755662Y6626030D01*
X3756682Y6626517D01*
X3757722Y6626958D01*
X3758779Y6627350D01*
X3759854Y6627693D01*
X3760945Y6627983D01*
X3762050Y6628221D01*
X4246873Y6718384D01*
X4247988Y6718617D01*
X4249106Y6718901D01*
X4251349Y6719613D01*
X4253586Y6720508D01*
X4255804Y6721574D01*
X4257987Y6722797D01*
X4260122Y6724166D01*
X4262193Y6725667D01*
X4264187Y6727288D01*
X4266087Y6729017D01*
X4267881Y6730840D01*
X4269552Y6732746D01*
X4271088Y6734722D01*
X4272472Y6736755D01*
X4273690Y6738832D01*
X4274728Y6740942D01*
X4275175Y6742005D01*
X4275572Y6743071D01*
X4424222Y7089804D01*
X4425179Y7091879D01*
X4425983Y7094079D01*
X4426636Y7096384D01*
X4427139Y7098775D01*
X4427492Y7101234D01*
X4427697Y7103741D01*
X4427756Y7106277D01*
X4427669Y7108823D01*
X4427438Y7111361D01*
X4427065Y7113871D01*
X4426549Y7116335D01*
X4425894Y7118733D01*
X4425099Y7121046D01*
X4424166Y7123256D01*
X4423097Y7125344D01*
X4421892Y7127290D01*
X4139368Y7539028D01*
X4138753Y7539971D01*
X4138186Y7540943D01*
X4137667Y7541941D01*
X4137196Y7542963D01*
X4136772Y7544006D01*
X4136395Y7545069D01*
X4136066Y7546149D01*
X4135782Y7547245D01*
X4135546Y7548354D01*
X4135356Y7549473D01*
X4135113Y7551736D01*
X4135054Y7554018D01*
X4135175Y7556300D01*
X4135476Y7558566D01*
X4135955Y7560799D01*
X4136609Y7562981D01*
X4137002Y7564048D01*
X4137438Y7565095D01*
X4137918Y7566122D01*
X4138440Y7567125D01*
X4139005Y7568102D01*
X4139613Y7569052D01*
X4140262Y7569973D01*
X4140954Y7570861D01*
X4141688Y7571715D01*
X4142464Y7572533D01*
X4495332Y7925370D01*
X4496147Y7926149D01*
X4496998Y7926885D01*
X4497884Y7927579D01*
X4498802Y7928230D01*
X4499750Y7928839D01*
X4500726Y7929405D01*
X4502752Y7930408D01*
X4504864Y7931238D01*
X4507045Y7931893D01*
X4509276Y7932371D01*
X4511542Y7932670D01*
X4513824Y7932791D01*
X4516107Y7932729D01*
X4518372Y7932485D01*
X4520602Y7932057D01*
X4522781Y7931442D01*
X4523846Y7931065D01*
X4524891Y7930640D01*
X4525915Y7930169D01*
X4526915Y7929649D01*
X4527890Y7929082D01*
X4528836Y7928468D01*
X4947771Y7640959D01*
X4949703Y7639747D01*
X4951783Y7638668D01*
X4953991Y7637723D01*
X4956306Y7636914D01*
X4958710Y7636241D01*
X4961184Y7635706D01*
X4963707Y7635310D01*
X4966260Y7635056D01*
X4968824Y7634943D01*
X4971379Y7634974D01*
X4973906Y7635149D01*
X4976385Y7635471D01*
X4978797Y7635940D01*
X4981122Y7636558D01*
X4983341Y7637326D01*
X4985434Y7638245D01*
X5321579Y7775835D01*
X5323718Y7776646D01*
X5325837Y7777653D01*
X5327923Y7778842D01*
X5329963Y7780198D01*
X5331945Y7781706D01*
X5333856Y7783353D01*
X5335685Y7785123D01*
X5337418Y7787002D01*
X5339043Y7788975D01*
X5340548Y7791028D01*
X5341920Y7793147D01*
X5343147Y7795316D01*
X5344216Y7797521D01*
X5345116Y7799748D01*
X5345833Y7801982D01*
X5346354Y7804208D01*
X5439674Y8305696D01*
X5439906Y8306798D01*
X5440192Y8307886D01*
X5440530Y8308959D01*
X5440918Y8310016D01*
X5441356Y8311054D01*
X5441840Y8312072D01*
X5442370Y8313070D01*
X5442943Y8314045D01*
X5443559Y8314997D01*
X5444215Y8315924D01*
X5445643Y8317697D01*
X5447212Y8319353D01*
X5448909Y8320882D01*
X5450722Y8322272D01*
X5452636Y8323513D01*
X5454639Y8324593D01*
X5455669Y8325069D01*
X5456716Y8325501D01*
X5457779Y8325887D01*
X5458856Y8326226D01*
X5459944Y8326517D01*
X5461044Y8326758D01*
X5462151Y8326948D01*
X5463266Y8327086D01*
X5464387Y8327169D01*
X5465511Y8327197D01*
X5964551Y8327197D01*
X5965678Y8327169D01*
G37*
D11*
%TO.C,kibuzzard-67132780*%
G36*
X58045565Y9353906D02*
G01*
X58111373Y9298112D01*
X58134263Y9232303D01*
X58138555Y9150758D01*
X58138555Y7843176D01*
X58134263Y7761631D01*
X58111373Y7697253D01*
X58044134Y7642890D01*
X57918240Y7625722D01*
X57792346Y7642890D01*
X57725107Y7698684D01*
X57702217Y7764492D01*
X57697926Y7846037D01*
X57697926Y8240887D01*
X56387482Y8240887D01*
X56291631Y8245179D01*
X56215808Y8272361D01*
X56152861Y8352475D01*
X56132833Y8501259D01*
X56152861Y8648612D01*
X56217239Y8725866D01*
X56294492Y8751617D01*
X56390343Y8755908D01*
X57697926Y8755908D01*
X57697926Y9153619D01*
X57702217Y9235165D01*
X57725107Y9299542D01*
X57792346Y9353906D01*
X57921102Y9371073D01*
X58045565Y9353906D01*
G37*
G36*
X57051288Y5642890D02*
G01*
X57941130Y5422575D01*
X58129971Y5315279D01*
X58127110Y5099256D01*
X58044134Y4933305D01*
X57918240Y4893247D01*
X57188627Y5070644D01*
X57188627Y4695823D01*
X57889628Y4695823D01*
X57984049Y4691531D01*
X58058441Y4664349D01*
X58119957Y4582804D01*
X58138555Y4429728D01*
X58118526Y4280944D01*
X58052718Y4202260D01*
X57972604Y4175079D01*
X57875322Y4169356D01*
X56396066Y4169356D01*
X56297353Y4175079D01*
X56218670Y4203691D01*
X56155722Y4283805D01*
X56135694Y4435451D01*
X56155722Y4584235D01*
X56221531Y4664349D01*
X56300215Y4691531D01*
X56398927Y4695823D01*
X56696495Y4695823D01*
X56696495Y5391102D01*
X56716524Y5539886D01*
X56782332Y5620000D01*
X56861016Y5647182D01*
X56959728Y5651474D01*
X57051288Y5642890D01*
G37*
G36*
X57976896Y7496967D02*
G01*
X58052718Y7468355D01*
X58114235Y7389671D01*
X58132833Y7239456D01*
X58115665Y7109270D01*
X58079900Y7036309D01*
X58021245Y6984807D01*
X57059871Y6269499D01*
X57881044Y6269499D01*
X57975465Y6263777D01*
X58051288Y6235165D01*
X58112804Y6155050D01*
X58132833Y6006266D01*
X58112804Y5857482D01*
X58046996Y5777368D01*
X57968312Y5750186D01*
X57869599Y5745894D01*
X56393205Y5745894D01*
X56294492Y5750186D01*
X56217239Y5777368D01*
X56152861Y5857482D01*
X56132833Y6009127D01*
X56148569Y6156481D01*
X56210086Y6240887D01*
X57188627Y6981946D01*
X56393205Y6981946D01*
X56294492Y6986237D01*
X56217239Y7013419D01*
X56152861Y7093534D01*
X56132833Y7245179D01*
X56152861Y7392532D01*
X56217239Y7469785D01*
X56295923Y7496967D01*
X56396066Y7502690D01*
X57881044Y7502690D01*
X57976896Y7496967D01*
G37*
G36*
X57974034Y11066352D02*
G01*
X58052718Y11039170D01*
X58118526Y10959056D01*
X58138555Y10807411D01*
X58138555Y10137883D01*
X58118368Y9976700D01*
X58057805Y9832685D01*
X57956867Y9705837D01*
X57828271Y9607283D01*
X57684732Y9548151D01*
X57526252Y9528441D01*
X57358870Y9552046D01*
X57205794Y9622861D01*
X57004793Y9509127D01*
X56785193Y9471216D01*
X56613201Y9493629D01*
X56459649Y9557053D01*
X56324535Y9661488D01*
X56219623Y9794535D01*
X56156676Y9943796D01*
X56135694Y10109270D01*
X56135694Y10137883D01*
X56659299Y10137883D01*
X56662160Y10097825D01*
X56677897Y10053476D01*
X56726538Y10010558D01*
X56816667Y9994821D01*
X56935408Y10032017D01*
X56962589Y10152189D01*
X56962589Y10189385D01*
X57012661Y10352475D01*
X57182904Y10401116D01*
X57347425Y10349614D01*
X57394635Y10175079D01*
X57394635Y10140744D01*
X57414664Y10072074D01*
X57503362Y10052046D01*
X57592060Y10082089D01*
X57614950Y10200830D01*
X57614950Y10547039D01*
X56659299Y10547039D01*
X56659299Y10137883D01*
X56135694Y10137883D01*
X56135694Y10547039D01*
X56135694Y10810272D01*
X56155722Y10959056D01*
X56221531Y11039170D01*
X56301645Y11066352D01*
X56401788Y11070644D01*
X57878183Y11070644D01*
X57974034Y11066352D01*
G37*
D12*
%TO.C,R1*%
X55132500Y45957258D02*
X55132500Y45482742D01*
X54087500Y45957258D02*
X54087500Y45482742D01*
%TO.C,R4*%
X55132500Y7857258D02*
X55132500Y7382742D01*
X54087500Y7857258D02*
X54087500Y7382742D01*
D11*
%TO.C,kibuzzard-6713271F*%
G36*
X12334149Y31287718D02*
G01*
X12402818Y31231924D01*
X12427139Y31163255D01*
X12431431Y31081710D01*
X12431431Y30123197D01*
X12411402Y29974413D01*
X12345594Y29894299D01*
X12266910Y29867117D01*
X12168197Y29862825D01*
X10688941Y29862825D01*
X10593090Y29867117D01*
X10514406Y29894299D01*
X10448598Y29974413D01*
X10428569Y30126059D01*
X10448598Y30274843D01*
X10514406Y30354957D01*
X10593090Y30382139D01*
X10691803Y30386431D01*
X11985079Y30386431D01*
X11985079Y31084571D01*
X11989371Y31166116D01*
X12012260Y31231924D01*
X12079499Y31287718D01*
X12208255Y31304886D01*
X12334149Y31287718D01*
G37*
G36*
X12319843Y33013040D02*
G01*
X12399957Y32947232D01*
X12427139Y32868548D01*
X12431431Y32769835D01*
X12431431Y31716903D01*
X12411402Y31568119D01*
X12345594Y31488004D01*
X12266910Y31460823D01*
X12168197Y31456531D01*
X10688941Y31456531D01*
X10484363Y31515186D01*
X10428569Y31725486D01*
X10428569Y32772697D01*
X10432861Y32871409D01*
X10460043Y32948662D01*
X10540157Y33013040D01*
X10691803Y33033069D01*
X10840587Y33013040D01*
X10920701Y32947232D01*
X10947883Y32868548D01*
X10952175Y32769835D01*
X10952175Y31980136D01*
X11206824Y31980136D01*
X11206824Y32509464D01*
X11211116Y32602454D01*
X11234006Y32671123D01*
X11302675Y32725486D01*
X11432861Y32741223D01*
X11560186Y32725486D01*
X11625994Y32669692D01*
X11648884Y32598162D01*
X11653176Y32503741D01*
X11653176Y31980136D01*
X11907825Y31980136D01*
X11907825Y32772697D01*
X11912117Y32871409D01*
X11939299Y32948662D01*
X12019413Y33013040D01*
X12171059Y33033069D01*
X12319843Y33013040D01*
G37*
G36*
X12428569Y33413612D02*
G01*
X12408541Y33269120D01*
X12347024Y33190436D01*
X12266910Y33160393D01*
X12165336Y33153240D01*
X10686080Y33153240D01*
X10590229Y33157532D01*
X10511545Y33184714D01*
X10447167Y33264828D01*
X10428569Y33416474D01*
X10428569Y33905744D01*
X10952175Y33905744D01*
X10952175Y33676845D01*
X11904964Y33676845D01*
X11904964Y33908605D01*
X11870272Y34089578D01*
X11766195Y34243369D01*
X11612761Y34348519D01*
X11430000Y34383569D01*
X11246881Y34348519D01*
X11092375Y34243369D01*
X10987225Y34088863D01*
X10952175Y33905744D01*
X10428569Y33905744D01*
X10428569Y33908605D01*
X10446810Y34106030D01*
X10501531Y34289149D01*
X10592732Y34457961D01*
X10720415Y34612468D01*
X10873491Y34741402D01*
X11040873Y34833498D01*
X11222561Y34888755D01*
X11418555Y34907175D01*
X11619825Y34888755D01*
X11805894Y34833498D01*
X11976763Y34741402D01*
X12132432Y34612468D01*
X12261992Y34457425D01*
X12354535Y34287003D01*
X12410061Y34101202D01*
X12428569Y33900021D01*
X12428569Y33676845D01*
X12428569Y33413612D01*
G37*
D12*
%TO.C,R5*%
X13447500Y20082742D02*
X13447500Y20557258D01*
X14492500Y20082742D02*
X14492500Y20557258D01*
%TO.C,R2*%
X55132500Y33257258D02*
X55132500Y32782742D01*
X54087500Y33257258D02*
X54087500Y32782742D01*
D11*
%TO.C,kibuzzard-67132771*%
G36*
X58049857Y34805408D02*
G01*
X58115665Y34749614D01*
X58138555Y34683805D01*
X58142847Y34602260D01*
X58142847Y33294678D01*
X58138555Y33213133D01*
X58115665Y33148755D01*
X58048426Y33094392D01*
X57922532Y33077225D01*
X57796638Y33094392D01*
X57729399Y33150186D01*
X57706509Y33215994D01*
X57702217Y33297539D01*
X57702217Y33692389D01*
X56391774Y33692389D01*
X56295923Y33696681D01*
X56220100Y33723863D01*
X56157153Y33803977D01*
X56137124Y33952761D01*
X56157153Y34100114D01*
X56221531Y34177368D01*
X56298784Y34203119D01*
X56394635Y34207411D01*
X57702217Y34207411D01*
X57702217Y34605122D01*
X57706509Y34686667D01*
X57729399Y34751044D01*
X57796638Y34805408D01*
X57925393Y34822575D01*
X58049857Y34805408D01*
G37*
G36*
X57981187Y32948469D02*
G01*
X58057010Y32919857D01*
X58118526Y32841173D01*
X58137124Y32690959D01*
X58119957Y32560773D01*
X58084192Y32487811D01*
X58025536Y32436309D01*
X57064163Y31721001D01*
X57885336Y31721001D01*
X57979757Y31715279D01*
X58055579Y31686667D01*
X58117096Y31606552D01*
X58137124Y31457768D01*
X58117096Y31308984D01*
X58051288Y31228870D01*
X57972604Y31201688D01*
X57873891Y31197396D01*
X56397496Y31197396D01*
X56298784Y31201688D01*
X56221531Y31228870D01*
X56157153Y31308984D01*
X56137124Y31460629D01*
X56152861Y31607983D01*
X56214378Y31692389D01*
X57192918Y32433448D01*
X56397496Y32433448D01*
X56298784Y32437740D01*
X56221531Y32464921D01*
X56157153Y32545036D01*
X56137124Y32696681D01*
X56157153Y32844034D01*
X56221531Y32921288D01*
X56300215Y32948469D01*
X56400358Y32954192D01*
X57885336Y32954192D01*
X57981187Y32948469D01*
G37*
G36*
X57978326Y36517854D02*
G01*
X58057010Y36490672D01*
X58122818Y36410558D01*
X58142847Y36258913D01*
X58142847Y35589385D01*
X58122659Y35428202D01*
X58062097Y35284187D01*
X57961159Y35157339D01*
X57832562Y35058786D01*
X57689024Y34999653D01*
X57530544Y34979943D01*
X57363162Y35003548D01*
X57210086Y35074363D01*
X57009084Y34960629D01*
X56789485Y34922718D01*
X56617493Y34945131D01*
X56463941Y35008555D01*
X56328827Y35112990D01*
X56223915Y35246037D01*
X56160968Y35395298D01*
X56139986Y35560773D01*
X56139986Y35589385D01*
X56663591Y35589385D01*
X56666452Y35549328D01*
X56682189Y35504979D01*
X56730830Y35462060D01*
X56820959Y35446323D01*
X56939700Y35483519D01*
X56966881Y35603691D01*
X56966881Y35640887D01*
X57016953Y35803977D01*
X57187196Y35852618D01*
X57351717Y35801116D01*
X57398927Y35626581D01*
X57398927Y35592246D01*
X57418956Y35523577D01*
X57507654Y35503548D01*
X57596352Y35533591D01*
X57619242Y35652332D01*
X57619242Y35998541D01*
X56663591Y35998541D01*
X56663591Y35589385D01*
X56139986Y35589385D01*
X56139986Y35998541D01*
X56139986Y36261774D01*
X56160014Y36410558D01*
X56225823Y36490672D01*
X56305937Y36517854D01*
X56406080Y36522146D01*
X57882475Y36522146D01*
X57978326Y36517854D01*
G37*
G36*
X57610340Y31054335D02*
G01*
X57781060Y30985665D01*
X57939700Y30871216D01*
X58066865Y30719889D01*
X58143165Y30540585D01*
X58168598Y30333305D01*
X58144119Y30135880D01*
X58070680Y29959437D01*
X57948283Y29803977D01*
X57790916Y29683170D01*
X57612566Y29610685D01*
X57413233Y29586524D01*
X57268741Y29600472D01*
X57132833Y29642318D01*
X57011230Y29707053D01*
X56909657Y29789671D01*
X56759442Y29964206D01*
X56657868Y30135880D01*
X56657868Y29778226D01*
X56652146Y29679514D01*
X56623534Y29602260D01*
X56543419Y29537883D01*
X56391774Y29517854D01*
X56244421Y29537883D01*
X56165737Y29603691D01*
X56137124Y29685236D01*
X56131402Y29783948D01*
X56131402Y30816853D01*
X56210086Y30999971D01*
X56397496Y31077225D01*
X56542704Y31051474D01*
X56675036Y30974220D01*
X56776967Y30874793D01*
X56882475Y30736738D01*
X56980830Y30585808D01*
X57061302Y30447754D01*
X57141416Y30323648D01*
X57238698Y30214564D01*
X57345994Y30138383D01*
X57456152Y30112990D01*
X57531974Y30123004D01*
X57606366Y30185951D01*
X57644993Y30330443D01*
X57585622Y30497825D01*
X57407511Y30553619D01*
X57315951Y30557911D01*
X57242990Y30585093D01*
X57182904Y30665207D01*
X57164306Y30816853D01*
X57184335Y30965637D01*
X57250143Y31045751D01*
X57328827Y31072933D01*
X57427539Y31077225D01*
X57610340Y31054335D01*
G37*
%TD*%
M02*
